M48
;GenerationSoftware,Autodesk,EAGLE,9.1.3*%
;CreationDate,2018-09-13T16:40:21Z*%
FMAT,2
ICI,OFF
METRIC,TZ,000.000
T6C0.300
T5C1.200
T4C1.700
T3C3.000
T2C4.000
%
G90
M71
T2
X66675Y108544
X66675Y32344
X66675Y51394
X47625Y29862
X47625Y67963
X85725Y106062
X28575Y25400
X47625Y106062
X28575Y63500
X85725Y48912
X104775Y104081
X9525Y25400
X7144Y101600
X7144Y63500
X144196Y31032
X85725Y87013
X104775Y46931
X104775Y85031
X127762Y40608
X123825Y70453
X115570Y19717
X7144Y44450
X66675Y89494
X47625Y87013
X132207Y10192
X28575Y44450
X104775Y65981
X28575Y82550
X28575Y101600
X7144Y82550
X85725Y67963
X66675Y70444
X47625Y48912
X92065Y26686
X123825Y94656
T3
X64135Y65364
X127635Y67913
X45085Y62882
X102235Y60901
X108585Y63441
X121285Y65373
X51435Y65422
X4604Y96520
X32385Y60960
X10954Y60960
X4604Y58420
X83185Y62882
X89535Y65422
X26035Y58420
X108585Y101541
X70485Y86954
X45085Y81933
X51435Y84473
X26035Y77470
X32385Y80010
X4604Y77470
X10954Y80010
X121285Y89576
X127635Y92116
X26035Y96520
X32385Y99060
X102235Y99001
X102235Y79951
X83185Y100982
X89535Y103522
X45085Y100982
X51435Y103522
X64135Y103464
X70485Y106004
X70485Y67904
X10954Y99060
X64135Y84414
X89535Y84473
X83185Y81933
X108585Y82491
X51435Y27322
X89535Y46372
X83185Y43832
X123022Y37479
X64135Y27264
X64135Y46314
X95088Y23246
X70485Y29804
X70485Y48854
X26035Y20320
X88297Y22436
X129792Y36504
X146225Y26928
X45085Y43832
X51435Y46372
X139456Y27903
X117600Y15612
X110830Y16587
X32385Y22860
X26035Y39370
X108585Y44391
X102235Y41851
X32385Y41910
X13335Y22860
X134237Y6087
X127467Y7062
X6985Y20320
X4604Y39370
X10954Y41910
X45085Y24782
T4
X90805Y106062
X109855Y104081
X99695Y104081
X52705Y29862
X42545Y29862
X118745Y94656
X80645Y106062
X33655Y25400
X23495Y25400
X52705Y106062
X111171Y22257
X71755Y89494
X61595Y89494
X136606Y7652
X52705Y87013
X42545Y87013
X127808Y12732
X33655Y82550
X23495Y82550
X119969Y17177
X61595Y32344
X12224Y82550
X2064Y82550
X96972Y25371
X87159Y28001
X128905Y94656
X12224Y44450
X71755Y32344
X33655Y101600
X23495Y101600
X61595Y70444
X90805Y48912
X80645Y48912
X23495Y63500
X33655Y63500
X71755Y51394
X61595Y51394
X42545Y67963
X52705Y67963
X52705Y48912
X14605Y25400
X71755Y70444
X42545Y48912
X80645Y67963
X90805Y67963
X33655Y44450
X23495Y44450
X99695Y65981
X109855Y65981
X2064Y44450
X2064Y63500
X42545Y106062
X71755Y108544
X61595Y108544
X4445Y25400
X12224Y101600
X2064Y101600
X148595Y28492
X139796Y33572
X80645Y87013
X90805Y87013
X132161Y38068
X123363Y43148
X99695Y85031
X109855Y85031
X109855Y46931
X118745Y70453
X128905Y70453
X99695Y46931
X12224Y63500
T5
X117400Y115100
X117400Y108100
T6
X112400Y91600
X74300Y99400
X98777Y34575
X93352Y42425
X93350Y56550
X93350Y59250
X93350Y93950
X93350Y96450
X93350Y73150
X93350Y75750
X116350Y30400
X116350Y33600
X112400Y72700
X112400Y75700
X112400Y54500
X112400Y57100
X74300Y96600
X112400Y94300
X24300Y114700
X-1000Y104600
X25000Y115700
X-1700Y103800
X19900Y111800
X20000Y107000
X29100Y112350
X11067Y112633
X28600Y108991
X30000Y118165
X33700Y108600
X4000Y100000
X25300Y100300
X36200Y96775
X14800Y33000
X14800Y35600
X14769Y69989
X14769Y72894
X14769Y51181
X14769Y53669
X14769Y89869
X14769Y92569
X36200Y37500
X36200Y40100
X36200Y56575
X36200Y59100
X36200Y74525
X36200Y77650
X36200Y94225
X44400Y104600
X55250Y43050
X55250Y40450
X55250Y58850
X55250Y61375
X55250Y77400
X55250Y79925
X55250Y96650
X55250Y99150
X74300Y40400
X74300Y43000
X74300Y58700
X74300Y61400
X74300Y77200
X74300Y80200
X120600Y98836
X124400Y41100
X24230Y109190
X18750Y106640
X11040Y109960
X15480Y109450
X11050Y114330
X20270Y113270
X28090Y113690
X30020Y110190
X132300Y90100
X149300Y23000
X63500Y50000
X5500Y108500
X15494Y113100
X82700Y110200
X140800Y31400
X31700Y88500
X69800Y95500
X107900Y91000
X3800Y67700
X44400Y72100
X82500Y72200
X10400Y50400
X51000Y54900
X88700Y54900
X127300Y45500
X6300Y29600
X44500Y34000
X90500Y31500
X131600Y15400
X63400Y69000
X63500Y106900
X82600Y104600
X101500Y102500
X120600Y93200
X4000Y81000
X25300Y81200
X44600Y85700
X63400Y88200
X82600Y85600
X101600Y83600
X120600Y68900
X3900Y62000
X25300Y62100
X44500Y66700
X115600Y108125
X82500Y66600
X101600Y64600
X4000Y43000
X25500Y43100
X44500Y47700
X6400Y24100
X25400Y24000
X44500Y28700
X63500Y31000
X82700Y47600
X101500Y45700
X88700Y26300
X112100Y20200
X128800Y10600
M30