G04 EAGLE Gerber RS-274X export*
G75*
%MOMM*%
%FSLAX34Y34*%
%LPD*%
%AMOC8*
5,1,8,0,0,1.08239X$1,22.5*%
G01*
%ADD10C,0.000000*%
%ADD11C,0.127000*%
%ADD12C,0.076200*%


D10*
X77788Y1066800D02*
X65088Y1066800D01*
X71438Y1060450D02*
X71438Y1073150D01*
X660400Y1136238D02*
X673100Y1136238D01*
X666750Y1129888D02*
X666750Y1142588D01*
X482600Y1111425D02*
X469900Y1111425D01*
X476250Y1105075D02*
X476250Y1117775D01*
X850900Y1111425D02*
X863600Y1111425D01*
X857250Y1105075D02*
X857250Y1117775D01*
X1041400Y1091613D02*
X1054100Y1091613D01*
X1047750Y1085263D02*
X1047750Y1097963D01*
X292100Y1066800D02*
X279400Y1066800D01*
X285750Y1060450D02*
X285750Y1073150D01*
X1231900Y997363D02*
X1244600Y997363D01*
X1238250Y991013D02*
X1238250Y1003713D01*
X77788Y876300D02*
X65088Y876300D01*
X71438Y869950D02*
X71438Y882650D01*
X279400Y876300D02*
X292100Y876300D01*
X285750Y869950D02*
X285750Y882650D01*
X469900Y920925D02*
X482600Y920925D01*
X476250Y914575D02*
X476250Y927275D01*
X660400Y945738D02*
X673100Y945738D01*
X666750Y939388D02*
X666750Y952088D01*
X850900Y920925D02*
X863600Y920925D01*
X857250Y914575D02*
X857250Y927275D01*
X1041400Y901113D02*
X1054100Y901113D01*
X1047750Y894763D02*
X1047750Y907463D01*
X1231900Y755333D02*
X1244600Y755333D01*
X1238250Y748983D02*
X1238250Y761683D01*
X77788Y685800D02*
X65088Y685800D01*
X71438Y679450D02*
X71438Y692150D01*
X279400Y685800D02*
X292100Y685800D01*
X285750Y679450D02*
X285750Y692150D01*
X469900Y730425D02*
X482600Y730425D01*
X476250Y724075D02*
X476250Y736775D01*
X660400Y755238D02*
X673100Y755238D01*
X666750Y748888D02*
X666750Y761588D01*
X850900Y730425D02*
X863600Y730425D01*
X857250Y724075D02*
X857250Y736775D01*
X1041400Y710613D02*
X1054100Y710613D01*
X1047750Y704263D02*
X1047750Y716963D01*
X77788Y495300D02*
X65088Y495300D01*
X71438Y488950D02*
X71438Y501650D01*
X279400Y495300D02*
X292100Y495300D01*
X285750Y488950D02*
X285750Y501650D01*
X469900Y539925D02*
X482600Y539925D01*
X476250Y533575D02*
X476250Y546275D01*
X660400Y564738D02*
X673100Y564738D01*
X666750Y558388D02*
X666750Y571088D01*
X850900Y539925D02*
X863600Y539925D01*
X857250Y533575D02*
X857250Y546275D01*
X1041400Y520113D02*
X1054100Y520113D01*
X1047750Y513763D02*
X1047750Y526463D01*
X1297521Y453252D02*
X1308519Y446902D01*
X1306195Y455576D02*
X1299845Y444577D01*
X1461859Y357494D02*
X1472857Y351144D01*
X1470533Y359818D02*
X1464183Y348819D01*
X101600Y304800D02*
X88900Y304800D01*
X95250Y298450D02*
X95250Y311150D01*
X279400Y304800D02*
X292100Y304800D01*
X285750Y298450D02*
X285750Y311150D01*
X469900Y349425D02*
X482600Y349425D01*
X476250Y343075D02*
X476250Y355775D01*
X660400Y374238D02*
X673100Y374238D01*
X666750Y367888D02*
X666750Y380588D01*
X927669Y317571D02*
X939936Y314284D01*
X932159Y309794D02*
X935446Y322061D01*
X1175601Y244337D02*
X1186599Y237987D01*
X1184275Y246661D02*
X1177925Y235662D01*
X1341971Y149087D02*
X1352969Y142737D01*
X1350645Y151411D02*
X1344295Y140412D01*
D11*
X91434Y1047795D02*
X91434Y1050795D01*
X91434Y1047795D02*
X88434Y1047795D01*
X54434Y1047795D02*
X51434Y1047795D01*
X51434Y1050795D01*
X51434Y1082795D02*
X51434Y1085795D01*
X54434Y1085795D01*
X88434Y1085795D02*
X91434Y1085795D01*
X91434Y1082795D01*
D12*
X64846Y1093112D02*
X64846Y1100478D01*
X64028Y1093112D02*
X65665Y1093112D01*
X65665Y1100478D02*
X64028Y1100478D01*
X70266Y1093112D02*
X71903Y1093112D01*
X70266Y1093112D02*
X70188Y1093114D01*
X70110Y1093119D01*
X70033Y1093129D01*
X69956Y1093142D01*
X69880Y1093158D01*
X69805Y1093178D01*
X69731Y1093202D01*
X69658Y1093229D01*
X69586Y1093260D01*
X69516Y1093294D01*
X69448Y1093331D01*
X69381Y1093372D01*
X69316Y1093416D01*
X69254Y1093462D01*
X69194Y1093512D01*
X69136Y1093564D01*
X69081Y1093619D01*
X69029Y1093677D01*
X68979Y1093737D01*
X68933Y1093799D01*
X68889Y1093864D01*
X68848Y1093931D01*
X68811Y1093999D01*
X68777Y1094069D01*
X68746Y1094141D01*
X68719Y1094214D01*
X68695Y1094288D01*
X68675Y1094363D01*
X68659Y1094439D01*
X68646Y1094516D01*
X68636Y1094593D01*
X68631Y1094671D01*
X68629Y1094749D01*
X68629Y1098841D01*
X68631Y1098921D01*
X68637Y1099001D01*
X68647Y1099081D01*
X68660Y1099160D01*
X68678Y1099239D01*
X68699Y1099316D01*
X68725Y1099392D01*
X68754Y1099467D01*
X68786Y1099541D01*
X68822Y1099613D01*
X68862Y1099683D01*
X68905Y1099750D01*
X68951Y1099816D01*
X69001Y1099879D01*
X69053Y1099940D01*
X69108Y1099999D01*
X69167Y1100054D01*
X69227Y1100106D01*
X69291Y1100156D01*
X69357Y1100202D01*
X69424Y1100245D01*
X69494Y1100285D01*
X69566Y1100321D01*
X69640Y1100353D01*
X69714Y1100382D01*
X69791Y1100408D01*
X69868Y1100429D01*
X69947Y1100447D01*
X70026Y1100460D01*
X70106Y1100470D01*
X70186Y1100476D01*
X70266Y1100478D01*
X71903Y1100478D01*
X74748Y1098841D02*
X76795Y1100478D01*
X76795Y1093112D01*
X78841Y1093112D02*
X74748Y1093112D01*
D11*
X305750Y1050800D02*
X305750Y1047800D01*
X302750Y1047800D01*
X268750Y1047800D02*
X265750Y1047800D01*
X265750Y1050800D01*
X265750Y1082800D02*
X265750Y1085800D01*
X268750Y1085800D01*
X302750Y1085800D02*
X305750Y1085800D01*
X305750Y1082800D01*
D12*
X279162Y1093117D02*
X279162Y1100483D01*
X278344Y1093117D02*
X279981Y1093117D01*
X279981Y1100483D02*
X278344Y1100483D01*
X284582Y1093117D02*
X286219Y1093117D01*
X284582Y1093117D02*
X284504Y1093119D01*
X284426Y1093124D01*
X284349Y1093134D01*
X284272Y1093147D01*
X284196Y1093163D01*
X284121Y1093183D01*
X284047Y1093207D01*
X283974Y1093234D01*
X283902Y1093265D01*
X283832Y1093299D01*
X283764Y1093336D01*
X283697Y1093377D01*
X283632Y1093421D01*
X283570Y1093467D01*
X283510Y1093517D01*
X283452Y1093569D01*
X283397Y1093624D01*
X283345Y1093682D01*
X283295Y1093742D01*
X283249Y1093804D01*
X283205Y1093869D01*
X283164Y1093936D01*
X283127Y1094004D01*
X283093Y1094074D01*
X283062Y1094146D01*
X283035Y1094219D01*
X283011Y1094293D01*
X282991Y1094368D01*
X282975Y1094444D01*
X282962Y1094521D01*
X282952Y1094598D01*
X282947Y1094676D01*
X282945Y1094754D01*
X282945Y1098846D01*
X282947Y1098926D01*
X282953Y1099006D01*
X282963Y1099086D01*
X282976Y1099165D01*
X282994Y1099244D01*
X283015Y1099321D01*
X283041Y1099397D01*
X283070Y1099472D01*
X283102Y1099546D01*
X283138Y1099618D01*
X283178Y1099688D01*
X283221Y1099755D01*
X283267Y1099821D01*
X283317Y1099884D01*
X283369Y1099945D01*
X283424Y1100004D01*
X283483Y1100059D01*
X283543Y1100111D01*
X283607Y1100161D01*
X283673Y1100207D01*
X283740Y1100250D01*
X283810Y1100290D01*
X283882Y1100326D01*
X283956Y1100358D01*
X284030Y1100387D01*
X284107Y1100413D01*
X284184Y1100434D01*
X284263Y1100452D01*
X284342Y1100465D01*
X284422Y1100475D01*
X284502Y1100481D01*
X284582Y1100483D01*
X286219Y1100483D01*
X291315Y1100484D02*
X291400Y1100482D01*
X291485Y1100476D01*
X291569Y1100466D01*
X291653Y1100453D01*
X291737Y1100435D01*
X291819Y1100414D01*
X291900Y1100389D01*
X291980Y1100360D01*
X292059Y1100327D01*
X292136Y1100291D01*
X292211Y1100251D01*
X292285Y1100208D01*
X292356Y1100162D01*
X292425Y1100112D01*
X292492Y1100059D01*
X292556Y1100003D01*
X292617Y1099944D01*
X292676Y1099883D01*
X292732Y1099819D01*
X292785Y1099752D01*
X292835Y1099683D01*
X292881Y1099612D01*
X292924Y1099538D01*
X292964Y1099463D01*
X293000Y1099386D01*
X293033Y1099307D01*
X293062Y1099227D01*
X293087Y1099146D01*
X293108Y1099064D01*
X293126Y1098980D01*
X293139Y1098896D01*
X293149Y1098812D01*
X293155Y1098727D01*
X293157Y1098642D01*
X291315Y1100483D02*
X291219Y1100481D01*
X291123Y1100475D01*
X291028Y1100465D01*
X290933Y1100452D01*
X290838Y1100434D01*
X290745Y1100413D01*
X290652Y1100388D01*
X290561Y1100359D01*
X290470Y1100327D01*
X290381Y1100291D01*
X290294Y1100251D01*
X290208Y1100208D01*
X290124Y1100162D01*
X290042Y1100112D01*
X289962Y1100058D01*
X289885Y1100002D01*
X289810Y1099942D01*
X289737Y1099880D01*
X289667Y1099814D01*
X289599Y1099746D01*
X289534Y1099675D01*
X289473Y1099602D01*
X289414Y1099526D01*
X289358Y1099447D01*
X289306Y1099367D01*
X289257Y1099284D01*
X289211Y1099200D01*
X289169Y1099114D01*
X289131Y1099026D01*
X289096Y1098937D01*
X289064Y1098846D01*
X292542Y1097210D02*
X292602Y1097269D01*
X292659Y1097331D01*
X292714Y1097395D01*
X292765Y1097462D01*
X292814Y1097531D01*
X292860Y1097601D01*
X292903Y1097674D01*
X292943Y1097748D01*
X292979Y1097824D01*
X293012Y1097902D01*
X293042Y1097981D01*
X293069Y1098061D01*
X293092Y1098142D01*
X293111Y1098224D01*
X293127Y1098306D01*
X293140Y1098390D01*
X293149Y1098474D01*
X293154Y1098558D01*
X293156Y1098642D01*
X292543Y1097209D02*
X289064Y1093117D01*
X293156Y1093117D01*
D11*
X496250Y1092425D02*
X496250Y1095425D01*
X496250Y1092425D02*
X493250Y1092425D01*
X459250Y1092425D02*
X456250Y1092425D01*
X456250Y1095425D01*
X456250Y1127425D02*
X456250Y1130425D01*
X459250Y1130425D01*
X493250Y1130425D02*
X496250Y1130425D01*
X496250Y1127425D01*
D12*
X469662Y1137742D02*
X469662Y1145108D01*
X468844Y1137742D02*
X470481Y1137742D01*
X470481Y1145108D02*
X468844Y1145108D01*
X475082Y1137742D02*
X476719Y1137742D01*
X475082Y1137742D02*
X475004Y1137744D01*
X474926Y1137749D01*
X474849Y1137759D01*
X474772Y1137772D01*
X474696Y1137788D01*
X474621Y1137808D01*
X474547Y1137832D01*
X474474Y1137859D01*
X474402Y1137890D01*
X474332Y1137924D01*
X474264Y1137961D01*
X474197Y1138002D01*
X474132Y1138046D01*
X474070Y1138092D01*
X474010Y1138142D01*
X473952Y1138194D01*
X473897Y1138249D01*
X473845Y1138307D01*
X473795Y1138367D01*
X473749Y1138429D01*
X473705Y1138494D01*
X473664Y1138561D01*
X473627Y1138629D01*
X473593Y1138699D01*
X473562Y1138771D01*
X473535Y1138844D01*
X473511Y1138918D01*
X473491Y1138993D01*
X473475Y1139069D01*
X473462Y1139146D01*
X473452Y1139223D01*
X473447Y1139301D01*
X473445Y1139379D01*
X473445Y1143471D01*
X473447Y1143551D01*
X473453Y1143631D01*
X473463Y1143711D01*
X473476Y1143790D01*
X473494Y1143869D01*
X473515Y1143946D01*
X473541Y1144022D01*
X473570Y1144097D01*
X473602Y1144171D01*
X473638Y1144243D01*
X473678Y1144313D01*
X473721Y1144380D01*
X473767Y1144446D01*
X473817Y1144509D01*
X473869Y1144570D01*
X473924Y1144629D01*
X473983Y1144684D01*
X474043Y1144736D01*
X474107Y1144786D01*
X474173Y1144832D01*
X474240Y1144875D01*
X474310Y1144915D01*
X474382Y1144951D01*
X474456Y1144983D01*
X474530Y1145012D01*
X474607Y1145038D01*
X474684Y1145059D01*
X474763Y1145077D01*
X474842Y1145090D01*
X474922Y1145100D01*
X475002Y1145106D01*
X475082Y1145108D01*
X476719Y1145108D01*
X479564Y1137742D02*
X481610Y1137742D01*
X481699Y1137744D01*
X481788Y1137750D01*
X481877Y1137760D01*
X481965Y1137773D01*
X482053Y1137790D01*
X482140Y1137812D01*
X482225Y1137837D01*
X482310Y1137865D01*
X482393Y1137898D01*
X482475Y1137934D01*
X482555Y1137973D01*
X482633Y1138016D01*
X482709Y1138062D01*
X482784Y1138112D01*
X482856Y1138165D01*
X482925Y1138221D01*
X482992Y1138280D01*
X483057Y1138341D01*
X483118Y1138406D01*
X483177Y1138473D01*
X483233Y1138542D01*
X483286Y1138614D01*
X483336Y1138689D01*
X483382Y1138765D01*
X483425Y1138843D01*
X483464Y1138923D01*
X483500Y1139005D01*
X483533Y1139088D01*
X483561Y1139173D01*
X483586Y1139258D01*
X483608Y1139345D01*
X483625Y1139433D01*
X483638Y1139521D01*
X483648Y1139610D01*
X483654Y1139699D01*
X483656Y1139788D01*
X483654Y1139877D01*
X483648Y1139966D01*
X483638Y1140055D01*
X483625Y1140143D01*
X483608Y1140231D01*
X483586Y1140318D01*
X483561Y1140403D01*
X483533Y1140488D01*
X483500Y1140571D01*
X483464Y1140653D01*
X483425Y1140733D01*
X483382Y1140811D01*
X483336Y1140887D01*
X483286Y1140962D01*
X483233Y1141034D01*
X483177Y1141103D01*
X483118Y1141170D01*
X483057Y1141235D01*
X482992Y1141296D01*
X482925Y1141355D01*
X482856Y1141411D01*
X482784Y1141464D01*
X482709Y1141514D01*
X482633Y1141560D01*
X482555Y1141603D01*
X482475Y1141642D01*
X482393Y1141678D01*
X482310Y1141711D01*
X482225Y1141739D01*
X482140Y1141764D01*
X482053Y1141786D01*
X481965Y1141803D01*
X481877Y1141816D01*
X481788Y1141826D01*
X481699Y1141832D01*
X481610Y1141834D01*
X482019Y1145108D02*
X479564Y1145108D01*
X482019Y1145108D02*
X482098Y1145106D01*
X482177Y1145100D01*
X482256Y1145091D01*
X482334Y1145078D01*
X482411Y1145060D01*
X482487Y1145040D01*
X482562Y1145015D01*
X482636Y1144987D01*
X482709Y1144956D01*
X482780Y1144920D01*
X482849Y1144882D01*
X482916Y1144840D01*
X482981Y1144795D01*
X483044Y1144747D01*
X483105Y1144696D01*
X483162Y1144642D01*
X483218Y1144586D01*
X483270Y1144527D01*
X483320Y1144465D01*
X483366Y1144401D01*
X483410Y1144335D01*
X483450Y1144267D01*
X483486Y1144197D01*
X483520Y1144125D01*
X483550Y1144051D01*
X483576Y1143977D01*
X483599Y1143901D01*
X483617Y1143824D01*
X483633Y1143747D01*
X483644Y1143668D01*
X483652Y1143590D01*
X483656Y1143511D01*
X483656Y1143431D01*
X483652Y1143352D01*
X483644Y1143274D01*
X483633Y1143195D01*
X483617Y1143118D01*
X483599Y1143041D01*
X483576Y1142965D01*
X483550Y1142891D01*
X483520Y1142817D01*
X483486Y1142745D01*
X483450Y1142675D01*
X483410Y1142607D01*
X483366Y1142541D01*
X483320Y1142477D01*
X483270Y1142415D01*
X483218Y1142356D01*
X483162Y1142300D01*
X483105Y1142246D01*
X483044Y1142195D01*
X482981Y1142147D01*
X482916Y1142102D01*
X482849Y1142060D01*
X482780Y1142022D01*
X482709Y1141986D01*
X482636Y1141955D01*
X482562Y1141927D01*
X482487Y1141902D01*
X482411Y1141882D01*
X482334Y1141864D01*
X482256Y1141851D01*
X482177Y1141842D01*
X482098Y1141836D01*
X482019Y1141834D01*
X480383Y1141834D01*
D11*
X686750Y1120238D02*
X686750Y1117238D01*
X683750Y1117238D01*
X649750Y1117238D02*
X646750Y1117238D01*
X646750Y1120238D01*
X646750Y1152238D02*
X646750Y1155238D01*
X649750Y1155238D01*
X683750Y1155238D02*
X686750Y1155238D01*
X686750Y1152238D01*
D12*
X660162Y1162555D02*
X660162Y1169921D01*
X659344Y1162555D02*
X660981Y1162555D01*
X660981Y1169921D02*
X659344Y1169921D01*
X665582Y1162555D02*
X667219Y1162555D01*
X665582Y1162554D02*
X665504Y1162556D01*
X665426Y1162561D01*
X665349Y1162571D01*
X665272Y1162584D01*
X665196Y1162600D01*
X665121Y1162620D01*
X665047Y1162644D01*
X664974Y1162671D01*
X664902Y1162702D01*
X664832Y1162736D01*
X664764Y1162773D01*
X664697Y1162814D01*
X664632Y1162858D01*
X664570Y1162904D01*
X664510Y1162954D01*
X664452Y1163006D01*
X664397Y1163061D01*
X664345Y1163119D01*
X664295Y1163179D01*
X664249Y1163241D01*
X664205Y1163306D01*
X664164Y1163373D01*
X664127Y1163441D01*
X664093Y1163511D01*
X664062Y1163583D01*
X664035Y1163656D01*
X664011Y1163730D01*
X663991Y1163805D01*
X663975Y1163881D01*
X663962Y1163958D01*
X663952Y1164035D01*
X663947Y1164113D01*
X663945Y1164191D01*
X663945Y1168284D01*
X663947Y1168364D01*
X663953Y1168444D01*
X663963Y1168524D01*
X663976Y1168603D01*
X663994Y1168682D01*
X664015Y1168759D01*
X664041Y1168835D01*
X664070Y1168910D01*
X664102Y1168984D01*
X664138Y1169056D01*
X664178Y1169126D01*
X664221Y1169193D01*
X664267Y1169259D01*
X664317Y1169322D01*
X664369Y1169383D01*
X664424Y1169442D01*
X664483Y1169497D01*
X664543Y1169549D01*
X664607Y1169599D01*
X664673Y1169645D01*
X664740Y1169688D01*
X664810Y1169728D01*
X664882Y1169764D01*
X664956Y1169796D01*
X665030Y1169825D01*
X665107Y1169851D01*
X665184Y1169872D01*
X665263Y1169890D01*
X665342Y1169903D01*
X665422Y1169913D01*
X665502Y1169919D01*
X665582Y1169921D01*
X667219Y1169921D01*
X671701Y1169921D02*
X670064Y1164191D01*
X674156Y1164191D01*
X672929Y1165828D02*
X672929Y1162555D01*
D11*
X877250Y1095425D02*
X877250Y1092425D01*
X874250Y1092425D01*
X840250Y1092425D02*
X837250Y1092425D01*
X837250Y1095425D01*
X837250Y1127425D02*
X837250Y1130425D01*
X840250Y1130425D01*
X874250Y1130425D02*
X877250Y1130425D01*
X877250Y1127425D01*
D12*
X850662Y1137742D02*
X850662Y1145108D01*
X849844Y1137742D02*
X851481Y1137742D01*
X851481Y1145108D02*
X849844Y1145108D01*
X856082Y1137742D02*
X857719Y1137742D01*
X856082Y1137742D02*
X856004Y1137744D01*
X855926Y1137749D01*
X855849Y1137759D01*
X855772Y1137772D01*
X855696Y1137788D01*
X855621Y1137808D01*
X855547Y1137832D01*
X855474Y1137859D01*
X855402Y1137890D01*
X855332Y1137924D01*
X855264Y1137961D01*
X855197Y1138002D01*
X855132Y1138046D01*
X855070Y1138092D01*
X855010Y1138142D01*
X854952Y1138194D01*
X854897Y1138249D01*
X854845Y1138307D01*
X854795Y1138367D01*
X854749Y1138429D01*
X854705Y1138494D01*
X854664Y1138561D01*
X854627Y1138629D01*
X854593Y1138699D01*
X854562Y1138771D01*
X854535Y1138844D01*
X854511Y1138918D01*
X854491Y1138993D01*
X854475Y1139069D01*
X854462Y1139146D01*
X854452Y1139223D01*
X854447Y1139301D01*
X854445Y1139379D01*
X854445Y1143471D01*
X854447Y1143551D01*
X854453Y1143631D01*
X854463Y1143711D01*
X854476Y1143790D01*
X854494Y1143869D01*
X854515Y1143946D01*
X854541Y1144022D01*
X854570Y1144097D01*
X854602Y1144171D01*
X854638Y1144243D01*
X854678Y1144313D01*
X854721Y1144380D01*
X854767Y1144446D01*
X854817Y1144509D01*
X854869Y1144570D01*
X854924Y1144629D01*
X854983Y1144684D01*
X855043Y1144736D01*
X855107Y1144786D01*
X855173Y1144832D01*
X855240Y1144875D01*
X855310Y1144915D01*
X855382Y1144951D01*
X855456Y1144983D01*
X855530Y1145012D01*
X855607Y1145038D01*
X855684Y1145059D01*
X855763Y1145077D01*
X855842Y1145090D01*
X855922Y1145100D01*
X856002Y1145106D01*
X856082Y1145108D01*
X857719Y1145108D01*
X860564Y1137742D02*
X863019Y1137742D01*
X863097Y1137744D01*
X863175Y1137749D01*
X863252Y1137759D01*
X863329Y1137772D01*
X863405Y1137788D01*
X863480Y1137808D01*
X863554Y1137832D01*
X863627Y1137859D01*
X863699Y1137890D01*
X863769Y1137924D01*
X863838Y1137961D01*
X863904Y1138002D01*
X863969Y1138046D01*
X864031Y1138092D01*
X864091Y1138142D01*
X864149Y1138194D01*
X864204Y1138249D01*
X864256Y1138307D01*
X864306Y1138367D01*
X864352Y1138429D01*
X864396Y1138494D01*
X864437Y1138561D01*
X864474Y1138629D01*
X864508Y1138699D01*
X864539Y1138771D01*
X864566Y1138844D01*
X864590Y1138918D01*
X864610Y1138993D01*
X864626Y1139069D01*
X864639Y1139146D01*
X864649Y1139223D01*
X864654Y1139301D01*
X864656Y1139379D01*
X864656Y1140197D01*
X864654Y1140275D01*
X864649Y1140353D01*
X864639Y1140430D01*
X864626Y1140507D01*
X864610Y1140583D01*
X864590Y1140658D01*
X864566Y1140732D01*
X864539Y1140805D01*
X864508Y1140877D01*
X864474Y1140947D01*
X864437Y1141016D01*
X864396Y1141082D01*
X864352Y1141147D01*
X864306Y1141209D01*
X864256Y1141269D01*
X864204Y1141327D01*
X864149Y1141382D01*
X864091Y1141434D01*
X864031Y1141484D01*
X863969Y1141530D01*
X863904Y1141574D01*
X863838Y1141615D01*
X863769Y1141652D01*
X863699Y1141686D01*
X863627Y1141717D01*
X863554Y1141744D01*
X863480Y1141768D01*
X863405Y1141788D01*
X863329Y1141804D01*
X863252Y1141817D01*
X863175Y1141827D01*
X863097Y1141832D01*
X863019Y1141834D01*
X860564Y1141834D01*
X860564Y1145108D01*
X864656Y1145108D01*
D11*
X1067750Y1075613D02*
X1067750Y1072613D01*
X1064750Y1072613D01*
X1030750Y1072613D02*
X1027750Y1072613D01*
X1027750Y1075613D01*
X1027750Y1107613D02*
X1027750Y1110613D01*
X1030750Y1110613D01*
X1064750Y1110613D02*
X1067750Y1110613D01*
X1067750Y1107613D01*
D12*
X1041162Y1117930D02*
X1041162Y1125296D01*
X1040344Y1117930D02*
X1041981Y1117930D01*
X1041981Y1125296D02*
X1040344Y1125296D01*
X1046582Y1117930D02*
X1048219Y1117930D01*
X1046582Y1117929D02*
X1046504Y1117931D01*
X1046426Y1117936D01*
X1046349Y1117946D01*
X1046272Y1117959D01*
X1046196Y1117975D01*
X1046121Y1117995D01*
X1046047Y1118019D01*
X1045974Y1118046D01*
X1045902Y1118077D01*
X1045832Y1118111D01*
X1045764Y1118148D01*
X1045697Y1118189D01*
X1045632Y1118233D01*
X1045570Y1118279D01*
X1045510Y1118329D01*
X1045452Y1118381D01*
X1045397Y1118436D01*
X1045345Y1118494D01*
X1045295Y1118554D01*
X1045249Y1118616D01*
X1045205Y1118681D01*
X1045164Y1118748D01*
X1045127Y1118816D01*
X1045093Y1118886D01*
X1045062Y1118958D01*
X1045035Y1119031D01*
X1045011Y1119105D01*
X1044991Y1119180D01*
X1044975Y1119256D01*
X1044962Y1119333D01*
X1044952Y1119410D01*
X1044947Y1119488D01*
X1044945Y1119566D01*
X1044945Y1123659D01*
X1044947Y1123739D01*
X1044953Y1123819D01*
X1044963Y1123899D01*
X1044976Y1123978D01*
X1044994Y1124057D01*
X1045015Y1124134D01*
X1045041Y1124210D01*
X1045070Y1124285D01*
X1045102Y1124359D01*
X1045138Y1124431D01*
X1045178Y1124501D01*
X1045221Y1124568D01*
X1045267Y1124634D01*
X1045317Y1124697D01*
X1045369Y1124758D01*
X1045424Y1124817D01*
X1045483Y1124872D01*
X1045543Y1124924D01*
X1045607Y1124974D01*
X1045673Y1125020D01*
X1045740Y1125063D01*
X1045810Y1125103D01*
X1045882Y1125139D01*
X1045956Y1125171D01*
X1046030Y1125200D01*
X1046107Y1125226D01*
X1046184Y1125247D01*
X1046263Y1125265D01*
X1046342Y1125278D01*
X1046422Y1125288D01*
X1046502Y1125294D01*
X1046582Y1125296D01*
X1048219Y1125296D01*
X1051064Y1122022D02*
X1053519Y1122022D01*
X1053597Y1122020D01*
X1053675Y1122015D01*
X1053752Y1122005D01*
X1053829Y1121992D01*
X1053905Y1121976D01*
X1053980Y1121956D01*
X1054054Y1121932D01*
X1054127Y1121905D01*
X1054199Y1121874D01*
X1054269Y1121840D01*
X1054338Y1121803D01*
X1054404Y1121762D01*
X1054469Y1121718D01*
X1054531Y1121672D01*
X1054591Y1121622D01*
X1054649Y1121570D01*
X1054704Y1121515D01*
X1054756Y1121457D01*
X1054806Y1121397D01*
X1054852Y1121335D01*
X1054896Y1121270D01*
X1054937Y1121204D01*
X1054974Y1121135D01*
X1055008Y1121065D01*
X1055039Y1120993D01*
X1055066Y1120920D01*
X1055090Y1120846D01*
X1055110Y1120771D01*
X1055126Y1120695D01*
X1055139Y1120618D01*
X1055149Y1120541D01*
X1055154Y1120463D01*
X1055156Y1120385D01*
X1055156Y1119976D01*
X1055154Y1119887D01*
X1055148Y1119798D01*
X1055138Y1119709D01*
X1055125Y1119621D01*
X1055108Y1119533D01*
X1055086Y1119446D01*
X1055061Y1119361D01*
X1055033Y1119276D01*
X1055000Y1119193D01*
X1054964Y1119111D01*
X1054925Y1119031D01*
X1054882Y1118953D01*
X1054836Y1118877D01*
X1054786Y1118802D01*
X1054733Y1118730D01*
X1054677Y1118661D01*
X1054618Y1118594D01*
X1054557Y1118529D01*
X1054492Y1118468D01*
X1054425Y1118409D01*
X1054356Y1118353D01*
X1054284Y1118300D01*
X1054209Y1118250D01*
X1054133Y1118204D01*
X1054055Y1118161D01*
X1053975Y1118122D01*
X1053893Y1118086D01*
X1053810Y1118053D01*
X1053725Y1118025D01*
X1053640Y1118000D01*
X1053553Y1117978D01*
X1053465Y1117961D01*
X1053377Y1117948D01*
X1053288Y1117938D01*
X1053199Y1117932D01*
X1053110Y1117930D01*
X1053021Y1117932D01*
X1052932Y1117938D01*
X1052843Y1117948D01*
X1052755Y1117961D01*
X1052667Y1117978D01*
X1052580Y1118000D01*
X1052495Y1118025D01*
X1052410Y1118053D01*
X1052327Y1118086D01*
X1052245Y1118122D01*
X1052165Y1118161D01*
X1052087Y1118204D01*
X1052011Y1118250D01*
X1051936Y1118300D01*
X1051864Y1118353D01*
X1051795Y1118409D01*
X1051728Y1118468D01*
X1051663Y1118529D01*
X1051602Y1118594D01*
X1051543Y1118661D01*
X1051487Y1118730D01*
X1051434Y1118802D01*
X1051384Y1118877D01*
X1051338Y1118953D01*
X1051295Y1119031D01*
X1051256Y1119111D01*
X1051220Y1119193D01*
X1051187Y1119276D01*
X1051159Y1119361D01*
X1051134Y1119446D01*
X1051112Y1119533D01*
X1051095Y1119621D01*
X1051082Y1119709D01*
X1051072Y1119798D01*
X1051066Y1119887D01*
X1051064Y1119976D01*
X1051064Y1122022D01*
X1051066Y1122136D01*
X1051072Y1122250D01*
X1051082Y1122364D01*
X1051096Y1122478D01*
X1051114Y1122591D01*
X1051136Y1122703D01*
X1051161Y1122814D01*
X1051191Y1122924D01*
X1051224Y1123034D01*
X1051261Y1123142D01*
X1051302Y1123248D01*
X1051347Y1123354D01*
X1051395Y1123457D01*
X1051447Y1123559D01*
X1051503Y1123659D01*
X1051561Y1123757D01*
X1051624Y1123853D01*
X1051689Y1123946D01*
X1051758Y1124038D01*
X1051830Y1124126D01*
X1051905Y1124213D01*
X1051983Y1124296D01*
X1052064Y1124377D01*
X1052147Y1124455D01*
X1052234Y1124530D01*
X1052322Y1124602D01*
X1052414Y1124671D01*
X1052507Y1124736D01*
X1052603Y1124798D01*
X1052701Y1124857D01*
X1052801Y1124913D01*
X1052903Y1124965D01*
X1053006Y1125013D01*
X1053112Y1125058D01*
X1053218Y1125099D01*
X1053326Y1125136D01*
X1053436Y1125169D01*
X1053546Y1125199D01*
X1053657Y1125224D01*
X1053769Y1125246D01*
X1053882Y1125264D01*
X1053996Y1125278D01*
X1054110Y1125288D01*
X1054224Y1125294D01*
X1054338Y1125296D01*
D11*
X1258250Y981363D02*
X1258250Y978363D01*
X1255250Y978363D01*
X1221250Y978363D02*
X1218250Y978363D01*
X1218250Y981363D01*
X1218250Y1013363D02*
X1218250Y1016363D01*
X1221250Y1016363D01*
X1255250Y1016363D02*
X1258250Y1016363D01*
X1258250Y1013363D01*
D12*
X1231662Y1023680D02*
X1231662Y1031046D01*
X1230844Y1023680D02*
X1232481Y1023680D01*
X1232481Y1031046D02*
X1230844Y1031046D01*
X1237082Y1023680D02*
X1238719Y1023680D01*
X1237082Y1023679D02*
X1237004Y1023681D01*
X1236926Y1023686D01*
X1236849Y1023696D01*
X1236772Y1023709D01*
X1236696Y1023725D01*
X1236621Y1023745D01*
X1236547Y1023769D01*
X1236474Y1023796D01*
X1236402Y1023827D01*
X1236332Y1023861D01*
X1236264Y1023898D01*
X1236197Y1023939D01*
X1236132Y1023983D01*
X1236070Y1024029D01*
X1236010Y1024079D01*
X1235952Y1024131D01*
X1235897Y1024186D01*
X1235845Y1024244D01*
X1235795Y1024304D01*
X1235749Y1024366D01*
X1235705Y1024431D01*
X1235664Y1024498D01*
X1235627Y1024566D01*
X1235593Y1024636D01*
X1235562Y1024708D01*
X1235535Y1024781D01*
X1235511Y1024855D01*
X1235491Y1024930D01*
X1235475Y1025006D01*
X1235462Y1025083D01*
X1235452Y1025160D01*
X1235447Y1025238D01*
X1235445Y1025316D01*
X1235445Y1029409D01*
X1235447Y1029489D01*
X1235453Y1029569D01*
X1235463Y1029649D01*
X1235476Y1029728D01*
X1235494Y1029807D01*
X1235515Y1029884D01*
X1235541Y1029960D01*
X1235570Y1030035D01*
X1235602Y1030109D01*
X1235638Y1030181D01*
X1235678Y1030251D01*
X1235721Y1030318D01*
X1235767Y1030384D01*
X1235817Y1030447D01*
X1235869Y1030508D01*
X1235924Y1030567D01*
X1235983Y1030622D01*
X1236043Y1030674D01*
X1236107Y1030724D01*
X1236173Y1030770D01*
X1236240Y1030813D01*
X1236310Y1030853D01*
X1236382Y1030889D01*
X1236456Y1030921D01*
X1236530Y1030950D01*
X1236607Y1030976D01*
X1236684Y1030997D01*
X1236763Y1031015D01*
X1236842Y1031028D01*
X1236922Y1031038D01*
X1237002Y1031044D01*
X1237082Y1031046D01*
X1238719Y1031046D01*
X1241564Y1031046D02*
X1241564Y1030227D01*
X1241564Y1031046D02*
X1245656Y1031046D01*
X1243610Y1023680D01*
X1231662Y789016D02*
X1231662Y781650D01*
X1230844Y781650D02*
X1232481Y781650D01*
X1232481Y789016D02*
X1230844Y789016D01*
X1237082Y781650D02*
X1238719Y781650D01*
X1237082Y781649D02*
X1237004Y781651D01*
X1236926Y781656D01*
X1236849Y781666D01*
X1236772Y781679D01*
X1236696Y781695D01*
X1236621Y781715D01*
X1236547Y781739D01*
X1236474Y781766D01*
X1236402Y781797D01*
X1236332Y781831D01*
X1236264Y781868D01*
X1236197Y781909D01*
X1236132Y781953D01*
X1236070Y781999D01*
X1236010Y782049D01*
X1235952Y782101D01*
X1235897Y782156D01*
X1235845Y782214D01*
X1235795Y782274D01*
X1235749Y782336D01*
X1235705Y782401D01*
X1235664Y782468D01*
X1235627Y782536D01*
X1235593Y782606D01*
X1235562Y782678D01*
X1235535Y782751D01*
X1235511Y782825D01*
X1235491Y782900D01*
X1235475Y782976D01*
X1235462Y783053D01*
X1235452Y783130D01*
X1235447Y783208D01*
X1235445Y783286D01*
X1235445Y787379D01*
X1235447Y787459D01*
X1235453Y787539D01*
X1235463Y787619D01*
X1235476Y787698D01*
X1235494Y787777D01*
X1235515Y787854D01*
X1235541Y787930D01*
X1235570Y788005D01*
X1235602Y788079D01*
X1235638Y788151D01*
X1235678Y788221D01*
X1235721Y788288D01*
X1235767Y788354D01*
X1235817Y788417D01*
X1235869Y788478D01*
X1235924Y788537D01*
X1235983Y788592D01*
X1236043Y788644D01*
X1236107Y788694D01*
X1236173Y788740D01*
X1236240Y788783D01*
X1236310Y788823D01*
X1236382Y788859D01*
X1236456Y788891D01*
X1236530Y788920D01*
X1236607Y788946D01*
X1236684Y788967D01*
X1236763Y788985D01*
X1236842Y788998D01*
X1236922Y789008D01*
X1237002Y789014D01*
X1237082Y789016D01*
X1238719Y789016D01*
X1241564Y783696D02*
X1241566Y783785D01*
X1241572Y783874D01*
X1241582Y783963D01*
X1241595Y784051D01*
X1241612Y784139D01*
X1241634Y784226D01*
X1241659Y784311D01*
X1241687Y784396D01*
X1241720Y784479D01*
X1241756Y784561D01*
X1241795Y784641D01*
X1241838Y784719D01*
X1241884Y784795D01*
X1241934Y784870D01*
X1241987Y784942D01*
X1242043Y785011D01*
X1242102Y785078D01*
X1242163Y785143D01*
X1242228Y785204D01*
X1242295Y785263D01*
X1242364Y785319D01*
X1242436Y785372D01*
X1242511Y785422D01*
X1242587Y785468D01*
X1242665Y785511D01*
X1242745Y785550D01*
X1242827Y785586D01*
X1242910Y785619D01*
X1242995Y785647D01*
X1243080Y785672D01*
X1243167Y785694D01*
X1243255Y785711D01*
X1243343Y785724D01*
X1243432Y785734D01*
X1243521Y785740D01*
X1243610Y785742D01*
X1243699Y785740D01*
X1243788Y785734D01*
X1243877Y785724D01*
X1243965Y785711D01*
X1244053Y785694D01*
X1244140Y785672D01*
X1244225Y785647D01*
X1244310Y785619D01*
X1244393Y785586D01*
X1244475Y785550D01*
X1244555Y785511D01*
X1244633Y785468D01*
X1244709Y785422D01*
X1244784Y785372D01*
X1244856Y785319D01*
X1244925Y785263D01*
X1244992Y785204D01*
X1245057Y785143D01*
X1245118Y785078D01*
X1245177Y785011D01*
X1245233Y784942D01*
X1245286Y784870D01*
X1245336Y784795D01*
X1245382Y784719D01*
X1245425Y784641D01*
X1245464Y784561D01*
X1245500Y784479D01*
X1245533Y784396D01*
X1245561Y784311D01*
X1245586Y784226D01*
X1245608Y784139D01*
X1245625Y784051D01*
X1245638Y783963D01*
X1245648Y783874D01*
X1245654Y783785D01*
X1245656Y783696D01*
X1245654Y783607D01*
X1245648Y783518D01*
X1245638Y783429D01*
X1245625Y783341D01*
X1245608Y783253D01*
X1245586Y783166D01*
X1245561Y783081D01*
X1245533Y782996D01*
X1245500Y782913D01*
X1245464Y782831D01*
X1245425Y782751D01*
X1245382Y782673D01*
X1245336Y782597D01*
X1245286Y782522D01*
X1245233Y782450D01*
X1245177Y782381D01*
X1245118Y782314D01*
X1245057Y782249D01*
X1244992Y782188D01*
X1244925Y782129D01*
X1244856Y782073D01*
X1244784Y782020D01*
X1244709Y781970D01*
X1244633Y781924D01*
X1244555Y781881D01*
X1244475Y781842D01*
X1244393Y781806D01*
X1244310Y781773D01*
X1244225Y781745D01*
X1244140Y781720D01*
X1244053Y781698D01*
X1243965Y781681D01*
X1243877Y781668D01*
X1243788Y781658D01*
X1243699Y781652D01*
X1243610Y781650D01*
X1243521Y781652D01*
X1243432Y781658D01*
X1243343Y781668D01*
X1243255Y781681D01*
X1243167Y781698D01*
X1243080Y781720D01*
X1242995Y781745D01*
X1242910Y781773D01*
X1242827Y781806D01*
X1242745Y781842D01*
X1242665Y781881D01*
X1242587Y781924D01*
X1242511Y781970D01*
X1242436Y782020D01*
X1242364Y782073D01*
X1242295Y782129D01*
X1242228Y782188D01*
X1242163Y782249D01*
X1242102Y782314D01*
X1242043Y782381D01*
X1241987Y782450D01*
X1241934Y782522D01*
X1241884Y782597D01*
X1241838Y782673D01*
X1241795Y782751D01*
X1241756Y782831D01*
X1241720Y782913D01*
X1241687Y782996D01*
X1241659Y783081D01*
X1241634Y783166D01*
X1241612Y783253D01*
X1241595Y783341D01*
X1241582Y783429D01*
X1241572Y783518D01*
X1241566Y783607D01*
X1241564Y783696D01*
X1241973Y787379D02*
X1241975Y787458D01*
X1241981Y787537D01*
X1241990Y787616D01*
X1242003Y787694D01*
X1242021Y787771D01*
X1242041Y787847D01*
X1242066Y787922D01*
X1242094Y787996D01*
X1242125Y788069D01*
X1242161Y788140D01*
X1242199Y788209D01*
X1242241Y788276D01*
X1242286Y788341D01*
X1242334Y788404D01*
X1242385Y788465D01*
X1242439Y788522D01*
X1242495Y788578D01*
X1242554Y788630D01*
X1242616Y788680D01*
X1242680Y788726D01*
X1242746Y788770D01*
X1242814Y788810D01*
X1242884Y788846D01*
X1242956Y788880D01*
X1243030Y788910D01*
X1243104Y788936D01*
X1243180Y788959D01*
X1243257Y788977D01*
X1243334Y788993D01*
X1243413Y789004D01*
X1243491Y789012D01*
X1243570Y789016D01*
X1243650Y789016D01*
X1243729Y789012D01*
X1243807Y789004D01*
X1243886Y788993D01*
X1243963Y788977D01*
X1244040Y788959D01*
X1244116Y788936D01*
X1244190Y788910D01*
X1244264Y788880D01*
X1244336Y788846D01*
X1244406Y788810D01*
X1244474Y788770D01*
X1244540Y788726D01*
X1244604Y788680D01*
X1244666Y788630D01*
X1244725Y788578D01*
X1244781Y788522D01*
X1244835Y788465D01*
X1244886Y788404D01*
X1244934Y788341D01*
X1244979Y788276D01*
X1245021Y788209D01*
X1245059Y788140D01*
X1245095Y788069D01*
X1245126Y787996D01*
X1245154Y787922D01*
X1245179Y787847D01*
X1245199Y787771D01*
X1245217Y787694D01*
X1245230Y787616D01*
X1245239Y787537D01*
X1245245Y787458D01*
X1245247Y787379D01*
X1245245Y787300D01*
X1245239Y787221D01*
X1245230Y787142D01*
X1245217Y787064D01*
X1245199Y786987D01*
X1245179Y786911D01*
X1245154Y786836D01*
X1245126Y786762D01*
X1245095Y786689D01*
X1245059Y786618D01*
X1245021Y786549D01*
X1244979Y786482D01*
X1244934Y786417D01*
X1244886Y786354D01*
X1244835Y786293D01*
X1244781Y786236D01*
X1244725Y786180D01*
X1244666Y786128D01*
X1244604Y786078D01*
X1244540Y786032D01*
X1244474Y785988D01*
X1244406Y785948D01*
X1244336Y785912D01*
X1244264Y785878D01*
X1244190Y785848D01*
X1244116Y785822D01*
X1244040Y785799D01*
X1243963Y785781D01*
X1243886Y785765D01*
X1243807Y785754D01*
X1243729Y785746D01*
X1243650Y785742D01*
X1243570Y785742D01*
X1243491Y785746D01*
X1243413Y785754D01*
X1243334Y785765D01*
X1243257Y785781D01*
X1243180Y785799D01*
X1243104Y785822D01*
X1243030Y785848D01*
X1242956Y785878D01*
X1242884Y785912D01*
X1242814Y785948D01*
X1242746Y785988D01*
X1242680Y786032D01*
X1242616Y786078D01*
X1242554Y786128D01*
X1242495Y786180D01*
X1242439Y786236D01*
X1242385Y786293D01*
X1242334Y786354D01*
X1242286Y786417D01*
X1242241Y786482D01*
X1242199Y786549D01*
X1242161Y786618D01*
X1242125Y786689D01*
X1242094Y786762D01*
X1242066Y786836D01*
X1242041Y786911D01*
X1242021Y786987D01*
X1242003Y787064D01*
X1241990Y787142D01*
X1241981Y787221D01*
X1241975Y787300D01*
X1241973Y787379D01*
D11*
X1218250Y774333D02*
X1218250Y771333D01*
X1218250Y774333D02*
X1221250Y774333D01*
X1255250Y774333D02*
X1258250Y774333D01*
X1258250Y771333D01*
X1258250Y739333D02*
X1258250Y736333D01*
X1255250Y736333D01*
X1221250Y736333D02*
X1218250Y736333D01*
X1218250Y739333D01*
D12*
X1041162Y927430D02*
X1041162Y934796D01*
X1040344Y927430D02*
X1041981Y927430D01*
X1041981Y934796D02*
X1040344Y934796D01*
X1046582Y927430D02*
X1048219Y927430D01*
X1046582Y927429D02*
X1046504Y927431D01*
X1046426Y927436D01*
X1046349Y927446D01*
X1046272Y927459D01*
X1046196Y927475D01*
X1046121Y927495D01*
X1046047Y927519D01*
X1045974Y927546D01*
X1045902Y927577D01*
X1045832Y927611D01*
X1045764Y927648D01*
X1045697Y927689D01*
X1045632Y927733D01*
X1045570Y927779D01*
X1045510Y927829D01*
X1045452Y927881D01*
X1045397Y927936D01*
X1045345Y927994D01*
X1045295Y928054D01*
X1045249Y928116D01*
X1045205Y928181D01*
X1045164Y928248D01*
X1045127Y928316D01*
X1045093Y928386D01*
X1045062Y928458D01*
X1045035Y928531D01*
X1045011Y928605D01*
X1044991Y928680D01*
X1044975Y928756D01*
X1044962Y928833D01*
X1044952Y928910D01*
X1044947Y928988D01*
X1044945Y929066D01*
X1044945Y933159D01*
X1044947Y933239D01*
X1044953Y933319D01*
X1044963Y933399D01*
X1044976Y933478D01*
X1044994Y933557D01*
X1045015Y933634D01*
X1045041Y933710D01*
X1045070Y933785D01*
X1045102Y933859D01*
X1045138Y933931D01*
X1045178Y934001D01*
X1045221Y934068D01*
X1045267Y934134D01*
X1045317Y934197D01*
X1045369Y934258D01*
X1045424Y934317D01*
X1045483Y934372D01*
X1045543Y934424D01*
X1045607Y934474D01*
X1045673Y934520D01*
X1045740Y934563D01*
X1045810Y934603D01*
X1045882Y934639D01*
X1045956Y934671D01*
X1046030Y934700D01*
X1046107Y934726D01*
X1046184Y934747D01*
X1046263Y934765D01*
X1046342Y934778D01*
X1046422Y934788D01*
X1046502Y934794D01*
X1046582Y934796D01*
X1048219Y934796D01*
X1052701Y930703D02*
X1055156Y930703D01*
X1052701Y930703D02*
X1052623Y930705D01*
X1052545Y930710D01*
X1052468Y930720D01*
X1052391Y930733D01*
X1052315Y930749D01*
X1052240Y930769D01*
X1052166Y930793D01*
X1052093Y930820D01*
X1052021Y930851D01*
X1051951Y930885D01*
X1051882Y930922D01*
X1051816Y930963D01*
X1051751Y931007D01*
X1051689Y931053D01*
X1051629Y931103D01*
X1051571Y931155D01*
X1051516Y931210D01*
X1051464Y931268D01*
X1051414Y931328D01*
X1051368Y931390D01*
X1051324Y931455D01*
X1051283Y931522D01*
X1051246Y931590D01*
X1051212Y931660D01*
X1051181Y931732D01*
X1051154Y931805D01*
X1051130Y931879D01*
X1051110Y931954D01*
X1051094Y932030D01*
X1051081Y932107D01*
X1051071Y932184D01*
X1051066Y932262D01*
X1051064Y932340D01*
X1051064Y932749D01*
X1051066Y932838D01*
X1051072Y932927D01*
X1051082Y933016D01*
X1051095Y933104D01*
X1051112Y933192D01*
X1051134Y933279D01*
X1051159Y933364D01*
X1051187Y933449D01*
X1051220Y933532D01*
X1051256Y933614D01*
X1051295Y933694D01*
X1051338Y933772D01*
X1051384Y933848D01*
X1051434Y933923D01*
X1051487Y933995D01*
X1051543Y934064D01*
X1051602Y934131D01*
X1051663Y934196D01*
X1051728Y934257D01*
X1051795Y934316D01*
X1051864Y934372D01*
X1051936Y934425D01*
X1052011Y934475D01*
X1052087Y934521D01*
X1052165Y934564D01*
X1052245Y934603D01*
X1052327Y934639D01*
X1052410Y934672D01*
X1052495Y934700D01*
X1052580Y934725D01*
X1052667Y934747D01*
X1052755Y934764D01*
X1052843Y934777D01*
X1052932Y934787D01*
X1053021Y934793D01*
X1053110Y934795D01*
X1053199Y934793D01*
X1053288Y934787D01*
X1053377Y934777D01*
X1053465Y934764D01*
X1053553Y934747D01*
X1053640Y934725D01*
X1053725Y934700D01*
X1053810Y934672D01*
X1053893Y934639D01*
X1053975Y934603D01*
X1054055Y934564D01*
X1054133Y934521D01*
X1054209Y934475D01*
X1054284Y934425D01*
X1054356Y934372D01*
X1054425Y934316D01*
X1054492Y934257D01*
X1054557Y934196D01*
X1054618Y934131D01*
X1054677Y934064D01*
X1054733Y933995D01*
X1054786Y933923D01*
X1054836Y933848D01*
X1054882Y933772D01*
X1054925Y933694D01*
X1054964Y933614D01*
X1055000Y933532D01*
X1055033Y933449D01*
X1055061Y933364D01*
X1055086Y933279D01*
X1055108Y933192D01*
X1055125Y933104D01*
X1055138Y933016D01*
X1055148Y932927D01*
X1055154Y932838D01*
X1055156Y932749D01*
X1055156Y930703D01*
X1055157Y930703D02*
X1055155Y930591D01*
X1055149Y930480D01*
X1055140Y930368D01*
X1055127Y930257D01*
X1055109Y930147D01*
X1055089Y930037D01*
X1055064Y929928D01*
X1055036Y929820D01*
X1055004Y929713D01*
X1054968Y929607D01*
X1054929Y929502D01*
X1054886Y929399D01*
X1054840Y929297D01*
X1054790Y929197D01*
X1054737Y929098D01*
X1054680Y929002D01*
X1054621Y928907D01*
X1054558Y928815D01*
X1054492Y928725D01*
X1054423Y928637D01*
X1054351Y928551D01*
X1054276Y928468D01*
X1054198Y928388D01*
X1054118Y928310D01*
X1054035Y928235D01*
X1053949Y928163D01*
X1053861Y928094D01*
X1053771Y928028D01*
X1053679Y927965D01*
X1053584Y927906D01*
X1053488Y927849D01*
X1053389Y927796D01*
X1053289Y927746D01*
X1053187Y927700D01*
X1053084Y927657D01*
X1052979Y927618D01*
X1052873Y927582D01*
X1052766Y927550D01*
X1052658Y927522D01*
X1052549Y927497D01*
X1052439Y927477D01*
X1052329Y927459D01*
X1052218Y927446D01*
X1052106Y927437D01*
X1051995Y927431D01*
X1051883Y927429D01*
D11*
X1027750Y920113D02*
X1027750Y917113D01*
X1027750Y920113D02*
X1030750Y920113D01*
X1064750Y920113D02*
X1067750Y920113D01*
X1067750Y917113D01*
X1067750Y885113D02*
X1067750Y882113D01*
X1064750Y882113D01*
X1030750Y882113D02*
X1027750Y882113D01*
X1027750Y885113D01*
D12*
X847005Y947242D02*
X847005Y954608D01*
X846186Y947242D02*
X847823Y947242D01*
X847823Y954608D02*
X846186Y954608D01*
X852424Y947242D02*
X854061Y947242D01*
X852424Y947242D02*
X852346Y947244D01*
X852268Y947249D01*
X852191Y947259D01*
X852114Y947272D01*
X852038Y947288D01*
X851963Y947308D01*
X851889Y947332D01*
X851816Y947359D01*
X851744Y947390D01*
X851674Y947424D01*
X851606Y947461D01*
X851539Y947502D01*
X851474Y947546D01*
X851412Y947592D01*
X851352Y947642D01*
X851294Y947694D01*
X851239Y947749D01*
X851187Y947807D01*
X851137Y947867D01*
X851091Y947929D01*
X851047Y947994D01*
X851006Y948061D01*
X850969Y948129D01*
X850935Y948199D01*
X850904Y948271D01*
X850877Y948344D01*
X850853Y948418D01*
X850833Y948493D01*
X850817Y948569D01*
X850804Y948646D01*
X850794Y948723D01*
X850789Y948801D01*
X850787Y948879D01*
X850787Y952971D01*
X850789Y953051D01*
X850795Y953131D01*
X850805Y953211D01*
X850818Y953290D01*
X850836Y953369D01*
X850857Y953446D01*
X850883Y953522D01*
X850912Y953597D01*
X850944Y953671D01*
X850980Y953743D01*
X851020Y953813D01*
X851063Y953880D01*
X851109Y953946D01*
X851159Y954009D01*
X851211Y954070D01*
X851266Y954129D01*
X851325Y954184D01*
X851385Y954236D01*
X851449Y954286D01*
X851515Y954332D01*
X851582Y954375D01*
X851652Y954415D01*
X851724Y954451D01*
X851798Y954483D01*
X851872Y954512D01*
X851949Y954538D01*
X852026Y954559D01*
X852105Y954577D01*
X852184Y954590D01*
X852264Y954600D01*
X852344Y954606D01*
X852424Y954608D01*
X854061Y954608D01*
X856907Y952971D02*
X858953Y954608D01*
X858953Y947242D01*
X856907Y947242D02*
X860999Y947242D01*
X864222Y950925D02*
X864224Y951078D01*
X864230Y951231D01*
X864239Y951383D01*
X864253Y951536D01*
X864270Y951688D01*
X864291Y951839D01*
X864316Y951990D01*
X864345Y952140D01*
X864377Y952290D01*
X864414Y952438D01*
X864454Y952586D01*
X864497Y952733D01*
X864545Y952878D01*
X864596Y953022D01*
X864650Y953165D01*
X864709Y953307D01*
X864770Y953446D01*
X864836Y953585D01*
X864862Y953655D01*
X864892Y953725D01*
X864925Y953792D01*
X864961Y953858D01*
X865000Y953922D01*
X865043Y953984D01*
X865089Y954043D01*
X865137Y954101D01*
X865188Y954155D01*
X865242Y954208D01*
X865299Y954257D01*
X865358Y954304D01*
X865419Y954347D01*
X865482Y954388D01*
X865547Y954425D01*
X865614Y954460D01*
X865683Y954490D01*
X865753Y954518D01*
X865824Y954541D01*
X865896Y954562D01*
X865969Y954578D01*
X866043Y954591D01*
X866118Y954601D01*
X866193Y954606D01*
X866268Y954608D01*
X866343Y954606D01*
X866418Y954601D01*
X866493Y954591D01*
X866567Y954578D01*
X866640Y954562D01*
X866712Y954541D01*
X866783Y954518D01*
X866853Y954490D01*
X866922Y954460D01*
X866989Y954425D01*
X867054Y954388D01*
X867117Y954347D01*
X867178Y954304D01*
X867237Y954257D01*
X867294Y954208D01*
X867348Y954155D01*
X867399Y954101D01*
X867448Y954043D01*
X867493Y953984D01*
X867536Y953922D01*
X867575Y953858D01*
X867612Y953792D01*
X867644Y953724D01*
X867674Y953655D01*
X867700Y953585D01*
X867765Y953447D01*
X867827Y953307D01*
X867885Y953165D01*
X867940Y953022D01*
X867991Y952878D01*
X868039Y952733D01*
X868082Y952586D01*
X868122Y952439D01*
X868159Y952290D01*
X868191Y952140D01*
X868220Y951990D01*
X868245Y951839D01*
X868266Y951688D01*
X868283Y951536D01*
X868297Y951383D01*
X868306Y951231D01*
X868312Y951078D01*
X868314Y950925D01*
X864221Y950925D02*
X864223Y950772D01*
X864229Y950619D01*
X864238Y950466D01*
X864252Y950314D01*
X864269Y950162D01*
X864290Y950011D01*
X864315Y949860D01*
X864344Y949709D01*
X864376Y949560D01*
X864413Y949411D01*
X864453Y949264D01*
X864496Y949117D01*
X864544Y948972D01*
X864595Y948827D01*
X864650Y948685D01*
X864708Y948543D01*
X864770Y948403D01*
X864835Y948265D01*
X864836Y948265D02*
X864862Y948194D01*
X864892Y948125D01*
X864925Y948058D01*
X864961Y947992D01*
X865000Y947928D01*
X865043Y947866D01*
X865089Y947807D01*
X865137Y947749D01*
X865188Y947695D01*
X865242Y947642D01*
X865299Y947593D01*
X865358Y947546D01*
X865419Y947503D01*
X865482Y947462D01*
X865547Y947425D01*
X865614Y947390D01*
X865683Y947360D01*
X865753Y947332D01*
X865824Y947309D01*
X865896Y947288D01*
X865969Y947272D01*
X866043Y947259D01*
X866118Y947249D01*
X866193Y947244D01*
X866268Y947242D01*
X867700Y948265D02*
X867765Y948403D01*
X867827Y948543D01*
X867885Y948685D01*
X867940Y948828D01*
X867991Y948972D01*
X868039Y949117D01*
X868082Y949264D01*
X868122Y949412D01*
X868159Y949560D01*
X868191Y949710D01*
X868220Y949860D01*
X868245Y950011D01*
X868266Y950162D01*
X868283Y950314D01*
X868297Y950467D01*
X868306Y950619D01*
X868312Y950772D01*
X868314Y950925D01*
X867700Y948265D02*
X867674Y948195D01*
X867644Y948125D01*
X867612Y948058D01*
X867575Y947992D01*
X867536Y947928D01*
X867493Y947866D01*
X867447Y947807D01*
X867399Y947749D01*
X867348Y947695D01*
X867294Y947642D01*
X867237Y947593D01*
X867178Y947546D01*
X867117Y947503D01*
X867054Y947462D01*
X866989Y947425D01*
X866922Y947390D01*
X866853Y947360D01*
X866783Y947332D01*
X866712Y947309D01*
X866640Y947288D01*
X866567Y947272D01*
X866493Y947259D01*
X866418Y947249D01*
X866343Y947244D01*
X866268Y947242D01*
X864631Y948879D02*
X867905Y952971D01*
D11*
X837250Y939925D02*
X837250Y936925D01*
X837250Y939925D02*
X840250Y939925D01*
X874250Y939925D02*
X877250Y939925D01*
X877250Y936925D01*
X877250Y904925D02*
X877250Y901925D01*
X874250Y901925D01*
X840250Y901925D02*
X837250Y901925D01*
X837250Y904925D01*
D12*
X656505Y972055D02*
X656505Y979421D01*
X655686Y972055D02*
X657323Y972055D01*
X657323Y979421D02*
X655686Y979421D01*
X661924Y972055D02*
X663561Y972055D01*
X661924Y972054D02*
X661846Y972056D01*
X661768Y972061D01*
X661691Y972071D01*
X661614Y972084D01*
X661538Y972100D01*
X661463Y972120D01*
X661389Y972144D01*
X661316Y972171D01*
X661244Y972202D01*
X661174Y972236D01*
X661106Y972273D01*
X661039Y972314D01*
X660974Y972358D01*
X660912Y972404D01*
X660852Y972454D01*
X660794Y972506D01*
X660739Y972561D01*
X660687Y972619D01*
X660637Y972679D01*
X660591Y972741D01*
X660547Y972806D01*
X660506Y972873D01*
X660469Y972941D01*
X660435Y973011D01*
X660404Y973083D01*
X660377Y973156D01*
X660353Y973230D01*
X660333Y973305D01*
X660317Y973381D01*
X660304Y973458D01*
X660294Y973535D01*
X660289Y973613D01*
X660287Y973691D01*
X660287Y977784D01*
X660289Y977864D01*
X660295Y977944D01*
X660305Y978024D01*
X660318Y978103D01*
X660336Y978182D01*
X660357Y978259D01*
X660383Y978335D01*
X660412Y978410D01*
X660444Y978484D01*
X660480Y978556D01*
X660520Y978626D01*
X660563Y978693D01*
X660609Y978759D01*
X660659Y978822D01*
X660711Y978883D01*
X660766Y978942D01*
X660825Y978997D01*
X660885Y979049D01*
X660949Y979099D01*
X661015Y979145D01*
X661082Y979188D01*
X661152Y979228D01*
X661224Y979264D01*
X661298Y979296D01*
X661372Y979325D01*
X661449Y979351D01*
X661526Y979372D01*
X661605Y979390D01*
X661684Y979403D01*
X661764Y979413D01*
X661844Y979419D01*
X661924Y979421D01*
X663561Y979421D01*
X666407Y977784D02*
X668453Y979421D01*
X668453Y972055D01*
X666407Y972055D02*
X670499Y972055D01*
X673722Y977784D02*
X675768Y979421D01*
X675768Y972055D01*
X673722Y972055D02*
X677814Y972055D01*
D11*
X646750Y964738D02*
X646750Y961738D01*
X646750Y964738D02*
X649750Y964738D01*
X683750Y964738D02*
X686750Y964738D01*
X686750Y961738D01*
X686750Y929738D02*
X686750Y926738D01*
X683750Y926738D01*
X649750Y926738D02*
X646750Y926738D01*
X646750Y929738D01*
D12*
X466005Y947242D02*
X466005Y954608D01*
X465186Y947242D02*
X466823Y947242D01*
X466823Y954608D02*
X465186Y954608D01*
X471424Y947242D02*
X473061Y947242D01*
X471424Y947242D02*
X471346Y947244D01*
X471268Y947249D01*
X471191Y947259D01*
X471114Y947272D01*
X471038Y947288D01*
X470963Y947308D01*
X470889Y947332D01*
X470816Y947359D01*
X470744Y947390D01*
X470674Y947424D01*
X470606Y947461D01*
X470539Y947502D01*
X470474Y947546D01*
X470412Y947592D01*
X470352Y947642D01*
X470294Y947694D01*
X470239Y947749D01*
X470187Y947807D01*
X470137Y947867D01*
X470091Y947929D01*
X470047Y947994D01*
X470006Y948061D01*
X469969Y948129D01*
X469935Y948199D01*
X469904Y948271D01*
X469877Y948344D01*
X469853Y948418D01*
X469833Y948493D01*
X469817Y948569D01*
X469804Y948646D01*
X469794Y948723D01*
X469789Y948801D01*
X469787Y948879D01*
X469787Y952971D01*
X469789Y953051D01*
X469795Y953131D01*
X469805Y953211D01*
X469818Y953290D01*
X469836Y953369D01*
X469857Y953446D01*
X469883Y953522D01*
X469912Y953597D01*
X469944Y953671D01*
X469980Y953743D01*
X470020Y953813D01*
X470063Y953880D01*
X470109Y953946D01*
X470159Y954009D01*
X470211Y954070D01*
X470266Y954129D01*
X470325Y954184D01*
X470385Y954236D01*
X470449Y954286D01*
X470515Y954332D01*
X470582Y954375D01*
X470652Y954415D01*
X470724Y954451D01*
X470798Y954483D01*
X470872Y954512D01*
X470949Y954538D01*
X471026Y954559D01*
X471105Y954577D01*
X471184Y954590D01*
X471264Y954600D01*
X471344Y954606D01*
X471424Y954608D01*
X473061Y954608D01*
X475907Y952971D02*
X477953Y954608D01*
X477953Y947242D01*
X475907Y947242D02*
X479999Y947242D01*
X487314Y952767D02*
X487312Y952852D01*
X487306Y952937D01*
X487296Y953021D01*
X487283Y953105D01*
X487265Y953189D01*
X487244Y953271D01*
X487219Y953352D01*
X487190Y953432D01*
X487157Y953511D01*
X487121Y953588D01*
X487081Y953663D01*
X487038Y953737D01*
X486992Y953808D01*
X486942Y953877D01*
X486889Y953944D01*
X486833Y954008D01*
X486774Y954069D01*
X486713Y954128D01*
X486649Y954184D01*
X486582Y954237D01*
X486513Y954287D01*
X486442Y954333D01*
X486368Y954376D01*
X486293Y954416D01*
X486216Y954452D01*
X486137Y954485D01*
X486057Y954514D01*
X485976Y954539D01*
X485894Y954560D01*
X485810Y954578D01*
X485726Y954591D01*
X485642Y954601D01*
X485557Y954607D01*
X485472Y954609D01*
X485472Y954608D02*
X485376Y954606D01*
X485280Y954600D01*
X485185Y954590D01*
X485090Y954577D01*
X484995Y954559D01*
X484902Y954538D01*
X484809Y954513D01*
X484718Y954484D01*
X484627Y954452D01*
X484538Y954416D01*
X484451Y954376D01*
X484365Y954333D01*
X484281Y954287D01*
X484199Y954237D01*
X484119Y954183D01*
X484042Y954127D01*
X483967Y954067D01*
X483894Y954005D01*
X483824Y953939D01*
X483756Y953871D01*
X483691Y953800D01*
X483630Y953727D01*
X483571Y953651D01*
X483515Y953572D01*
X483463Y953492D01*
X483414Y953409D01*
X483368Y953325D01*
X483326Y953239D01*
X483288Y953151D01*
X483253Y953062D01*
X483221Y952971D01*
X486700Y951335D02*
X486760Y951394D01*
X486817Y951456D01*
X486872Y951520D01*
X486923Y951587D01*
X486972Y951656D01*
X487018Y951726D01*
X487061Y951799D01*
X487101Y951873D01*
X487137Y951949D01*
X487170Y952027D01*
X487200Y952106D01*
X487227Y952186D01*
X487250Y952267D01*
X487269Y952349D01*
X487285Y952431D01*
X487298Y952515D01*
X487307Y952599D01*
X487312Y952683D01*
X487314Y952767D01*
X486700Y951334D02*
X483222Y947242D01*
X487314Y947242D01*
D11*
X456250Y939925D02*
X456250Y936925D01*
X456250Y939925D02*
X459250Y939925D01*
X493250Y939925D02*
X496250Y939925D01*
X496250Y936925D01*
X496250Y904925D02*
X496250Y901925D01*
X493250Y901925D01*
X459250Y901925D02*
X456250Y901925D01*
X456250Y904925D01*
D12*
X275505Y902617D02*
X275505Y909983D01*
X274686Y902617D02*
X276323Y902617D01*
X276323Y909983D02*
X274686Y909983D01*
X280924Y902617D02*
X282561Y902617D01*
X280924Y902617D02*
X280846Y902619D01*
X280768Y902624D01*
X280691Y902634D01*
X280614Y902647D01*
X280538Y902663D01*
X280463Y902683D01*
X280389Y902707D01*
X280316Y902734D01*
X280244Y902765D01*
X280174Y902799D01*
X280106Y902836D01*
X280039Y902877D01*
X279974Y902921D01*
X279912Y902967D01*
X279852Y903017D01*
X279794Y903069D01*
X279739Y903124D01*
X279687Y903182D01*
X279637Y903242D01*
X279591Y903304D01*
X279547Y903369D01*
X279506Y903436D01*
X279469Y903504D01*
X279435Y903574D01*
X279404Y903646D01*
X279377Y903719D01*
X279353Y903793D01*
X279333Y903868D01*
X279317Y903944D01*
X279304Y904021D01*
X279294Y904098D01*
X279289Y904176D01*
X279287Y904254D01*
X279287Y908346D01*
X279289Y908426D01*
X279295Y908506D01*
X279305Y908586D01*
X279318Y908665D01*
X279336Y908744D01*
X279357Y908821D01*
X279383Y908897D01*
X279412Y908972D01*
X279444Y909046D01*
X279480Y909118D01*
X279520Y909188D01*
X279563Y909255D01*
X279609Y909321D01*
X279659Y909384D01*
X279711Y909445D01*
X279766Y909504D01*
X279825Y909559D01*
X279885Y909611D01*
X279949Y909661D01*
X280015Y909707D01*
X280082Y909750D01*
X280152Y909790D01*
X280224Y909826D01*
X280298Y909858D01*
X280372Y909887D01*
X280449Y909913D01*
X280526Y909934D01*
X280605Y909952D01*
X280684Y909965D01*
X280764Y909975D01*
X280844Y909981D01*
X280924Y909983D01*
X282561Y909983D01*
X285407Y908346D02*
X287453Y909983D01*
X287453Y902617D01*
X285407Y902617D02*
X289499Y902617D01*
X292722Y902617D02*
X294768Y902617D01*
X294857Y902619D01*
X294946Y902625D01*
X295035Y902635D01*
X295123Y902648D01*
X295211Y902665D01*
X295298Y902687D01*
X295383Y902712D01*
X295468Y902740D01*
X295551Y902773D01*
X295633Y902809D01*
X295713Y902848D01*
X295791Y902891D01*
X295867Y902937D01*
X295942Y902987D01*
X296014Y903040D01*
X296083Y903096D01*
X296150Y903155D01*
X296215Y903216D01*
X296276Y903281D01*
X296335Y903348D01*
X296391Y903417D01*
X296444Y903489D01*
X296494Y903564D01*
X296540Y903640D01*
X296583Y903718D01*
X296622Y903798D01*
X296658Y903880D01*
X296691Y903963D01*
X296719Y904048D01*
X296744Y904133D01*
X296766Y904220D01*
X296783Y904308D01*
X296796Y904396D01*
X296806Y904485D01*
X296812Y904574D01*
X296814Y904663D01*
X296812Y904752D01*
X296806Y904841D01*
X296796Y904930D01*
X296783Y905018D01*
X296766Y905106D01*
X296744Y905193D01*
X296719Y905278D01*
X296691Y905363D01*
X296658Y905446D01*
X296622Y905528D01*
X296583Y905608D01*
X296540Y905686D01*
X296494Y905762D01*
X296444Y905837D01*
X296391Y905909D01*
X296335Y905978D01*
X296276Y906045D01*
X296215Y906110D01*
X296150Y906171D01*
X296083Y906230D01*
X296014Y906286D01*
X295942Y906339D01*
X295867Y906389D01*
X295791Y906435D01*
X295713Y906478D01*
X295633Y906517D01*
X295551Y906553D01*
X295468Y906586D01*
X295383Y906614D01*
X295298Y906639D01*
X295211Y906661D01*
X295123Y906678D01*
X295035Y906691D01*
X294946Y906701D01*
X294857Y906707D01*
X294768Y906709D01*
X295177Y909983D02*
X292722Y909983D01*
X295177Y909983D02*
X295256Y909981D01*
X295335Y909975D01*
X295414Y909966D01*
X295492Y909953D01*
X295569Y909935D01*
X295645Y909915D01*
X295720Y909890D01*
X295794Y909862D01*
X295867Y909831D01*
X295938Y909795D01*
X296007Y909757D01*
X296074Y909715D01*
X296139Y909670D01*
X296202Y909622D01*
X296263Y909571D01*
X296320Y909517D01*
X296376Y909461D01*
X296428Y909402D01*
X296478Y909340D01*
X296524Y909276D01*
X296568Y909210D01*
X296608Y909142D01*
X296644Y909072D01*
X296678Y909000D01*
X296708Y908926D01*
X296734Y908852D01*
X296757Y908776D01*
X296775Y908699D01*
X296791Y908622D01*
X296802Y908543D01*
X296810Y908465D01*
X296814Y908386D01*
X296814Y908306D01*
X296810Y908227D01*
X296802Y908149D01*
X296791Y908070D01*
X296775Y907993D01*
X296757Y907916D01*
X296734Y907840D01*
X296708Y907766D01*
X296678Y907692D01*
X296644Y907620D01*
X296608Y907550D01*
X296568Y907482D01*
X296524Y907416D01*
X296478Y907352D01*
X296428Y907290D01*
X296376Y907231D01*
X296320Y907175D01*
X296263Y907121D01*
X296202Y907070D01*
X296139Y907022D01*
X296074Y906977D01*
X296007Y906935D01*
X295938Y906897D01*
X295867Y906861D01*
X295794Y906830D01*
X295720Y906802D01*
X295645Y906777D01*
X295569Y906757D01*
X295492Y906739D01*
X295414Y906726D01*
X295335Y906717D01*
X295256Y906711D01*
X295177Y906709D01*
X293540Y906709D01*
D11*
X265750Y895300D02*
X265750Y892300D01*
X265750Y895300D02*
X268750Y895300D01*
X302750Y895300D02*
X305750Y895300D01*
X305750Y892300D01*
X305750Y860300D02*
X305750Y857300D01*
X302750Y857300D01*
X268750Y857300D02*
X265750Y857300D01*
X265750Y860300D01*
D12*
X61192Y902617D02*
X61192Y909983D01*
X60374Y902617D02*
X62010Y902617D01*
X62010Y909983D02*
X60374Y909983D01*
X66612Y902617D02*
X68249Y902617D01*
X66612Y902617D02*
X66534Y902619D01*
X66456Y902624D01*
X66379Y902634D01*
X66302Y902647D01*
X66226Y902663D01*
X66151Y902683D01*
X66077Y902707D01*
X66004Y902734D01*
X65932Y902765D01*
X65862Y902799D01*
X65794Y902836D01*
X65727Y902877D01*
X65662Y902921D01*
X65600Y902967D01*
X65540Y903017D01*
X65482Y903069D01*
X65427Y903124D01*
X65375Y903182D01*
X65325Y903242D01*
X65279Y903304D01*
X65235Y903369D01*
X65194Y903436D01*
X65157Y903504D01*
X65123Y903574D01*
X65092Y903646D01*
X65065Y903719D01*
X65041Y903793D01*
X65021Y903868D01*
X65005Y903944D01*
X64992Y904021D01*
X64982Y904098D01*
X64977Y904176D01*
X64975Y904254D01*
X64975Y908346D01*
X64977Y908426D01*
X64983Y908506D01*
X64993Y908586D01*
X65006Y908665D01*
X65024Y908744D01*
X65045Y908821D01*
X65071Y908897D01*
X65100Y908972D01*
X65132Y909046D01*
X65168Y909118D01*
X65208Y909188D01*
X65251Y909255D01*
X65297Y909321D01*
X65347Y909384D01*
X65399Y909445D01*
X65454Y909504D01*
X65513Y909559D01*
X65573Y909611D01*
X65637Y909661D01*
X65703Y909707D01*
X65770Y909750D01*
X65840Y909790D01*
X65912Y909826D01*
X65986Y909858D01*
X66060Y909887D01*
X66137Y909913D01*
X66214Y909934D01*
X66293Y909952D01*
X66372Y909965D01*
X66452Y909975D01*
X66532Y909981D01*
X66612Y909983D01*
X68249Y909983D01*
X71094Y908346D02*
X73140Y909983D01*
X73140Y902617D01*
X71094Y902617D02*
X75186Y902617D01*
X78409Y904254D02*
X80046Y909983D01*
X78409Y904254D02*
X82501Y904254D01*
X81274Y905891D02*
X81274Y902617D01*
D11*
X51438Y895300D02*
X51438Y892300D01*
X51438Y895300D02*
X54438Y895300D01*
X88438Y895300D02*
X91438Y895300D01*
X91438Y892300D01*
X91438Y860300D02*
X91438Y857300D01*
X88438Y857300D01*
X54438Y857300D02*
X51438Y857300D01*
X51438Y860300D01*
X91438Y669800D02*
X91438Y666800D01*
X88438Y666800D01*
X54438Y666800D02*
X51438Y666800D01*
X51438Y669800D01*
X51438Y701800D02*
X51438Y704800D01*
X54438Y704800D01*
X88438Y704800D02*
X91438Y704800D01*
X91438Y701800D01*
D12*
X61192Y712117D02*
X61192Y719483D01*
X60374Y712117D02*
X62010Y712117D01*
X62010Y719483D02*
X60374Y719483D01*
X66612Y712117D02*
X68249Y712117D01*
X66612Y712117D02*
X66534Y712119D01*
X66456Y712124D01*
X66379Y712134D01*
X66302Y712147D01*
X66226Y712163D01*
X66151Y712183D01*
X66077Y712207D01*
X66004Y712234D01*
X65932Y712265D01*
X65862Y712299D01*
X65794Y712336D01*
X65727Y712377D01*
X65662Y712421D01*
X65600Y712467D01*
X65540Y712517D01*
X65482Y712569D01*
X65427Y712624D01*
X65375Y712682D01*
X65325Y712742D01*
X65279Y712804D01*
X65235Y712869D01*
X65194Y712936D01*
X65157Y713004D01*
X65123Y713074D01*
X65092Y713146D01*
X65065Y713219D01*
X65041Y713293D01*
X65021Y713368D01*
X65005Y713444D01*
X64992Y713521D01*
X64982Y713598D01*
X64977Y713676D01*
X64975Y713754D01*
X64975Y717846D01*
X64977Y717926D01*
X64983Y718006D01*
X64993Y718086D01*
X65006Y718165D01*
X65024Y718244D01*
X65045Y718321D01*
X65071Y718397D01*
X65100Y718472D01*
X65132Y718546D01*
X65168Y718618D01*
X65208Y718688D01*
X65251Y718755D01*
X65297Y718821D01*
X65347Y718884D01*
X65399Y718945D01*
X65454Y719004D01*
X65513Y719059D01*
X65573Y719111D01*
X65637Y719161D01*
X65703Y719207D01*
X65770Y719250D01*
X65840Y719290D01*
X65912Y719326D01*
X65986Y719358D01*
X66060Y719387D01*
X66137Y719413D01*
X66214Y719434D01*
X66293Y719452D01*
X66372Y719465D01*
X66452Y719475D01*
X66532Y719481D01*
X66612Y719483D01*
X68249Y719483D01*
X71094Y717846D02*
X73140Y719483D01*
X73140Y712117D01*
X71094Y712117D02*
X75186Y712117D01*
X78409Y712117D02*
X80865Y712117D01*
X80943Y712119D01*
X81021Y712124D01*
X81098Y712134D01*
X81175Y712147D01*
X81251Y712163D01*
X81326Y712183D01*
X81400Y712207D01*
X81473Y712234D01*
X81545Y712265D01*
X81615Y712299D01*
X81684Y712336D01*
X81750Y712377D01*
X81815Y712421D01*
X81877Y712467D01*
X81937Y712517D01*
X81995Y712569D01*
X82050Y712624D01*
X82102Y712682D01*
X82152Y712742D01*
X82198Y712804D01*
X82242Y712869D01*
X82283Y712936D01*
X82320Y713004D01*
X82354Y713074D01*
X82385Y713146D01*
X82412Y713219D01*
X82436Y713293D01*
X82456Y713368D01*
X82472Y713444D01*
X82485Y713521D01*
X82495Y713598D01*
X82500Y713676D01*
X82502Y713754D01*
X82501Y713754D02*
X82501Y714572D01*
X82502Y714572D02*
X82500Y714650D01*
X82495Y714728D01*
X82485Y714805D01*
X82472Y714882D01*
X82456Y714958D01*
X82436Y715033D01*
X82412Y715107D01*
X82385Y715180D01*
X82354Y715252D01*
X82320Y715322D01*
X82283Y715391D01*
X82242Y715457D01*
X82198Y715522D01*
X82152Y715584D01*
X82102Y715644D01*
X82050Y715702D01*
X81995Y715757D01*
X81937Y715809D01*
X81877Y715859D01*
X81815Y715905D01*
X81750Y715949D01*
X81684Y715990D01*
X81615Y716027D01*
X81545Y716061D01*
X81473Y716092D01*
X81400Y716119D01*
X81326Y716143D01*
X81251Y716163D01*
X81175Y716179D01*
X81098Y716192D01*
X81021Y716202D01*
X80943Y716207D01*
X80865Y716209D01*
X78409Y716209D01*
X78409Y719483D01*
X82501Y719483D01*
D11*
X305750Y669800D02*
X305750Y666800D01*
X302750Y666800D01*
X268750Y666800D02*
X265750Y666800D01*
X265750Y669800D01*
X265750Y701800D02*
X265750Y704800D01*
X268750Y704800D01*
X302750Y704800D02*
X305750Y704800D01*
X305750Y701800D01*
D12*
X275504Y712117D02*
X275504Y719483D01*
X274686Y712117D02*
X276323Y712117D01*
X276323Y719483D02*
X274686Y719483D01*
X280924Y712117D02*
X282561Y712117D01*
X280924Y712117D02*
X280846Y712119D01*
X280768Y712124D01*
X280691Y712134D01*
X280614Y712147D01*
X280538Y712163D01*
X280463Y712183D01*
X280389Y712207D01*
X280316Y712234D01*
X280244Y712265D01*
X280174Y712299D01*
X280106Y712336D01*
X280039Y712377D01*
X279974Y712421D01*
X279912Y712467D01*
X279852Y712517D01*
X279794Y712569D01*
X279739Y712624D01*
X279687Y712682D01*
X279637Y712742D01*
X279591Y712804D01*
X279547Y712869D01*
X279506Y712936D01*
X279469Y713004D01*
X279435Y713074D01*
X279404Y713146D01*
X279377Y713219D01*
X279353Y713293D01*
X279333Y713368D01*
X279317Y713444D01*
X279304Y713521D01*
X279294Y713598D01*
X279289Y713676D01*
X279287Y713754D01*
X279287Y717846D01*
X279289Y717926D01*
X279295Y718006D01*
X279305Y718086D01*
X279318Y718165D01*
X279336Y718244D01*
X279357Y718321D01*
X279383Y718397D01*
X279412Y718472D01*
X279444Y718546D01*
X279480Y718618D01*
X279520Y718688D01*
X279563Y718755D01*
X279609Y718821D01*
X279659Y718884D01*
X279711Y718945D01*
X279766Y719004D01*
X279825Y719059D01*
X279885Y719111D01*
X279949Y719161D01*
X280015Y719207D01*
X280082Y719250D01*
X280152Y719290D01*
X280224Y719326D01*
X280298Y719358D01*
X280372Y719387D01*
X280449Y719413D01*
X280526Y719434D01*
X280605Y719452D01*
X280684Y719465D01*
X280764Y719475D01*
X280844Y719481D01*
X280924Y719483D01*
X282561Y719483D01*
X285407Y717846D02*
X287453Y719483D01*
X287453Y712117D01*
X285407Y712117D02*
X289499Y712117D01*
X292722Y716209D02*
X295177Y716209D01*
X295255Y716207D01*
X295333Y716202D01*
X295410Y716192D01*
X295487Y716179D01*
X295563Y716163D01*
X295638Y716143D01*
X295712Y716119D01*
X295785Y716092D01*
X295857Y716061D01*
X295927Y716027D01*
X295996Y715990D01*
X296062Y715949D01*
X296127Y715905D01*
X296189Y715859D01*
X296249Y715809D01*
X296307Y715757D01*
X296362Y715702D01*
X296414Y715644D01*
X296464Y715584D01*
X296510Y715522D01*
X296554Y715457D01*
X296595Y715391D01*
X296632Y715322D01*
X296666Y715252D01*
X296697Y715180D01*
X296724Y715107D01*
X296748Y715033D01*
X296768Y714958D01*
X296784Y714882D01*
X296797Y714805D01*
X296807Y714728D01*
X296812Y714650D01*
X296814Y714572D01*
X296814Y714163D01*
X296812Y714074D01*
X296806Y713985D01*
X296796Y713896D01*
X296783Y713808D01*
X296766Y713720D01*
X296744Y713633D01*
X296719Y713548D01*
X296691Y713463D01*
X296658Y713380D01*
X296622Y713298D01*
X296583Y713218D01*
X296540Y713140D01*
X296494Y713064D01*
X296444Y712989D01*
X296391Y712917D01*
X296335Y712848D01*
X296276Y712781D01*
X296215Y712716D01*
X296150Y712655D01*
X296083Y712596D01*
X296014Y712540D01*
X295942Y712487D01*
X295867Y712437D01*
X295791Y712391D01*
X295713Y712348D01*
X295633Y712309D01*
X295551Y712273D01*
X295468Y712240D01*
X295383Y712212D01*
X295298Y712187D01*
X295211Y712165D01*
X295123Y712148D01*
X295035Y712135D01*
X294946Y712125D01*
X294857Y712119D01*
X294768Y712117D01*
X294679Y712119D01*
X294590Y712125D01*
X294501Y712135D01*
X294413Y712148D01*
X294325Y712165D01*
X294238Y712187D01*
X294153Y712212D01*
X294068Y712240D01*
X293985Y712273D01*
X293903Y712309D01*
X293823Y712348D01*
X293745Y712391D01*
X293669Y712437D01*
X293594Y712487D01*
X293522Y712540D01*
X293453Y712596D01*
X293386Y712655D01*
X293321Y712716D01*
X293260Y712781D01*
X293201Y712848D01*
X293145Y712917D01*
X293092Y712989D01*
X293042Y713064D01*
X292996Y713140D01*
X292953Y713218D01*
X292914Y713298D01*
X292878Y713380D01*
X292845Y713463D01*
X292817Y713548D01*
X292792Y713633D01*
X292770Y713720D01*
X292753Y713808D01*
X292740Y713896D01*
X292730Y713985D01*
X292724Y714074D01*
X292722Y714163D01*
X292722Y716209D01*
X292724Y716323D01*
X292730Y716437D01*
X292740Y716551D01*
X292754Y716665D01*
X292772Y716778D01*
X292794Y716890D01*
X292819Y717001D01*
X292849Y717111D01*
X292882Y717221D01*
X292919Y717329D01*
X292960Y717435D01*
X293005Y717541D01*
X293053Y717644D01*
X293105Y717746D01*
X293161Y717846D01*
X293219Y717944D01*
X293282Y718040D01*
X293347Y718133D01*
X293416Y718225D01*
X293488Y718313D01*
X293563Y718400D01*
X293641Y718483D01*
X293722Y718564D01*
X293805Y718642D01*
X293892Y718717D01*
X293980Y718789D01*
X294072Y718858D01*
X294165Y718923D01*
X294261Y718985D01*
X294359Y719044D01*
X294459Y719100D01*
X294561Y719152D01*
X294664Y719200D01*
X294770Y719245D01*
X294876Y719286D01*
X294984Y719323D01*
X295094Y719356D01*
X295204Y719386D01*
X295315Y719411D01*
X295427Y719433D01*
X295540Y719451D01*
X295654Y719465D01*
X295768Y719475D01*
X295882Y719481D01*
X295996Y719483D01*
D11*
X496250Y714425D02*
X496250Y711425D01*
X493250Y711425D01*
X459250Y711425D02*
X456250Y711425D01*
X456250Y714425D01*
X456250Y746425D02*
X456250Y749425D01*
X459250Y749425D01*
X493250Y749425D02*
X496250Y749425D01*
X496250Y746425D01*
D12*
X466004Y756742D02*
X466004Y764108D01*
X465186Y756742D02*
X466823Y756742D01*
X466823Y764108D02*
X465186Y764108D01*
X471424Y756742D02*
X473061Y756742D01*
X471424Y756742D02*
X471346Y756744D01*
X471268Y756749D01*
X471191Y756759D01*
X471114Y756772D01*
X471038Y756788D01*
X470963Y756808D01*
X470889Y756832D01*
X470816Y756859D01*
X470744Y756890D01*
X470674Y756924D01*
X470606Y756961D01*
X470539Y757002D01*
X470474Y757046D01*
X470412Y757092D01*
X470352Y757142D01*
X470294Y757194D01*
X470239Y757249D01*
X470187Y757307D01*
X470137Y757367D01*
X470091Y757429D01*
X470047Y757494D01*
X470006Y757561D01*
X469969Y757629D01*
X469935Y757699D01*
X469904Y757771D01*
X469877Y757844D01*
X469853Y757918D01*
X469833Y757993D01*
X469817Y758069D01*
X469804Y758146D01*
X469794Y758223D01*
X469789Y758301D01*
X469787Y758379D01*
X469787Y762471D01*
X469789Y762551D01*
X469795Y762631D01*
X469805Y762711D01*
X469818Y762790D01*
X469836Y762869D01*
X469857Y762946D01*
X469883Y763022D01*
X469912Y763097D01*
X469944Y763171D01*
X469980Y763243D01*
X470020Y763313D01*
X470063Y763380D01*
X470109Y763446D01*
X470159Y763509D01*
X470211Y763570D01*
X470266Y763629D01*
X470325Y763684D01*
X470385Y763736D01*
X470449Y763786D01*
X470515Y763832D01*
X470582Y763875D01*
X470652Y763915D01*
X470724Y763951D01*
X470798Y763983D01*
X470872Y764012D01*
X470949Y764038D01*
X471026Y764059D01*
X471105Y764077D01*
X471184Y764090D01*
X471264Y764100D01*
X471344Y764106D01*
X471424Y764108D01*
X473061Y764108D01*
X475907Y762471D02*
X477953Y764108D01*
X477953Y756742D01*
X475907Y756742D02*
X479999Y756742D01*
X483222Y763290D02*
X483222Y764108D01*
X487314Y764108D01*
X485268Y756742D01*
D11*
X686750Y739238D02*
X686750Y736238D01*
X683750Y736238D01*
X649750Y736238D02*
X646750Y736238D01*
X646750Y739238D01*
X646750Y771238D02*
X646750Y774238D01*
X649750Y774238D01*
X683750Y774238D02*
X686750Y774238D01*
X686750Y771238D01*
D12*
X656504Y781555D02*
X656504Y788921D01*
X655686Y781555D02*
X657323Y781555D01*
X657323Y788921D02*
X655686Y788921D01*
X661924Y781555D02*
X663561Y781555D01*
X661924Y781554D02*
X661846Y781556D01*
X661768Y781561D01*
X661691Y781571D01*
X661614Y781584D01*
X661538Y781600D01*
X661463Y781620D01*
X661389Y781644D01*
X661316Y781671D01*
X661244Y781702D01*
X661174Y781736D01*
X661106Y781773D01*
X661039Y781814D01*
X660974Y781858D01*
X660912Y781904D01*
X660852Y781954D01*
X660794Y782006D01*
X660739Y782061D01*
X660687Y782119D01*
X660637Y782179D01*
X660591Y782241D01*
X660547Y782306D01*
X660506Y782373D01*
X660469Y782441D01*
X660435Y782511D01*
X660404Y782583D01*
X660377Y782656D01*
X660353Y782730D01*
X660333Y782805D01*
X660317Y782881D01*
X660304Y782958D01*
X660294Y783035D01*
X660289Y783113D01*
X660287Y783191D01*
X660287Y787284D01*
X660289Y787364D01*
X660295Y787444D01*
X660305Y787524D01*
X660318Y787603D01*
X660336Y787682D01*
X660357Y787759D01*
X660383Y787835D01*
X660412Y787910D01*
X660444Y787984D01*
X660480Y788056D01*
X660520Y788126D01*
X660563Y788193D01*
X660609Y788259D01*
X660659Y788322D01*
X660711Y788383D01*
X660766Y788442D01*
X660825Y788497D01*
X660885Y788549D01*
X660949Y788599D01*
X661015Y788645D01*
X661082Y788688D01*
X661152Y788728D01*
X661224Y788764D01*
X661298Y788796D01*
X661372Y788825D01*
X661449Y788851D01*
X661526Y788872D01*
X661605Y788890D01*
X661684Y788903D01*
X661764Y788913D01*
X661844Y788919D01*
X661924Y788921D01*
X663561Y788921D01*
X666407Y787284D02*
X668453Y788921D01*
X668453Y781555D01*
X666407Y781555D02*
X670499Y781555D01*
X673722Y783601D02*
X673724Y783690D01*
X673730Y783779D01*
X673740Y783868D01*
X673753Y783956D01*
X673770Y784044D01*
X673792Y784131D01*
X673817Y784216D01*
X673845Y784301D01*
X673878Y784384D01*
X673914Y784466D01*
X673953Y784546D01*
X673996Y784624D01*
X674042Y784700D01*
X674092Y784775D01*
X674145Y784847D01*
X674201Y784916D01*
X674260Y784983D01*
X674321Y785048D01*
X674386Y785109D01*
X674453Y785168D01*
X674522Y785224D01*
X674594Y785277D01*
X674669Y785327D01*
X674745Y785373D01*
X674823Y785416D01*
X674903Y785455D01*
X674985Y785491D01*
X675068Y785524D01*
X675153Y785552D01*
X675238Y785577D01*
X675325Y785599D01*
X675413Y785616D01*
X675501Y785629D01*
X675590Y785639D01*
X675679Y785645D01*
X675768Y785647D01*
X675857Y785645D01*
X675946Y785639D01*
X676035Y785629D01*
X676123Y785616D01*
X676211Y785599D01*
X676298Y785577D01*
X676383Y785552D01*
X676468Y785524D01*
X676551Y785491D01*
X676633Y785455D01*
X676713Y785416D01*
X676791Y785373D01*
X676867Y785327D01*
X676942Y785277D01*
X677014Y785224D01*
X677083Y785168D01*
X677150Y785109D01*
X677215Y785048D01*
X677276Y784983D01*
X677335Y784916D01*
X677391Y784847D01*
X677444Y784775D01*
X677494Y784700D01*
X677540Y784624D01*
X677583Y784546D01*
X677622Y784466D01*
X677658Y784384D01*
X677691Y784301D01*
X677719Y784216D01*
X677744Y784131D01*
X677766Y784044D01*
X677783Y783956D01*
X677796Y783868D01*
X677806Y783779D01*
X677812Y783690D01*
X677814Y783601D01*
X677812Y783512D01*
X677806Y783423D01*
X677796Y783334D01*
X677783Y783246D01*
X677766Y783158D01*
X677744Y783071D01*
X677719Y782986D01*
X677691Y782901D01*
X677658Y782818D01*
X677622Y782736D01*
X677583Y782656D01*
X677540Y782578D01*
X677494Y782502D01*
X677444Y782427D01*
X677391Y782355D01*
X677335Y782286D01*
X677276Y782219D01*
X677215Y782154D01*
X677150Y782093D01*
X677083Y782034D01*
X677014Y781978D01*
X676942Y781925D01*
X676867Y781875D01*
X676791Y781829D01*
X676713Y781786D01*
X676633Y781747D01*
X676551Y781711D01*
X676468Y781678D01*
X676383Y781650D01*
X676298Y781625D01*
X676211Y781603D01*
X676123Y781586D01*
X676035Y781573D01*
X675946Y781563D01*
X675857Y781557D01*
X675768Y781555D01*
X675679Y781557D01*
X675590Y781563D01*
X675501Y781573D01*
X675413Y781586D01*
X675325Y781603D01*
X675238Y781625D01*
X675153Y781650D01*
X675068Y781678D01*
X674985Y781711D01*
X674903Y781747D01*
X674823Y781786D01*
X674745Y781829D01*
X674669Y781875D01*
X674594Y781925D01*
X674522Y781978D01*
X674453Y782034D01*
X674386Y782093D01*
X674321Y782154D01*
X674260Y782219D01*
X674201Y782286D01*
X674145Y782355D01*
X674092Y782427D01*
X674042Y782502D01*
X673996Y782578D01*
X673953Y782656D01*
X673914Y782736D01*
X673878Y782818D01*
X673845Y782901D01*
X673817Y782986D01*
X673792Y783071D01*
X673770Y783158D01*
X673753Y783246D01*
X673740Y783334D01*
X673730Y783423D01*
X673724Y783512D01*
X673722Y783601D01*
X674131Y787284D02*
X674133Y787363D01*
X674139Y787442D01*
X674148Y787521D01*
X674161Y787599D01*
X674179Y787676D01*
X674199Y787752D01*
X674224Y787827D01*
X674252Y787901D01*
X674283Y787974D01*
X674319Y788045D01*
X674357Y788114D01*
X674399Y788181D01*
X674444Y788246D01*
X674492Y788309D01*
X674543Y788370D01*
X674597Y788427D01*
X674653Y788483D01*
X674712Y788535D01*
X674774Y788585D01*
X674838Y788631D01*
X674904Y788675D01*
X674972Y788715D01*
X675042Y788751D01*
X675114Y788785D01*
X675188Y788815D01*
X675262Y788841D01*
X675338Y788864D01*
X675415Y788882D01*
X675492Y788898D01*
X675571Y788909D01*
X675649Y788917D01*
X675728Y788921D01*
X675808Y788921D01*
X675887Y788917D01*
X675965Y788909D01*
X676044Y788898D01*
X676121Y788882D01*
X676198Y788864D01*
X676274Y788841D01*
X676348Y788815D01*
X676422Y788785D01*
X676494Y788751D01*
X676564Y788715D01*
X676632Y788675D01*
X676698Y788631D01*
X676762Y788585D01*
X676824Y788535D01*
X676883Y788483D01*
X676939Y788427D01*
X676993Y788370D01*
X677044Y788309D01*
X677092Y788246D01*
X677137Y788181D01*
X677179Y788114D01*
X677217Y788045D01*
X677253Y787974D01*
X677284Y787901D01*
X677312Y787827D01*
X677337Y787752D01*
X677357Y787676D01*
X677375Y787599D01*
X677388Y787521D01*
X677397Y787442D01*
X677403Y787363D01*
X677405Y787284D01*
X677403Y787205D01*
X677397Y787126D01*
X677388Y787047D01*
X677375Y786969D01*
X677357Y786892D01*
X677337Y786816D01*
X677312Y786741D01*
X677284Y786667D01*
X677253Y786594D01*
X677217Y786523D01*
X677179Y786454D01*
X677137Y786387D01*
X677092Y786322D01*
X677044Y786259D01*
X676993Y786198D01*
X676939Y786141D01*
X676883Y786085D01*
X676824Y786033D01*
X676762Y785983D01*
X676698Y785937D01*
X676632Y785893D01*
X676564Y785853D01*
X676494Y785817D01*
X676422Y785783D01*
X676348Y785753D01*
X676274Y785727D01*
X676198Y785704D01*
X676121Y785686D01*
X676044Y785670D01*
X675965Y785659D01*
X675887Y785651D01*
X675808Y785647D01*
X675728Y785647D01*
X675649Y785651D01*
X675571Y785659D01*
X675492Y785670D01*
X675415Y785686D01*
X675338Y785704D01*
X675262Y785727D01*
X675188Y785753D01*
X675114Y785783D01*
X675042Y785817D01*
X674972Y785853D01*
X674904Y785893D01*
X674838Y785937D01*
X674774Y785983D01*
X674712Y786033D01*
X674653Y786085D01*
X674597Y786141D01*
X674543Y786198D01*
X674492Y786259D01*
X674444Y786322D01*
X674399Y786387D01*
X674357Y786454D01*
X674319Y786523D01*
X674283Y786594D01*
X674252Y786667D01*
X674224Y786741D01*
X674199Y786816D01*
X674179Y786892D01*
X674161Y786969D01*
X674148Y787047D01*
X674139Y787126D01*
X674133Y787205D01*
X674131Y787284D01*
D11*
X877250Y714425D02*
X877250Y711425D01*
X874250Y711425D01*
X840250Y711425D02*
X837250Y711425D01*
X837250Y714425D01*
X837250Y746425D02*
X837250Y749425D01*
X840250Y749425D01*
X874250Y749425D02*
X877250Y749425D01*
X877250Y746425D01*
D12*
X847004Y756742D02*
X847004Y764108D01*
X846186Y756742D02*
X847823Y756742D01*
X847823Y764108D02*
X846186Y764108D01*
X852424Y756742D02*
X854061Y756742D01*
X852424Y756742D02*
X852346Y756744D01*
X852268Y756749D01*
X852191Y756759D01*
X852114Y756772D01*
X852038Y756788D01*
X851963Y756808D01*
X851889Y756832D01*
X851816Y756859D01*
X851744Y756890D01*
X851674Y756924D01*
X851606Y756961D01*
X851539Y757002D01*
X851474Y757046D01*
X851412Y757092D01*
X851352Y757142D01*
X851294Y757194D01*
X851239Y757249D01*
X851187Y757307D01*
X851137Y757367D01*
X851091Y757429D01*
X851047Y757494D01*
X851006Y757561D01*
X850969Y757629D01*
X850935Y757699D01*
X850904Y757771D01*
X850877Y757844D01*
X850853Y757918D01*
X850833Y757993D01*
X850817Y758069D01*
X850804Y758146D01*
X850794Y758223D01*
X850789Y758301D01*
X850787Y758379D01*
X850787Y762471D01*
X850789Y762551D01*
X850795Y762631D01*
X850805Y762711D01*
X850818Y762790D01*
X850836Y762869D01*
X850857Y762946D01*
X850883Y763022D01*
X850912Y763097D01*
X850944Y763171D01*
X850980Y763243D01*
X851020Y763313D01*
X851063Y763380D01*
X851109Y763446D01*
X851159Y763509D01*
X851211Y763570D01*
X851266Y763629D01*
X851325Y763684D01*
X851385Y763736D01*
X851449Y763786D01*
X851515Y763832D01*
X851582Y763875D01*
X851652Y763915D01*
X851724Y763951D01*
X851798Y763983D01*
X851872Y764012D01*
X851949Y764038D01*
X852026Y764059D01*
X852105Y764077D01*
X852184Y764090D01*
X852264Y764100D01*
X852344Y764106D01*
X852424Y764108D01*
X854061Y764108D01*
X856907Y762471D02*
X858953Y764108D01*
X858953Y756742D01*
X856907Y756742D02*
X860999Y756742D01*
X865859Y760016D02*
X868314Y760016D01*
X865859Y760016D02*
X865781Y760018D01*
X865703Y760023D01*
X865626Y760033D01*
X865549Y760046D01*
X865473Y760062D01*
X865398Y760082D01*
X865324Y760106D01*
X865251Y760133D01*
X865179Y760164D01*
X865109Y760198D01*
X865040Y760235D01*
X864974Y760276D01*
X864909Y760320D01*
X864847Y760366D01*
X864787Y760416D01*
X864729Y760468D01*
X864674Y760523D01*
X864622Y760581D01*
X864572Y760641D01*
X864526Y760703D01*
X864482Y760768D01*
X864441Y760835D01*
X864404Y760903D01*
X864370Y760973D01*
X864339Y761045D01*
X864312Y761118D01*
X864288Y761192D01*
X864268Y761267D01*
X864252Y761343D01*
X864239Y761420D01*
X864229Y761497D01*
X864224Y761575D01*
X864222Y761653D01*
X864222Y762062D01*
X864224Y762151D01*
X864230Y762240D01*
X864240Y762329D01*
X864253Y762417D01*
X864270Y762505D01*
X864292Y762592D01*
X864317Y762677D01*
X864345Y762762D01*
X864378Y762845D01*
X864414Y762927D01*
X864453Y763007D01*
X864496Y763085D01*
X864542Y763161D01*
X864592Y763236D01*
X864645Y763308D01*
X864701Y763377D01*
X864760Y763444D01*
X864821Y763509D01*
X864886Y763570D01*
X864953Y763629D01*
X865022Y763685D01*
X865094Y763738D01*
X865169Y763788D01*
X865245Y763834D01*
X865323Y763877D01*
X865403Y763916D01*
X865485Y763952D01*
X865568Y763985D01*
X865653Y764013D01*
X865738Y764038D01*
X865825Y764060D01*
X865913Y764077D01*
X866001Y764090D01*
X866090Y764100D01*
X866179Y764106D01*
X866268Y764108D01*
X866357Y764106D01*
X866446Y764100D01*
X866535Y764090D01*
X866623Y764077D01*
X866711Y764060D01*
X866798Y764038D01*
X866883Y764013D01*
X866968Y763985D01*
X867051Y763952D01*
X867133Y763916D01*
X867213Y763877D01*
X867291Y763834D01*
X867367Y763788D01*
X867442Y763738D01*
X867514Y763685D01*
X867583Y763629D01*
X867650Y763570D01*
X867715Y763509D01*
X867776Y763444D01*
X867835Y763377D01*
X867891Y763308D01*
X867944Y763236D01*
X867994Y763161D01*
X868040Y763085D01*
X868083Y763007D01*
X868122Y762927D01*
X868158Y762845D01*
X868191Y762762D01*
X868219Y762677D01*
X868244Y762592D01*
X868266Y762505D01*
X868283Y762417D01*
X868296Y762329D01*
X868306Y762240D01*
X868312Y762151D01*
X868314Y762062D01*
X868314Y760016D01*
X868312Y759904D01*
X868306Y759793D01*
X868297Y759681D01*
X868284Y759570D01*
X868266Y759460D01*
X868246Y759350D01*
X868221Y759241D01*
X868193Y759133D01*
X868161Y759026D01*
X868125Y758920D01*
X868086Y758815D01*
X868043Y758712D01*
X867997Y758610D01*
X867947Y758510D01*
X867894Y758411D01*
X867837Y758315D01*
X867778Y758220D01*
X867715Y758128D01*
X867649Y758038D01*
X867580Y757950D01*
X867508Y757864D01*
X867433Y757781D01*
X867355Y757701D01*
X867275Y757623D01*
X867192Y757548D01*
X867106Y757476D01*
X867018Y757407D01*
X866928Y757341D01*
X866836Y757278D01*
X866741Y757219D01*
X866645Y757162D01*
X866546Y757109D01*
X866446Y757059D01*
X866344Y757013D01*
X866241Y756970D01*
X866136Y756931D01*
X866030Y756895D01*
X865923Y756863D01*
X865815Y756835D01*
X865706Y756810D01*
X865596Y756790D01*
X865486Y756772D01*
X865375Y756759D01*
X865263Y756750D01*
X865152Y756744D01*
X865040Y756742D01*
D11*
X1067750Y694613D02*
X1067750Y691613D01*
X1064750Y691613D01*
X1030750Y691613D02*
X1027750Y691613D01*
X1027750Y694613D01*
X1027750Y726613D02*
X1027750Y729613D01*
X1030750Y729613D01*
X1064750Y729613D02*
X1067750Y729613D01*
X1067750Y726613D01*
D12*
X1037504Y736930D02*
X1037504Y744296D01*
X1036686Y736930D02*
X1038323Y736930D01*
X1038323Y744296D02*
X1036686Y744296D01*
X1042924Y736930D02*
X1044561Y736930D01*
X1042924Y736929D02*
X1042846Y736931D01*
X1042768Y736936D01*
X1042691Y736946D01*
X1042614Y736959D01*
X1042538Y736975D01*
X1042463Y736995D01*
X1042389Y737019D01*
X1042316Y737046D01*
X1042244Y737077D01*
X1042174Y737111D01*
X1042106Y737148D01*
X1042039Y737189D01*
X1041974Y737233D01*
X1041912Y737279D01*
X1041852Y737329D01*
X1041794Y737381D01*
X1041739Y737436D01*
X1041687Y737494D01*
X1041637Y737554D01*
X1041591Y737616D01*
X1041547Y737681D01*
X1041506Y737748D01*
X1041469Y737816D01*
X1041435Y737886D01*
X1041404Y737958D01*
X1041377Y738031D01*
X1041353Y738105D01*
X1041333Y738180D01*
X1041317Y738256D01*
X1041304Y738333D01*
X1041294Y738410D01*
X1041289Y738488D01*
X1041287Y738566D01*
X1041287Y742659D01*
X1041289Y742739D01*
X1041295Y742819D01*
X1041305Y742899D01*
X1041318Y742978D01*
X1041336Y743057D01*
X1041357Y743134D01*
X1041383Y743210D01*
X1041412Y743285D01*
X1041444Y743359D01*
X1041480Y743431D01*
X1041520Y743501D01*
X1041563Y743568D01*
X1041609Y743634D01*
X1041659Y743697D01*
X1041711Y743758D01*
X1041766Y743817D01*
X1041825Y743872D01*
X1041885Y743924D01*
X1041949Y743974D01*
X1042015Y744020D01*
X1042082Y744063D01*
X1042152Y744103D01*
X1042224Y744139D01*
X1042298Y744171D01*
X1042372Y744200D01*
X1042449Y744226D01*
X1042526Y744247D01*
X1042605Y744265D01*
X1042684Y744278D01*
X1042764Y744288D01*
X1042844Y744294D01*
X1042924Y744296D01*
X1044561Y744296D01*
X1049657Y744296D02*
X1049742Y744294D01*
X1049827Y744288D01*
X1049911Y744278D01*
X1049995Y744265D01*
X1050079Y744247D01*
X1050161Y744226D01*
X1050242Y744201D01*
X1050322Y744172D01*
X1050401Y744139D01*
X1050478Y744103D01*
X1050553Y744063D01*
X1050627Y744020D01*
X1050698Y743974D01*
X1050767Y743924D01*
X1050834Y743871D01*
X1050898Y743815D01*
X1050959Y743756D01*
X1051018Y743695D01*
X1051074Y743631D01*
X1051127Y743564D01*
X1051177Y743495D01*
X1051223Y743424D01*
X1051266Y743350D01*
X1051306Y743275D01*
X1051342Y743198D01*
X1051375Y743119D01*
X1051404Y743039D01*
X1051429Y742958D01*
X1051450Y742876D01*
X1051468Y742792D01*
X1051481Y742708D01*
X1051491Y742624D01*
X1051497Y742539D01*
X1051499Y742454D01*
X1049657Y744296D02*
X1049561Y744294D01*
X1049465Y744288D01*
X1049370Y744278D01*
X1049275Y744265D01*
X1049180Y744247D01*
X1049087Y744226D01*
X1048994Y744201D01*
X1048903Y744172D01*
X1048812Y744140D01*
X1048723Y744104D01*
X1048636Y744064D01*
X1048550Y744021D01*
X1048466Y743975D01*
X1048384Y743925D01*
X1048304Y743871D01*
X1048227Y743815D01*
X1048152Y743755D01*
X1048079Y743693D01*
X1048009Y743627D01*
X1047941Y743559D01*
X1047876Y743488D01*
X1047815Y743415D01*
X1047756Y743339D01*
X1047700Y743260D01*
X1047648Y743180D01*
X1047599Y743097D01*
X1047553Y743013D01*
X1047511Y742927D01*
X1047473Y742839D01*
X1047438Y742750D01*
X1047406Y742659D01*
X1050885Y741022D02*
X1050945Y741081D01*
X1051002Y741143D01*
X1051057Y741207D01*
X1051108Y741274D01*
X1051157Y741343D01*
X1051203Y741413D01*
X1051246Y741486D01*
X1051286Y741560D01*
X1051322Y741636D01*
X1051355Y741714D01*
X1051385Y741793D01*
X1051412Y741873D01*
X1051435Y741954D01*
X1051454Y742036D01*
X1051470Y742118D01*
X1051483Y742202D01*
X1051492Y742286D01*
X1051497Y742370D01*
X1051499Y742454D01*
X1050885Y741022D02*
X1047407Y736930D01*
X1051499Y736930D01*
X1054722Y740613D02*
X1054724Y740766D01*
X1054730Y740919D01*
X1054739Y741071D01*
X1054753Y741224D01*
X1054770Y741376D01*
X1054791Y741527D01*
X1054816Y741678D01*
X1054845Y741828D01*
X1054877Y741978D01*
X1054914Y742126D01*
X1054954Y742274D01*
X1054997Y742421D01*
X1055045Y742566D01*
X1055096Y742710D01*
X1055150Y742853D01*
X1055209Y742995D01*
X1055270Y743134D01*
X1055336Y743273D01*
X1055336Y743272D02*
X1055362Y743342D01*
X1055392Y743412D01*
X1055425Y743479D01*
X1055461Y743545D01*
X1055500Y743609D01*
X1055543Y743671D01*
X1055589Y743730D01*
X1055637Y743788D01*
X1055688Y743842D01*
X1055742Y743895D01*
X1055799Y743944D01*
X1055858Y743991D01*
X1055919Y744034D01*
X1055982Y744075D01*
X1056047Y744112D01*
X1056114Y744147D01*
X1056183Y744177D01*
X1056253Y744205D01*
X1056324Y744228D01*
X1056396Y744249D01*
X1056469Y744265D01*
X1056543Y744278D01*
X1056618Y744288D01*
X1056693Y744293D01*
X1056768Y744295D01*
X1056843Y744293D01*
X1056918Y744288D01*
X1056993Y744278D01*
X1057067Y744265D01*
X1057140Y744249D01*
X1057212Y744228D01*
X1057283Y744205D01*
X1057353Y744177D01*
X1057422Y744147D01*
X1057489Y744112D01*
X1057554Y744075D01*
X1057617Y744034D01*
X1057678Y743991D01*
X1057737Y743944D01*
X1057794Y743895D01*
X1057848Y743842D01*
X1057899Y743788D01*
X1057948Y743730D01*
X1057993Y743671D01*
X1058036Y743609D01*
X1058075Y743545D01*
X1058112Y743479D01*
X1058144Y743411D01*
X1058174Y743342D01*
X1058200Y743272D01*
X1058200Y743273D02*
X1058265Y743135D01*
X1058327Y742995D01*
X1058385Y742853D01*
X1058440Y742710D01*
X1058491Y742566D01*
X1058539Y742421D01*
X1058582Y742274D01*
X1058622Y742127D01*
X1058659Y741978D01*
X1058691Y741828D01*
X1058720Y741678D01*
X1058745Y741527D01*
X1058766Y741376D01*
X1058783Y741224D01*
X1058797Y741071D01*
X1058806Y740919D01*
X1058812Y740766D01*
X1058814Y740613D01*
X1054721Y740613D02*
X1054723Y740460D01*
X1054729Y740307D01*
X1054738Y740154D01*
X1054752Y740002D01*
X1054769Y739850D01*
X1054790Y739699D01*
X1054815Y739548D01*
X1054844Y739397D01*
X1054876Y739248D01*
X1054913Y739099D01*
X1054953Y738952D01*
X1054996Y738805D01*
X1055044Y738660D01*
X1055095Y738515D01*
X1055150Y738373D01*
X1055208Y738231D01*
X1055270Y738091D01*
X1055335Y737953D01*
X1055336Y737953D02*
X1055362Y737882D01*
X1055392Y737813D01*
X1055425Y737746D01*
X1055461Y737680D01*
X1055500Y737616D01*
X1055543Y737554D01*
X1055589Y737495D01*
X1055637Y737437D01*
X1055688Y737383D01*
X1055742Y737330D01*
X1055799Y737281D01*
X1055858Y737234D01*
X1055919Y737191D01*
X1055982Y737150D01*
X1056047Y737113D01*
X1056114Y737078D01*
X1056183Y737048D01*
X1056253Y737020D01*
X1056324Y736997D01*
X1056396Y736976D01*
X1056469Y736960D01*
X1056543Y736947D01*
X1056618Y736937D01*
X1056693Y736932D01*
X1056768Y736930D01*
X1058200Y737953D02*
X1058265Y738091D01*
X1058327Y738231D01*
X1058385Y738373D01*
X1058440Y738516D01*
X1058491Y738660D01*
X1058539Y738805D01*
X1058582Y738952D01*
X1058622Y739100D01*
X1058659Y739248D01*
X1058691Y739398D01*
X1058720Y739548D01*
X1058745Y739699D01*
X1058766Y739850D01*
X1058783Y740002D01*
X1058797Y740155D01*
X1058806Y740307D01*
X1058812Y740460D01*
X1058814Y740613D01*
X1058200Y737953D02*
X1058174Y737883D01*
X1058144Y737813D01*
X1058112Y737746D01*
X1058075Y737680D01*
X1058036Y737616D01*
X1057993Y737554D01*
X1057947Y737495D01*
X1057899Y737437D01*
X1057848Y737383D01*
X1057794Y737330D01*
X1057737Y737281D01*
X1057678Y737234D01*
X1057617Y737191D01*
X1057554Y737150D01*
X1057489Y737113D01*
X1057422Y737078D01*
X1057353Y737048D01*
X1057283Y737020D01*
X1057212Y736997D01*
X1057140Y736976D01*
X1057067Y736960D01*
X1056993Y736947D01*
X1056918Y736937D01*
X1056843Y736932D01*
X1056768Y736930D01*
X1055131Y738566D02*
X1058405Y742659D01*
D11*
X1312341Y426232D02*
X1310841Y423634D01*
X1308242Y425134D01*
X1278798Y442134D02*
X1276199Y443634D01*
X1277699Y446232D01*
X1293699Y473944D02*
X1295199Y476542D01*
X1297798Y475042D01*
X1327242Y458042D02*
X1329841Y456542D01*
X1328341Y453944D01*
D12*
X1307306Y476040D02*
X1310989Y482419D01*
X1306597Y476450D02*
X1308014Y475631D01*
X1311697Y482010D02*
X1310280Y482829D01*
X1311999Y473330D02*
X1313417Y472512D01*
X1311999Y473330D02*
X1311933Y473371D01*
X1311868Y473415D01*
X1311806Y473461D01*
X1311746Y473511D01*
X1311688Y473563D01*
X1311633Y473618D01*
X1311581Y473676D01*
X1311531Y473736D01*
X1311485Y473798D01*
X1311441Y473863D01*
X1311400Y473930D01*
X1311363Y473998D01*
X1311329Y474068D01*
X1311298Y474140D01*
X1311271Y474213D01*
X1311247Y474287D01*
X1311227Y474362D01*
X1311211Y474438D01*
X1311198Y474515D01*
X1311188Y474592D01*
X1311183Y474670D01*
X1311181Y474748D01*
X1311183Y474826D01*
X1311188Y474904D01*
X1311198Y474981D01*
X1311211Y475058D01*
X1311227Y475134D01*
X1311247Y475209D01*
X1311271Y475283D01*
X1311298Y475356D01*
X1311329Y475428D01*
X1311363Y475498D01*
X1311400Y475567D01*
X1311400Y475566D02*
X1313446Y479110D01*
X1313446Y479111D02*
X1313487Y479177D01*
X1313531Y479242D01*
X1313577Y479304D01*
X1313627Y479364D01*
X1313679Y479422D01*
X1313734Y479477D01*
X1313792Y479529D01*
X1313852Y479579D01*
X1313914Y479625D01*
X1313979Y479669D01*
X1314046Y479710D01*
X1314114Y479747D01*
X1314184Y479781D01*
X1314256Y479812D01*
X1314329Y479839D01*
X1314403Y479863D01*
X1314478Y479883D01*
X1314554Y479899D01*
X1314631Y479912D01*
X1314708Y479922D01*
X1314786Y479927D01*
X1314864Y479929D01*
X1314942Y479927D01*
X1315020Y479922D01*
X1315097Y479912D01*
X1315174Y479899D01*
X1315250Y479883D01*
X1315325Y479863D01*
X1315399Y479839D01*
X1315472Y479812D01*
X1315544Y479781D01*
X1315614Y479747D01*
X1315683Y479710D01*
X1315682Y479710D02*
X1317100Y478891D01*
X1321513Y476343D02*
X1321586Y476299D01*
X1321656Y476251D01*
X1321725Y476201D01*
X1321790Y476147D01*
X1321854Y476090D01*
X1321914Y476030D01*
X1321972Y475968D01*
X1322027Y475903D01*
X1322079Y475835D01*
X1322128Y475765D01*
X1322173Y475693D01*
X1322215Y475619D01*
X1322253Y475544D01*
X1322288Y475466D01*
X1322320Y475387D01*
X1322347Y475306D01*
X1322371Y475225D01*
X1322391Y475142D01*
X1322408Y475059D01*
X1322420Y474974D01*
X1322429Y474890D01*
X1322433Y474805D01*
X1322434Y474720D01*
X1322431Y474635D01*
X1322423Y474550D01*
X1322412Y474465D01*
X1322397Y474382D01*
X1322378Y474299D01*
X1322356Y474217D01*
X1322329Y474136D01*
X1322299Y474056D01*
X1322265Y473978D01*
X1322228Y473902D01*
X1322187Y473827D01*
X1321513Y476343D02*
X1321429Y476389D01*
X1321343Y476432D01*
X1321256Y476471D01*
X1321166Y476507D01*
X1321076Y476539D01*
X1320984Y476568D01*
X1320892Y476592D01*
X1320798Y476613D01*
X1320703Y476630D01*
X1320608Y476644D01*
X1320513Y476653D01*
X1320417Y476658D01*
X1320321Y476660D01*
X1320225Y476658D01*
X1320129Y476651D01*
X1320034Y476641D01*
X1319939Y476627D01*
X1319845Y476610D01*
X1319751Y476588D01*
X1319659Y476563D01*
X1319567Y476534D01*
X1319477Y476501D01*
X1319388Y476464D01*
X1319301Y476424D01*
X1319215Y476381D01*
X1319131Y476334D01*
X1319050Y476284D01*
X1318970Y476230D01*
X1318893Y476173D01*
X1318818Y476114D01*
X1318745Y476051D01*
X1320939Y472895D02*
X1321021Y472916D01*
X1321101Y472941D01*
X1321181Y472970D01*
X1321259Y473001D01*
X1321335Y473036D01*
X1321410Y473075D01*
X1321484Y473116D01*
X1321555Y473161D01*
X1321625Y473208D01*
X1321692Y473259D01*
X1321758Y473312D01*
X1321821Y473368D01*
X1321881Y473427D01*
X1321939Y473488D01*
X1321994Y473552D01*
X1322047Y473618D01*
X1322097Y473686D01*
X1322143Y473756D01*
X1322187Y473828D01*
X1320939Y472894D02*
X1315881Y471089D01*
X1319425Y469043D01*
X1325081Y472393D02*
X1327671Y472788D01*
X1323988Y466409D01*
X1322216Y467432D02*
X1325760Y465386D01*
D11*
X1476679Y330461D02*
X1475179Y327863D01*
X1472580Y329363D01*
X1443136Y346363D02*
X1440537Y347863D01*
X1442037Y350461D01*
X1458037Y378174D02*
X1459537Y380772D01*
X1462136Y379272D01*
X1491580Y362272D02*
X1494179Y360772D01*
X1492679Y358174D01*
D12*
X1471644Y380270D02*
X1475327Y386649D01*
X1470935Y380679D02*
X1472352Y379860D01*
X1476035Y386240D02*
X1474618Y387058D01*
X1476337Y377560D02*
X1477755Y376741D01*
X1476337Y377559D02*
X1476271Y377600D01*
X1476206Y377644D01*
X1476144Y377690D01*
X1476084Y377740D01*
X1476026Y377792D01*
X1475971Y377847D01*
X1475919Y377905D01*
X1475869Y377965D01*
X1475823Y378027D01*
X1475779Y378092D01*
X1475738Y378159D01*
X1475701Y378227D01*
X1475667Y378297D01*
X1475636Y378369D01*
X1475609Y378442D01*
X1475585Y378516D01*
X1475565Y378591D01*
X1475549Y378667D01*
X1475536Y378744D01*
X1475526Y378821D01*
X1475521Y378899D01*
X1475519Y378977D01*
X1475521Y379055D01*
X1475526Y379133D01*
X1475536Y379210D01*
X1475549Y379287D01*
X1475565Y379363D01*
X1475585Y379438D01*
X1475609Y379512D01*
X1475636Y379585D01*
X1475667Y379657D01*
X1475701Y379727D01*
X1475738Y379796D01*
X1477784Y383340D01*
X1477825Y383406D01*
X1477869Y383471D01*
X1477915Y383533D01*
X1477965Y383593D01*
X1478017Y383651D01*
X1478072Y383706D01*
X1478130Y383758D01*
X1478190Y383808D01*
X1478252Y383854D01*
X1478317Y383898D01*
X1478384Y383939D01*
X1478452Y383976D01*
X1478522Y384010D01*
X1478594Y384041D01*
X1478667Y384068D01*
X1478741Y384092D01*
X1478816Y384112D01*
X1478892Y384128D01*
X1478969Y384141D01*
X1479046Y384151D01*
X1479124Y384156D01*
X1479202Y384158D01*
X1479280Y384156D01*
X1479358Y384151D01*
X1479435Y384141D01*
X1479512Y384128D01*
X1479588Y384112D01*
X1479663Y384092D01*
X1479737Y384068D01*
X1479810Y384041D01*
X1479882Y384010D01*
X1479952Y383976D01*
X1480021Y383939D01*
X1480020Y383939D02*
X1481438Y383120D01*
X1485851Y380573D02*
X1485924Y380529D01*
X1485994Y380481D01*
X1486063Y380431D01*
X1486128Y380377D01*
X1486192Y380320D01*
X1486252Y380260D01*
X1486310Y380198D01*
X1486365Y380133D01*
X1486417Y380065D01*
X1486466Y379995D01*
X1486511Y379923D01*
X1486553Y379849D01*
X1486591Y379774D01*
X1486626Y379696D01*
X1486658Y379617D01*
X1486685Y379536D01*
X1486709Y379455D01*
X1486729Y379372D01*
X1486746Y379289D01*
X1486758Y379204D01*
X1486767Y379120D01*
X1486771Y379035D01*
X1486772Y378950D01*
X1486769Y378865D01*
X1486761Y378780D01*
X1486750Y378695D01*
X1486735Y378612D01*
X1486716Y378529D01*
X1486694Y378447D01*
X1486667Y378366D01*
X1486637Y378286D01*
X1486603Y378208D01*
X1486566Y378132D01*
X1486525Y378057D01*
X1485851Y380573D02*
X1485767Y380619D01*
X1485681Y380662D01*
X1485594Y380701D01*
X1485504Y380737D01*
X1485414Y380769D01*
X1485322Y380798D01*
X1485230Y380822D01*
X1485136Y380843D01*
X1485041Y380860D01*
X1484946Y380874D01*
X1484851Y380883D01*
X1484755Y380888D01*
X1484659Y380890D01*
X1484563Y380888D01*
X1484467Y380881D01*
X1484372Y380871D01*
X1484277Y380857D01*
X1484183Y380840D01*
X1484089Y380818D01*
X1483997Y380793D01*
X1483905Y380764D01*
X1483815Y380731D01*
X1483726Y380694D01*
X1483639Y380654D01*
X1483553Y380611D01*
X1483469Y380564D01*
X1483388Y380514D01*
X1483308Y380460D01*
X1483231Y380403D01*
X1483156Y380344D01*
X1483083Y380281D01*
X1485277Y377124D02*
X1485359Y377145D01*
X1485439Y377170D01*
X1485519Y377199D01*
X1485597Y377230D01*
X1485673Y377265D01*
X1485748Y377304D01*
X1485822Y377345D01*
X1485893Y377390D01*
X1485963Y377437D01*
X1486030Y377488D01*
X1486096Y377541D01*
X1486159Y377597D01*
X1486219Y377656D01*
X1486277Y377717D01*
X1486332Y377781D01*
X1486385Y377847D01*
X1486435Y377915D01*
X1486481Y377985D01*
X1486525Y378057D01*
X1485277Y377123D02*
X1480219Y375319D01*
X1483763Y373273D01*
X1492860Y374399D02*
X1492901Y374474D01*
X1492938Y374550D01*
X1492972Y374628D01*
X1493002Y374708D01*
X1493029Y374789D01*
X1493051Y374871D01*
X1493070Y374954D01*
X1493085Y375037D01*
X1493096Y375122D01*
X1493104Y375207D01*
X1493107Y375292D01*
X1493106Y375377D01*
X1493102Y375462D01*
X1493093Y375546D01*
X1493081Y375631D01*
X1493064Y375714D01*
X1493044Y375797D01*
X1493020Y375878D01*
X1492993Y375959D01*
X1492961Y376038D01*
X1492926Y376116D01*
X1492888Y376191D01*
X1492846Y376265D01*
X1492801Y376337D01*
X1492752Y376407D01*
X1492700Y376475D01*
X1492645Y376540D01*
X1492587Y376602D01*
X1492527Y376662D01*
X1492463Y376719D01*
X1492398Y376773D01*
X1492329Y376823D01*
X1492259Y376871D01*
X1492186Y376915D01*
X1492102Y376961D01*
X1492016Y377004D01*
X1491929Y377043D01*
X1491839Y377079D01*
X1491749Y377111D01*
X1491657Y377140D01*
X1491565Y377164D01*
X1491471Y377185D01*
X1491376Y377202D01*
X1491281Y377216D01*
X1491186Y377225D01*
X1491090Y377230D01*
X1490994Y377232D01*
X1490898Y377230D01*
X1490802Y377223D01*
X1490707Y377213D01*
X1490612Y377199D01*
X1490518Y377182D01*
X1490424Y377160D01*
X1490332Y377135D01*
X1490240Y377106D01*
X1490150Y377073D01*
X1490061Y377036D01*
X1489974Y376996D01*
X1489888Y376953D01*
X1489804Y376906D01*
X1489723Y376856D01*
X1489643Y376802D01*
X1489566Y376745D01*
X1489491Y376686D01*
X1489418Y376623D01*
X1491612Y373466D02*
X1491694Y373487D01*
X1491774Y373512D01*
X1491854Y373541D01*
X1491932Y373572D01*
X1492008Y373607D01*
X1492083Y373646D01*
X1492157Y373687D01*
X1492228Y373732D01*
X1492298Y373779D01*
X1492365Y373830D01*
X1492431Y373883D01*
X1492494Y373939D01*
X1492554Y373998D01*
X1492612Y374059D01*
X1492667Y374123D01*
X1492720Y374189D01*
X1492770Y374257D01*
X1492816Y374327D01*
X1492860Y374399D01*
X1491613Y373466D02*
X1486554Y371661D01*
X1490098Y369615D01*
X1037505Y546430D02*
X1037505Y553796D01*
X1036686Y546430D02*
X1038323Y546430D01*
X1038323Y553796D02*
X1036686Y553796D01*
X1042924Y546430D02*
X1044561Y546430D01*
X1042924Y546429D02*
X1042846Y546431D01*
X1042768Y546436D01*
X1042691Y546446D01*
X1042614Y546459D01*
X1042538Y546475D01*
X1042463Y546495D01*
X1042389Y546519D01*
X1042316Y546546D01*
X1042244Y546577D01*
X1042174Y546611D01*
X1042106Y546648D01*
X1042039Y546689D01*
X1041974Y546733D01*
X1041912Y546779D01*
X1041852Y546829D01*
X1041794Y546881D01*
X1041739Y546936D01*
X1041687Y546994D01*
X1041637Y547054D01*
X1041591Y547116D01*
X1041547Y547181D01*
X1041506Y547248D01*
X1041469Y547316D01*
X1041435Y547386D01*
X1041404Y547458D01*
X1041377Y547531D01*
X1041353Y547605D01*
X1041333Y547680D01*
X1041317Y547756D01*
X1041304Y547833D01*
X1041294Y547910D01*
X1041289Y547988D01*
X1041287Y548066D01*
X1041287Y552159D01*
X1041289Y552239D01*
X1041295Y552319D01*
X1041305Y552399D01*
X1041318Y552478D01*
X1041336Y552557D01*
X1041357Y552634D01*
X1041383Y552710D01*
X1041412Y552785D01*
X1041444Y552859D01*
X1041480Y552931D01*
X1041520Y553001D01*
X1041563Y553068D01*
X1041609Y553134D01*
X1041659Y553197D01*
X1041711Y553258D01*
X1041766Y553317D01*
X1041825Y553372D01*
X1041885Y553424D01*
X1041949Y553474D01*
X1042015Y553520D01*
X1042082Y553563D01*
X1042152Y553603D01*
X1042224Y553639D01*
X1042298Y553671D01*
X1042372Y553700D01*
X1042449Y553726D01*
X1042526Y553747D01*
X1042605Y553765D01*
X1042684Y553778D01*
X1042764Y553788D01*
X1042844Y553794D01*
X1042924Y553796D01*
X1044561Y553796D01*
X1049657Y553796D02*
X1049742Y553794D01*
X1049827Y553788D01*
X1049911Y553778D01*
X1049995Y553765D01*
X1050079Y553747D01*
X1050161Y553726D01*
X1050242Y553701D01*
X1050322Y553672D01*
X1050401Y553639D01*
X1050478Y553603D01*
X1050553Y553563D01*
X1050627Y553520D01*
X1050698Y553474D01*
X1050767Y553424D01*
X1050834Y553371D01*
X1050898Y553315D01*
X1050959Y553256D01*
X1051018Y553195D01*
X1051074Y553131D01*
X1051127Y553064D01*
X1051177Y552995D01*
X1051223Y552924D01*
X1051266Y552850D01*
X1051306Y552775D01*
X1051342Y552698D01*
X1051375Y552619D01*
X1051404Y552539D01*
X1051429Y552458D01*
X1051450Y552376D01*
X1051468Y552292D01*
X1051481Y552208D01*
X1051491Y552124D01*
X1051497Y552039D01*
X1051499Y551954D01*
X1049657Y553796D02*
X1049561Y553794D01*
X1049465Y553788D01*
X1049370Y553778D01*
X1049275Y553765D01*
X1049180Y553747D01*
X1049087Y553726D01*
X1048994Y553701D01*
X1048903Y553672D01*
X1048812Y553640D01*
X1048723Y553604D01*
X1048636Y553564D01*
X1048550Y553521D01*
X1048466Y553475D01*
X1048384Y553425D01*
X1048304Y553371D01*
X1048227Y553315D01*
X1048152Y553255D01*
X1048079Y553193D01*
X1048009Y553127D01*
X1047941Y553059D01*
X1047876Y552988D01*
X1047815Y552915D01*
X1047756Y552839D01*
X1047700Y552760D01*
X1047648Y552680D01*
X1047599Y552597D01*
X1047553Y552513D01*
X1047511Y552427D01*
X1047473Y552339D01*
X1047438Y552250D01*
X1047406Y552159D01*
X1050885Y550522D02*
X1050945Y550581D01*
X1051002Y550643D01*
X1051057Y550707D01*
X1051108Y550774D01*
X1051157Y550843D01*
X1051203Y550913D01*
X1051246Y550986D01*
X1051286Y551060D01*
X1051322Y551136D01*
X1051355Y551214D01*
X1051385Y551293D01*
X1051412Y551373D01*
X1051435Y551454D01*
X1051454Y551536D01*
X1051470Y551618D01*
X1051483Y551702D01*
X1051492Y551786D01*
X1051497Y551870D01*
X1051499Y551954D01*
X1050885Y550522D02*
X1047407Y546430D01*
X1051499Y546430D01*
X1054722Y546430D02*
X1056768Y546430D01*
X1056857Y546432D01*
X1056946Y546438D01*
X1057035Y546448D01*
X1057123Y546461D01*
X1057211Y546478D01*
X1057298Y546500D01*
X1057383Y546525D01*
X1057468Y546553D01*
X1057551Y546586D01*
X1057633Y546622D01*
X1057713Y546661D01*
X1057791Y546704D01*
X1057867Y546750D01*
X1057942Y546800D01*
X1058014Y546853D01*
X1058083Y546909D01*
X1058150Y546968D01*
X1058215Y547029D01*
X1058276Y547094D01*
X1058335Y547161D01*
X1058391Y547230D01*
X1058444Y547302D01*
X1058494Y547377D01*
X1058540Y547453D01*
X1058583Y547531D01*
X1058622Y547611D01*
X1058658Y547693D01*
X1058691Y547776D01*
X1058719Y547861D01*
X1058744Y547946D01*
X1058766Y548033D01*
X1058783Y548121D01*
X1058796Y548209D01*
X1058806Y548298D01*
X1058812Y548387D01*
X1058814Y548476D01*
X1058812Y548565D01*
X1058806Y548654D01*
X1058796Y548743D01*
X1058783Y548831D01*
X1058766Y548919D01*
X1058744Y549006D01*
X1058719Y549091D01*
X1058691Y549176D01*
X1058658Y549259D01*
X1058622Y549341D01*
X1058583Y549421D01*
X1058540Y549499D01*
X1058494Y549575D01*
X1058444Y549650D01*
X1058391Y549722D01*
X1058335Y549791D01*
X1058276Y549858D01*
X1058215Y549923D01*
X1058150Y549984D01*
X1058083Y550043D01*
X1058014Y550099D01*
X1057942Y550152D01*
X1057867Y550202D01*
X1057791Y550248D01*
X1057713Y550291D01*
X1057633Y550330D01*
X1057551Y550366D01*
X1057468Y550399D01*
X1057383Y550427D01*
X1057298Y550452D01*
X1057211Y550474D01*
X1057123Y550491D01*
X1057035Y550504D01*
X1056946Y550514D01*
X1056857Y550520D01*
X1056768Y550522D01*
X1057177Y553796D02*
X1054722Y553796D01*
X1057177Y553796D02*
X1057256Y553794D01*
X1057335Y553788D01*
X1057414Y553779D01*
X1057492Y553766D01*
X1057569Y553748D01*
X1057645Y553728D01*
X1057720Y553703D01*
X1057794Y553675D01*
X1057867Y553644D01*
X1057938Y553608D01*
X1058007Y553570D01*
X1058074Y553528D01*
X1058139Y553483D01*
X1058202Y553435D01*
X1058263Y553384D01*
X1058320Y553330D01*
X1058376Y553274D01*
X1058428Y553215D01*
X1058478Y553153D01*
X1058524Y553089D01*
X1058568Y553023D01*
X1058608Y552955D01*
X1058644Y552885D01*
X1058678Y552813D01*
X1058708Y552739D01*
X1058734Y552665D01*
X1058757Y552589D01*
X1058775Y552512D01*
X1058791Y552435D01*
X1058802Y552356D01*
X1058810Y552278D01*
X1058814Y552199D01*
X1058814Y552119D01*
X1058810Y552040D01*
X1058802Y551962D01*
X1058791Y551883D01*
X1058775Y551806D01*
X1058757Y551729D01*
X1058734Y551653D01*
X1058708Y551579D01*
X1058678Y551505D01*
X1058644Y551433D01*
X1058608Y551363D01*
X1058568Y551295D01*
X1058524Y551229D01*
X1058478Y551165D01*
X1058428Y551103D01*
X1058376Y551044D01*
X1058320Y550988D01*
X1058263Y550934D01*
X1058202Y550883D01*
X1058139Y550835D01*
X1058074Y550790D01*
X1058007Y550748D01*
X1057938Y550710D01*
X1057867Y550674D01*
X1057794Y550643D01*
X1057720Y550615D01*
X1057645Y550590D01*
X1057569Y550570D01*
X1057492Y550552D01*
X1057414Y550539D01*
X1057335Y550530D01*
X1057256Y550524D01*
X1057177Y550522D01*
X1055540Y550522D01*
D11*
X1027750Y539113D02*
X1027750Y536113D01*
X1027750Y539113D02*
X1030750Y539113D01*
X1064750Y539113D02*
X1067750Y539113D01*
X1067750Y536113D01*
X1067750Y504113D02*
X1067750Y501113D01*
X1064750Y501113D01*
X1030750Y501113D02*
X1027750Y501113D01*
X1027750Y504113D01*
D12*
X847005Y566242D02*
X847005Y573608D01*
X846186Y566242D02*
X847823Y566242D01*
X847823Y573608D02*
X846186Y573608D01*
X852424Y566242D02*
X854061Y566242D01*
X852424Y566242D02*
X852346Y566244D01*
X852268Y566249D01*
X852191Y566259D01*
X852114Y566272D01*
X852038Y566288D01*
X851963Y566308D01*
X851889Y566332D01*
X851816Y566359D01*
X851744Y566390D01*
X851674Y566424D01*
X851606Y566461D01*
X851539Y566502D01*
X851474Y566546D01*
X851412Y566592D01*
X851352Y566642D01*
X851294Y566694D01*
X851239Y566749D01*
X851187Y566807D01*
X851137Y566867D01*
X851091Y566929D01*
X851047Y566994D01*
X851006Y567061D01*
X850969Y567129D01*
X850935Y567199D01*
X850904Y567271D01*
X850877Y567344D01*
X850853Y567418D01*
X850833Y567493D01*
X850817Y567569D01*
X850804Y567646D01*
X850794Y567723D01*
X850789Y567801D01*
X850787Y567879D01*
X850787Y571971D01*
X850789Y572051D01*
X850795Y572131D01*
X850805Y572211D01*
X850818Y572290D01*
X850836Y572369D01*
X850857Y572446D01*
X850883Y572522D01*
X850912Y572597D01*
X850944Y572671D01*
X850980Y572743D01*
X851020Y572813D01*
X851063Y572880D01*
X851109Y572946D01*
X851159Y573009D01*
X851211Y573070D01*
X851266Y573129D01*
X851325Y573184D01*
X851385Y573236D01*
X851449Y573286D01*
X851515Y573332D01*
X851582Y573375D01*
X851652Y573415D01*
X851724Y573451D01*
X851798Y573483D01*
X851872Y573512D01*
X851949Y573538D01*
X852026Y573559D01*
X852105Y573577D01*
X852184Y573590D01*
X852264Y573600D01*
X852344Y573606D01*
X852424Y573608D01*
X854061Y573608D01*
X859157Y573609D02*
X859242Y573607D01*
X859327Y573601D01*
X859411Y573591D01*
X859495Y573578D01*
X859579Y573560D01*
X859661Y573539D01*
X859742Y573514D01*
X859822Y573485D01*
X859901Y573452D01*
X859978Y573416D01*
X860053Y573376D01*
X860127Y573333D01*
X860198Y573287D01*
X860267Y573237D01*
X860334Y573184D01*
X860398Y573128D01*
X860459Y573069D01*
X860518Y573008D01*
X860574Y572944D01*
X860627Y572877D01*
X860677Y572808D01*
X860723Y572737D01*
X860766Y572663D01*
X860806Y572588D01*
X860842Y572511D01*
X860875Y572432D01*
X860904Y572352D01*
X860929Y572271D01*
X860950Y572189D01*
X860968Y572105D01*
X860981Y572021D01*
X860991Y571937D01*
X860997Y571852D01*
X860999Y571767D01*
X859157Y573608D02*
X859061Y573606D01*
X858965Y573600D01*
X858870Y573590D01*
X858775Y573577D01*
X858680Y573559D01*
X858587Y573538D01*
X858494Y573513D01*
X858403Y573484D01*
X858312Y573452D01*
X858223Y573416D01*
X858136Y573376D01*
X858050Y573333D01*
X857966Y573287D01*
X857884Y573237D01*
X857804Y573183D01*
X857727Y573127D01*
X857652Y573067D01*
X857579Y573005D01*
X857509Y572939D01*
X857441Y572871D01*
X857376Y572800D01*
X857315Y572727D01*
X857256Y572651D01*
X857200Y572572D01*
X857148Y572492D01*
X857099Y572409D01*
X857053Y572325D01*
X857011Y572239D01*
X856973Y572151D01*
X856938Y572062D01*
X856906Y571971D01*
X860385Y570335D02*
X860445Y570394D01*
X860502Y570456D01*
X860557Y570520D01*
X860608Y570587D01*
X860657Y570656D01*
X860703Y570726D01*
X860746Y570799D01*
X860786Y570873D01*
X860822Y570949D01*
X860855Y571027D01*
X860885Y571106D01*
X860912Y571186D01*
X860935Y571267D01*
X860954Y571349D01*
X860970Y571431D01*
X860983Y571515D01*
X860992Y571599D01*
X860997Y571683D01*
X860999Y571767D01*
X860385Y570334D02*
X856907Y566242D01*
X860999Y566242D01*
X864222Y567879D02*
X865859Y573608D01*
X864222Y567879D02*
X868314Y567879D01*
X867086Y569516D02*
X867086Y566242D01*
D11*
X837250Y558925D02*
X837250Y555925D01*
X837250Y558925D02*
X840250Y558925D01*
X874250Y558925D02*
X877250Y558925D01*
X877250Y555925D01*
X877250Y523925D02*
X877250Y520925D01*
X874250Y520925D01*
X840250Y520925D02*
X837250Y520925D01*
X837250Y523925D01*
D12*
X656505Y591055D02*
X656505Y598421D01*
X655686Y591055D02*
X657323Y591055D01*
X657323Y598421D02*
X655686Y598421D01*
X661924Y591055D02*
X663561Y591055D01*
X661924Y591054D02*
X661846Y591056D01*
X661768Y591061D01*
X661691Y591071D01*
X661614Y591084D01*
X661538Y591100D01*
X661463Y591120D01*
X661389Y591144D01*
X661316Y591171D01*
X661244Y591202D01*
X661174Y591236D01*
X661106Y591273D01*
X661039Y591314D01*
X660974Y591358D01*
X660912Y591404D01*
X660852Y591454D01*
X660794Y591506D01*
X660739Y591561D01*
X660687Y591619D01*
X660637Y591679D01*
X660591Y591741D01*
X660547Y591806D01*
X660506Y591873D01*
X660469Y591941D01*
X660435Y592011D01*
X660404Y592083D01*
X660377Y592156D01*
X660353Y592230D01*
X660333Y592305D01*
X660317Y592381D01*
X660304Y592458D01*
X660294Y592535D01*
X660289Y592613D01*
X660287Y592691D01*
X660287Y596784D01*
X660289Y596864D01*
X660295Y596944D01*
X660305Y597024D01*
X660318Y597103D01*
X660336Y597182D01*
X660357Y597259D01*
X660383Y597335D01*
X660412Y597410D01*
X660444Y597484D01*
X660480Y597556D01*
X660520Y597626D01*
X660563Y597693D01*
X660609Y597759D01*
X660659Y597822D01*
X660711Y597883D01*
X660766Y597942D01*
X660825Y597997D01*
X660885Y598049D01*
X660949Y598099D01*
X661015Y598145D01*
X661082Y598188D01*
X661152Y598228D01*
X661224Y598264D01*
X661298Y598296D01*
X661372Y598325D01*
X661449Y598351D01*
X661526Y598372D01*
X661605Y598390D01*
X661684Y598403D01*
X661764Y598413D01*
X661844Y598419D01*
X661924Y598421D01*
X663561Y598421D01*
X668657Y598421D02*
X668742Y598419D01*
X668827Y598413D01*
X668911Y598403D01*
X668995Y598390D01*
X669079Y598372D01*
X669161Y598351D01*
X669242Y598326D01*
X669322Y598297D01*
X669401Y598264D01*
X669478Y598228D01*
X669553Y598188D01*
X669627Y598145D01*
X669698Y598099D01*
X669767Y598049D01*
X669834Y597996D01*
X669898Y597940D01*
X669959Y597881D01*
X670018Y597820D01*
X670074Y597756D01*
X670127Y597689D01*
X670177Y597620D01*
X670223Y597549D01*
X670266Y597475D01*
X670306Y597400D01*
X670342Y597323D01*
X670375Y597244D01*
X670404Y597164D01*
X670429Y597083D01*
X670450Y597001D01*
X670468Y596917D01*
X670481Y596833D01*
X670491Y596749D01*
X670497Y596664D01*
X670499Y596579D01*
X668657Y598421D02*
X668561Y598419D01*
X668465Y598413D01*
X668370Y598403D01*
X668275Y598390D01*
X668180Y598372D01*
X668087Y598351D01*
X667994Y598326D01*
X667903Y598297D01*
X667812Y598265D01*
X667723Y598229D01*
X667636Y598189D01*
X667550Y598146D01*
X667466Y598100D01*
X667384Y598050D01*
X667304Y597996D01*
X667227Y597940D01*
X667152Y597880D01*
X667079Y597818D01*
X667009Y597752D01*
X666941Y597684D01*
X666876Y597613D01*
X666815Y597540D01*
X666756Y597464D01*
X666700Y597385D01*
X666648Y597305D01*
X666599Y597222D01*
X666553Y597138D01*
X666511Y597052D01*
X666473Y596964D01*
X666438Y596875D01*
X666406Y596784D01*
X669885Y595147D02*
X669945Y595206D01*
X670002Y595268D01*
X670057Y595332D01*
X670108Y595399D01*
X670157Y595468D01*
X670203Y595538D01*
X670246Y595611D01*
X670286Y595685D01*
X670322Y595761D01*
X670355Y595839D01*
X670385Y595918D01*
X670412Y595998D01*
X670435Y596079D01*
X670454Y596161D01*
X670470Y596243D01*
X670483Y596327D01*
X670492Y596411D01*
X670497Y596495D01*
X670499Y596579D01*
X669885Y595147D02*
X666407Y591055D01*
X670499Y591055D01*
X673722Y591055D02*
X676177Y591055D01*
X676177Y591054D02*
X676255Y591056D01*
X676333Y591061D01*
X676410Y591071D01*
X676487Y591084D01*
X676563Y591100D01*
X676638Y591120D01*
X676712Y591144D01*
X676785Y591171D01*
X676857Y591202D01*
X676927Y591236D01*
X676996Y591273D01*
X677062Y591314D01*
X677127Y591358D01*
X677189Y591404D01*
X677249Y591454D01*
X677307Y591506D01*
X677362Y591561D01*
X677414Y591619D01*
X677464Y591679D01*
X677510Y591741D01*
X677554Y591806D01*
X677595Y591873D01*
X677632Y591941D01*
X677666Y592011D01*
X677697Y592083D01*
X677724Y592156D01*
X677748Y592230D01*
X677768Y592305D01*
X677784Y592381D01*
X677797Y592458D01*
X677807Y592535D01*
X677812Y592613D01*
X677814Y592691D01*
X677814Y593510D01*
X677812Y593588D01*
X677807Y593666D01*
X677797Y593743D01*
X677784Y593820D01*
X677768Y593896D01*
X677748Y593971D01*
X677724Y594045D01*
X677697Y594118D01*
X677666Y594190D01*
X677632Y594260D01*
X677595Y594329D01*
X677554Y594395D01*
X677510Y594460D01*
X677464Y594522D01*
X677414Y594582D01*
X677362Y594640D01*
X677307Y594695D01*
X677249Y594747D01*
X677189Y594797D01*
X677127Y594843D01*
X677062Y594887D01*
X676996Y594928D01*
X676927Y594965D01*
X676857Y594999D01*
X676785Y595030D01*
X676712Y595057D01*
X676638Y595081D01*
X676563Y595101D01*
X676487Y595117D01*
X676410Y595130D01*
X676333Y595140D01*
X676255Y595145D01*
X676177Y595147D01*
X673722Y595147D01*
X673722Y598421D01*
X677814Y598421D01*
D11*
X646750Y583738D02*
X646750Y580738D01*
X646750Y583738D02*
X649750Y583738D01*
X683750Y583738D02*
X686750Y583738D01*
X686750Y580738D01*
X686750Y548738D02*
X686750Y545738D01*
X683750Y545738D01*
X649750Y545738D02*
X646750Y545738D01*
X646750Y548738D01*
D12*
X466005Y566242D02*
X466005Y573608D01*
X465186Y566242D02*
X466823Y566242D01*
X466823Y573608D02*
X465186Y573608D01*
X471424Y566242D02*
X473061Y566242D01*
X471424Y566242D02*
X471346Y566244D01*
X471268Y566249D01*
X471191Y566259D01*
X471114Y566272D01*
X471038Y566288D01*
X470963Y566308D01*
X470889Y566332D01*
X470816Y566359D01*
X470744Y566390D01*
X470674Y566424D01*
X470606Y566461D01*
X470539Y566502D01*
X470474Y566546D01*
X470412Y566592D01*
X470352Y566642D01*
X470294Y566694D01*
X470239Y566749D01*
X470187Y566807D01*
X470137Y566867D01*
X470091Y566929D01*
X470047Y566994D01*
X470006Y567061D01*
X469969Y567129D01*
X469935Y567199D01*
X469904Y567271D01*
X469877Y567344D01*
X469853Y567418D01*
X469833Y567493D01*
X469817Y567569D01*
X469804Y567646D01*
X469794Y567723D01*
X469789Y567801D01*
X469787Y567879D01*
X469787Y571971D01*
X469789Y572051D01*
X469795Y572131D01*
X469805Y572211D01*
X469818Y572290D01*
X469836Y572369D01*
X469857Y572446D01*
X469883Y572522D01*
X469912Y572597D01*
X469944Y572671D01*
X469980Y572743D01*
X470020Y572813D01*
X470063Y572880D01*
X470109Y572946D01*
X470159Y573009D01*
X470211Y573070D01*
X470266Y573129D01*
X470325Y573184D01*
X470385Y573236D01*
X470449Y573286D01*
X470515Y573332D01*
X470582Y573375D01*
X470652Y573415D01*
X470724Y573451D01*
X470798Y573483D01*
X470872Y573512D01*
X470949Y573538D01*
X471026Y573559D01*
X471105Y573577D01*
X471184Y573590D01*
X471264Y573600D01*
X471344Y573606D01*
X471424Y573608D01*
X473061Y573608D01*
X478157Y573609D02*
X478242Y573607D01*
X478327Y573601D01*
X478411Y573591D01*
X478495Y573578D01*
X478579Y573560D01*
X478661Y573539D01*
X478742Y573514D01*
X478822Y573485D01*
X478901Y573452D01*
X478978Y573416D01*
X479053Y573376D01*
X479127Y573333D01*
X479198Y573287D01*
X479267Y573237D01*
X479334Y573184D01*
X479398Y573128D01*
X479459Y573069D01*
X479518Y573008D01*
X479574Y572944D01*
X479627Y572877D01*
X479677Y572808D01*
X479723Y572737D01*
X479766Y572663D01*
X479806Y572588D01*
X479842Y572511D01*
X479875Y572432D01*
X479904Y572352D01*
X479929Y572271D01*
X479950Y572189D01*
X479968Y572105D01*
X479981Y572021D01*
X479991Y571937D01*
X479997Y571852D01*
X479999Y571767D01*
X478157Y573608D02*
X478061Y573606D01*
X477965Y573600D01*
X477870Y573590D01*
X477775Y573577D01*
X477680Y573559D01*
X477587Y573538D01*
X477494Y573513D01*
X477403Y573484D01*
X477312Y573452D01*
X477223Y573416D01*
X477136Y573376D01*
X477050Y573333D01*
X476966Y573287D01*
X476884Y573237D01*
X476804Y573183D01*
X476727Y573127D01*
X476652Y573067D01*
X476579Y573005D01*
X476509Y572939D01*
X476441Y572871D01*
X476376Y572800D01*
X476315Y572727D01*
X476256Y572651D01*
X476200Y572572D01*
X476148Y572492D01*
X476099Y572409D01*
X476053Y572325D01*
X476011Y572239D01*
X475973Y572151D01*
X475938Y572062D01*
X475906Y571971D01*
X479385Y570335D02*
X479445Y570394D01*
X479502Y570456D01*
X479557Y570520D01*
X479608Y570587D01*
X479657Y570656D01*
X479703Y570726D01*
X479746Y570799D01*
X479786Y570873D01*
X479822Y570949D01*
X479855Y571027D01*
X479885Y571106D01*
X479912Y571186D01*
X479935Y571267D01*
X479954Y571349D01*
X479970Y571431D01*
X479983Y571515D01*
X479992Y571599D01*
X479997Y571683D01*
X479999Y571767D01*
X479385Y570334D02*
X475907Y566242D01*
X479999Y566242D01*
X483222Y570334D02*
X485677Y570334D01*
X485755Y570332D01*
X485833Y570327D01*
X485910Y570317D01*
X485987Y570304D01*
X486063Y570288D01*
X486138Y570268D01*
X486212Y570244D01*
X486285Y570217D01*
X486357Y570186D01*
X486427Y570152D01*
X486496Y570115D01*
X486562Y570074D01*
X486627Y570030D01*
X486689Y569984D01*
X486749Y569934D01*
X486807Y569882D01*
X486862Y569827D01*
X486914Y569769D01*
X486964Y569709D01*
X487010Y569647D01*
X487054Y569582D01*
X487095Y569516D01*
X487132Y569447D01*
X487166Y569377D01*
X487197Y569305D01*
X487224Y569232D01*
X487248Y569158D01*
X487268Y569083D01*
X487284Y569007D01*
X487297Y568930D01*
X487307Y568853D01*
X487312Y568775D01*
X487314Y568697D01*
X487314Y568288D01*
X487312Y568199D01*
X487306Y568110D01*
X487296Y568021D01*
X487283Y567933D01*
X487266Y567845D01*
X487244Y567758D01*
X487219Y567673D01*
X487191Y567588D01*
X487158Y567505D01*
X487122Y567423D01*
X487083Y567343D01*
X487040Y567265D01*
X486994Y567189D01*
X486944Y567114D01*
X486891Y567042D01*
X486835Y566973D01*
X486776Y566906D01*
X486715Y566841D01*
X486650Y566780D01*
X486583Y566721D01*
X486514Y566665D01*
X486442Y566612D01*
X486367Y566562D01*
X486291Y566516D01*
X486213Y566473D01*
X486133Y566434D01*
X486051Y566398D01*
X485968Y566365D01*
X485883Y566337D01*
X485798Y566312D01*
X485711Y566290D01*
X485623Y566273D01*
X485535Y566260D01*
X485446Y566250D01*
X485357Y566244D01*
X485268Y566242D01*
X485179Y566244D01*
X485090Y566250D01*
X485001Y566260D01*
X484913Y566273D01*
X484825Y566290D01*
X484738Y566312D01*
X484653Y566337D01*
X484568Y566365D01*
X484485Y566398D01*
X484403Y566434D01*
X484323Y566473D01*
X484245Y566516D01*
X484169Y566562D01*
X484094Y566612D01*
X484022Y566665D01*
X483953Y566721D01*
X483886Y566780D01*
X483821Y566841D01*
X483760Y566906D01*
X483701Y566973D01*
X483645Y567042D01*
X483592Y567114D01*
X483542Y567189D01*
X483496Y567265D01*
X483453Y567343D01*
X483414Y567423D01*
X483378Y567505D01*
X483345Y567588D01*
X483317Y567673D01*
X483292Y567758D01*
X483270Y567845D01*
X483253Y567933D01*
X483240Y568021D01*
X483230Y568110D01*
X483224Y568199D01*
X483222Y568288D01*
X483222Y570334D01*
X483224Y570448D01*
X483230Y570562D01*
X483240Y570676D01*
X483254Y570790D01*
X483272Y570903D01*
X483294Y571015D01*
X483319Y571126D01*
X483349Y571236D01*
X483382Y571346D01*
X483419Y571454D01*
X483460Y571560D01*
X483505Y571666D01*
X483553Y571769D01*
X483605Y571871D01*
X483661Y571971D01*
X483719Y572069D01*
X483782Y572165D01*
X483847Y572258D01*
X483916Y572350D01*
X483988Y572438D01*
X484063Y572525D01*
X484141Y572608D01*
X484222Y572689D01*
X484305Y572767D01*
X484392Y572842D01*
X484480Y572914D01*
X484572Y572983D01*
X484665Y573048D01*
X484761Y573110D01*
X484859Y573169D01*
X484959Y573225D01*
X485061Y573277D01*
X485164Y573325D01*
X485270Y573370D01*
X485376Y573411D01*
X485484Y573448D01*
X485594Y573481D01*
X485704Y573511D01*
X485815Y573536D01*
X485927Y573558D01*
X486040Y573576D01*
X486154Y573590D01*
X486268Y573600D01*
X486382Y573606D01*
X486496Y573608D01*
D11*
X456250Y558925D02*
X456250Y555925D01*
X456250Y558925D02*
X459250Y558925D01*
X493250Y558925D02*
X496250Y558925D01*
X496250Y555925D01*
X496250Y523925D02*
X496250Y520925D01*
X493250Y520925D01*
X459250Y520925D02*
X456250Y520925D01*
X456250Y523925D01*
D12*
X275505Y521617D02*
X275505Y528983D01*
X274686Y521617D02*
X276323Y521617D01*
X276323Y528983D02*
X274686Y528983D01*
X280924Y521617D02*
X282561Y521617D01*
X280924Y521617D02*
X280846Y521619D01*
X280768Y521624D01*
X280691Y521634D01*
X280614Y521647D01*
X280538Y521663D01*
X280463Y521683D01*
X280389Y521707D01*
X280316Y521734D01*
X280244Y521765D01*
X280174Y521799D01*
X280106Y521836D01*
X280039Y521877D01*
X279974Y521921D01*
X279912Y521967D01*
X279852Y522017D01*
X279794Y522069D01*
X279739Y522124D01*
X279687Y522182D01*
X279637Y522242D01*
X279591Y522304D01*
X279547Y522369D01*
X279506Y522436D01*
X279469Y522504D01*
X279435Y522574D01*
X279404Y522646D01*
X279377Y522719D01*
X279353Y522793D01*
X279333Y522868D01*
X279317Y522944D01*
X279304Y523021D01*
X279294Y523098D01*
X279289Y523176D01*
X279287Y523254D01*
X279287Y527346D01*
X279289Y527426D01*
X279295Y527506D01*
X279305Y527586D01*
X279318Y527665D01*
X279336Y527744D01*
X279357Y527821D01*
X279383Y527897D01*
X279412Y527972D01*
X279444Y528046D01*
X279480Y528118D01*
X279520Y528188D01*
X279563Y528255D01*
X279609Y528321D01*
X279659Y528384D01*
X279711Y528445D01*
X279766Y528504D01*
X279825Y528559D01*
X279885Y528611D01*
X279949Y528661D01*
X280015Y528707D01*
X280082Y528750D01*
X280152Y528790D01*
X280224Y528826D01*
X280298Y528858D01*
X280372Y528887D01*
X280449Y528913D01*
X280526Y528934D01*
X280605Y528952D01*
X280684Y528965D01*
X280764Y528975D01*
X280844Y528981D01*
X280924Y528983D01*
X282561Y528983D01*
X287657Y528984D02*
X287742Y528982D01*
X287827Y528976D01*
X287911Y528966D01*
X287995Y528953D01*
X288079Y528935D01*
X288161Y528914D01*
X288242Y528889D01*
X288322Y528860D01*
X288401Y528827D01*
X288478Y528791D01*
X288553Y528751D01*
X288627Y528708D01*
X288698Y528662D01*
X288767Y528612D01*
X288834Y528559D01*
X288898Y528503D01*
X288959Y528444D01*
X289018Y528383D01*
X289074Y528319D01*
X289127Y528252D01*
X289177Y528183D01*
X289223Y528112D01*
X289266Y528038D01*
X289306Y527963D01*
X289342Y527886D01*
X289375Y527807D01*
X289404Y527727D01*
X289429Y527646D01*
X289450Y527564D01*
X289468Y527480D01*
X289481Y527396D01*
X289491Y527312D01*
X289497Y527227D01*
X289499Y527142D01*
X287657Y528983D02*
X287561Y528981D01*
X287465Y528975D01*
X287370Y528965D01*
X287275Y528952D01*
X287180Y528934D01*
X287087Y528913D01*
X286994Y528888D01*
X286903Y528859D01*
X286812Y528827D01*
X286723Y528791D01*
X286636Y528751D01*
X286550Y528708D01*
X286466Y528662D01*
X286384Y528612D01*
X286304Y528558D01*
X286227Y528502D01*
X286152Y528442D01*
X286079Y528380D01*
X286009Y528314D01*
X285941Y528246D01*
X285876Y528175D01*
X285815Y528102D01*
X285756Y528026D01*
X285700Y527947D01*
X285648Y527867D01*
X285599Y527784D01*
X285553Y527700D01*
X285511Y527614D01*
X285473Y527526D01*
X285438Y527437D01*
X285406Y527346D01*
X288885Y525710D02*
X288945Y525769D01*
X289002Y525831D01*
X289057Y525895D01*
X289108Y525962D01*
X289157Y526031D01*
X289203Y526101D01*
X289246Y526174D01*
X289286Y526248D01*
X289322Y526324D01*
X289355Y526402D01*
X289385Y526481D01*
X289412Y526561D01*
X289435Y526642D01*
X289454Y526724D01*
X289470Y526806D01*
X289483Y526890D01*
X289492Y526974D01*
X289497Y527058D01*
X289499Y527142D01*
X288885Y525709D02*
X285407Y521617D01*
X289499Y521617D01*
X292722Y528165D02*
X292722Y528983D01*
X296814Y528983D01*
X294768Y521617D01*
D11*
X265750Y514300D02*
X265750Y511300D01*
X265750Y514300D02*
X268750Y514300D01*
X302750Y514300D02*
X305750Y514300D01*
X305750Y511300D01*
X305750Y479300D02*
X305750Y476300D01*
X302750Y476300D01*
X268750Y476300D02*
X265750Y476300D01*
X265750Y479300D01*
D12*
X61192Y521617D02*
X61192Y528983D01*
X60374Y521617D02*
X62010Y521617D01*
X62010Y528983D02*
X60374Y528983D01*
X66612Y521617D02*
X68249Y521617D01*
X66612Y521617D02*
X66534Y521619D01*
X66456Y521624D01*
X66379Y521634D01*
X66302Y521647D01*
X66226Y521663D01*
X66151Y521683D01*
X66077Y521707D01*
X66004Y521734D01*
X65932Y521765D01*
X65862Y521799D01*
X65794Y521836D01*
X65727Y521877D01*
X65662Y521921D01*
X65600Y521967D01*
X65540Y522017D01*
X65482Y522069D01*
X65427Y522124D01*
X65375Y522182D01*
X65325Y522242D01*
X65279Y522304D01*
X65235Y522369D01*
X65194Y522436D01*
X65157Y522504D01*
X65123Y522574D01*
X65092Y522646D01*
X65065Y522719D01*
X65041Y522793D01*
X65021Y522868D01*
X65005Y522944D01*
X64992Y523021D01*
X64982Y523098D01*
X64977Y523176D01*
X64975Y523254D01*
X64975Y527346D01*
X64977Y527426D01*
X64983Y527506D01*
X64993Y527586D01*
X65006Y527665D01*
X65024Y527744D01*
X65045Y527821D01*
X65071Y527897D01*
X65100Y527972D01*
X65132Y528046D01*
X65168Y528118D01*
X65208Y528188D01*
X65251Y528255D01*
X65297Y528321D01*
X65347Y528384D01*
X65399Y528445D01*
X65454Y528504D01*
X65513Y528559D01*
X65573Y528611D01*
X65637Y528661D01*
X65703Y528707D01*
X65770Y528750D01*
X65840Y528790D01*
X65912Y528826D01*
X65986Y528858D01*
X66060Y528887D01*
X66137Y528913D01*
X66214Y528934D01*
X66293Y528952D01*
X66372Y528965D01*
X66452Y528975D01*
X66532Y528981D01*
X66612Y528983D01*
X68249Y528983D01*
X73345Y528984D02*
X73430Y528982D01*
X73515Y528976D01*
X73599Y528966D01*
X73683Y528953D01*
X73767Y528935D01*
X73849Y528914D01*
X73930Y528889D01*
X74010Y528860D01*
X74089Y528827D01*
X74166Y528791D01*
X74241Y528751D01*
X74315Y528708D01*
X74386Y528662D01*
X74455Y528612D01*
X74522Y528559D01*
X74586Y528503D01*
X74647Y528444D01*
X74706Y528383D01*
X74762Y528319D01*
X74815Y528252D01*
X74865Y528183D01*
X74911Y528112D01*
X74954Y528038D01*
X74994Y527963D01*
X75030Y527886D01*
X75063Y527807D01*
X75092Y527727D01*
X75117Y527646D01*
X75138Y527564D01*
X75156Y527480D01*
X75169Y527396D01*
X75179Y527312D01*
X75185Y527227D01*
X75187Y527142D01*
X73345Y528983D02*
X73249Y528981D01*
X73153Y528975D01*
X73058Y528965D01*
X72963Y528952D01*
X72868Y528934D01*
X72775Y528913D01*
X72682Y528888D01*
X72591Y528859D01*
X72500Y528827D01*
X72411Y528791D01*
X72324Y528751D01*
X72238Y528708D01*
X72154Y528662D01*
X72072Y528612D01*
X71992Y528558D01*
X71915Y528502D01*
X71840Y528442D01*
X71767Y528380D01*
X71697Y528314D01*
X71629Y528246D01*
X71564Y528175D01*
X71503Y528102D01*
X71444Y528026D01*
X71388Y527947D01*
X71336Y527867D01*
X71287Y527784D01*
X71241Y527700D01*
X71199Y527614D01*
X71161Y527526D01*
X71126Y527437D01*
X71094Y527346D01*
X74572Y525710D02*
X74632Y525769D01*
X74689Y525831D01*
X74744Y525895D01*
X74795Y525962D01*
X74844Y526031D01*
X74890Y526101D01*
X74933Y526174D01*
X74973Y526248D01*
X75009Y526324D01*
X75042Y526402D01*
X75072Y526481D01*
X75099Y526561D01*
X75122Y526642D01*
X75141Y526724D01*
X75157Y526806D01*
X75170Y526890D01*
X75179Y526974D01*
X75184Y527058D01*
X75186Y527142D01*
X74572Y525709D02*
X71094Y521617D01*
X75186Y521617D01*
X78409Y523663D02*
X78411Y523752D01*
X78417Y523841D01*
X78427Y523930D01*
X78440Y524018D01*
X78457Y524106D01*
X78479Y524193D01*
X78504Y524278D01*
X78532Y524363D01*
X78565Y524446D01*
X78601Y524528D01*
X78640Y524608D01*
X78683Y524686D01*
X78729Y524762D01*
X78779Y524837D01*
X78832Y524909D01*
X78888Y524978D01*
X78947Y525045D01*
X79008Y525110D01*
X79073Y525171D01*
X79140Y525230D01*
X79209Y525286D01*
X79281Y525339D01*
X79356Y525389D01*
X79432Y525435D01*
X79510Y525478D01*
X79590Y525517D01*
X79672Y525553D01*
X79755Y525586D01*
X79840Y525614D01*
X79925Y525639D01*
X80012Y525661D01*
X80100Y525678D01*
X80188Y525691D01*
X80277Y525701D01*
X80366Y525707D01*
X80455Y525709D01*
X80544Y525707D01*
X80633Y525701D01*
X80722Y525691D01*
X80810Y525678D01*
X80898Y525661D01*
X80985Y525639D01*
X81070Y525614D01*
X81155Y525586D01*
X81238Y525553D01*
X81320Y525517D01*
X81400Y525478D01*
X81478Y525435D01*
X81554Y525389D01*
X81629Y525339D01*
X81701Y525286D01*
X81770Y525230D01*
X81837Y525171D01*
X81902Y525110D01*
X81963Y525045D01*
X82022Y524978D01*
X82078Y524909D01*
X82131Y524837D01*
X82181Y524762D01*
X82227Y524686D01*
X82270Y524608D01*
X82309Y524528D01*
X82345Y524446D01*
X82378Y524363D01*
X82406Y524278D01*
X82431Y524193D01*
X82453Y524106D01*
X82470Y524018D01*
X82483Y523930D01*
X82493Y523841D01*
X82499Y523752D01*
X82501Y523663D01*
X82499Y523574D01*
X82493Y523485D01*
X82483Y523396D01*
X82470Y523308D01*
X82453Y523220D01*
X82431Y523133D01*
X82406Y523048D01*
X82378Y522963D01*
X82345Y522880D01*
X82309Y522798D01*
X82270Y522718D01*
X82227Y522640D01*
X82181Y522564D01*
X82131Y522489D01*
X82078Y522417D01*
X82022Y522348D01*
X81963Y522281D01*
X81902Y522216D01*
X81837Y522155D01*
X81770Y522096D01*
X81701Y522040D01*
X81629Y521987D01*
X81554Y521937D01*
X81478Y521891D01*
X81400Y521848D01*
X81320Y521809D01*
X81238Y521773D01*
X81155Y521740D01*
X81070Y521712D01*
X80985Y521687D01*
X80898Y521665D01*
X80810Y521648D01*
X80722Y521635D01*
X80633Y521625D01*
X80544Y521619D01*
X80455Y521617D01*
X80366Y521619D01*
X80277Y521625D01*
X80188Y521635D01*
X80100Y521648D01*
X80012Y521665D01*
X79925Y521687D01*
X79840Y521712D01*
X79755Y521740D01*
X79672Y521773D01*
X79590Y521809D01*
X79510Y521848D01*
X79432Y521891D01*
X79356Y521937D01*
X79281Y521987D01*
X79209Y522040D01*
X79140Y522096D01*
X79073Y522155D01*
X79008Y522216D01*
X78947Y522281D01*
X78888Y522348D01*
X78832Y522417D01*
X78779Y522489D01*
X78729Y522564D01*
X78683Y522640D01*
X78640Y522718D01*
X78601Y522798D01*
X78565Y522880D01*
X78532Y522963D01*
X78504Y523048D01*
X78479Y523133D01*
X78457Y523220D01*
X78440Y523308D01*
X78427Y523396D01*
X78417Y523485D01*
X78411Y523574D01*
X78409Y523663D01*
X78818Y527346D02*
X78820Y527425D01*
X78826Y527504D01*
X78835Y527583D01*
X78848Y527661D01*
X78866Y527738D01*
X78886Y527814D01*
X78911Y527889D01*
X78939Y527963D01*
X78970Y528036D01*
X79006Y528107D01*
X79044Y528176D01*
X79086Y528243D01*
X79131Y528308D01*
X79179Y528371D01*
X79230Y528432D01*
X79284Y528489D01*
X79340Y528545D01*
X79399Y528597D01*
X79461Y528647D01*
X79525Y528693D01*
X79591Y528737D01*
X79659Y528777D01*
X79729Y528813D01*
X79801Y528847D01*
X79875Y528877D01*
X79949Y528903D01*
X80025Y528926D01*
X80102Y528944D01*
X80179Y528960D01*
X80258Y528971D01*
X80336Y528979D01*
X80415Y528983D01*
X80495Y528983D01*
X80574Y528979D01*
X80652Y528971D01*
X80731Y528960D01*
X80808Y528944D01*
X80885Y528926D01*
X80961Y528903D01*
X81035Y528877D01*
X81109Y528847D01*
X81181Y528813D01*
X81251Y528777D01*
X81319Y528737D01*
X81385Y528693D01*
X81449Y528647D01*
X81511Y528597D01*
X81570Y528545D01*
X81626Y528489D01*
X81680Y528432D01*
X81731Y528371D01*
X81779Y528308D01*
X81824Y528243D01*
X81866Y528176D01*
X81904Y528107D01*
X81940Y528036D01*
X81971Y527963D01*
X81999Y527889D01*
X82024Y527814D01*
X82044Y527738D01*
X82062Y527661D01*
X82075Y527583D01*
X82084Y527504D01*
X82090Y527425D01*
X82092Y527346D01*
X82090Y527267D01*
X82084Y527188D01*
X82075Y527109D01*
X82062Y527031D01*
X82044Y526954D01*
X82024Y526878D01*
X81999Y526803D01*
X81971Y526729D01*
X81940Y526656D01*
X81904Y526585D01*
X81866Y526516D01*
X81824Y526449D01*
X81779Y526384D01*
X81731Y526321D01*
X81680Y526260D01*
X81626Y526203D01*
X81570Y526147D01*
X81511Y526095D01*
X81449Y526045D01*
X81385Y525999D01*
X81319Y525955D01*
X81251Y525915D01*
X81181Y525879D01*
X81109Y525845D01*
X81035Y525815D01*
X80961Y525789D01*
X80885Y525766D01*
X80808Y525748D01*
X80731Y525732D01*
X80652Y525721D01*
X80574Y525713D01*
X80495Y525709D01*
X80415Y525709D01*
X80336Y525713D01*
X80258Y525721D01*
X80179Y525732D01*
X80102Y525748D01*
X80025Y525766D01*
X79949Y525789D01*
X79875Y525815D01*
X79801Y525845D01*
X79729Y525879D01*
X79659Y525915D01*
X79591Y525955D01*
X79525Y525999D01*
X79461Y526045D01*
X79399Y526095D01*
X79340Y526147D01*
X79284Y526203D01*
X79230Y526260D01*
X79179Y526321D01*
X79131Y526384D01*
X79086Y526449D01*
X79044Y526516D01*
X79006Y526585D01*
X78970Y526656D01*
X78939Y526729D01*
X78911Y526803D01*
X78886Y526878D01*
X78866Y526954D01*
X78848Y527031D01*
X78835Y527109D01*
X78826Y527188D01*
X78820Y527267D01*
X78818Y527346D01*
D11*
X51438Y514300D02*
X51438Y511300D01*
X51438Y514300D02*
X54438Y514300D01*
X88438Y514300D02*
X91438Y514300D01*
X91438Y511300D01*
X91438Y479300D02*
X91438Y476300D01*
X88438Y476300D01*
X54438Y476300D02*
X51438Y476300D01*
X51438Y479300D01*
X115250Y288800D02*
X115250Y285800D01*
X112250Y285800D01*
X78250Y285800D02*
X75250Y285800D01*
X75250Y288800D01*
X75250Y320800D02*
X75250Y323800D01*
X78250Y323800D01*
X112250Y323800D02*
X115250Y323800D01*
X115250Y320800D01*
D12*
X85004Y331117D02*
X85004Y338483D01*
X84186Y331117D02*
X85823Y331117D01*
X85823Y338483D02*
X84186Y338483D01*
X90424Y331117D02*
X92061Y331117D01*
X90424Y331117D02*
X90346Y331119D01*
X90268Y331124D01*
X90191Y331134D01*
X90114Y331147D01*
X90038Y331163D01*
X89963Y331183D01*
X89889Y331207D01*
X89816Y331234D01*
X89744Y331265D01*
X89674Y331299D01*
X89606Y331336D01*
X89539Y331377D01*
X89474Y331421D01*
X89412Y331467D01*
X89352Y331517D01*
X89294Y331569D01*
X89239Y331624D01*
X89187Y331682D01*
X89137Y331742D01*
X89091Y331804D01*
X89047Y331869D01*
X89006Y331936D01*
X88969Y332004D01*
X88935Y332074D01*
X88904Y332146D01*
X88877Y332219D01*
X88853Y332293D01*
X88833Y332368D01*
X88817Y332444D01*
X88804Y332521D01*
X88794Y332598D01*
X88789Y332676D01*
X88787Y332754D01*
X88787Y336846D01*
X88789Y336926D01*
X88795Y337006D01*
X88805Y337086D01*
X88818Y337165D01*
X88836Y337244D01*
X88857Y337321D01*
X88883Y337397D01*
X88912Y337472D01*
X88944Y337546D01*
X88980Y337618D01*
X89020Y337688D01*
X89063Y337755D01*
X89109Y337821D01*
X89159Y337884D01*
X89211Y337945D01*
X89266Y338004D01*
X89325Y338059D01*
X89385Y338111D01*
X89449Y338161D01*
X89515Y338207D01*
X89582Y338250D01*
X89652Y338290D01*
X89724Y338326D01*
X89798Y338358D01*
X89872Y338387D01*
X89949Y338413D01*
X90026Y338434D01*
X90105Y338452D01*
X90184Y338465D01*
X90264Y338475D01*
X90344Y338481D01*
X90424Y338483D01*
X92061Y338483D01*
X97157Y338484D02*
X97242Y338482D01*
X97327Y338476D01*
X97411Y338466D01*
X97495Y338453D01*
X97579Y338435D01*
X97661Y338414D01*
X97742Y338389D01*
X97822Y338360D01*
X97901Y338327D01*
X97978Y338291D01*
X98053Y338251D01*
X98127Y338208D01*
X98198Y338162D01*
X98267Y338112D01*
X98334Y338059D01*
X98398Y338003D01*
X98459Y337944D01*
X98518Y337883D01*
X98574Y337819D01*
X98627Y337752D01*
X98677Y337683D01*
X98723Y337612D01*
X98766Y337538D01*
X98806Y337463D01*
X98842Y337386D01*
X98875Y337307D01*
X98904Y337227D01*
X98929Y337146D01*
X98950Y337064D01*
X98968Y336980D01*
X98981Y336896D01*
X98991Y336812D01*
X98997Y336727D01*
X98999Y336642D01*
X97157Y338483D02*
X97061Y338481D01*
X96965Y338475D01*
X96870Y338465D01*
X96775Y338452D01*
X96680Y338434D01*
X96587Y338413D01*
X96494Y338388D01*
X96403Y338359D01*
X96312Y338327D01*
X96223Y338291D01*
X96136Y338251D01*
X96050Y338208D01*
X95966Y338162D01*
X95884Y338112D01*
X95804Y338058D01*
X95727Y338002D01*
X95652Y337942D01*
X95579Y337880D01*
X95509Y337814D01*
X95441Y337746D01*
X95376Y337675D01*
X95315Y337602D01*
X95256Y337526D01*
X95200Y337447D01*
X95148Y337367D01*
X95099Y337284D01*
X95053Y337200D01*
X95011Y337114D01*
X94973Y337026D01*
X94938Y336937D01*
X94906Y336846D01*
X98385Y335210D02*
X98445Y335269D01*
X98502Y335331D01*
X98557Y335395D01*
X98608Y335462D01*
X98657Y335531D01*
X98703Y335601D01*
X98746Y335674D01*
X98786Y335748D01*
X98822Y335824D01*
X98855Y335902D01*
X98885Y335981D01*
X98912Y336061D01*
X98935Y336142D01*
X98954Y336224D01*
X98970Y336306D01*
X98983Y336390D01*
X98992Y336474D01*
X98997Y336558D01*
X98999Y336642D01*
X98385Y335209D02*
X94907Y331117D01*
X98999Y331117D01*
X103859Y334391D02*
X106314Y334391D01*
X103859Y334391D02*
X103781Y334393D01*
X103703Y334398D01*
X103626Y334408D01*
X103549Y334421D01*
X103473Y334437D01*
X103398Y334457D01*
X103324Y334481D01*
X103251Y334508D01*
X103179Y334539D01*
X103109Y334573D01*
X103040Y334610D01*
X102974Y334651D01*
X102909Y334695D01*
X102847Y334741D01*
X102787Y334791D01*
X102729Y334843D01*
X102674Y334898D01*
X102622Y334956D01*
X102572Y335016D01*
X102526Y335078D01*
X102482Y335143D01*
X102441Y335210D01*
X102404Y335278D01*
X102370Y335348D01*
X102339Y335420D01*
X102312Y335493D01*
X102288Y335567D01*
X102268Y335642D01*
X102252Y335718D01*
X102239Y335795D01*
X102229Y335872D01*
X102224Y335950D01*
X102222Y336028D01*
X102222Y336437D01*
X102224Y336526D01*
X102230Y336615D01*
X102240Y336704D01*
X102253Y336792D01*
X102270Y336880D01*
X102292Y336967D01*
X102317Y337052D01*
X102345Y337137D01*
X102378Y337220D01*
X102414Y337302D01*
X102453Y337382D01*
X102496Y337460D01*
X102542Y337536D01*
X102592Y337611D01*
X102645Y337683D01*
X102701Y337752D01*
X102760Y337819D01*
X102821Y337884D01*
X102886Y337945D01*
X102953Y338004D01*
X103022Y338060D01*
X103094Y338113D01*
X103169Y338163D01*
X103245Y338209D01*
X103323Y338252D01*
X103403Y338291D01*
X103485Y338327D01*
X103568Y338360D01*
X103653Y338388D01*
X103738Y338413D01*
X103825Y338435D01*
X103913Y338452D01*
X104001Y338465D01*
X104090Y338475D01*
X104179Y338481D01*
X104268Y338483D01*
X104357Y338481D01*
X104446Y338475D01*
X104535Y338465D01*
X104623Y338452D01*
X104711Y338435D01*
X104798Y338413D01*
X104883Y338388D01*
X104968Y338360D01*
X105051Y338327D01*
X105133Y338291D01*
X105213Y338252D01*
X105291Y338209D01*
X105367Y338163D01*
X105442Y338113D01*
X105514Y338060D01*
X105583Y338004D01*
X105650Y337945D01*
X105715Y337884D01*
X105776Y337819D01*
X105835Y337752D01*
X105891Y337683D01*
X105944Y337611D01*
X105994Y337536D01*
X106040Y337460D01*
X106083Y337382D01*
X106122Y337302D01*
X106158Y337220D01*
X106191Y337137D01*
X106219Y337052D01*
X106244Y336967D01*
X106266Y336880D01*
X106283Y336792D01*
X106296Y336704D01*
X106306Y336615D01*
X106312Y336526D01*
X106314Y336437D01*
X106314Y334391D01*
X106312Y334279D01*
X106306Y334168D01*
X106297Y334056D01*
X106284Y333945D01*
X106266Y333835D01*
X106246Y333725D01*
X106221Y333616D01*
X106193Y333508D01*
X106161Y333401D01*
X106125Y333295D01*
X106086Y333190D01*
X106043Y333087D01*
X105997Y332985D01*
X105947Y332885D01*
X105894Y332786D01*
X105837Y332690D01*
X105778Y332595D01*
X105715Y332503D01*
X105649Y332413D01*
X105580Y332325D01*
X105508Y332239D01*
X105433Y332156D01*
X105355Y332076D01*
X105275Y331998D01*
X105192Y331923D01*
X105106Y331851D01*
X105018Y331782D01*
X104928Y331716D01*
X104836Y331653D01*
X104741Y331594D01*
X104645Y331537D01*
X104546Y331484D01*
X104446Y331434D01*
X104344Y331388D01*
X104241Y331345D01*
X104136Y331306D01*
X104030Y331270D01*
X103923Y331238D01*
X103815Y331210D01*
X103706Y331185D01*
X103596Y331165D01*
X103486Y331147D01*
X103375Y331134D01*
X103263Y331125D01*
X103152Y331119D01*
X103040Y331117D01*
D11*
X305750Y288800D02*
X305750Y285800D01*
X302750Y285800D01*
X268750Y285800D02*
X265750Y285800D01*
X265750Y288800D01*
X265750Y320800D02*
X265750Y323800D01*
X268750Y323800D01*
X302750Y323800D02*
X305750Y323800D01*
X305750Y320800D01*
D12*
X275504Y331117D02*
X275504Y338483D01*
X274686Y331117D02*
X276323Y331117D01*
X276323Y338483D02*
X274686Y338483D01*
X280924Y331117D02*
X282561Y331117D01*
X280924Y331117D02*
X280846Y331119D01*
X280768Y331124D01*
X280691Y331134D01*
X280614Y331147D01*
X280538Y331163D01*
X280463Y331183D01*
X280389Y331207D01*
X280316Y331234D01*
X280244Y331265D01*
X280174Y331299D01*
X280106Y331336D01*
X280039Y331377D01*
X279974Y331421D01*
X279912Y331467D01*
X279852Y331517D01*
X279794Y331569D01*
X279739Y331624D01*
X279687Y331682D01*
X279637Y331742D01*
X279591Y331804D01*
X279547Y331869D01*
X279506Y331936D01*
X279469Y332004D01*
X279435Y332074D01*
X279404Y332146D01*
X279377Y332219D01*
X279353Y332293D01*
X279333Y332368D01*
X279317Y332444D01*
X279304Y332521D01*
X279294Y332598D01*
X279289Y332676D01*
X279287Y332754D01*
X279287Y336846D01*
X279289Y336926D01*
X279295Y337006D01*
X279305Y337086D01*
X279318Y337165D01*
X279336Y337244D01*
X279357Y337321D01*
X279383Y337397D01*
X279412Y337472D01*
X279444Y337546D01*
X279480Y337618D01*
X279520Y337688D01*
X279563Y337755D01*
X279609Y337821D01*
X279659Y337884D01*
X279711Y337945D01*
X279766Y338004D01*
X279825Y338059D01*
X279885Y338111D01*
X279949Y338161D01*
X280015Y338207D01*
X280082Y338250D01*
X280152Y338290D01*
X280224Y338326D01*
X280298Y338358D01*
X280372Y338387D01*
X280449Y338413D01*
X280526Y338434D01*
X280605Y338452D01*
X280684Y338465D01*
X280764Y338475D01*
X280844Y338481D01*
X280924Y338483D01*
X282561Y338483D01*
X285407Y331117D02*
X287453Y331117D01*
X287542Y331119D01*
X287631Y331125D01*
X287720Y331135D01*
X287808Y331148D01*
X287896Y331165D01*
X287983Y331187D01*
X288068Y331212D01*
X288153Y331240D01*
X288236Y331273D01*
X288318Y331309D01*
X288398Y331348D01*
X288476Y331391D01*
X288552Y331437D01*
X288627Y331487D01*
X288699Y331540D01*
X288768Y331596D01*
X288835Y331655D01*
X288900Y331716D01*
X288961Y331781D01*
X289020Y331848D01*
X289076Y331917D01*
X289129Y331989D01*
X289179Y332064D01*
X289225Y332140D01*
X289268Y332218D01*
X289307Y332298D01*
X289343Y332380D01*
X289376Y332463D01*
X289404Y332548D01*
X289429Y332633D01*
X289451Y332720D01*
X289468Y332808D01*
X289481Y332896D01*
X289491Y332985D01*
X289497Y333074D01*
X289499Y333163D01*
X289497Y333252D01*
X289491Y333341D01*
X289481Y333430D01*
X289468Y333518D01*
X289451Y333606D01*
X289429Y333693D01*
X289404Y333778D01*
X289376Y333863D01*
X289343Y333946D01*
X289307Y334028D01*
X289268Y334108D01*
X289225Y334186D01*
X289179Y334262D01*
X289129Y334337D01*
X289076Y334409D01*
X289020Y334478D01*
X288961Y334545D01*
X288900Y334610D01*
X288835Y334671D01*
X288768Y334730D01*
X288699Y334786D01*
X288627Y334839D01*
X288552Y334889D01*
X288476Y334935D01*
X288398Y334978D01*
X288318Y335017D01*
X288236Y335053D01*
X288153Y335086D01*
X288068Y335114D01*
X287983Y335139D01*
X287896Y335161D01*
X287808Y335178D01*
X287720Y335191D01*
X287631Y335201D01*
X287542Y335207D01*
X287453Y335209D01*
X287862Y338483D02*
X285407Y338483D01*
X287862Y338483D02*
X287941Y338481D01*
X288020Y338475D01*
X288099Y338466D01*
X288177Y338453D01*
X288254Y338435D01*
X288330Y338415D01*
X288405Y338390D01*
X288479Y338362D01*
X288552Y338331D01*
X288623Y338295D01*
X288692Y338257D01*
X288759Y338215D01*
X288824Y338170D01*
X288887Y338122D01*
X288948Y338071D01*
X289005Y338017D01*
X289061Y337961D01*
X289113Y337902D01*
X289163Y337840D01*
X289209Y337776D01*
X289253Y337710D01*
X289293Y337642D01*
X289329Y337572D01*
X289363Y337500D01*
X289393Y337426D01*
X289419Y337352D01*
X289442Y337276D01*
X289460Y337199D01*
X289476Y337122D01*
X289487Y337043D01*
X289495Y336965D01*
X289499Y336886D01*
X289499Y336806D01*
X289495Y336727D01*
X289487Y336649D01*
X289476Y336570D01*
X289460Y336493D01*
X289442Y336416D01*
X289419Y336340D01*
X289393Y336266D01*
X289363Y336192D01*
X289329Y336120D01*
X289293Y336050D01*
X289253Y335982D01*
X289209Y335916D01*
X289163Y335852D01*
X289113Y335790D01*
X289061Y335731D01*
X289005Y335675D01*
X288948Y335621D01*
X288887Y335570D01*
X288824Y335522D01*
X288759Y335477D01*
X288692Y335435D01*
X288623Y335397D01*
X288552Y335361D01*
X288479Y335330D01*
X288405Y335302D01*
X288330Y335277D01*
X288254Y335257D01*
X288177Y335239D01*
X288099Y335226D01*
X288020Y335217D01*
X287941Y335211D01*
X287862Y335209D01*
X286225Y335209D01*
X292722Y334800D02*
X292724Y334953D01*
X292730Y335106D01*
X292739Y335258D01*
X292753Y335411D01*
X292770Y335563D01*
X292791Y335714D01*
X292816Y335865D01*
X292845Y336015D01*
X292877Y336165D01*
X292914Y336313D01*
X292954Y336461D01*
X292997Y336608D01*
X293045Y336753D01*
X293096Y336897D01*
X293150Y337040D01*
X293209Y337182D01*
X293270Y337321D01*
X293336Y337460D01*
X293362Y337530D01*
X293392Y337600D01*
X293425Y337667D01*
X293461Y337733D01*
X293500Y337797D01*
X293543Y337859D01*
X293589Y337918D01*
X293637Y337976D01*
X293688Y338030D01*
X293742Y338083D01*
X293799Y338132D01*
X293858Y338179D01*
X293919Y338222D01*
X293982Y338263D01*
X294047Y338300D01*
X294114Y338335D01*
X294183Y338365D01*
X294253Y338393D01*
X294324Y338416D01*
X294396Y338437D01*
X294469Y338453D01*
X294543Y338466D01*
X294618Y338476D01*
X294693Y338481D01*
X294768Y338483D01*
X294843Y338481D01*
X294918Y338476D01*
X294993Y338466D01*
X295067Y338453D01*
X295140Y338437D01*
X295212Y338416D01*
X295283Y338393D01*
X295353Y338365D01*
X295422Y338335D01*
X295489Y338300D01*
X295554Y338263D01*
X295617Y338222D01*
X295678Y338179D01*
X295737Y338132D01*
X295794Y338083D01*
X295848Y338030D01*
X295899Y337976D01*
X295948Y337918D01*
X295993Y337859D01*
X296036Y337797D01*
X296075Y337733D01*
X296112Y337667D01*
X296144Y337599D01*
X296174Y337530D01*
X296200Y337460D01*
X296265Y337322D01*
X296327Y337182D01*
X296385Y337040D01*
X296440Y336897D01*
X296491Y336753D01*
X296539Y336608D01*
X296582Y336461D01*
X296622Y336314D01*
X296659Y336165D01*
X296691Y336015D01*
X296720Y335865D01*
X296745Y335714D01*
X296766Y335563D01*
X296783Y335411D01*
X296797Y335258D01*
X296806Y335106D01*
X296812Y334953D01*
X296814Y334800D01*
X292721Y334800D02*
X292723Y334647D01*
X292729Y334494D01*
X292738Y334341D01*
X292752Y334189D01*
X292769Y334037D01*
X292790Y333886D01*
X292815Y333735D01*
X292844Y333584D01*
X292876Y333435D01*
X292913Y333286D01*
X292953Y333139D01*
X292996Y332992D01*
X293044Y332847D01*
X293095Y332702D01*
X293150Y332560D01*
X293208Y332418D01*
X293270Y332278D01*
X293335Y332140D01*
X293336Y332140D02*
X293362Y332069D01*
X293392Y332000D01*
X293425Y331933D01*
X293461Y331867D01*
X293500Y331803D01*
X293543Y331741D01*
X293589Y331682D01*
X293637Y331624D01*
X293688Y331570D01*
X293742Y331517D01*
X293799Y331468D01*
X293858Y331421D01*
X293919Y331378D01*
X293982Y331337D01*
X294047Y331300D01*
X294114Y331265D01*
X294183Y331235D01*
X294253Y331207D01*
X294324Y331184D01*
X294396Y331163D01*
X294469Y331147D01*
X294543Y331134D01*
X294618Y331124D01*
X294693Y331119D01*
X294768Y331117D01*
X296200Y332140D02*
X296265Y332278D01*
X296327Y332418D01*
X296385Y332560D01*
X296440Y332703D01*
X296491Y332847D01*
X296539Y332992D01*
X296582Y333139D01*
X296622Y333287D01*
X296659Y333435D01*
X296691Y333585D01*
X296720Y333735D01*
X296745Y333886D01*
X296766Y334037D01*
X296783Y334189D01*
X296797Y334342D01*
X296806Y334494D01*
X296812Y334647D01*
X296814Y334800D01*
X296200Y332140D02*
X296174Y332070D01*
X296144Y332000D01*
X296112Y331933D01*
X296075Y331867D01*
X296036Y331803D01*
X295993Y331741D01*
X295947Y331682D01*
X295899Y331624D01*
X295848Y331570D01*
X295794Y331517D01*
X295737Y331468D01*
X295678Y331421D01*
X295617Y331378D01*
X295554Y331337D01*
X295489Y331300D01*
X295422Y331265D01*
X295353Y331235D01*
X295283Y331207D01*
X295212Y331184D01*
X295140Y331163D01*
X295067Y331147D01*
X294993Y331134D01*
X294918Y331124D01*
X294843Y331119D01*
X294768Y331117D01*
X293131Y332754D02*
X296405Y336846D01*
D11*
X496250Y333425D02*
X496250Y330425D01*
X493250Y330425D01*
X459250Y330425D02*
X456250Y330425D01*
X456250Y333425D01*
X456250Y365425D02*
X456250Y368425D01*
X459250Y368425D01*
X493250Y368425D02*
X496250Y368425D01*
X496250Y365425D01*
D12*
X466004Y375742D02*
X466004Y383108D01*
X465186Y375742D02*
X466823Y375742D01*
X466823Y383108D02*
X465186Y383108D01*
X471424Y375742D02*
X473061Y375742D01*
X471424Y375742D02*
X471346Y375744D01*
X471268Y375749D01*
X471191Y375759D01*
X471114Y375772D01*
X471038Y375788D01*
X470963Y375808D01*
X470889Y375832D01*
X470816Y375859D01*
X470744Y375890D01*
X470674Y375924D01*
X470606Y375961D01*
X470539Y376002D01*
X470474Y376046D01*
X470412Y376092D01*
X470352Y376142D01*
X470294Y376194D01*
X470239Y376249D01*
X470187Y376307D01*
X470137Y376367D01*
X470091Y376429D01*
X470047Y376494D01*
X470006Y376561D01*
X469969Y376629D01*
X469935Y376699D01*
X469904Y376771D01*
X469877Y376844D01*
X469853Y376918D01*
X469833Y376993D01*
X469817Y377069D01*
X469804Y377146D01*
X469794Y377223D01*
X469789Y377301D01*
X469787Y377379D01*
X469787Y381471D01*
X469789Y381551D01*
X469795Y381631D01*
X469805Y381711D01*
X469818Y381790D01*
X469836Y381869D01*
X469857Y381946D01*
X469883Y382022D01*
X469912Y382097D01*
X469944Y382171D01*
X469980Y382243D01*
X470020Y382313D01*
X470063Y382380D01*
X470109Y382446D01*
X470159Y382509D01*
X470211Y382570D01*
X470266Y382629D01*
X470325Y382684D01*
X470385Y382736D01*
X470449Y382786D01*
X470515Y382832D01*
X470582Y382875D01*
X470652Y382915D01*
X470724Y382951D01*
X470798Y382983D01*
X470872Y383012D01*
X470949Y383038D01*
X471026Y383059D01*
X471105Y383077D01*
X471184Y383090D01*
X471264Y383100D01*
X471344Y383106D01*
X471424Y383108D01*
X473061Y383108D01*
X475907Y375742D02*
X477953Y375742D01*
X478042Y375744D01*
X478131Y375750D01*
X478220Y375760D01*
X478308Y375773D01*
X478396Y375790D01*
X478483Y375812D01*
X478568Y375837D01*
X478653Y375865D01*
X478736Y375898D01*
X478818Y375934D01*
X478898Y375973D01*
X478976Y376016D01*
X479052Y376062D01*
X479127Y376112D01*
X479199Y376165D01*
X479268Y376221D01*
X479335Y376280D01*
X479400Y376341D01*
X479461Y376406D01*
X479520Y376473D01*
X479576Y376542D01*
X479629Y376614D01*
X479679Y376689D01*
X479725Y376765D01*
X479768Y376843D01*
X479807Y376923D01*
X479843Y377005D01*
X479876Y377088D01*
X479904Y377173D01*
X479929Y377258D01*
X479951Y377345D01*
X479968Y377433D01*
X479981Y377521D01*
X479991Y377610D01*
X479997Y377699D01*
X479999Y377788D01*
X479997Y377877D01*
X479991Y377966D01*
X479981Y378055D01*
X479968Y378143D01*
X479951Y378231D01*
X479929Y378318D01*
X479904Y378403D01*
X479876Y378488D01*
X479843Y378571D01*
X479807Y378653D01*
X479768Y378733D01*
X479725Y378811D01*
X479679Y378887D01*
X479629Y378962D01*
X479576Y379034D01*
X479520Y379103D01*
X479461Y379170D01*
X479400Y379235D01*
X479335Y379296D01*
X479268Y379355D01*
X479199Y379411D01*
X479127Y379464D01*
X479052Y379514D01*
X478976Y379560D01*
X478898Y379603D01*
X478818Y379642D01*
X478736Y379678D01*
X478653Y379711D01*
X478568Y379739D01*
X478483Y379764D01*
X478396Y379786D01*
X478308Y379803D01*
X478220Y379816D01*
X478131Y379826D01*
X478042Y379832D01*
X477953Y379834D01*
X478362Y383108D02*
X475907Y383108D01*
X478362Y383108D02*
X478441Y383106D01*
X478520Y383100D01*
X478599Y383091D01*
X478677Y383078D01*
X478754Y383060D01*
X478830Y383040D01*
X478905Y383015D01*
X478979Y382987D01*
X479052Y382956D01*
X479123Y382920D01*
X479192Y382882D01*
X479259Y382840D01*
X479324Y382795D01*
X479387Y382747D01*
X479448Y382696D01*
X479505Y382642D01*
X479561Y382586D01*
X479613Y382527D01*
X479663Y382465D01*
X479709Y382401D01*
X479753Y382335D01*
X479793Y382267D01*
X479829Y382197D01*
X479863Y382125D01*
X479893Y382051D01*
X479919Y381977D01*
X479942Y381901D01*
X479960Y381824D01*
X479976Y381747D01*
X479987Y381668D01*
X479995Y381590D01*
X479999Y381511D01*
X479999Y381431D01*
X479995Y381352D01*
X479987Y381274D01*
X479976Y381195D01*
X479960Y381118D01*
X479942Y381041D01*
X479919Y380965D01*
X479893Y380891D01*
X479863Y380817D01*
X479829Y380745D01*
X479793Y380675D01*
X479753Y380607D01*
X479709Y380541D01*
X479663Y380477D01*
X479613Y380415D01*
X479561Y380356D01*
X479505Y380300D01*
X479448Y380246D01*
X479387Y380195D01*
X479324Y380147D01*
X479259Y380102D01*
X479192Y380060D01*
X479123Y380022D01*
X479052Y379986D01*
X478979Y379955D01*
X478905Y379927D01*
X478830Y379902D01*
X478754Y379882D01*
X478677Y379864D01*
X478599Y379851D01*
X478520Y379842D01*
X478441Y379836D01*
X478362Y379834D01*
X476725Y379834D01*
X483222Y381471D02*
X485268Y383108D01*
X485268Y375742D01*
X483222Y375742D02*
X487314Y375742D01*
D11*
X686750Y358238D02*
X686750Y355238D01*
X683750Y355238D01*
X649750Y355238D02*
X646750Y355238D01*
X646750Y358238D01*
X646750Y390238D02*
X646750Y393238D01*
X649750Y393238D01*
X683750Y393238D02*
X686750Y393238D01*
X686750Y390238D01*
D12*
X656504Y400555D02*
X656504Y407921D01*
X655686Y400555D02*
X657323Y400555D01*
X657323Y407921D02*
X655686Y407921D01*
X661924Y400555D02*
X663561Y400555D01*
X661924Y400554D02*
X661846Y400556D01*
X661768Y400561D01*
X661691Y400571D01*
X661614Y400584D01*
X661538Y400600D01*
X661463Y400620D01*
X661389Y400644D01*
X661316Y400671D01*
X661244Y400702D01*
X661174Y400736D01*
X661106Y400773D01*
X661039Y400814D01*
X660974Y400858D01*
X660912Y400904D01*
X660852Y400954D01*
X660794Y401006D01*
X660739Y401061D01*
X660687Y401119D01*
X660637Y401179D01*
X660591Y401241D01*
X660547Y401306D01*
X660506Y401373D01*
X660469Y401441D01*
X660435Y401511D01*
X660404Y401583D01*
X660377Y401656D01*
X660353Y401730D01*
X660333Y401805D01*
X660317Y401881D01*
X660304Y401958D01*
X660294Y402035D01*
X660289Y402113D01*
X660287Y402191D01*
X660287Y406284D01*
X660289Y406364D01*
X660295Y406444D01*
X660305Y406524D01*
X660318Y406603D01*
X660336Y406682D01*
X660357Y406759D01*
X660383Y406835D01*
X660412Y406910D01*
X660444Y406984D01*
X660480Y407056D01*
X660520Y407126D01*
X660563Y407193D01*
X660609Y407259D01*
X660659Y407322D01*
X660711Y407383D01*
X660766Y407442D01*
X660825Y407497D01*
X660885Y407549D01*
X660949Y407599D01*
X661015Y407645D01*
X661082Y407688D01*
X661152Y407728D01*
X661224Y407764D01*
X661298Y407796D01*
X661372Y407825D01*
X661449Y407851D01*
X661526Y407872D01*
X661605Y407890D01*
X661684Y407903D01*
X661764Y407913D01*
X661844Y407919D01*
X661924Y407921D01*
X663561Y407921D01*
X666407Y400555D02*
X668453Y400555D01*
X668542Y400557D01*
X668631Y400563D01*
X668720Y400573D01*
X668808Y400586D01*
X668896Y400603D01*
X668983Y400625D01*
X669068Y400650D01*
X669153Y400678D01*
X669236Y400711D01*
X669318Y400747D01*
X669398Y400786D01*
X669476Y400829D01*
X669552Y400875D01*
X669627Y400925D01*
X669699Y400978D01*
X669768Y401034D01*
X669835Y401093D01*
X669900Y401154D01*
X669961Y401219D01*
X670020Y401286D01*
X670076Y401355D01*
X670129Y401427D01*
X670179Y401502D01*
X670225Y401578D01*
X670268Y401656D01*
X670307Y401736D01*
X670343Y401818D01*
X670376Y401901D01*
X670404Y401986D01*
X670429Y402071D01*
X670451Y402158D01*
X670468Y402246D01*
X670481Y402334D01*
X670491Y402423D01*
X670497Y402512D01*
X670499Y402601D01*
X670497Y402690D01*
X670491Y402779D01*
X670481Y402868D01*
X670468Y402956D01*
X670451Y403044D01*
X670429Y403131D01*
X670404Y403216D01*
X670376Y403301D01*
X670343Y403384D01*
X670307Y403466D01*
X670268Y403546D01*
X670225Y403624D01*
X670179Y403700D01*
X670129Y403775D01*
X670076Y403847D01*
X670020Y403916D01*
X669961Y403983D01*
X669900Y404048D01*
X669835Y404109D01*
X669768Y404168D01*
X669699Y404224D01*
X669627Y404277D01*
X669552Y404327D01*
X669476Y404373D01*
X669398Y404416D01*
X669318Y404455D01*
X669236Y404491D01*
X669153Y404524D01*
X669068Y404552D01*
X668983Y404577D01*
X668896Y404599D01*
X668808Y404616D01*
X668720Y404629D01*
X668631Y404639D01*
X668542Y404645D01*
X668453Y404647D01*
X668862Y407921D02*
X666407Y407921D01*
X668862Y407921D02*
X668941Y407919D01*
X669020Y407913D01*
X669099Y407904D01*
X669177Y407891D01*
X669254Y407873D01*
X669330Y407853D01*
X669405Y407828D01*
X669479Y407800D01*
X669552Y407769D01*
X669623Y407733D01*
X669692Y407695D01*
X669759Y407653D01*
X669824Y407608D01*
X669887Y407560D01*
X669948Y407509D01*
X670005Y407455D01*
X670061Y407399D01*
X670113Y407340D01*
X670163Y407278D01*
X670209Y407214D01*
X670253Y407148D01*
X670293Y407080D01*
X670329Y407010D01*
X670363Y406938D01*
X670393Y406864D01*
X670419Y406790D01*
X670442Y406714D01*
X670460Y406637D01*
X670476Y406560D01*
X670487Y406481D01*
X670495Y406403D01*
X670499Y406324D01*
X670499Y406244D01*
X670495Y406165D01*
X670487Y406087D01*
X670476Y406008D01*
X670460Y405931D01*
X670442Y405854D01*
X670419Y405778D01*
X670393Y405704D01*
X670363Y405630D01*
X670329Y405558D01*
X670293Y405488D01*
X670253Y405420D01*
X670209Y405354D01*
X670163Y405290D01*
X670113Y405228D01*
X670061Y405169D01*
X670005Y405113D01*
X669948Y405059D01*
X669887Y405008D01*
X669824Y404960D01*
X669759Y404915D01*
X669692Y404873D01*
X669623Y404835D01*
X669552Y404799D01*
X669479Y404768D01*
X669405Y404740D01*
X669330Y404715D01*
X669254Y404695D01*
X669177Y404677D01*
X669099Y404664D01*
X669020Y404655D01*
X668941Y404649D01*
X668862Y404647D01*
X667225Y404647D01*
X675972Y407921D02*
X676057Y407919D01*
X676142Y407913D01*
X676226Y407903D01*
X676310Y407890D01*
X676394Y407872D01*
X676476Y407851D01*
X676557Y407826D01*
X676637Y407797D01*
X676716Y407764D01*
X676793Y407728D01*
X676868Y407688D01*
X676942Y407645D01*
X677013Y407599D01*
X677082Y407549D01*
X677149Y407496D01*
X677213Y407440D01*
X677274Y407381D01*
X677333Y407320D01*
X677389Y407256D01*
X677442Y407189D01*
X677492Y407120D01*
X677538Y407049D01*
X677581Y406975D01*
X677621Y406900D01*
X677657Y406823D01*
X677690Y406744D01*
X677719Y406664D01*
X677744Y406583D01*
X677765Y406501D01*
X677783Y406417D01*
X677796Y406333D01*
X677806Y406249D01*
X677812Y406164D01*
X677814Y406079D01*
X675972Y407921D02*
X675876Y407919D01*
X675780Y407913D01*
X675685Y407903D01*
X675590Y407890D01*
X675495Y407872D01*
X675402Y407851D01*
X675309Y407826D01*
X675218Y407797D01*
X675127Y407765D01*
X675038Y407729D01*
X674951Y407689D01*
X674865Y407646D01*
X674781Y407600D01*
X674699Y407550D01*
X674619Y407496D01*
X674542Y407440D01*
X674467Y407380D01*
X674394Y407318D01*
X674324Y407252D01*
X674256Y407184D01*
X674191Y407113D01*
X674130Y407040D01*
X674071Y406964D01*
X674015Y406885D01*
X673963Y406805D01*
X673914Y406722D01*
X673868Y406638D01*
X673826Y406552D01*
X673788Y406464D01*
X673753Y406375D01*
X673721Y406284D01*
X677200Y404647D02*
X677260Y404706D01*
X677317Y404768D01*
X677372Y404832D01*
X677423Y404899D01*
X677472Y404968D01*
X677518Y405038D01*
X677561Y405111D01*
X677601Y405185D01*
X677637Y405261D01*
X677670Y405339D01*
X677700Y405418D01*
X677727Y405498D01*
X677750Y405579D01*
X677769Y405661D01*
X677785Y405743D01*
X677798Y405827D01*
X677807Y405911D01*
X677812Y405995D01*
X677814Y406079D01*
X677200Y404647D02*
X673722Y400555D01*
X677814Y400555D01*
D11*
X948983Y295294D02*
X948207Y292396D01*
X945309Y293173D01*
X912467Y301973D02*
X909570Y302749D01*
X910346Y305647D01*
X918628Y336556D02*
X919405Y339454D01*
X922302Y338678D01*
X955144Y329878D02*
X958042Y329101D01*
X957265Y326204D01*
D12*
X930191Y341042D02*
X932098Y348157D01*
X930982Y340830D02*
X929401Y341253D01*
X931307Y348368D02*
X932888Y347945D01*
X935426Y339639D02*
X937008Y339215D01*
X935426Y339639D02*
X935349Y339661D01*
X935273Y339688D01*
X935199Y339718D01*
X935126Y339752D01*
X935055Y339789D01*
X934986Y339830D01*
X934918Y339874D01*
X934853Y339921D01*
X934791Y339972D01*
X934731Y340025D01*
X934674Y340082D01*
X934619Y340141D01*
X934568Y340202D01*
X934519Y340266D01*
X934474Y340333D01*
X934432Y340401D01*
X934394Y340472D01*
X934359Y340544D01*
X934328Y340618D01*
X934300Y340694D01*
X934276Y340770D01*
X934256Y340848D01*
X934239Y340927D01*
X934227Y341006D01*
X934218Y341086D01*
X934214Y341166D01*
X934213Y341247D01*
X934217Y341327D01*
X934224Y341407D01*
X934235Y341487D01*
X934250Y341566D01*
X934269Y341644D01*
X935328Y345596D01*
X935328Y345597D02*
X935350Y345674D01*
X935377Y345750D01*
X935407Y345824D01*
X935441Y345897D01*
X935478Y345968D01*
X935519Y346037D01*
X935563Y346105D01*
X935610Y346170D01*
X935661Y346232D01*
X935714Y346292D01*
X935771Y346349D01*
X935830Y346404D01*
X935891Y346455D01*
X935955Y346504D01*
X936022Y346549D01*
X936090Y346591D01*
X936161Y346629D01*
X936233Y346664D01*
X936307Y346695D01*
X936383Y346723D01*
X936459Y346747D01*
X936537Y346767D01*
X936616Y346784D01*
X936695Y346796D01*
X936775Y346805D01*
X936855Y346809D01*
X936936Y346810D01*
X937016Y346806D01*
X937096Y346799D01*
X937176Y346788D01*
X937255Y346773D01*
X937333Y346754D01*
X938914Y346330D01*
X939756Y338479D02*
X941732Y337949D01*
X941819Y337928D01*
X941907Y337910D01*
X941995Y337897D01*
X942084Y337887D01*
X942173Y337881D01*
X942262Y337879D01*
X942351Y337881D01*
X942440Y337887D01*
X942529Y337897D01*
X942617Y337910D01*
X942705Y337927D01*
X942792Y337949D01*
X942877Y337974D01*
X942962Y338002D01*
X943045Y338035D01*
X943127Y338071D01*
X943207Y338110D01*
X943285Y338153D01*
X943361Y338199D01*
X943436Y338249D01*
X943508Y338302D01*
X943577Y338358D01*
X943644Y338417D01*
X943709Y338478D01*
X943770Y338543D01*
X943829Y338610D01*
X943885Y338679D01*
X943938Y338751D01*
X943988Y338826D01*
X944034Y338902D01*
X944077Y338980D01*
X944116Y339060D01*
X944152Y339142D01*
X944185Y339225D01*
X944213Y339310D01*
X944238Y339395D01*
X944260Y339482D01*
X944277Y339570D01*
X944290Y339658D01*
X944300Y339747D01*
X944306Y339836D01*
X944308Y339925D01*
X944306Y340014D01*
X944300Y340103D01*
X944290Y340192D01*
X944277Y340280D01*
X944260Y340368D01*
X944238Y340455D01*
X944213Y340540D01*
X944185Y340625D01*
X944152Y340708D01*
X944116Y340790D01*
X944077Y340870D01*
X944034Y340948D01*
X943988Y341024D01*
X943938Y341099D01*
X943885Y341171D01*
X943829Y341240D01*
X943770Y341307D01*
X943709Y341372D01*
X943644Y341433D01*
X943577Y341492D01*
X943508Y341548D01*
X943436Y341601D01*
X943361Y341651D01*
X943285Y341697D01*
X943207Y341740D01*
X943127Y341779D01*
X943045Y341815D01*
X942962Y341848D01*
X942877Y341876D01*
X942792Y341901D01*
X944034Y344958D02*
X941662Y345594D01*
X944034Y344958D02*
X944110Y344936D01*
X944184Y344910D01*
X944258Y344880D01*
X944330Y344847D01*
X944400Y344811D01*
X944468Y344771D01*
X944534Y344728D01*
X944599Y344682D01*
X944661Y344632D01*
X944720Y344580D01*
X944777Y344525D01*
X944831Y344467D01*
X944882Y344407D01*
X944930Y344345D01*
X944976Y344280D01*
X945018Y344213D01*
X945056Y344144D01*
X945092Y344073D01*
X945124Y344000D01*
X945152Y343927D01*
X945177Y343851D01*
X945198Y343775D01*
X945215Y343698D01*
X945229Y343620D01*
X945239Y343542D01*
X945245Y343463D01*
X945247Y343384D01*
X945245Y343304D01*
X945240Y343226D01*
X945231Y343147D01*
X945218Y343069D01*
X945201Y342992D01*
X945181Y342915D01*
X945156Y342840D01*
X945129Y342766D01*
X945097Y342693D01*
X945063Y342622D01*
X945024Y342553D01*
X944983Y342485D01*
X944938Y342420D01*
X944890Y342357D01*
X944840Y342296D01*
X944786Y342238D01*
X944730Y342183D01*
X944671Y342130D01*
X944609Y342080D01*
X944545Y342034D01*
X944479Y341990D01*
X944411Y341950D01*
X944341Y341912D01*
X944270Y341879D01*
X944197Y341849D01*
X944122Y341822D01*
X944046Y341799D01*
X943970Y341780D01*
X943892Y341764D01*
X943814Y341753D01*
X943735Y341745D01*
X943656Y341741D01*
X943577Y341740D01*
X943498Y341744D01*
X943419Y341751D01*
X943341Y341762D01*
X943263Y341777D01*
X943186Y341796D01*
X943187Y341796D02*
X941606Y342220D01*
X946822Y336585D02*
X948798Y336056D01*
X948885Y336035D01*
X948973Y336017D01*
X949061Y336004D01*
X949150Y335994D01*
X949239Y335988D01*
X949328Y335986D01*
X949417Y335988D01*
X949506Y335994D01*
X949595Y336004D01*
X949683Y336017D01*
X949771Y336034D01*
X949858Y336056D01*
X949943Y336081D01*
X950028Y336109D01*
X950111Y336142D01*
X950193Y336178D01*
X950273Y336217D01*
X950351Y336260D01*
X950427Y336306D01*
X950502Y336356D01*
X950574Y336409D01*
X950643Y336465D01*
X950710Y336524D01*
X950775Y336585D01*
X950836Y336650D01*
X950895Y336717D01*
X950951Y336786D01*
X951004Y336858D01*
X951054Y336933D01*
X951100Y337009D01*
X951143Y337087D01*
X951182Y337167D01*
X951218Y337249D01*
X951251Y337332D01*
X951279Y337417D01*
X951304Y337502D01*
X951326Y337589D01*
X951343Y337677D01*
X951356Y337765D01*
X951366Y337854D01*
X951372Y337943D01*
X951374Y338032D01*
X951372Y338121D01*
X951366Y338210D01*
X951356Y338299D01*
X951343Y338387D01*
X951326Y338475D01*
X951304Y338562D01*
X951279Y338647D01*
X951251Y338732D01*
X951218Y338815D01*
X951182Y338897D01*
X951143Y338977D01*
X951100Y339055D01*
X951054Y339131D01*
X951004Y339206D01*
X950951Y339278D01*
X950895Y339347D01*
X950836Y339414D01*
X950775Y339479D01*
X950710Y339540D01*
X950643Y339599D01*
X950574Y339655D01*
X950502Y339708D01*
X950427Y339758D01*
X950351Y339804D01*
X950273Y339847D01*
X950193Y339886D01*
X950111Y339922D01*
X950028Y339955D01*
X949943Y339983D01*
X949858Y340008D01*
X951100Y343065D02*
X948728Y343700D01*
X951100Y343065D02*
X951176Y343043D01*
X951250Y343017D01*
X951324Y342987D01*
X951396Y342954D01*
X951466Y342918D01*
X951534Y342878D01*
X951600Y342835D01*
X951665Y342789D01*
X951727Y342739D01*
X951786Y342687D01*
X951843Y342632D01*
X951897Y342574D01*
X951948Y342514D01*
X951996Y342452D01*
X952042Y342387D01*
X952084Y342320D01*
X952122Y342251D01*
X952158Y342180D01*
X952190Y342107D01*
X952218Y342034D01*
X952243Y341958D01*
X952264Y341882D01*
X952281Y341805D01*
X952295Y341727D01*
X952305Y341649D01*
X952311Y341570D01*
X952313Y341491D01*
X952311Y341411D01*
X952306Y341333D01*
X952297Y341254D01*
X952284Y341176D01*
X952267Y341099D01*
X952247Y341022D01*
X952222Y340947D01*
X952195Y340873D01*
X952163Y340800D01*
X952129Y340729D01*
X952090Y340660D01*
X952049Y340592D01*
X952004Y340527D01*
X951956Y340464D01*
X951906Y340403D01*
X951852Y340345D01*
X951796Y340290D01*
X951737Y340237D01*
X951675Y340187D01*
X951611Y340141D01*
X951545Y340097D01*
X951477Y340057D01*
X951407Y340019D01*
X951336Y339986D01*
X951263Y339956D01*
X951188Y339929D01*
X951112Y339906D01*
X951036Y339887D01*
X950958Y339871D01*
X950880Y339860D01*
X950801Y339852D01*
X950722Y339848D01*
X950643Y339847D01*
X950564Y339851D01*
X950485Y339858D01*
X950407Y339869D01*
X950329Y339884D01*
X950252Y339903D01*
X950253Y339903D02*
X948671Y340326D01*
D11*
X1188921Y214706D02*
X1190421Y217304D01*
X1188921Y214706D02*
X1186322Y216206D01*
X1156878Y233206D02*
X1154279Y234706D01*
X1155779Y237304D01*
X1171779Y265017D02*
X1173279Y267615D01*
X1175878Y266115D01*
X1205322Y249115D02*
X1207921Y247615D01*
X1206421Y245017D01*
D12*
X1185386Y267113D02*
X1189069Y273492D01*
X1184677Y267522D02*
X1186094Y266703D01*
X1189777Y273083D02*
X1188360Y273901D01*
X1190079Y264403D02*
X1191497Y263584D01*
X1190079Y264402D02*
X1190013Y264443D01*
X1189948Y264487D01*
X1189886Y264533D01*
X1189826Y264583D01*
X1189768Y264635D01*
X1189713Y264690D01*
X1189661Y264748D01*
X1189611Y264808D01*
X1189565Y264870D01*
X1189521Y264935D01*
X1189480Y265002D01*
X1189443Y265070D01*
X1189409Y265140D01*
X1189378Y265212D01*
X1189351Y265285D01*
X1189327Y265359D01*
X1189307Y265434D01*
X1189291Y265510D01*
X1189278Y265587D01*
X1189268Y265664D01*
X1189263Y265742D01*
X1189261Y265820D01*
X1189263Y265898D01*
X1189268Y265976D01*
X1189278Y266053D01*
X1189291Y266130D01*
X1189307Y266206D01*
X1189327Y266281D01*
X1189351Y266355D01*
X1189378Y266428D01*
X1189409Y266500D01*
X1189443Y266570D01*
X1189480Y266639D01*
X1191526Y270183D01*
X1191567Y270249D01*
X1191611Y270314D01*
X1191657Y270376D01*
X1191707Y270436D01*
X1191759Y270494D01*
X1191814Y270549D01*
X1191872Y270601D01*
X1191932Y270651D01*
X1191994Y270697D01*
X1192059Y270741D01*
X1192126Y270782D01*
X1192194Y270819D01*
X1192264Y270853D01*
X1192336Y270884D01*
X1192409Y270911D01*
X1192483Y270935D01*
X1192558Y270955D01*
X1192634Y270971D01*
X1192711Y270984D01*
X1192788Y270994D01*
X1192866Y270999D01*
X1192944Y271001D01*
X1193022Y270999D01*
X1193100Y270994D01*
X1193177Y270984D01*
X1193254Y270971D01*
X1193330Y270955D01*
X1193405Y270935D01*
X1193479Y270911D01*
X1193552Y270884D01*
X1193624Y270853D01*
X1193694Y270819D01*
X1193763Y270782D01*
X1193762Y270782D02*
X1195180Y269963D01*
X1193961Y262162D02*
X1195733Y261139D01*
X1195811Y261096D01*
X1195891Y261057D01*
X1195973Y261021D01*
X1196056Y260988D01*
X1196141Y260960D01*
X1196226Y260935D01*
X1196313Y260914D01*
X1196401Y260896D01*
X1196489Y260883D01*
X1196578Y260873D01*
X1196667Y260867D01*
X1196756Y260865D01*
X1196845Y260867D01*
X1196934Y260873D01*
X1197023Y260883D01*
X1197111Y260896D01*
X1197199Y260913D01*
X1197286Y260935D01*
X1197371Y260960D01*
X1197456Y260988D01*
X1197539Y261021D01*
X1197621Y261057D01*
X1197701Y261096D01*
X1197779Y261139D01*
X1197855Y261185D01*
X1197930Y261235D01*
X1198002Y261288D01*
X1198071Y261344D01*
X1198138Y261403D01*
X1198203Y261464D01*
X1198264Y261529D01*
X1198323Y261596D01*
X1198379Y261665D01*
X1198432Y261737D01*
X1198482Y261812D01*
X1198528Y261888D01*
X1198571Y261966D01*
X1198610Y262046D01*
X1198646Y262128D01*
X1198679Y262211D01*
X1198707Y262296D01*
X1198732Y262381D01*
X1198754Y262468D01*
X1198771Y262556D01*
X1198784Y262644D01*
X1198794Y262733D01*
X1198800Y262822D01*
X1198802Y262911D01*
X1198800Y263000D01*
X1198794Y263089D01*
X1198784Y263178D01*
X1198771Y263266D01*
X1198753Y263354D01*
X1198732Y263441D01*
X1198707Y263526D01*
X1198679Y263611D01*
X1198646Y263694D01*
X1198610Y263776D01*
X1198571Y263856D01*
X1198528Y263934D01*
X1198482Y264010D01*
X1198432Y264085D01*
X1198379Y264157D01*
X1198323Y264226D01*
X1198264Y264293D01*
X1198203Y264358D01*
X1198138Y264419D01*
X1198071Y264478D01*
X1198002Y264534D01*
X1197930Y264587D01*
X1197855Y264637D01*
X1197779Y264683D01*
X1199770Y267313D02*
X1197644Y268541D01*
X1199770Y267313D02*
X1199838Y267271D01*
X1199903Y267227D01*
X1199967Y267180D01*
X1200028Y267129D01*
X1200086Y267076D01*
X1200142Y267019D01*
X1200195Y266961D01*
X1200245Y266899D01*
X1200292Y266836D01*
X1200336Y266770D01*
X1200376Y266702D01*
X1200414Y266632D01*
X1200447Y266561D01*
X1200478Y266488D01*
X1200505Y266413D01*
X1200528Y266338D01*
X1200548Y266261D01*
X1200563Y266184D01*
X1200575Y266105D01*
X1200584Y266027D01*
X1200588Y265948D01*
X1200589Y265869D01*
X1200586Y265790D01*
X1200579Y265711D01*
X1200568Y265632D01*
X1200553Y265555D01*
X1200535Y265478D01*
X1200513Y265402D01*
X1200487Y265327D01*
X1200458Y265253D01*
X1200425Y265181D01*
X1200389Y265111D01*
X1200349Y265042D01*
X1200307Y264976D01*
X1200261Y264912D01*
X1200212Y264850D01*
X1200160Y264790D01*
X1200105Y264733D01*
X1200047Y264678D01*
X1199987Y264627D01*
X1199925Y264578D01*
X1199860Y264533D01*
X1199793Y264491D01*
X1199724Y264452D01*
X1199654Y264416D01*
X1199582Y264384D01*
X1199508Y264355D01*
X1199433Y264330D01*
X1199357Y264309D01*
X1199279Y264291D01*
X1199202Y264277D01*
X1199123Y264267D01*
X1199044Y264261D01*
X1198965Y264258D01*
X1198886Y264259D01*
X1198807Y264264D01*
X1198729Y264273D01*
X1198650Y264286D01*
X1198573Y264302D01*
X1198497Y264323D01*
X1198421Y264346D01*
X1198347Y264374D01*
X1198274Y264405D01*
X1198203Y264439D01*
X1198134Y264477D01*
X1198133Y264478D02*
X1196716Y265296D01*
X1201115Y259922D02*
X1205397Y264065D01*
X1201115Y259922D02*
X1204658Y257875D01*
X1202777Y257072D02*
X1204414Y259907D01*
D11*
X1356791Y122054D02*
X1355291Y119456D01*
X1352692Y120956D01*
X1323248Y137956D02*
X1320649Y139456D01*
X1322149Y142054D01*
X1338149Y169767D02*
X1339649Y172365D01*
X1342248Y170865D01*
X1371692Y153865D02*
X1374291Y152365D01*
X1372791Y149767D01*
D12*
X1351756Y171863D02*
X1355439Y178242D01*
X1351047Y172272D02*
X1352464Y171453D01*
X1356147Y177833D02*
X1354730Y178651D01*
X1356449Y169153D02*
X1357867Y168334D01*
X1356449Y169152D02*
X1356383Y169193D01*
X1356318Y169237D01*
X1356256Y169283D01*
X1356196Y169333D01*
X1356138Y169385D01*
X1356083Y169440D01*
X1356031Y169498D01*
X1355981Y169558D01*
X1355935Y169620D01*
X1355891Y169685D01*
X1355850Y169752D01*
X1355813Y169820D01*
X1355779Y169890D01*
X1355748Y169962D01*
X1355721Y170035D01*
X1355697Y170109D01*
X1355677Y170184D01*
X1355661Y170260D01*
X1355648Y170337D01*
X1355638Y170414D01*
X1355633Y170492D01*
X1355631Y170570D01*
X1355633Y170648D01*
X1355638Y170726D01*
X1355648Y170803D01*
X1355661Y170880D01*
X1355677Y170956D01*
X1355697Y171031D01*
X1355721Y171105D01*
X1355748Y171178D01*
X1355779Y171250D01*
X1355813Y171320D01*
X1355850Y171389D01*
X1357896Y174933D01*
X1357937Y174999D01*
X1357981Y175064D01*
X1358027Y175126D01*
X1358077Y175186D01*
X1358129Y175244D01*
X1358184Y175299D01*
X1358242Y175351D01*
X1358302Y175401D01*
X1358364Y175447D01*
X1358429Y175491D01*
X1358496Y175532D01*
X1358564Y175569D01*
X1358634Y175603D01*
X1358706Y175634D01*
X1358779Y175661D01*
X1358853Y175685D01*
X1358928Y175705D01*
X1359004Y175721D01*
X1359081Y175734D01*
X1359158Y175744D01*
X1359236Y175749D01*
X1359314Y175751D01*
X1359392Y175749D01*
X1359470Y175744D01*
X1359547Y175734D01*
X1359624Y175721D01*
X1359700Y175705D01*
X1359775Y175685D01*
X1359849Y175661D01*
X1359922Y175634D01*
X1359994Y175603D01*
X1360064Y175569D01*
X1360133Y175532D01*
X1360132Y175532D02*
X1361550Y174713D01*
X1360331Y166912D02*
X1362103Y165889D01*
X1362181Y165846D01*
X1362261Y165807D01*
X1362343Y165771D01*
X1362426Y165738D01*
X1362511Y165710D01*
X1362596Y165685D01*
X1362683Y165664D01*
X1362771Y165646D01*
X1362859Y165633D01*
X1362948Y165623D01*
X1363037Y165617D01*
X1363126Y165615D01*
X1363215Y165617D01*
X1363304Y165623D01*
X1363393Y165633D01*
X1363481Y165646D01*
X1363569Y165663D01*
X1363656Y165685D01*
X1363741Y165710D01*
X1363826Y165738D01*
X1363909Y165771D01*
X1363991Y165807D01*
X1364071Y165846D01*
X1364149Y165889D01*
X1364225Y165935D01*
X1364300Y165985D01*
X1364372Y166038D01*
X1364441Y166094D01*
X1364508Y166153D01*
X1364573Y166214D01*
X1364634Y166279D01*
X1364693Y166346D01*
X1364749Y166415D01*
X1364802Y166487D01*
X1364852Y166562D01*
X1364898Y166638D01*
X1364941Y166716D01*
X1364980Y166796D01*
X1365016Y166878D01*
X1365049Y166961D01*
X1365077Y167046D01*
X1365102Y167131D01*
X1365124Y167218D01*
X1365141Y167306D01*
X1365154Y167394D01*
X1365164Y167483D01*
X1365170Y167572D01*
X1365172Y167661D01*
X1365170Y167750D01*
X1365164Y167839D01*
X1365154Y167928D01*
X1365141Y168016D01*
X1365123Y168104D01*
X1365102Y168191D01*
X1365077Y168276D01*
X1365049Y168361D01*
X1365016Y168444D01*
X1364980Y168526D01*
X1364941Y168606D01*
X1364898Y168684D01*
X1364852Y168760D01*
X1364802Y168835D01*
X1364749Y168907D01*
X1364693Y168976D01*
X1364634Y169043D01*
X1364573Y169108D01*
X1364508Y169169D01*
X1364441Y169228D01*
X1364372Y169284D01*
X1364300Y169337D01*
X1364225Y169387D01*
X1364149Y169433D01*
X1366140Y172063D02*
X1364014Y173291D01*
X1366140Y172064D02*
X1366208Y172022D01*
X1366273Y171978D01*
X1366337Y171931D01*
X1366398Y171880D01*
X1366456Y171827D01*
X1366512Y171770D01*
X1366565Y171712D01*
X1366615Y171650D01*
X1366662Y171587D01*
X1366706Y171521D01*
X1366746Y171453D01*
X1366784Y171383D01*
X1366817Y171312D01*
X1366848Y171239D01*
X1366875Y171164D01*
X1366898Y171089D01*
X1366918Y171012D01*
X1366933Y170935D01*
X1366945Y170856D01*
X1366954Y170778D01*
X1366958Y170699D01*
X1366959Y170620D01*
X1366956Y170541D01*
X1366949Y170462D01*
X1366938Y170383D01*
X1366923Y170306D01*
X1366905Y170229D01*
X1366883Y170153D01*
X1366857Y170078D01*
X1366828Y170004D01*
X1366795Y169932D01*
X1366759Y169862D01*
X1366719Y169793D01*
X1366677Y169727D01*
X1366631Y169663D01*
X1366582Y169601D01*
X1366530Y169541D01*
X1366475Y169484D01*
X1366417Y169429D01*
X1366357Y169378D01*
X1366295Y169329D01*
X1366230Y169284D01*
X1366163Y169242D01*
X1366094Y169203D01*
X1366024Y169167D01*
X1365952Y169135D01*
X1365878Y169106D01*
X1365803Y169081D01*
X1365727Y169060D01*
X1365649Y169042D01*
X1365572Y169028D01*
X1365493Y169018D01*
X1365414Y169012D01*
X1365335Y169009D01*
X1365256Y169010D01*
X1365177Y169015D01*
X1365099Y169024D01*
X1365020Y169037D01*
X1364943Y169053D01*
X1364867Y169074D01*
X1364791Y169097D01*
X1364717Y169125D01*
X1364644Y169156D01*
X1364573Y169190D01*
X1364504Y169228D01*
X1364503Y169228D02*
X1363086Y170046D01*
X1366666Y163254D02*
X1368792Y162026D01*
X1368863Y161988D01*
X1368935Y161953D01*
X1369009Y161922D01*
X1369085Y161894D01*
X1369161Y161870D01*
X1369239Y161850D01*
X1369318Y161833D01*
X1369397Y161821D01*
X1369477Y161812D01*
X1369557Y161808D01*
X1369638Y161807D01*
X1369718Y161811D01*
X1369798Y161818D01*
X1369878Y161829D01*
X1369957Y161844D01*
X1370035Y161863D01*
X1370112Y161885D01*
X1370188Y161912D01*
X1370262Y161942D01*
X1370335Y161976D01*
X1370406Y162013D01*
X1370475Y162054D01*
X1370543Y162098D01*
X1370608Y162145D01*
X1370670Y162196D01*
X1370730Y162249D01*
X1370787Y162306D01*
X1370842Y162365D01*
X1370893Y162426D01*
X1370942Y162490D01*
X1370987Y162557D01*
X1371029Y162625D01*
X1371028Y162625D02*
X1371438Y163334D01*
X1371438Y163335D02*
X1371476Y163405D01*
X1371511Y163477D01*
X1371542Y163551D01*
X1371570Y163627D01*
X1371594Y163704D01*
X1371614Y163781D01*
X1371631Y163860D01*
X1371643Y163939D01*
X1371652Y164019D01*
X1371656Y164099D01*
X1371657Y164180D01*
X1371653Y164260D01*
X1371646Y164340D01*
X1371635Y164420D01*
X1371620Y164499D01*
X1371601Y164577D01*
X1371579Y164654D01*
X1371552Y164730D01*
X1371522Y164804D01*
X1371488Y164877D01*
X1371451Y164948D01*
X1371410Y165017D01*
X1371366Y165085D01*
X1371319Y165150D01*
X1371268Y165212D01*
X1371215Y165272D01*
X1371158Y165329D01*
X1371099Y165384D01*
X1371038Y165435D01*
X1370974Y165484D01*
X1370907Y165529D01*
X1370839Y165571D01*
X1370839Y165570D02*
X1368712Y166798D01*
X1370349Y169633D01*
X1373893Y167587D01*
M02*
