G04 EAGLE Gerber RS-274X export*
G75*
%MOMM*%
%FSLAX34Y34*%
%LPD*%
%AMOC8*
5,1,8,0,0,1.08239X$1,22.5*%
G01*
%ADD10C,4.102000*%
%ADD11C,1.801600*%
%ADD12C,3.101600*%
%ADD13R,2.801600X2.101600*%
%ADD14R,1.117600X1.117600*%
%ADD15R,0.851600X0.401600*%
%ADD16R,0.401600X0.851600*%
%ADD17R,4.101600X4.101600*%
%ADD18R,0.551600X1.801600*%
%ADD19R,1.576600X2.201600*%
%ADD20R,2.476600X2.001600*%
%ADD21R,0.681600X1.301600*%
%ADD22R,2.101600X2.101600*%
%ADD23R,0.660400X0.863600*%
%ADD24R,1.501600X1.701600*%
%ADD25R,1.117600X0.863600*%
%ADD26R,0.863600X0.660400*%
%ADD27R,2.101600X3.101600*%
%ADD28R,2.601600X1.601600*%
%ADD29C,1.301600*%
%ADD30R,1.701600X1.501600*%
%ADD31C,1.101600*%


D10*
X71438Y1016000D03*
D11*
X20638Y1016000D03*
X122238Y1016000D03*
D12*
X109538Y990600D03*
X46038Y965200D03*
D13*
X147688Y990600D03*
X7888Y965200D03*
D10*
X666750Y1085438D03*
D11*
X615950Y1085438D03*
X717550Y1085438D03*
D12*
X704850Y1060038D03*
X641350Y1034638D03*
D13*
X743000Y1060038D03*
X603200Y1034638D03*
D10*
X476250Y1060625D03*
D11*
X425450Y1060625D03*
X527050Y1060625D03*
D12*
X514350Y1035225D03*
X450850Y1009825D03*
D13*
X552500Y1035225D03*
X412700Y1009825D03*
D10*
X857250Y1060625D03*
D11*
X806450Y1060625D03*
X908050Y1060625D03*
D12*
X895350Y1035225D03*
X831850Y1009825D03*
D13*
X933500Y1035225D03*
X793700Y1009825D03*
D10*
X1047750Y1040813D03*
D11*
X996950Y1040813D03*
X1098550Y1040813D03*
D12*
X1085850Y1015413D03*
X1022350Y990013D03*
D13*
X1124000Y1015413D03*
X984200Y990013D03*
D10*
X285750Y1016000D03*
D11*
X234950Y1016000D03*
X336550Y1016000D03*
D12*
X323850Y990600D03*
X260350Y965200D03*
D13*
X362000Y990600D03*
X222200Y965200D03*
D10*
X1238250Y946563D03*
D11*
X1187450Y946563D03*
X1289050Y946563D03*
D12*
X1276350Y921163D03*
X1212850Y895763D03*
D13*
X1314500Y921163D03*
X1174700Y895763D03*
D10*
X71438Y825500D03*
D11*
X20638Y825500D03*
X122238Y825500D03*
D12*
X109538Y800100D03*
X46038Y774700D03*
D13*
X147688Y800100D03*
X7888Y774700D03*
D10*
X285750Y825500D03*
D11*
X234950Y825500D03*
X336550Y825500D03*
D12*
X323850Y800100D03*
X260350Y774700D03*
D13*
X362000Y800100D03*
X222200Y774700D03*
D10*
X476250Y870125D03*
D11*
X425450Y870125D03*
X527050Y870125D03*
D12*
X514350Y844725D03*
X450850Y819325D03*
D13*
X552500Y844725D03*
X412700Y819325D03*
D10*
X666750Y894938D03*
D11*
X615950Y894938D03*
X717550Y894938D03*
D12*
X704850Y869538D03*
X641350Y844138D03*
D13*
X743000Y869538D03*
X603200Y844138D03*
D10*
X857250Y870125D03*
D11*
X806450Y870125D03*
X908050Y870125D03*
D12*
X895350Y844725D03*
X831850Y819325D03*
D13*
X933500Y844725D03*
X793700Y819325D03*
D10*
X1047750Y850313D03*
D11*
X996950Y850313D03*
X1098550Y850313D03*
D12*
X1085850Y824913D03*
X1022350Y799513D03*
D13*
X1124000Y824913D03*
X984200Y799513D03*
D10*
X1238250Y704533D03*
D11*
X1187450Y704533D03*
X1289050Y704533D03*
D12*
X1276350Y679133D03*
X1212850Y653733D03*
D13*
X1314500Y679133D03*
X1174700Y653733D03*
D10*
X71438Y635000D03*
D11*
X20638Y635000D03*
X122238Y635000D03*
D12*
X109538Y609600D03*
X46038Y584200D03*
D13*
X147688Y609600D03*
X7888Y584200D03*
D10*
X285750Y635000D03*
D11*
X234950Y635000D03*
X336550Y635000D03*
D12*
X323850Y609600D03*
X260350Y584200D03*
D13*
X362000Y609600D03*
X222200Y584200D03*
D10*
X476250Y679625D03*
D11*
X425450Y679625D03*
X527050Y679625D03*
D12*
X514350Y654225D03*
X450850Y628825D03*
D13*
X552500Y654225D03*
X412700Y628825D03*
D10*
X666750Y704438D03*
D11*
X615950Y704438D03*
X717550Y704438D03*
D12*
X704850Y679038D03*
X641350Y653638D03*
D13*
X743000Y679038D03*
X603200Y653638D03*
D10*
X857250Y679625D03*
D11*
X806450Y679625D03*
X908050Y679625D03*
D12*
X895350Y654225D03*
X831850Y628825D03*
D13*
X933500Y654225D03*
X793700Y628825D03*
D10*
X1047750Y659813D03*
D11*
X996950Y659813D03*
X1098550Y659813D03*
D12*
X1085850Y634413D03*
X1022350Y609013D03*
D13*
X1124000Y634413D03*
X984200Y609013D03*
D10*
X71438Y444500D03*
D11*
X20638Y444500D03*
X122238Y444500D03*
D12*
X109538Y419100D03*
X46038Y393700D03*
D13*
X147688Y419100D03*
X7888Y393700D03*
D10*
X285750Y444500D03*
D11*
X234950Y444500D03*
X336550Y444500D03*
D12*
X323850Y419100D03*
X260350Y393700D03*
D13*
X362000Y419100D03*
X222200Y393700D03*
D10*
X476250Y489125D03*
D11*
X425450Y489125D03*
X527050Y489125D03*
D12*
X514350Y463725D03*
X450850Y438325D03*
D13*
X552500Y463725D03*
X412700Y438325D03*
D10*
X666750Y513938D03*
D11*
X615950Y513938D03*
X717550Y513938D03*
D12*
X704850Y488538D03*
X641350Y463138D03*
D13*
X743000Y488538D03*
X603200Y463138D03*
D10*
X857250Y489125D03*
D11*
X806450Y489125D03*
X908050Y489125D03*
D12*
X895350Y463725D03*
X831850Y438325D03*
D13*
X933500Y463725D03*
X793700Y438325D03*
D10*
X1047750Y469313D03*
D11*
X996950Y469313D03*
X1098550Y469313D03*
D12*
X1085850Y443913D03*
X1022350Y418513D03*
D13*
X1124000Y443913D03*
X984200Y418513D03*
D10*
X1277620Y406083D03*
D11*
X1233626Y431483D03*
X1321614Y380683D03*
D12*
X1297916Y365035D03*
X1230223Y374788D03*
D13*
G36*
X1324077Y362064D02*
X1348339Y348056D01*
X1337831Y329856D01*
X1313569Y343864D01*
X1324077Y362064D01*
G37*
G36*
X1190307Y409967D02*
X1214569Y395959D01*
X1204061Y377759D01*
X1179799Y391767D01*
X1190307Y409967D01*
G37*
D10*
X1441958Y310325D03*
D11*
X1397964Y335725D03*
X1485952Y284925D03*
D12*
X1462254Y269277D03*
X1394561Y279030D03*
D13*
G36*
X1488415Y266306D02*
X1512677Y252298D01*
X1502169Y234098D01*
X1477907Y248106D01*
X1488415Y266306D01*
G37*
G36*
X1354645Y314209D02*
X1378907Y300201D01*
X1368399Y282001D01*
X1344137Y296009D01*
X1354645Y314209D01*
G37*
D10*
X95250Y254000D03*
D11*
X44450Y254000D03*
X146050Y254000D03*
D12*
X133350Y228600D03*
X69850Y203200D03*
D13*
X171500Y228600D03*
X31700Y203200D03*
D10*
X285750Y254000D03*
D11*
X234950Y254000D03*
X336550Y254000D03*
D12*
X323850Y228600D03*
X260350Y203200D03*
D13*
X362000Y228600D03*
X222200Y203200D03*
D10*
X476250Y298625D03*
D11*
X425450Y298625D03*
X527050Y298625D03*
D12*
X514350Y273225D03*
X450850Y247825D03*
D13*
X552500Y273225D03*
X412700Y247825D03*
D10*
X666750Y323438D03*
D11*
X615950Y323438D03*
X717550Y323438D03*
D12*
X704850Y298038D03*
X641350Y272638D03*
D13*
X743000Y298038D03*
X603200Y272638D03*
D10*
X920655Y266859D03*
D11*
X871586Y280007D03*
X969724Y253711D03*
D12*
X950883Y232463D03*
X882972Y224364D03*
D13*
G36*
X976922Y236364D02*
X1003983Y229113D01*
X998544Y208814D01*
X971483Y216065D01*
X976922Y236364D01*
G37*
G36*
X835311Y248013D02*
X862372Y240762D01*
X856933Y220463D01*
X829872Y227714D01*
X835311Y248013D01*
G37*
D10*
X1155700Y197168D03*
D11*
X1111706Y222568D03*
X1199694Y171767D03*
D12*
X1175996Y156120D03*
X1108303Y165873D03*
D13*
G36*
X1202157Y153149D02*
X1226419Y139141D01*
X1215911Y120941D01*
X1191649Y134949D01*
X1202157Y153149D01*
G37*
G36*
X1068387Y201052D02*
X1092649Y187044D01*
X1082141Y168844D01*
X1057879Y182852D01*
X1068387Y201052D01*
G37*
D10*
X1322070Y101918D03*
D11*
X1278076Y127318D03*
X1366064Y76517D03*
D12*
X1342366Y60870D03*
X1274673Y70623D03*
D13*
G36*
X1368527Y57899D02*
X1392789Y43891D01*
X1382281Y25691D01*
X1358019Y39699D01*
X1368527Y57899D01*
G37*
G36*
X1234757Y105802D02*
X1259019Y91794D01*
X1248511Y73594D01*
X1224249Y87602D01*
X1234757Y105802D01*
G37*
D14*
X7746Y926826D03*
X40666Y926826D03*
X603364Y999207D03*
X636284Y999207D03*
X412851Y972778D03*
X445771Y972778D03*
X793952Y972029D03*
X826872Y972029D03*
X984135Y951569D03*
X1017055Y951569D03*
X222541Y928569D03*
X255461Y928569D03*
X8026Y733091D03*
X40946Y733091D03*
X222173Y734285D03*
X255093Y734285D03*
X412635Y781033D03*
X445555Y781033D03*
X603186Y805036D03*
X636106Y805036D03*
X793800Y781513D03*
X826720Y781513D03*
X984237Y761228D03*
X1017157Y761228D03*
X1174598Y860296D03*
X1141678Y860296D03*
X8076Y544699D03*
X40996Y544699D03*
X222211Y543073D03*
X255131Y543073D03*
X412648Y593087D03*
X445568Y593087D03*
X603275Y615965D03*
X636195Y615965D03*
X794673Y593909D03*
X827593Y593909D03*
X984198Y572433D03*
X1017118Y572433D03*
X1153374Y710402D03*
X1153374Y743322D03*
X7932Y362289D03*
X40852Y362289D03*
X222452Y360016D03*
X255372Y360016D03*
X412610Y404694D03*
X445530Y404694D03*
X603364Y431545D03*
X636284Y431545D03*
X793622Y403149D03*
X826542Y403149D03*
X984692Y384862D03*
X951772Y384862D03*
X1201800Y440633D03*
X1201800Y473553D03*
X1328128Y280775D03*
X1295208Y280775D03*
X27838Y176281D03*
X60758Y176281D03*
X195764Y193579D03*
X162844Y193579D03*
X406889Y220572D03*
X439809Y220572D03*
X603649Y247381D03*
X570729Y247381D03*
X809373Y238471D03*
X776453Y238471D03*
X1047007Y162298D03*
X1014087Y162298D03*
X1209673Y68399D03*
X1176753Y68399D03*
D15*
X272350Y1111910D03*
X272350Y1106910D03*
X272350Y1101910D03*
X272350Y1096910D03*
X272350Y1091910D03*
X272350Y1086910D03*
X272350Y1081910D03*
X272350Y1076910D03*
X272350Y1071910D03*
D16*
X262350Y1061910D03*
X257350Y1061910D03*
X252350Y1061910D03*
X247350Y1061910D03*
X242350Y1061910D03*
X237350Y1061910D03*
X232350Y1061910D03*
X227350Y1061910D03*
X222350Y1061910D03*
D15*
X212350Y1071910D03*
X212350Y1076910D03*
X212350Y1081910D03*
X212350Y1086910D03*
X212350Y1091910D03*
X212350Y1096910D03*
X212350Y1101910D03*
X212350Y1106910D03*
X212350Y1111910D03*
D16*
X222350Y1121910D03*
X227350Y1121910D03*
X232350Y1121910D03*
X237350Y1121910D03*
X242350Y1121910D03*
X247350Y1121910D03*
X252350Y1121910D03*
X257350Y1121910D03*
X262350Y1121910D03*
D17*
X242350Y1091910D03*
D18*
X189640Y1154000D03*
X183140Y1154000D03*
X196140Y1154000D03*
X202640Y1154000D03*
X176640Y1154000D03*
D19*
X164640Y1159000D03*
X214640Y1159000D03*
D20*
X160140Y1182000D03*
X219140Y1182000D03*
D21*
X95500Y1114500D03*
X110500Y1114500D03*
X125500Y1114500D03*
D22*
X110500Y1083500D03*
D23*
X189500Y1131000D03*
X176500Y1131000D03*
D24*
X154850Y1110800D03*
X154850Y1080800D03*
D23*
X816500Y1102000D03*
X803500Y1102000D03*
X1195500Y988000D03*
X1182500Y988000D03*
X306500Y885000D03*
X293500Y885000D03*
X687500Y955000D03*
X674500Y955000D03*
X1068500Y910000D03*
X1055500Y910000D03*
X28000Y677000D03*
X15000Y677000D03*
X433500Y721000D03*
X420500Y721000D03*
X814500Y722000D03*
X801500Y722000D03*
X93500Y504000D03*
X80500Y504000D03*
X499500Y549000D03*
X486500Y549000D03*
D25*
X335800Y1102525D03*
X311788Y1102525D03*
X311788Y1121475D03*
X335800Y1121475D03*
D23*
X311500Y1136000D03*
X324500Y1136000D03*
D26*
X351000Y1102500D03*
X351000Y1115500D03*
D22*
X1211300Y1153400D03*
D27*
X1211300Y1114400D03*
X1211300Y1064400D03*
D22*
X1139300Y1153400D03*
X1139300Y1081400D03*
D28*
X1139300Y1059400D03*
D29*
X1174000Y1081000D03*
X1174000Y1151000D03*
D30*
X125500Y1143250D03*
X95500Y1143250D03*
D26*
X285000Y1170500D03*
X285000Y1157500D03*
X300000Y1162500D03*
X300000Y1149500D03*
D23*
X875500Y549000D03*
X862500Y549000D03*
X1262500Y455000D03*
X1249500Y455000D03*
X52500Y296000D03*
X39500Y296000D03*
X434500Y340000D03*
X421500Y340000D03*
X892500Y315000D03*
X879500Y315000D03*
X1306500Y154000D03*
X1293500Y154000D03*
X311500Y1074000D03*
X324500Y1074000D03*
D31*
X222500Y1134000D03*
X198500Y1106000D03*
D23*
X311500Y1086000D03*
X324500Y1086000D03*
M02*
