M48
;GenerationSoftware,Autodesk,EAGLE,9.1.3*%
;CreationDate,2018-09-13T16:39:31Z*%
FMAT,2
ICI,OFF
METRIC,TZ,000.000
T6C0.300
T5C1.200
T4C1.700
T3C3.000
T2C4.000
%
G90
M71
T2
X-7144Y44450
X-28575Y25400
X-9525Y25400
X-28575Y101600
X-144196Y31032
X-127762Y40608
X-104775Y104081
X-104775Y46931
X-85725Y48912
X-66675Y51394
X-85725Y106062
X-47625Y48912
X-28575Y44450
X-47625Y106062
X-28575Y82550
X-104775Y65981
X-85725Y67963
X-66675Y108544
X-66675Y70444
X-47625Y67963
X-7144Y101600
X-28575Y63500
X-7144Y63500
X-47625Y87013
X-123825Y70453
X-104775Y85031
X-85725Y87013
X-66675Y89494
X-92065Y26686
X-7144Y82550
X-66675Y32344
X-47625Y29862
X-132207Y10192
X-123825Y94656
X-115570Y19717
T3
X-81915Y65422
X-24765Y60960
X-31115Y58420
X-3334Y99060
X-43815Y65422
X-50165Y62882
X-9684Y96520
X-62865Y67904
X-69215Y65364
X-93204Y21122
X-115230Y14047
X-88265Y62882
X-87728Y25219
X-62865Y106004
X-69215Y103464
X-100965Y63441
X-107315Y60901
X-126365Y89576
X-107315Y79951
X-62865Y86954
X-69215Y84414
X-131867Y4522
X-50165Y81933
X-43815Y84473
X-81915Y84473
X-88265Y81933
X-127637Y9897
X-100965Y82491
X-111000Y19422
X-9684Y77470
X-3334Y80010
X-31115Y77470
X-120015Y67913
X-126365Y65373
X-24765Y80010
X-3334Y60960
X-9684Y58420
X-31115Y96520
X-100965Y44391
X-62865Y48854
X-81915Y103522
X-143856Y25363
X-88265Y100982
X-81915Y46372
X-3334Y41910
X-88265Y43832
X-50165Y24782
X-69215Y46314
X-139626Y30738
X-107315Y41851
X-43815Y27322
X-107315Y99001
X-100965Y101541
X-123192Y40314
X-127422Y34939
X-5715Y22860
X-9684Y39370
X-24765Y22860
X-12065Y20320
X-120015Y92116
X-43815Y103522
X-50165Y43832
X-31115Y20320
X-24765Y99060
X-43815Y46372
X-62865Y29804
X-24765Y41910
X-50165Y100982
X-69215Y27264
X-31115Y39370
T4
X-33655Y82550
X-52705Y87013
X-42545Y87013
X-33655Y101600
X-12224Y101600
X-23495Y101600
X-128905Y94656
X-99695Y104081
X-23495Y82550
X-109855Y104081
X-2064Y82550
X-2064Y101600
X-118745Y94656
X-12224Y82550
X-80645Y106062
X-90805Y106062
X-71755Y108544
X-61595Y108544
X-42545Y106062
X-52705Y106062
X-33655Y25400
X-71755Y51394
X-61595Y51394
X-90805Y48912
X-80645Y48912
X-109855Y46931
X-99695Y46931
X-132161Y38068
X-123363Y43148
X-148595Y28492
X-139796Y33572
X-14605Y25400
X-4445Y25400
X-61595Y89494
X-23495Y25400
X-52705Y29862
X-42545Y29862
X-71755Y32344
X-61595Y32344
X-96972Y25371
X-87159Y28001
X-119969Y17177
X-111171Y22257
X-136606Y7652
X-127808Y12732
X-52705Y48912
X-71755Y89494
X-90805Y87013
X-80645Y87013
X-109855Y85031
X-99695Y85031
X-128905Y70453
X-118745Y70453
X-12224Y63500
X-2064Y63500
X-33655Y63500
X-23495Y63500
X-52705Y67963
X-42545Y67963
X-71755Y70444
X-61595Y70444
X-90805Y67963
X-80645Y67963
X-109855Y65981
X-99695Y65981
X-12224Y44450
X-2064Y44450
X-33655Y44450
X-23495Y44450
X-42545Y48912
T5
X-117400Y108100
X-117400Y115100
T6
X-97150Y74500
X-116200Y60800
X-134800Y30100
X-132500Y23900
X-97100Y38800
X-97100Y35800
X-97150Y96400
X-97150Y93550
X-97150Y77300
X-116200Y65100
X-97150Y58900
X-97150Y55500
X-78100Y98850
X-78100Y95900
X-78100Y79600
X-78100Y76900
X-78100Y58600
X-8800Y117300
X-26800Y110600
X-36550Y111750
X-32900Y112900
X-32650Y108200
X-31100Y111100
X-22100Y108600
X-11050Y112825
X-22100Y112600
X-78100Y55600
X-26600Y117600
X-8100Y116600
X-25800Y116900
X-7400Y115900
X-25000Y116300
X-116200Y87600
X-116200Y83650
X-20950Y34700
X-40000Y35500
X-37400Y100800
X-20950Y92300
X-20950Y89100
X-20950Y73300
X-20950Y70300
X-20950Y54300
X-20950Y50800
X-40000Y39600
X-20950Y31300
X481Y93900
X-36700Y101400
X481Y56281
X481Y52181
X500Y37100
X500Y32800
X-59050Y41420
X-78100Y41900
X-78100Y38400
X-59050Y98820
X-59050Y95540
X-59050Y79890
X-59050Y76890
X-59050Y61060
X-59050Y57470
X-34900Y110500
X-59050Y37240
X-40000Y95700
X-40000Y92950
X-40000Y77500
X-40000Y74000
X-40000Y58200
X-40000Y54450
X-114900Y56200
X-20300Y113600
X-120840Y109940
X-119600Y49500
X-117600Y53200
X-32800Y104200
X-116500Y111000
X-32800Y105400
X-115400Y111000
X-15485Y112485
X-117200Y47900
X-3771Y105829
X-13000Y23500
X-31700Y24700
X-51000Y28000
X-70000Y30500
X-95000Y24000
X-88800Y53100
X-120950Y100600
X-108000Y89200
X-69700Y93700
X-31700Y86750
X-4250Y69500
X-44700Y74000
X-82850Y73950
X-128200Y47150
X-117500Y16500
X-50600Y53100
X-10000Y48600
X-6600Y31400
X-44750Y35850
X-132300Y17500
X-90850Y33150
X-9550Y110250
X-108000Y83500
X-10500Y80500
X-32000Y80500
X-10500Y99500
X-32000Y99500
X-51000Y104000
X-51000Y85000
X-70000Y87500
X-89000Y85000
X-127000Y68500
X-70000Y106500
X-89000Y104000
X-127000Y93000
X-108000Y102000
X-31600Y106600
X-22100Y107700
X-18300Y109900
X-82750Y112050
X-108000Y64000
X-89000Y66000
X-70000Y68500
X-51000Y66000
X-32000Y61500
X-10500Y61500
X-10500Y42500
X-32000Y42500
X-51000Y47000
X-70000Y49500
X-89000Y47000
X-108000Y45500
X-130000Y37000
X-146500Y27500
X-134500Y6500
M30