G04 EAGLE Gerber RS-274X export*
G75*
%MOMM*%
%FSLAX34Y34*%
%LPD*%
%AMOC8*
5,1,8,0,0,1.08239X$1,22.5*%
G01*
%ADD10C,0.000000*%
%ADD11C,0.127000*%
%ADD12C,0.076200*%


D10*
X-65088Y1066800D02*
X-77788Y1066800D01*
X-71438Y1060450D02*
X-71438Y1073150D01*
X-660400Y1136238D02*
X-673100Y1136238D01*
X-666750Y1129888D02*
X-666750Y1142588D01*
X-482600Y1111425D02*
X-469900Y1111425D01*
X-476250Y1105075D02*
X-476250Y1117775D01*
X-850900Y1111425D02*
X-863600Y1111425D01*
X-857250Y1105075D02*
X-857250Y1117775D01*
X-1041400Y1091613D02*
X-1054100Y1091613D01*
X-1047750Y1085263D02*
X-1047750Y1097963D01*
X-292100Y1066800D02*
X-279400Y1066800D01*
X-285750Y1060450D02*
X-285750Y1073150D01*
X-1231900Y997363D02*
X-1244600Y997363D01*
X-1238250Y991013D02*
X-1238250Y1003713D01*
X-77788Y876300D02*
X-65088Y876300D01*
X-71438Y869950D02*
X-71438Y882650D01*
X-279400Y876300D02*
X-292100Y876300D01*
X-285750Y869950D02*
X-285750Y882650D01*
X-469900Y920925D02*
X-482600Y920925D01*
X-476250Y914575D02*
X-476250Y927275D01*
X-660400Y945738D02*
X-673100Y945738D01*
X-666750Y939388D02*
X-666750Y952088D01*
X-850900Y920925D02*
X-863600Y920925D01*
X-857250Y914575D02*
X-857250Y927275D01*
X-1041400Y901113D02*
X-1054100Y901113D01*
X-1047750Y894763D02*
X-1047750Y907463D01*
X-1231900Y755333D02*
X-1244600Y755333D01*
X-1238250Y748983D02*
X-1238250Y761683D01*
X-77788Y685800D02*
X-65088Y685800D01*
X-71438Y679450D02*
X-71438Y692150D01*
X-279400Y685800D02*
X-292100Y685800D01*
X-285750Y679450D02*
X-285750Y692150D01*
X-469900Y730425D02*
X-482600Y730425D01*
X-476250Y724075D02*
X-476250Y736775D01*
X-660400Y755238D02*
X-673100Y755238D01*
X-666750Y748888D02*
X-666750Y761588D01*
X-850900Y730425D02*
X-863600Y730425D01*
X-857250Y724075D02*
X-857250Y736775D01*
X-1041400Y710613D02*
X-1054100Y710613D01*
X-1047750Y704263D02*
X-1047750Y716963D01*
X-77788Y495300D02*
X-65088Y495300D01*
X-71438Y488950D02*
X-71438Y501650D01*
X-279400Y495300D02*
X-292100Y495300D01*
X-285750Y488950D02*
X-285750Y501650D01*
X-469900Y539925D02*
X-482600Y539925D01*
X-476250Y533575D02*
X-476250Y546275D01*
X-660400Y564738D02*
X-673100Y564738D01*
X-666750Y558388D02*
X-666750Y571088D01*
X-850900Y539925D02*
X-863600Y539925D01*
X-857250Y533575D02*
X-857250Y546275D01*
X-1041400Y520113D02*
X-1054100Y520113D01*
X-1047750Y513763D02*
X-1047750Y526463D01*
X-1297521Y453252D02*
X-1308519Y446902D01*
X-1306195Y455576D02*
X-1299845Y444577D01*
X-1461859Y357494D02*
X-1472857Y351144D01*
X-1470533Y359818D02*
X-1464183Y348819D01*
X-101600Y304800D02*
X-88900Y304800D01*
X-95250Y298450D02*
X-95250Y311150D01*
X-279400Y304800D02*
X-292100Y304800D01*
X-285750Y298450D02*
X-285750Y311150D01*
X-469900Y349425D02*
X-482600Y349425D01*
X-476250Y343075D02*
X-476250Y355775D01*
X-660400Y374238D02*
X-673100Y374238D01*
X-666750Y367888D02*
X-666750Y380588D01*
X-927669Y317571D02*
X-939936Y314284D01*
X-932159Y309794D02*
X-935446Y322061D01*
X-1175601Y244337D02*
X-1186599Y237987D01*
X-1184275Y246661D02*
X-1177925Y235662D01*
X-1341971Y149087D02*
X-1352969Y142737D01*
X-1350645Y151411D02*
X-1344295Y140412D01*
D11*
X-91434Y1082795D02*
X-91434Y1085795D01*
X-88434Y1085795D01*
X-54434Y1085795D02*
X-51434Y1085795D01*
X-51434Y1082795D01*
X-51434Y1050795D02*
X-51434Y1047795D01*
X-54434Y1047795D01*
X-88434Y1047795D02*
X-91434Y1047795D01*
X-91434Y1050795D01*
D12*
X-78022Y1093112D02*
X-78022Y1100478D01*
X-78841Y1093112D02*
X-77204Y1093112D01*
X-77204Y1100478D02*
X-78841Y1100478D01*
X-72602Y1093112D02*
X-70965Y1093112D01*
X-72602Y1093112D02*
X-72680Y1093114D01*
X-72758Y1093119D01*
X-72835Y1093129D01*
X-72912Y1093142D01*
X-72988Y1093158D01*
X-73063Y1093178D01*
X-73137Y1093202D01*
X-73210Y1093229D01*
X-73282Y1093260D01*
X-73352Y1093294D01*
X-73421Y1093331D01*
X-73487Y1093372D01*
X-73552Y1093416D01*
X-73614Y1093462D01*
X-73674Y1093512D01*
X-73732Y1093564D01*
X-73787Y1093619D01*
X-73839Y1093677D01*
X-73889Y1093737D01*
X-73935Y1093799D01*
X-73979Y1093864D01*
X-74020Y1093931D01*
X-74057Y1093999D01*
X-74091Y1094069D01*
X-74122Y1094141D01*
X-74149Y1094214D01*
X-74173Y1094288D01*
X-74193Y1094363D01*
X-74209Y1094439D01*
X-74222Y1094516D01*
X-74232Y1094593D01*
X-74237Y1094671D01*
X-74239Y1094749D01*
X-74239Y1098841D01*
X-74237Y1098919D01*
X-74232Y1098997D01*
X-74222Y1099074D01*
X-74209Y1099151D01*
X-74193Y1099227D01*
X-74173Y1099302D01*
X-74149Y1099376D01*
X-74122Y1099449D01*
X-74091Y1099521D01*
X-74057Y1099591D01*
X-74020Y1099660D01*
X-73979Y1099726D01*
X-73935Y1099791D01*
X-73889Y1099853D01*
X-73839Y1099913D01*
X-73787Y1099971D01*
X-73732Y1100026D01*
X-73674Y1100078D01*
X-73614Y1100128D01*
X-73552Y1100174D01*
X-73487Y1100218D01*
X-73421Y1100259D01*
X-73352Y1100296D01*
X-73282Y1100330D01*
X-73210Y1100361D01*
X-73137Y1100388D01*
X-73063Y1100412D01*
X-72988Y1100432D01*
X-72912Y1100448D01*
X-72835Y1100461D01*
X-72758Y1100471D01*
X-72680Y1100476D01*
X-72602Y1100478D01*
X-70965Y1100478D01*
X-68120Y1098841D02*
X-66074Y1100478D01*
X-66074Y1093112D01*
X-68120Y1093112D02*
X-64028Y1093112D01*
D11*
X-305750Y1085800D02*
X-305750Y1082800D01*
X-305750Y1085800D02*
X-302750Y1085800D01*
X-268750Y1085800D02*
X-265750Y1085800D01*
X-265750Y1082800D01*
X-265750Y1050800D02*
X-265750Y1047800D01*
X-268750Y1047800D01*
X-302750Y1047800D02*
X-305750Y1047800D01*
X-305750Y1050800D01*
D12*
X-292338Y1093117D02*
X-292338Y1100483D01*
X-293156Y1093117D02*
X-291519Y1093117D01*
X-291519Y1100483D02*
X-293156Y1100483D01*
X-286918Y1093117D02*
X-285281Y1093117D01*
X-286918Y1093117D02*
X-286996Y1093119D01*
X-287074Y1093124D01*
X-287151Y1093134D01*
X-287228Y1093147D01*
X-287304Y1093163D01*
X-287379Y1093183D01*
X-287453Y1093207D01*
X-287526Y1093234D01*
X-287598Y1093265D01*
X-287668Y1093299D01*
X-287737Y1093336D01*
X-287803Y1093377D01*
X-287868Y1093421D01*
X-287930Y1093467D01*
X-287990Y1093517D01*
X-288048Y1093569D01*
X-288103Y1093624D01*
X-288155Y1093682D01*
X-288205Y1093742D01*
X-288251Y1093804D01*
X-288295Y1093869D01*
X-288336Y1093936D01*
X-288373Y1094004D01*
X-288407Y1094074D01*
X-288438Y1094146D01*
X-288465Y1094219D01*
X-288489Y1094293D01*
X-288509Y1094368D01*
X-288525Y1094444D01*
X-288538Y1094521D01*
X-288548Y1094598D01*
X-288553Y1094676D01*
X-288555Y1094754D01*
X-288555Y1098846D01*
X-288553Y1098924D01*
X-288548Y1099002D01*
X-288538Y1099079D01*
X-288525Y1099156D01*
X-288509Y1099232D01*
X-288489Y1099307D01*
X-288465Y1099381D01*
X-288438Y1099454D01*
X-288407Y1099526D01*
X-288373Y1099596D01*
X-288336Y1099665D01*
X-288295Y1099731D01*
X-288251Y1099796D01*
X-288205Y1099858D01*
X-288155Y1099918D01*
X-288103Y1099976D01*
X-288048Y1100031D01*
X-287990Y1100083D01*
X-287930Y1100133D01*
X-287868Y1100179D01*
X-287803Y1100223D01*
X-287737Y1100264D01*
X-287668Y1100301D01*
X-287598Y1100335D01*
X-287526Y1100366D01*
X-287453Y1100393D01*
X-287379Y1100417D01*
X-287304Y1100437D01*
X-287228Y1100453D01*
X-287151Y1100466D01*
X-287074Y1100476D01*
X-286996Y1100481D01*
X-286918Y1100483D01*
X-285281Y1100483D01*
X-280185Y1100484D02*
X-280100Y1100482D01*
X-280015Y1100476D01*
X-279931Y1100466D01*
X-279847Y1100453D01*
X-279763Y1100435D01*
X-279681Y1100414D01*
X-279600Y1100389D01*
X-279520Y1100360D01*
X-279441Y1100327D01*
X-279364Y1100291D01*
X-279289Y1100251D01*
X-279215Y1100208D01*
X-279144Y1100162D01*
X-279075Y1100112D01*
X-279008Y1100059D01*
X-278944Y1100003D01*
X-278883Y1099944D01*
X-278824Y1099883D01*
X-278768Y1099819D01*
X-278715Y1099752D01*
X-278665Y1099683D01*
X-278619Y1099612D01*
X-278576Y1099538D01*
X-278536Y1099463D01*
X-278500Y1099386D01*
X-278467Y1099307D01*
X-278438Y1099227D01*
X-278413Y1099146D01*
X-278392Y1099064D01*
X-278374Y1098980D01*
X-278361Y1098896D01*
X-278351Y1098812D01*
X-278345Y1098727D01*
X-278343Y1098642D01*
X-280185Y1100483D02*
X-280281Y1100481D01*
X-280377Y1100475D01*
X-280472Y1100465D01*
X-280567Y1100452D01*
X-280662Y1100434D01*
X-280755Y1100413D01*
X-280848Y1100388D01*
X-280939Y1100359D01*
X-281030Y1100327D01*
X-281119Y1100291D01*
X-281206Y1100251D01*
X-281292Y1100208D01*
X-281376Y1100162D01*
X-281458Y1100112D01*
X-281538Y1100058D01*
X-281615Y1100002D01*
X-281690Y1099942D01*
X-281763Y1099880D01*
X-281833Y1099814D01*
X-281901Y1099746D01*
X-281966Y1099675D01*
X-282027Y1099602D01*
X-282086Y1099526D01*
X-282142Y1099447D01*
X-282194Y1099367D01*
X-282243Y1099284D01*
X-282289Y1099200D01*
X-282331Y1099114D01*
X-282369Y1099026D01*
X-282404Y1098937D01*
X-282436Y1098846D01*
X-278958Y1097210D02*
X-278898Y1097269D01*
X-278841Y1097331D01*
X-278786Y1097395D01*
X-278735Y1097462D01*
X-278686Y1097531D01*
X-278640Y1097601D01*
X-278597Y1097674D01*
X-278557Y1097748D01*
X-278521Y1097824D01*
X-278488Y1097902D01*
X-278458Y1097981D01*
X-278431Y1098061D01*
X-278408Y1098142D01*
X-278389Y1098224D01*
X-278373Y1098306D01*
X-278360Y1098390D01*
X-278351Y1098474D01*
X-278346Y1098558D01*
X-278344Y1098642D01*
X-278958Y1097209D02*
X-282436Y1093117D01*
X-278344Y1093117D01*
D11*
X-496250Y1127425D02*
X-496250Y1130425D01*
X-493250Y1130425D01*
X-459250Y1130425D02*
X-456250Y1130425D01*
X-456250Y1127425D01*
X-456250Y1095425D02*
X-456250Y1092425D01*
X-459250Y1092425D01*
X-493250Y1092425D02*
X-496250Y1092425D01*
X-496250Y1095425D01*
D12*
X-482838Y1137742D02*
X-482838Y1145108D01*
X-483656Y1137742D02*
X-482019Y1137742D01*
X-482019Y1145108D02*
X-483656Y1145108D01*
X-477418Y1137742D02*
X-475781Y1137742D01*
X-477418Y1137742D02*
X-477496Y1137744D01*
X-477574Y1137749D01*
X-477651Y1137759D01*
X-477728Y1137772D01*
X-477804Y1137788D01*
X-477879Y1137808D01*
X-477953Y1137832D01*
X-478026Y1137859D01*
X-478098Y1137890D01*
X-478168Y1137924D01*
X-478237Y1137961D01*
X-478303Y1138002D01*
X-478368Y1138046D01*
X-478430Y1138092D01*
X-478490Y1138142D01*
X-478548Y1138194D01*
X-478603Y1138249D01*
X-478655Y1138307D01*
X-478705Y1138367D01*
X-478751Y1138429D01*
X-478795Y1138494D01*
X-478836Y1138561D01*
X-478873Y1138629D01*
X-478907Y1138699D01*
X-478938Y1138771D01*
X-478965Y1138844D01*
X-478989Y1138918D01*
X-479009Y1138993D01*
X-479025Y1139069D01*
X-479038Y1139146D01*
X-479048Y1139223D01*
X-479053Y1139301D01*
X-479055Y1139379D01*
X-479055Y1143471D01*
X-479053Y1143549D01*
X-479048Y1143627D01*
X-479038Y1143704D01*
X-479025Y1143781D01*
X-479009Y1143857D01*
X-478989Y1143932D01*
X-478965Y1144006D01*
X-478938Y1144079D01*
X-478907Y1144151D01*
X-478873Y1144221D01*
X-478836Y1144290D01*
X-478795Y1144356D01*
X-478751Y1144421D01*
X-478705Y1144483D01*
X-478655Y1144543D01*
X-478603Y1144601D01*
X-478548Y1144656D01*
X-478490Y1144708D01*
X-478430Y1144758D01*
X-478368Y1144804D01*
X-478303Y1144848D01*
X-478237Y1144889D01*
X-478168Y1144926D01*
X-478098Y1144960D01*
X-478026Y1144991D01*
X-477953Y1145018D01*
X-477879Y1145042D01*
X-477804Y1145062D01*
X-477728Y1145078D01*
X-477651Y1145091D01*
X-477574Y1145101D01*
X-477496Y1145106D01*
X-477418Y1145108D01*
X-475781Y1145108D01*
X-472936Y1137742D02*
X-470890Y1137742D01*
X-470801Y1137744D01*
X-470712Y1137750D01*
X-470623Y1137760D01*
X-470535Y1137773D01*
X-470447Y1137790D01*
X-470360Y1137812D01*
X-470275Y1137837D01*
X-470190Y1137865D01*
X-470107Y1137898D01*
X-470025Y1137934D01*
X-469945Y1137973D01*
X-469867Y1138016D01*
X-469791Y1138062D01*
X-469716Y1138112D01*
X-469644Y1138165D01*
X-469575Y1138221D01*
X-469508Y1138280D01*
X-469443Y1138341D01*
X-469382Y1138406D01*
X-469323Y1138473D01*
X-469267Y1138542D01*
X-469214Y1138614D01*
X-469164Y1138689D01*
X-469118Y1138765D01*
X-469075Y1138843D01*
X-469036Y1138923D01*
X-469000Y1139005D01*
X-468967Y1139088D01*
X-468939Y1139173D01*
X-468914Y1139258D01*
X-468892Y1139345D01*
X-468875Y1139433D01*
X-468862Y1139521D01*
X-468852Y1139610D01*
X-468846Y1139699D01*
X-468844Y1139788D01*
X-468846Y1139877D01*
X-468852Y1139966D01*
X-468862Y1140055D01*
X-468875Y1140143D01*
X-468892Y1140231D01*
X-468914Y1140318D01*
X-468939Y1140403D01*
X-468967Y1140488D01*
X-469000Y1140571D01*
X-469036Y1140653D01*
X-469075Y1140733D01*
X-469118Y1140811D01*
X-469164Y1140887D01*
X-469214Y1140962D01*
X-469267Y1141034D01*
X-469323Y1141103D01*
X-469382Y1141170D01*
X-469443Y1141235D01*
X-469508Y1141296D01*
X-469575Y1141355D01*
X-469644Y1141411D01*
X-469716Y1141464D01*
X-469791Y1141514D01*
X-469867Y1141560D01*
X-469945Y1141603D01*
X-470025Y1141642D01*
X-470107Y1141678D01*
X-470190Y1141711D01*
X-470275Y1141739D01*
X-470360Y1141764D01*
X-470447Y1141786D01*
X-470535Y1141803D01*
X-470623Y1141816D01*
X-470712Y1141826D01*
X-470801Y1141832D01*
X-470890Y1141834D01*
X-470481Y1145108D02*
X-472936Y1145108D01*
X-470481Y1145108D02*
X-470402Y1145106D01*
X-470323Y1145100D01*
X-470244Y1145091D01*
X-470166Y1145078D01*
X-470089Y1145060D01*
X-470013Y1145040D01*
X-469938Y1145015D01*
X-469864Y1144987D01*
X-469791Y1144956D01*
X-469720Y1144920D01*
X-469651Y1144882D01*
X-469584Y1144840D01*
X-469519Y1144795D01*
X-469456Y1144747D01*
X-469395Y1144696D01*
X-469338Y1144642D01*
X-469282Y1144586D01*
X-469230Y1144527D01*
X-469180Y1144465D01*
X-469134Y1144401D01*
X-469090Y1144335D01*
X-469050Y1144267D01*
X-469014Y1144197D01*
X-468980Y1144125D01*
X-468950Y1144051D01*
X-468924Y1143977D01*
X-468901Y1143901D01*
X-468883Y1143824D01*
X-468867Y1143747D01*
X-468856Y1143668D01*
X-468848Y1143590D01*
X-468844Y1143511D01*
X-468844Y1143431D01*
X-468848Y1143352D01*
X-468856Y1143274D01*
X-468867Y1143195D01*
X-468883Y1143118D01*
X-468901Y1143041D01*
X-468924Y1142965D01*
X-468950Y1142891D01*
X-468980Y1142817D01*
X-469014Y1142745D01*
X-469050Y1142675D01*
X-469090Y1142607D01*
X-469134Y1142541D01*
X-469180Y1142477D01*
X-469230Y1142415D01*
X-469282Y1142356D01*
X-469338Y1142300D01*
X-469395Y1142246D01*
X-469456Y1142195D01*
X-469519Y1142147D01*
X-469584Y1142102D01*
X-469651Y1142060D01*
X-469720Y1142022D01*
X-469791Y1141986D01*
X-469864Y1141955D01*
X-469938Y1141927D01*
X-470013Y1141902D01*
X-470089Y1141882D01*
X-470166Y1141864D01*
X-470244Y1141851D01*
X-470323Y1141842D01*
X-470402Y1141836D01*
X-470481Y1141834D01*
X-472117Y1141834D01*
D11*
X-686750Y1152238D02*
X-686750Y1155238D01*
X-683750Y1155238D01*
X-649750Y1155238D02*
X-646750Y1155238D01*
X-646750Y1152238D01*
X-646750Y1120238D02*
X-646750Y1117238D01*
X-649750Y1117238D01*
X-683750Y1117238D02*
X-686750Y1117238D01*
X-686750Y1120238D01*
D12*
X-673338Y1162555D02*
X-673338Y1169921D01*
X-674156Y1162555D02*
X-672519Y1162555D01*
X-672519Y1169921D02*
X-674156Y1169921D01*
X-667918Y1162555D02*
X-666281Y1162555D01*
X-667918Y1162554D02*
X-667996Y1162556D01*
X-668074Y1162561D01*
X-668151Y1162571D01*
X-668228Y1162584D01*
X-668304Y1162600D01*
X-668379Y1162620D01*
X-668453Y1162644D01*
X-668526Y1162671D01*
X-668598Y1162702D01*
X-668668Y1162736D01*
X-668737Y1162773D01*
X-668803Y1162814D01*
X-668868Y1162858D01*
X-668930Y1162904D01*
X-668990Y1162954D01*
X-669048Y1163006D01*
X-669103Y1163061D01*
X-669155Y1163119D01*
X-669205Y1163179D01*
X-669251Y1163241D01*
X-669295Y1163306D01*
X-669336Y1163373D01*
X-669373Y1163441D01*
X-669407Y1163511D01*
X-669438Y1163583D01*
X-669465Y1163656D01*
X-669489Y1163730D01*
X-669509Y1163805D01*
X-669525Y1163881D01*
X-669538Y1163958D01*
X-669548Y1164035D01*
X-669553Y1164113D01*
X-669555Y1164191D01*
X-669555Y1168284D01*
X-669553Y1168362D01*
X-669548Y1168440D01*
X-669538Y1168517D01*
X-669525Y1168594D01*
X-669509Y1168670D01*
X-669489Y1168745D01*
X-669465Y1168819D01*
X-669438Y1168892D01*
X-669407Y1168964D01*
X-669373Y1169034D01*
X-669336Y1169103D01*
X-669295Y1169169D01*
X-669251Y1169234D01*
X-669205Y1169296D01*
X-669155Y1169356D01*
X-669103Y1169414D01*
X-669048Y1169469D01*
X-668990Y1169521D01*
X-668930Y1169571D01*
X-668868Y1169617D01*
X-668803Y1169661D01*
X-668737Y1169702D01*
X-668668Y1169739D01*
X-668598Y1169773D01*
X-668526Y1169804D01*
X-668453Y1169831D01*
X-668379Y1169855D01*
X-668304Y1169875D01*
X-668228Y1169891D01*
X-668151Y1169904D01*
X-668074Y1169914D01*
X-667996Y1169919D01*
X-667918Y1169921D01*
X-666281Y1169921D01*
X-661799Y1169921D02*
X-663436Y1164191D01*
X-659344Y1164191D01*
X-660571Y1165828D02*
X-660571Y1162555D01*
D11*
X-877250Y1130425D02*
X-877250Y1127425D01*
X-877250Y1130425D02*
X-874250Y1130425D01*
X-840250Y1130425D02*
X-837250Y1130425D01*
X-837250Y1127425D01*
X-837250Y1095425D02*
X-837250Y1092425D01*
X-840250Y1092425D01*
X-874250Y1092425D02*
X-877250Y1092425D01*
X-877250Y1095425D01*
D12*
X-863838Y1137742D02*
X-863838Y1145108D01*
X-864656Y1137742D02*
X-863019Y1137742D01*
X-863019Y1145108D02*
X-864656Y1145108D01*
X-858418Y1137742D02*
X-856781Y1137742D01*
X-858418Y1137742D02*
X-858496Y1137744D01*
X-858574Y1137749D01*
X-858651Y1137759D01*
X-858728Y1137772D01*
X-858804Y1137788D01*
X-858879Y1137808D01*
X-858953Y1137832D01*
X-859026Y1137859D01*
X-859098Y1137890D01*
X-859168Y1137924D01*
X-859237Y1137961D01*
X-859303Y1138002D01*
X-859368Y1138046D01*
X-859430Y1138092D01*
X-859490Y1138142D01*
X-859548Y1138194D01*
X-859603Y1138249D01*
X-859655Y1138307D01*
X-859705Y1138367D01*
X-859751Y1138429D01*
X-859795Y1138494D01*
X-859836Y1138561D01*
X-859873Y1138629D01*
X-859907Y1138699D01*
X-859938Y1138771D01*
X-859965Y1138844D01*
X-859989Y1138918D01*
X-860009Y1138993D01*
X-860025Y1139069D01*
X-860038Y1139146D01*
X-860048Y1139223D01*
X-860053Y1139301D01*
X-860055Y1139379D01*
X-860055Y1143471D01*
X-860053Y1143549D01*
X-860048Y1143627D01*
X-860038Y1143704D01*
X-860025Y1143781D01*
X-860009Y1143857D01*
X-859989Y1143932D01*
X-859965Y1144006D01*
X-859938Y1144079D01*
X-859907Y1144151D01*
X-859873Y1144221D01*
X-859836Y1144290D01*
X-859795Y1144356D01*
X-859751Y1144421D01*
X-859705Y1144483D01*
X-859655Y1144543D01*
X-859603Y1144601D01*
X-859548Y1144656D01*
X-859490Y1144708D01*
X-859430Y1144758D01*
X-859368Y1144804D01*
X-859303Y1144848D01*
X-859237Y1144889D01*
X-859168Y1144926D01*
X-859098Y1144960D01*
X-859026Y1144991D01*
X-858953Y1145018D01*
X-858879Y1145042D01*
X-858804Y1145062D01*
X-858728Y1145078D01*
X-858651Y1145091D01*
X-858574Y1145101D01*
X-858496Y1145106D01*
X-858418Y1145108D01*
X-856781Y1145108D01*
X-853936Y1137742D02*
X-851481Y1137742D01*
X-851401Y1137744D01*
X-851321Y1137750D01*
X-851241Y1137760D01*
X-851162Y1137773D01*
X-851083Y1137791D01*
X-851006Y1137812D01*
X-850930Y1137838D01*
X-850855Y1137867D01*
X-850781Y1137899D01*
X-850709Y1137935D01*
X-850639Y1137975D01*
X-850572Y1138018D01*
X-850506Y1138064D01*
X-850443Y1138114D01*
X-850382Y1138166D01*
X-850323Y1138221D01*
X-850268Y1138280D01*
X-850216Y1138340D01*
X-850166Y1138404D01*
X-850120Y1138469D01*
X-850077Y1138537D01*
X-850037Y1138607D01*
X-850001Y1138679D01*
X-849969Y1138753D01*
X-849940Y1138827D01*
X-849915Y1138904D01*
X-849893Y1138981D01*
X-849875Y1139060D01*
X-849862Y1139139D01*
X-849852Y1139218D01*
X-849846Y1139299D01*
X-849844Y1139379D01*
X-849844Y1140197D01*
X-849846Y1140275D01*
X-849851Y1140353D01*
X-849861Y1140430D01*
X-849874Y1140507D01*
X-849890Y1140583D01*
X-849910Y1140658D01*
X-849934Y1140732D01*
X-849961Y1140805D01*
X-849992Y1140877D01*
X-850026Y1140947D01*
X-850063Y1141016D01*
X-850104Y1141082D01*
X-850148Y1141147D01*
X-850194Y1141209D01*
X-850244Y1141269D01*
X-850296Y1141327D01*
X-850351Y1141382D01*
X-850409Y1141434D01*
X-850469Y1141484D01*
X-850531Y1141530D01*
X-850596Y1141574D01*
X-850663Y1141615D01*
X-850731Y1141652D01*
X-850801Y1141686D01*
X-850873Y1141717D01*
X-850946Y1141744D01*
X-851020Y1141768D01*
X-851095Y1141788D01*
X-851171Y1141804D01*
X-851248Y1141817D01*
X-851325Y1141827D01*
X-851403Y1141832D01*
X-851481Y1141834D01*
X-853936Y1141834D01*
X-853936Y1145108D01*
X-849844Y1145108D01*
D11*
X-1067750Y1110613D02*
X-1067750Y1107613D01*
X-1067750Y1110613D02*
X-1064750Y1110613D01*
X-1030750Y1110613D02*
X-1027750Y1110613D01*
X-1027750Y1107613D01*
X-1027750Y1075613D02*
X-1027750Y1072613D01*
X-1030750Y1072613D01*
X-1064750Y1072613D02*
X-1067750Y1072613D01*
X-1067750Y1075613D01*
D12*
X-1054338Y1117930D02*
X-1054338Y1125296D01*
X-1055156Y1117930D02*
X-1053519Y1117930D01*
X-1053519Y1125296D02*
X-1055156Y1125296D01*
X-1048918Y1117930D02*
X-1047281Y1117930D01*
X-1048918Y1117929D02*
X-1048996Y1117931D01*
X-1049074Y1117936D01*
X-1049151Y1117946D01*
X-1049228Y1117959D01*
X-1049304Y1117975D01*
X-1049379Y1117995D01*
X-1049453Y1118019D01*
X-1049526Y1118046D01*
X-1049598Y1118077D01*
X-1049668Y1118111D01*
X-1049737Y1118148D01*
X-1049803Y1118189D01*
X-1049868Y1118233D01*
X-1049930Y1118279D01*
X-1049990Y1118329D01*
X-1050048Y1118381D01*
X-1050103Y1118436D01*
X-1050155Y1118494D01*
X-1050205Y1118554D01*
X-1050251Y1118616D01*
X-1050295Y1118681D01*
X-1050336Y1118748D01*
X-1050373Y1118816D01*
X-1050407Y1118886D01*
X-1050438Y1118958D01*
X-1050465Y1119031D01*
X-1050489Y1119105D01*
X-1050509Y1119180D01*
X-1050525Y1119256D01*
X-1050538Y1119333D01*
X-1050548Y1119410D01*
X-1050553Y1119488D01*
X-1050555Y1119566D01*
X-1050555Y1123659D01*
X-1050553Y1123737D01*
X-1050548Y1123815D01*
X-1050538Y1123892D01*
X-1050525Y1123969D01*
X-1050509Y1124045D01*
X-1050489Y1124120D01*
X-1050465Y1124194D01*
X-1050438Y1124267D01*
X-1050407Y1124339D01*
X-1050373Y1124409D01*
X-1050336Y1124478D01*
X-1050295Y1124544D01*
X-1050251Y1124609D01*
X-1050205Y1124671D01*
X-1050155Y1124731D01*
X-1050103Y1124789D01*
X-1050048Y1124844D01*
X-1049990Y1124896D01*
X-1049930Y1124946D01*
X-1049868Y1124992D01*
X-1049803Y1125036D01*
X-1049737Y1125077D01*
X-1049668Y1125114D01*
X-1049598Y1125148D01*
X-1049526Y1125179D01*
X-1049453Y1125206D01*
X-1049379Y1125230D01*
X-1049304Y1125250D01*
X-1049228Y1125266D01*
X-1049151Y1125279D01*
X-1049074Y1125289D01*
X-1048996Y1125294D01*
X-1048918Y1125296D01*
X-1047281Y1125296D01*
X-1044436Y1122022D02*
X-1041981Y1122022D01*
X-1041901Y1122020D01*
X-1041821Y1122014D01*
X-1041741Y1122004D01*
X-1041662Y1121991D01*
X-1041583Y1121973D01*
X-1041506Y1121952D01*
X-1041430Y1121926D01*
X-1041355Y1121897D01*
X-1041281Y1121865D01*
X-1041209Y1121829D01*
X-1041139Y1121789D01*
X-1041072Y1121746D01*
X-1041006Y1121700D01*
X-1040943Y1121650D01*
X-1040882Y1121598D01*
X-1040823Y1121543D01*
X-1040768Y1121484D01*
X-1040716Y1121424D01*
X-1040666Y1121360D01*
X-1040620Y1121294D01*
X-1040577Y1121227D01*
X-1040537Y1121157D01*
X-1040501Y1121085D01*
X-1040469Y1121011D01*
X-1040440Y1120937D01*
X-1040414Y1120860D01*
X-1040393Y1120783D01*
X-1040375Y1120704D01*
X-1040362Y1120625D01*
X-1040352Y1120545D01*
X-1040346Y1120465D01*
X-1040344Y1120385D01*
X-1040344Y1119976D01*
X-1040346Y1119887D01*
X-1040352Y1119798D01*
X-1040362Y1119709D01*
X-1040375Y1119621D01*
X-1040392Y1119533D01*
X-1040414Y1119446D01*
X-1040439Y1119361D01*
X-1040467Y1119276D01*
X-1040500Y1119193D01*
X-1040536Y1119111D01*
X-1040575Y1119031D01*
X-1040618Y1118953D01*
X-1040664Y1118877D01*
X-1040714Y1118802D01*
X-1040767Y1118730D01*
X-1040823Y1118661D01*
X-1040882Y1118594D01*
X-1040943Y1118529D01*
X-1041008Y1118468D01*
X-1041075Y1118409D01*
X-1041144Y1118353D01*
X-1041216Y1118300D01*
X-1041291Y1118250D01*
X-1041367Y1118204D01*
X-1041445Y1118161D01*
X-1041525Y1118122D01*
X-1041607Y1118086D01*
X-1041690Y1118053D01*
X-1041775Y1118025D01*
X-1041860Y1118000D01*
X-1041947Y1117978D01*
X-1042035Y1117961D01*
X-1042123Y1117948D01*
X-1042212Y1117938D01*
X-1042301Y1117932D01*
X-1042390Y1117930D01*
X-1042479Y1117932D01*
X-1042568Y1117938D01*
X-1042657Y1117948D01*
X-1042745Y1117961D01*
X-1042833Y1117978D01*
X-1042920Y1118000D01*
X-1043005Y1118025D01*
X-1043090Y1118053D01*
X-1043173Y1118086D01*
X-1043255Y1118122D01*
X-1043335Y1118161D01*
X-1043413Y1118204D01*
X-1043489Y1118250D01*
X-1043564Y1118300D01*
X-1043636Y1118353D01*
X-1043705Y1118409D01*
X-1043772Y1118468D01*
X-1043837Y1118529D01*
X-1043898Y1118594D01*
X-1043957Y1118661D01*
X-1044013Y1118730D01*
X-1044066Y1118802D01*
X-1044116Y1118877D01*
X-1044162Y1118953D01*
X-1044205Y1119031D01*
X-1044244Y1119111D01*
X-1044280Y1119193D01*
X-1044313Y1119276D01*
X-1044341Y1119361D01*
X-1044366Y1119446D01*
X-1044388Y1119533D01*
X-1044405Y1119621D01*
X-1044418Y1119709D01*
X-1044428Y1119798D01*
X-1044434Y1119887D01*
X-1044436Y1119976D01*
X-1044436Y1122022D01*
X-1044434Y1122134D01*
X-1044428Y1122245D01*
X-1044419Y1122357D01*
X-1044406Y1122468D01*
X-1044388Y1122578D01*
X-1044368Y1122688D01*
X-1044343Y1122797D01*
X-1044315Y1122905D01*
X-1044283Y1123012D01*
X-1044247Y1123118D01*
X-1044208Y1123223D01*
X-1044165Y1123326D01*
X-1044119Y1123428D01*
X-1044069Y1123528D01*
X-1044016Y1123627D01*
X-1043959Y1123723D01*
X-1043900Y1123818D01*
X-1043837Y1123910D01*
X-1043771Y1124000D01*
X-1043702Y1124088D01*
X-1043630Y1124174D01*
X-1043555Y1124257D01*
X-1043477Y1124337D01*
X-1043397Y1124415D01*
X-1043314Y1124490D01*
X-1043228Y1124562D01*
X-1043140Y1124631D01*
X-1043050Y1124697D01*
X-1042958Y1124760D01*
X-1042863Y1124819D01*
X-1042767Y1124876D01*
X-1042668Y1124929D01*
X-1042568Y1124979D01*
X-1042466Y1125025D01*
X-1042363Y1125068D01*
X-1042258Y1125107D01*
X-1042152Y1125143D01*
X-1042045Y1125175D01*
X-1041937Y1125203D01*
X-1041828Y1125228D01*
X-1041718Y1125248D01*
X-1041608Y1125266D01*
X-1041497Y1125279D01*
X-1041385Y1125288D01*
X-1041274Y1125294D01*
X-1041162Y1125296D01*
D11*
X-1258250Y1016363D02*
X-1258250Y1013363D01*
X-1258250Y1016363D02*
X-1255250Y1016363D01*
X-1221250Y1016363D02*
X-1218250Y1016363D01*
X-1218250Y1013363D01*
X-1218250Y981363D02*
X-1218250Y978363D01*
X-1221250Y978363D01*
X-1255250Y978363D02*
X-1258250Y978363D01*
X-1258250Y981363D01*
D12*
X-1244838Y1023680D02*
X-1244838Y1031046D01*
X-1245656Y1023680D02*
X-1244019Y1023680D01*
X-1244019Y1031046D02*
X-1245656Y1031046D01*
X-1239418Y1023680D02*
X-1237781Y1023680D01*
X-1239418Y1023679D02*
X-1239496Y1023681D01*
X-1239574Y1023686D01*
X-1239651Y1023696D01*
X-1239728Y1023709D01*
X-1239804Y1023725D01*
X-1239879Y1023745D01*
X-1239953Y1023769D01*
X-1240026Y1023796D01*
X-1240098Y1023827D01*
X-1240168Y1023861D01*
X-1240237Y1023898D01*
X-1240303Y1023939D01*
X-1240368Y1023983D01*
X-1240430Y1024029D01*
X-1240490Y1024079D01*
X-1240548Y1024131D01*
X-1240603Y1024186D01*
X-1240655Y1024244D01*
X-1240705Y1024304D01*
X-1240751Y1024366D01*
X-1240795Y1024431D01*
X-1240836Y1024498D01*
X-1240873Y1024566D01*
X-1240907Y1024636D01*
X-1240938Y1024708D01*
X-1240965Y1024781D01*
X-1240989Y1024855D01*
X-1241009Y1024930D01*
X-1241025Y1025006D01*
X-1241038Y1025083D01*
X-1241048Y1025160D01*
X-1241053Y1025238D01*
X-1241055Y1025316D01*
X-1241055Y1029409D01*
X-1241053Y1029487D01*
X-1241048Y1029565D01*
X-1241038Y1029642D01*
X-1241025Y1029719D01*
X-1241009Y1029795D01*
X-1240989Y1029870D01*
X-1240965Y1029944D01*
X-1240938Y1030017D01*
X-1240907Y1030089D01*
X-1240873Y1030159D01*
X-1240836Y1030228D01*
X-1240795Y1030294D01*
X-1240751Y1030359D01*
X-1240705Y1030421D01*
X-1240655Y1030481D01*
X-1240603Y1030539D01*
X-1240548Y1030594D01*
X-1240490Y1030646D01*
X-1240430Y1030696D01*
X-1240368Y1030742D01*
X-1240303Y1030786D01*
X-1240237Y1030827D01*
X-1240168Y1030864D01*
X-1240098Y1030898D01*
X-1240026Y1030929D01*
X-1239953Y1030956D01*
X-1239879Y1030980D01*
X-1239804Y1031000D01*
X-1239728Y1031016D01*
X-1239651Y1031029D01*
X-1239574Y1031039D01*
X-1239496Y1031044D01*
X-1239418Y1031046D01*
X-1237781Y1031046D01*
X-1234936Y1031046D02*
X-1234936Y1030227D01*
X-1234936Y1031046D02*
X-1230844Y1031046D01*
X-1232890Y1023680D01*
D11*
X-1218250Y739333D02*
X-1218250Y736333D01*
X-1221250Y736333D01*
X-1255250Y736333D02*
X-1258250Y736333D01*
X-1258250Y739333D01*
X-1258250Y771333D02*
X-1258250Y774333D01*
X-1255250Y774333D01*
X-1221250Y774333D02*
X-1218250Y774333D01*
X-1218250Y771333D01*
D12*
X-1244838Y781650D02*
X-1244838Y789016D01*
X-1245656Y781650D02*
X-1244019Y781650D01*
X-1244019Y789016D02*
X-1245656Y789016D01*
X-1239418Y781650D02*
X-1237781Y781650D01*
X-1239418Y781649D02*
X-1239496Y781651D01*
X-1239574Y781656D01*
X-1239651Y781666D01*
X-1239728Y781679D01*
X-1239804Y781695D01*
X-1239879Y781715D01*
X-1239953Y781739D01*
X-1240026Y781766D01*
X-1240098Y781797D01*
X-1240168Y781831D01*
X-1240237Y781868D01*
X-1240303Y781909D01*
X-1240368Y781953D01*
X-1240430Y781999D01*
X-1240490Y782049D01*
X-1240548Y782101D01*
X-1240603Y782156D01*
X-1240655Y782214D01*
X-1240705Y782274D01*
X-1240751Y782336D01*
X-1240795Y782401D01*
X-1240836Y782468D01*
X-1240873Y782536D01*
X-1240907Y782606D01*
X-1240938Y782678D01*
X-1240965Y782751D01*
X-1240989Y782825D01*
X-1241009Y782900D01*
X-1241025Y782976D01*
X-1241038Y783053D01*
X-1241048Y783130D01*
X-1241053Y783208D01*
X-1241055Y783286D01*
X-1241055Y787379D01*
X-1241053Y787457D01*
X-1241048Y787535D01*
X-1241038Y787612D01*
X-1241025Y787689D01*
X-1241009Y787765D01*
X-1240989Y787840D01*
X-1240965Y787914D01*
X-1240938Y787987D01*
X-1240907Y788059D01*
X-1240873Y788129D01*
X-1240836Y788198D01*
X-1240795Y788264D01*
X-1240751Y788329D01*
X-1240705Y788391D01*
X-1240655Y788451D01*
X-1240603Y788509D01*
X-1240548Y788564D01*
X-1240490Y788616D01*
X-1240430Y788666D01*
X-1240368Y788712D01*
X-1240303Y788756D01*
X-1240237Y788797D01*
X-1240168Y788834D01*
X-1240098Y788868D01*
X-1240026Y788899D01*
X-1239953Y788926D01*
X-1239879Y788950D01*
X-1239804Y788970D01*
X-1239728Y788986D01*
X-1239651Y788999D01*
X-1239574Y789009D01*
X-1239496Y789014D01*
X-1239418Y789016D01*
X-1237781Y789016D01*
X-1234936Y783696D02*
X-1234934Y783785D01*
X-1234928Y783874D01*
X-1234918Y783963D01*
X-1234905Y784051D01*
X-1234888Y784139D01*
X-1234866Y784226D01*
X-1234841Y784311D01*
X-1234813Y784396D01*
X-1234780Y784479D01*
X-1234744Y784561D01*
X-1234705Y784641D01*
X-1234662Y784719D01*
X-1234616Y784795D01*
X-1234566Y784870D01*
X-1234513Y784942D01*
X-1234457Y785011D01*
X-1234398Y785078D01*
X-1234337Y785143D01*
X-1234272Y785204D01*
X-1234205Y785263D01*
X-1234136Y785319D01*
X-1234064Y785372D01*
X-1233989Y785422D01*
X-1233913Y785468D01*
X-1233835Y785511D01*
X-1233755Y785550D01*
X-1233673Y785586D01*
X-1233590Y785619D01*
X-1233505Y785647D01*
X-1233420Y785672D01*
X-1233333Y785694D01*
X-1233245Y785711D01*
X-1233157Y785724D01*
X-1233068Y785734D01*
X-1232979Y785740D01*
X-1232890Y785742D01*
X-1232801Y785740D01*
X-1232712Y785734D01*
X-1232623Y785724D01*
X-1232535Y785711D01*
X-1232447Y785694D01*
X-1232360Y785672D01*
X-1232275Y785647D01*
X-1232190Y785619D01*
X-1232107Y785586D01*
X-1232025Y785550D01*
X-1231945Y785511D01*
X-1231867Y785468D01*
X-1231791Y785422D01*
X-1231716Y785372D01*
X-1231644Y785319D01*
X-1231575Y785263D01*
X-1231508Y785204D01*
X-1231443Y785143D01*
X-1231382Y785078D01*
X-1231323Y785011D01*
X-1231267Y784942D01*
X-1231214Y784870D01*
X-1231164Y784795D01*
X-1231118Y784719D01*
X-1231075Y784641D01*
X-1231036Y784561D01*
X-1231000Y784479D01*
X-1230967Y784396D01*
X-1230939Y784311D01*
X-1230914Y784226D01*
X-1230892Y784139D01*
X-1230875Y784051D01*
X-1230862Y783963D01*
X-1230852Y783874D01*
X-1230846Y783785D01*
X-1230844Y783696D01*
X-1230846Y783607D01*
X-1230852Y783518D01*
X-1230862Y783429D01*
X-1230875Y783341D01*
X-1230892Y783253D01*
X-1230914Y783166D01*
X-1230939Y783081D01*
X-1230967Y782996D01*
X-1231000Y782913D01*
X-1231036Y782831D01*
X-1231075Y782751D01*
X-1231118Y782673D01*
X-1231164Y782597D01*
X-1231214Y782522D01*
X-1231267Y782450D01*
X-1231323Y782381D01*
X-1231382Y782314D01*
X-1231443Y782249D01*
X-1231508Y782188D01*
X-1231575Y782129D01*
X-1231644Y782073D01*
X-1231716Y782020D01*
X-1231791Y781970D01*
X-1231867Y781924D01*
X-1231945Y781881D01*
X-1232025Y781842D01*
X-1232107Y781806D01*
X-1232190Y781773D01*
X-1232275Y781745D01*
X-1232360Y781720D01*
X-1232447Y781698D01*
X-1232535Y781681D01*
X-1232623Y781668D01*
X-1232712Y781658D01*
X-1232801Y781652D01*
X-1232890Y781650D01*
X-1232979Y781652D01*
X-1233068Y781658D01*
X-1233157Y781668D01*
X-1233245Y781681D01*
X-1233333Y781698D01*
X-1233420Y781720D01*
X-1233505Y781745D01*
X-1233590Y781773D01*
X-1233673Y781806D01*
X-1233755Y781842D01*
X-1233835Y781881D01*
X-1233913Y781924D01*
X-1233989Y781970D01*
X-1234064Y782020D01*
X-1234136Y782073D01*
X-1234205Y782129D01*
X-1234272Y782188D01*
X-1234337Y782249D01*
X-1234398Y782314D01*
X-1234457Y782381D01*
X-1234513Y782450D01*
X-1234566Y782522D01*
X-1234616Y782597D01*
X-1234662Y782673D01*
X-1234705Y782751D01*
X-1234744Y782831D01*
X-1234780Y782913D01*
X-1234813Y782996D01*
X-1234841Y783081D01*
X-1234866Y783166D01*
X-1234888Y783253D01*
X-1234905Y783341D01*
X-1234918Y783429D01*
X-1234928Y783518D01*
X-1234934Y783607D01*
X-1234936Y783696D01*
X-1234527Y787379D02*
X-1234525Y787458D01*
X-1234519Y787537D01*
X-1234510Y787616D01*
X-1234497Y787694D01*
X-1234479Y787771D01*
X-1234459Y787847D01*
X-1234434Y787922D01*
X-1234406Y787996D01*
X-1234375Y788069D01*
X-1234339Y788140D01*
X-1234301Y788209D01*
X-1234259Y788276D01*
X-1234214Y788341D01*
X-1234166Y788404D01*
X-1234115Y788465D01*
X-1234061Y788522D01*
X-1234005Y788578D01*
X-1233946Y788630D01*
X-1233884Y788680D01*
X-1233820Y788726D01*
X-1233754Y788770D01*
X-1233686Y788810D01*
X-1233616Y788846D01*
X-1233544Y788880D01*
X-1233470Y788910D01*
X-1233396Y788936D01*
X-1233320Y788959D01*
X-1233243Y788977D01*
X-1233166Y788993D01*
X-1233087Y789004D01*
X-1233009Y789012D01*
X-1232930Y789016D01*
X-1232850Y789016D01*
X-1232771Y789012D01*
X-1232693Y789004D01*
X-1232614Y788993D01*
X-1232537Y788977D01*
X-1232460Y788959D01*
X-1232384Y788936D01*
X-1232310Y788910D01*
X-1232236Y788880D01*
X-1232164Y788846D01*
X-1232094Y788810D01*
X-1232026Y788770D01*
X-1231960Y788726D01*
X-1231896Y788680D01*
X-1231834Y788630D01*
X-1231775Y788578D01*
X-1231719Y788522D01*
X-1231665Y788465D01*
X-1231614Y788404D01*
X-1231566Y788341D01*
X-1231521Y788276D01*
X-1231479Y788209D01*
X-1231441Y788140D01*
X-1231405Y788069D01*
X-1231374Y787996D01*
X-1231346Y787922D01*
X-1231321Y787847D01*
X-1231301Y787771D01*
X-1231283Y787694D01*
X-1231270Y787616D01*
X-1231261Y787537D01*
X-1231255Y787458D01*
X-1231253Y787379D01*
X-1231255Y787300D01*
X-1231261Y787221D01*
X-1231270Y787142D01*
X-1231283Y787064D01*
X-1231301Y786987D01*
X-1231321Y786911D01*
X-1231346Y786836D01*
X-1231374Y786762D01*
X-1231405Y786689D01*
X-1231441Y786618D01*
X-1231479Y786549D01*
X-1231521Y786482D01*
X-1231566Y786417D01*
X-1231614Y786354D01*
X-1231665Y786293D01*
X-1231719Y786236D01*
X-1231775Y786180D01*
X-1231834Y786128D01*
X-1231896Y786078D01*
X-1231960Y786032D01*
X-1232026Y785988D01*
X-1232094Y785948D01*
X-1232164Y785912D01*
X-1232236Y785878D01*
X-1232310Y785848D01*
X-1232384Y785822D01*
X-1232460Y785799D01*
X-1232537Y785781D01*
X-1232614Y785765D01*
X-1232693Y785754D01*
X-1232771Y785746D01*
X-1232850Y785742D01*
X-1232930Y785742D01*
X-1233009Y785746D01*
X-1233087Y785754D01*
X-1233166Y785765D01*
X-1233243Y785781D01*
X-1233320Y785799D01*
X-1233396Y785822D01*
X-1233470Y785848D01*
X-1233544Y785878D01*
X-1233616Y785912D01*
X-1233686Y785948D01*
X-1233754Y785988D01*
X-1233820Y786032D01*
X-1233884Y786078D01*
X-1233946Y786128D01*
X-1234005Y786180D01*
X-1234061Y786236D01*
X-1234115Y786293D01*
X-1234166Y786354D01*
X-1234214Y786417D01*
X-1234259Y786482D01*
X-1234301Y786549D01*
X-1234339Y786618D01*
X-1234375Y786689D01*
X-1234406Y786762D01*
X-1234434Y786836D01*
X-1234459Y786911D01*
X-1234479Y786987D01*
X-1234497Y787064D01*
X-1234510Y787142D01*
X-1234519Y787221D01*
X-1234525Y787300D01*
X-1234527Y787379D01*
D11*
X-1027750Y882113D02*
X-1027750Y885113D01*
X-1027750Y882113D02*
X-1030750Y882113D01*
X-1064750Y882113D02*
X-1067750Y882113D01*
X-1067750Y885113D01*
X-1067750Y917113D02*
X-1067750Y920113D01*
X-1064750Y920113D01*
X-1030750Y920113D02*
X-1027750Y920113D01*
X-1027750Y917113D01*
D12*
X-1054338Y927430D02*
X-1054338Y934796D01*
X-1055156Y927430D02*
X-1053519Y927430D01*
X-1053519Y934796D02*
X-1055156Y934796D01*
X-1048918Y927430D02*
X-1047281Y927430D01*
X-1048918Y927429D02*
X-1048996Y927431D01*
X-1049074Y927436D01*
X-1049151Y927446D01*
X-1049228Y927459D01*
X-1049304Y927475D01*
X-1049379Y927495D01*
X-1049453Y927519D01*
X-1049526Y927546D01*
X-1049598Y927577D01*
X-1049668Y927611D01*
X-1049737Y927648D01*
X-1049803Y927689D01*
X-1049868Y927733D01*
X-1049930Y927779D01*
X-1049990Y927829D01*
X-1050048Y927881D01*
X-1050103Y927936D01*
X-1050155Y927994D01*
X-1050205Y928054D01*
X-1050251Y928116D01*
X-1050295Y928181D01*
X-1050336Y928248D01*
X-1050373Y928316D01*
X-1050407Y928386D01*
X-1050438Y928458D01*
X-1050465Y928531D01*
X-1050489Y928605D01*
X-1050509Y928680D01*
X-1050525Y928756D01*
X-1050538Y928833D01*
X-1050548Y928910D01*
X-1050553Y928988D01*
X-1050555Y929066D01*
X-1050555Y933159D01*
X-1050553Y933237D01*
X-1050548Y933315D01*
X-1050538Y933392D01*
X-1050525Y933469D01*
X-1050509Y933545D01*
X-1050489Y933620D01*
X-1050465Y933694D01*
X-1050438Y933767D01*
X-1050407Y933839D01*
X-1050373Y933909D01*
X-1050336Y933978D01*
X-1050295Y934044D01*
X-1050251Y934109D01*
X-1050205Y934171D01*
X-1050155Y934231D01*
X-1050103Y934289D01*
X-1050048Y934344D01*
X-1049990Y934396D01*
X-1049930Y934446D01*
X-1049868Y934492D01*
X-1049803Y934536D01*
X-1049737Y934577D01*
X-1049668Y934614D01*
X-1049598Y934648D01*
X-1049526Y934679D01*
X-1049453Y934706D01*
X-1049379Y934730D01*
X-1049304Y934750D01*
X-1049228Y934766D01*
X-1049151Y934779D01*
X-1049074Y934789D01*
X-1048996Y934794D01*
X-1048918Y934796D01*
X-1047281Y934796D01*
X-1042799Y930703D02*
X-1040344Y930703D01*
X-1042799Y930703D02*
X-1042877Y930705D01*
X-1042955Y930710D01*
X-1043032Y930720D01*
X-1043109Y930733D01*
X-1043185Y930749D01*
X-1043260Y930769D01*
X-1043334Y930793D01*
X-1043407Y930820D01*
X-1043479Y930851D01*
X-1043549Y930885D01*
X-1043618Y930922D01*
X-1043684Y930963D01*
X-1043749Y931007D01*
X-1043811Y931053D01*
X-1043871Y931103D01*
X-1043929Y931155D01*
X-1043984Y931210D01*
X-1044036Y931268D01*
X-1044086Y931328D01*
X-1044132Y931390D01*
X-1044176Y931455D01*
X-1044217Y931522D01*
X-1044254Y931590D01*
X-1044288Y931660D01*
X-1044319Y931732D01*
X-1044346Y931805D01*
X-1044370Y931879D01*
X-1044390Y931954D01*
X-1044406Y932030D01*
X-1044419Y932107D01*
X-1044429Y932184D01*
X-1044434Y932262D01*
X-1044436Y932340D01*
X-1044436Y932749D01*
X-1044434Y932838D01*
X-1044428Y932927D01*
X-1044418Y933016D01*
X-1044405Y933104D01*
X-1044388Y933192D01*
X-1044366Y933279D01*
X-1044341Y933364D01*
X-1044313Y933449D01*
X-1044280Y933532D01*
X-1044244Y933614D01*
X-1044205Y933694D01*
X-1044162Y933772D01*
X-1044116Y933848D01*
X-1044066Y933923D01*
X-1044013Y933995D01*
X-1043957Y934064D01*
X-1043898Y934131D01*
X-1043837Y934196D01*
X-1043772Y934257D01*
X-1043705Y934316D01*
X-1043636Y934372D01*
X-1043564Y934425D01*
X-1043489Y934475D01*
X-1043413Y934521D01*
X-1043335Y934564D01*
X-1043255Y934603D01*
X-1043173Y934639D01*
X-1043090Y934672D01*
X-1043005Y934700D01*
X-1042920Y934725D01*
X-1042833Y934747D01*
X-1042745Y934764D01*
X-1042657Y934777D01*
X-1042568Y934787D01*
X-1042479Y934793D01*
X-1042390Y934795D01*
X-1042301Y934793D01*
X-1042212Y934787D01*
X-1042123Y934777D01*
X-1042035Y934764D01*
X-1041947Y934747D01*
X-1041860Y934725D01*
X-1041775Y934700D01*
X-1041690Y934672D01*
X-1041607Y934639D01*
X-1041525Y934603D01*
X-1041445Y934564D01*
X-1041367Y934521D01*
X-1041291Y934475D01*
X-1041216Y934425D01*
X-1041144Y934372D01*
X-1041075Y934316D01*
X-1041008Y934257D01*
X-1040943Y934196D01*
X-1040882Y934131D01*
X-1040823Y934064D01*
X-1040767Y933995D01*
X-1040714Y933923D01*
X-1040664Y933848D01*
X-1040618Y933772D01*
X-1040575Y933694D01*
X-1040536Y933614D01*
X-1040500Y933532D01*
X-1040467Y933449D01*
X-1040439Y933364D01*
X-1040414Y933279D01*
X-1040392Y933192D01*
X-1040375Y933104D01*
X-1040362Y933016D01*
X-1040352Y932927D01*
X-1040346Y932838D01*
X-1040344Y932749D01*
X-1040344Y930703D01*
X-1040343Y930703D02*
X-1040345Y930591D01*
X-1040351Y930480D01*
X-1040360Y930368D01*
X-1040373Y930257D01*
X-1040391Y930147D01*
X-1040411Y930037D01*
X-1040436Y929928D01*
X-1040464Y929820D01*
X-1040496Y929713D01*
X-1040532Y929607D01*
X-1040571Y929502D01*
X-1040614Y929399D01*
X-1040660Y929297D01*
X-1040710Y929197D01*
X-1040763Y929098D01*
X-1040820Y929002D01*
X-1040879Y928907D01*
X-1040942Y928815D01*
X-1041008Y928725D01*
X-1041077Y928637D01*
X-1041149Y928551D01*
X-1041224Y928468D01*
X-1041302Y928388D01*
X-1041382Y928310D01*
X-1041465Y928235D01*
X-1041551Y928163D01*
X-1041639Y928094D01*
X-1041729Y928028D01*
X-1041821Y927965D01*
X-1041916Y927906D01*
X-1042012Y927849D01*
X-1042111Y927796D01*
X-1042211Y927746D01*
X-1042313Y927700D01*
X-1042416Y927657D01*
X-1042521Y927618D01*
X-1042627Y927582D01*
X-1042734Y927550D01*
X-1042842Y927522D01*
X-1042951Y927497D01*
X-1043061Y927477D01*
X-1043171Y927459D01*
X-1043282Y927446D01*
X-1043394Y927437D01*
X-1043505Y927431D01*
X-1043617Y927429D01*
D11*
X-837250Y904925D02*
X-837250Y901925D01*
X-840250Y901925D01*
X-874250Y901925D02*
X-877250Y901925D01*
X-877250Y904925D01*
X-877250Y936925D02*
X-877250Y939925D01*
X-874250Y939925D01*
X-840250Y939925D02*
X-837250Y939925D01*
X-837250Y936925D01*
D12*
X-867496Y947242D02*
X-867496Y954608D01*
X-868314Y947242D02*
X-866677Y947242D01*
X-866677Y954608D02*
X-868314Y954608D01*
X-862076Y947242D02*
X-860439Y947242D01*
X-862076Y947242D02*
X-862154Y947244D01*
X-862232Y947249D01*
X-862309Y947259D01*
X-862386Y947272D01*
X-862462Y947288D01*
X-862537Y947308D01*
X-862611Y947332D01*
X-862684Y947359D01*
X-862756Y947390D01*
X-862826Y947424D01*
X-862895Y947461D01*
X-862961Y947502D01*
X-863026Y947546D01*
X-863088Y947592D01*
X-863148Y947642D01*
X-863206Y947694D01*
X-863261Y947749D01*
X-863313Y947807D01*
X-863363Y947867D01*
X-863409Y947929D01*
X-863453Y947994D01*
X-863494Y948061D01*
X-863531Y948129D01*
X-863565Y948199D01*
X-863596Y948271D01*
X-863623Y948344D01*
X-863647Y948418D01*
X-863667Y948493D01*
X-863683Y948569D01*
X-863696Y948646D01*
X-863706Y948723D01*
X-863711Y948801D01*
X-863713Y948879D01*
X-863713Y952971D01*
X-863711Y953049D01*
X-863706Y953127D01*
X-863696Y953204D01*
X-863683Y953281D01*
X-863667Y953357D01*
X-863647Y953432D01*
X-863623Y953506D01*
X-863596Y953579D01*
X-863565Y953651D01*
X-863531Y953721D01*
X-863494Y953790D01*
X-863453Y953856D01*
X-863409Y953921D01*
X-863363Y953983D01*
X-863313Y954043D01*
X-863261Y954101D01*
X-863206Y954156D01*
X-863148Y954208D01*
X-863088Y954258D01*
X-863026Y954304D01*
X-862961Y954348D01*
X-862895Y954389D01*
X-862826Y954426D01*
X-862756Y954460D01*
X-862684Y954491D01*
X-862611Y954518D01*
X-862537Y954542D01*
X-862462Y954562D01*
X-862386Y954578D01*
X-862309Y954591D01*
X-862232Y954601D01*
X-862154Y954606D01*
X-862076Y954608D01*
X-860439Y954608D01*
X-857594Y952971D02*
X-855547Y954608D01*
X-855547Y947242D01*
X-853501Y947242D02*
X-857594Y947242D01*
X-850278Y950925D02*
X-850276Y951078D01*
X-850270Y951231D01*
X-850261Y951383D01*
X-850247Y951536D01*
X-850230Y951688D01*
X-850209Y951839D01*
X-850184Y951990D01*
X-850155Y952140D01*
X-850123Y952290D01*
X-850086Y952438D01*
X-850046Y952586D01*
X-850003Y952733D01*
X-849955Y952878D01*
X-849904Y953022D01*
X-849850Y953165D01*
X-849791Y953307D01*
X-849730Y953446D01*
X-849664Y953585D01*
X-849638Y953655D01*
X-849608Y953724D01*
X-849576Y953792D01*
X-849539Y953858D01*
X-849500Y953922D01*
X-849457Y953984D01*
X-849412Y954043D01*
X-849363Y954101D01*
X-849312Y954155D01*
X-849258Y954208D01*
X-849201Y954257D01*
X-849142Y954304D01*
X-849081Y954347D01*
X-849018Y954388D01*
X-848953Y954425D01*
X-848886Y954460D01*
X-848817Y954490D01*
X-848747Y954518D01*
X-848676Y954541D01*
X-848604Y954562D01*
X-848531Y954578D01*
X-848457Y954591D01*
X-848382Y954601D01*
X-848307Y954606D01*
X-848232Y954608D01*
X-848157Y954606D01*
X-848082Y954601D01*
X-848007Y954591D01*
X-847933Y954578D01*
X-847860Y954562D01*
X-847788Y954541D01*
X-847717Y954518D01*
X-847647Y954490D01*
X-847578Y954460D01*
X-847511Y954425D01*
X-847446Y954388D01*
X-847383Y954347D01*
X-847322Y954304D01*
X-847263Y954257D01*
X-847206Y954208D01*
X-847152Y954155D01*
X-847101Y954101D01*
X-847053Y954043D01*
X-847007Y953984D01*
X-846964Y953922D01*
X-846925Y953858D01*
X-846889Y953792D01*
X-846856Y953725D01*
X-846826Y953655D01*
X-846800Y953585D01*
X-846735Y953447D01*
X-846673Y953307D01*
X-846615Y953165D01*
X-846560Y953022D01*
X-846509Y952878D01*
X-846461Y952733D01*
X-846418Y952586D01*
X-846378Y952439D01*
X-846341Y952290D01*
X-846309Y952140D01*
X-846280Y951990D01*
X-846255Y951839D01*
X-846234Y951688D01*
X-846217Y951536D01*
X-846203Y951383D01*
X-846194Y951231D01*
X-846188Y951078D01*
X-846186Y950925D01*
X-850279Y950925D02*
X-850277Y950772D01*
X-850271Y950619D01*
X-850262Y950466D01*
X-850248Y950314D01*
X-850231Y950162D01*
X-850210Y950011D01*
X-850185Y949860D01*
X-850156Y949709D01*
X-850124Y949560D01*
X-850087Y949411D01*
X-850047Y949264D01*
X-850004Y949117D01*
X-849956Y948972D01*
X-849905Y948827D01*
X-849850Y948685D01*
X-849792Y948543D01*
X-849730Y948403D01*
X-849665Y948265D01*
X-849664Y948265D02*
X-849638Y948195D01*
X-849608Y948125D01*
X-849576Y948058D01*
X-849539Y947992D01*
X-849500Y947928D01*
X-849457Y947866D01*
X-849411Y947807D01*
X-849363Y947749D01*
X-849312Y947695D01*
X-849258Y947642D01*
X-849201Y947593D01*
X-849142Y947546D01*
X-849081Y947503D01*
X-849018Y947462D01*
X-848953Y947425D01*
X-848886Y947390D01*
X-848817Y947360D01*
X-848747Y947332D01*
X-848676Y947309D01*
X-848604Y947288D01*
X-848531Y947272D01*
X-848457Y947259D01*
X-848382Y947249D01*
X-848307Y947244D01*
X-848232Y947242D01*
X-846800Y948265D02*
X-846735Y948403D01*
X-846673Y948543D01*
X-846615Y948685D01*
X-846560Y948828D01*
X-846509Y948972D01*
X-846461Y949117D01*
X-846418Y949264D01*
X-846378Y949412D01*
X-846341Y949560D01*
X-846309Y949710D01*
X-846280Y949860D01*
X-846255Y950011D01*
X-846234Y950162D01*
X-846217Y950314D01*
X-846203Y950467D01*
X-846194Y950619D01*
X-846188Y950772D01*
X-846186Y950925D01*
X-846800Y948265D02*
X-846826Y948194D01*
X-846856Y948125D01*
X-846889Y948058D01*
X-846925Y947992D01*
X-846964Y947928D01*
X-847007Y947866D01*
X-847053Y947807D01*
X-847101Y947749D01*
X-847152Y947695D01*
X-847206Y947642D01*
X-847263Y947593D01*
X-847322Y947546D01*
X-847383Y947503D01*
X-847446Y947462D01*
X-847511Y947425D01*
X-847578Y947390D01*
X-847647Y947360D01*
X-847717Y947332D01*
X-847788Y947309D01*
X-847860Y947288D01*
X-847933Y947272D01*
X-848007Y947259D01*
X-848082Y947249D01*
X-848157Y947244D01*
X-848232Y947242D01*
X-849869Y948879D02*
X-846595Y952971D01*
D11*
X-646750Y929738D02*
X-646750Y926738D01*
X-649750Y926738D01*
X-683750Y926738D02*
X-686750Y926738D01*
X-686750Y929738D01*
X-686750Y961738D02*
X-686750Y964738D01*
X-683750Y964738D01*
X-649750Y964738D02*
X-646750Y964738D01*
X-646750Y961738D01*
D12*
X-676996Y972055D02*
X-676996Y979421D01*
X-677814Y972055D02*
X-676177Y972055D01*
X-676177Y979421D02*
X-677814Y979421D01*
X-671576Y972055D02*
X-669939Y972055D01*
X-671576Y972054D02*
X-671654Y972056D01*
X-671732Y972061D01*
X-671809Y972071D01*
X-671886Y972084D01*
X-671962Y972100D01*
X-672037Y972120D01*
X-672111Y972144D01*
X-672184Y972171D01*
X-672256Y972202D01*
X-672326Y972236D01*
X-672395Y972273D01*
X-672461Y972314D01*
X-672526Y972358D01*
X-672588Y972404D01*
X-672648Y972454D01*
X-672706Y972506D01*
X-672761Y972561D01*
X-672813Y972619D01*
X-672863Y972679D01*
X-672909Y972741D01*
X-672953Y972806D01*
X-672994Y972873D01*
X-673031Y972941D01*
X-673065Y973011D01*
X-673096Y973083D01*
X-673123Y973156D01*
X-673147Y973230D01*
X-673167Y973305D01*
X-673183Y973381D01*
X-673196Y973458D01*
X-673206Y973535D01*
X-673211Y973613D01*
X-673213Y973691D01*
X-673213Y977784D01*
X-673211Y977862D01*
X-673206Y977940D01*
X-673196Y978017D01*
X-673183Y978094D01*
X-673167Y978170D01*
X-673147Y978245D01*
X-673123Y978319D01*
X-673096Y978392D01*
X-673065Y978464D01*
X-673031Y978534D01*
X-672994Y978603D01*
X-672953Y978669D01*
X-672909Y978734D01*
X-672863Y978796D01*
X-672813Y978856D01*
X-672761Y978914D01*
X-672706Y978969D01*
X-672648Y979021D01*
X-672588Y979071D01*
X-672526Y979117D01*
X-672461Y979161D01*
X-672395Y979202D01*
X-672326Y979239D01*
X-672256Y979273D01*
X-672184Y979304D01*
X-672111Y979331D01*
X-672037Y979355D01*
X-671962Y979375D01*
X-671886Y979391D01*
X-671809Y979404D01*
X-671732Y979414D01*
X-671654Y979419D01*
X-671576Y979421D01*
X-669939Y979421D01*
X-667094Y977784D02*
X-665047Y979421D01*
X-665047Y972055D01*
X-663001Y972055D02*
X-667094Y972055D01*
X-659778Y977784D02*
X-657732Y979421D01*
X-657732Y972055D01*
X-659778Y972055D02*
X-655686Y972055D01*
D11*
X-456250Y904925D02*
X-456250Y901925D01*
X-459250Y901925D01*
X-493250Y901925D02*
X-496250Y901925D01*
X-496250Y904925D01*
X-496250Y936925D02*
X-496250Y939925D01*
X-493250Y939925D01*
X-459250Y939925D02*
X-456250Y939925D01*
X-456250Y936925D01*
D12*
X-486496Y947242D02*
X-486496Y954608D01*
X-487314Y947242D02*
X-485677Y947242D01*
X-485677Y954608D02*
X-487314Y954608D01*
X-481076Y947242D02*
X-479439Y947242D01*
X-481076Y947242D02*
X-481154Y947244D01*
X-481232Y947249D01*
X-481309Y947259D01*
X-481386Y947272D01*
X-481462Y947288D01*
X-481537Y947308D01*
X-481611Y947332D01*
X-481684Y947359D01*
X-481756Y947390D01*
X-481826Y947424D01*
X-481895Y947461D01*
X-481961Y947502D01*
X-482026Y947546D01*
X-482088Y947592D01*
X-482148Y947642D01*
X-482206Y947694D01*
X-482261Y947749D01*
X-482313Y947807D01*
X-482363Y947867D01*
X-482409Y947929D01*
X-482453Y947994D01*
X-482494Y948061D01*
X-482531Y948129D01*
X-482565Y948199D01*
X-482596Y948271D01*
X-482623Y948344D01*
X-482647Y948418D01*
X-482667Y948493D01*
X-482683Y948569D01*
X-482696Y948646D01*
X-482706Y948723D01*
X-482711Y948801D01*
X-482713Y948879D01*
X-482713Y952971D01*
X-482711Y953049D01*
X-482706Y953127D01*
X-482696Y953204D01*
X-482683Y953281D01*
X-482667Y953357D01*
X-482647Y953432D01*
X-482623Y953506D01*
X-482596Y953579D01*
X-482565Y953651D01*
X-482531Y953721D01*
X-482494Y953790D01*
X-482453Y953856D01*
X-482409Y953921D01*
X-482363Y953983D01*
X-482313Y954043D01*
X-482261Y954101D01*
X-482206Y954156D01*
X-482148Y954208D01*
X-482088Y954258D01*
X-482026Y954304D01*
X-481961Y954348D01*
X-481895Y954389D01*
X-481826Y954426D01*
X-481756Y954460D01*
X-481684Y954491D01*
X-481611Y954518D01*
X-481537Y954542D01*
X-481462Y954562D01*
X-481386Y954578D01*
X-481309Y954591D01*
X-481232Y954601D01*
X-481154Y954606D01*
X-481076Y954608D01*
X-479439Y954608D01*
X-476594Y952971D02*
X-474547Y954608D01*
X-474547Y947242D01*
X-472501Y947242D02*
X-476594Y947242D01*
X-467028Y954609D02*
X-466943Y954607D01*
X-466858Y954601D01*
X-466774Y954591D01*
X-466690Y954578D01*
X-466606Y954560D01*
X-466524Y954539D01*
X-466443Y954514D01*
X-466363Y954485D01*
X-466284Y954452D01*
X-466207Y954416D01*
X-466132Y954376D01*
X-466058Y954333D01*
X-465987Y954287D01*
X-465918Y954237D01*
X-465851Y954184D01*
X-465787Y954128D01*
X-465726Y954069D01*
X-465667Y954008D01*
X-465611Y953944D01*
X-465558Y953877D01*
X-465508Y953808D01*
X-465462Y953737D01*
X-465419Y953663D01*
X-465379Y953588D01*
X-465343Y953511D01*
X-465310Y953432D01*
X-465281Y953352D01*
X-465256Y953271D01*
X-465235Y953189D01*
X-465217Y953105D01*
X-465204Y953021D01*
X-465194Y952937D01*
X-465188Y952852D01*
X-465186Y952767D01*
X-467028Y954608D02*
X-467124Y954606D01*
X-467220Y954600D01*
X-467315Y954590D01*
X-467410Y954577D01*
X-467505Y954559D01*
X-467598Y954538D01*
X-467691Y954513D01*
X-467782Y954484D01*
X-467873Y954452D01*
X-467962Y954416D01*
X-468049Y954376D01*
X-468135Y954333D01*
X-468219Y954287D01*
X-468301Y954237D01*
X-468381Y954183D01*
X-468458Y954127D01*
X-468533Y954067D01*
X-468606Y954005D01*
X-468676Y953939D01*
X-468744Y953871D01*
X-468809Y953800D01*
X-468870Y953727D01*
X-468929Y953651D01*
X-468985Y953572D01*
X-469037Y953492D01*
X-469086Y953409D01*
X-469132Y953325D01*
X-469174Y953239D01*
X-469212Y953151D01*
X-469247Y953062D01*
X-469279Y952971D01*
X-465800Y951335D02*
X-465740Y951394D01*
X-465683Y951456D01*
X-465628Y951520D01*
X-465577Y951587D01*
X-465528Y951656D01*
X-465482Y951726D01*
X-465439Y951799D01*
X-465399Y951873D01*
X-465363Y951949D01*
X-465330Y952027D01*
X-465300Y952106D01*
X-465273Y952186D01*
X-465250Y952267D01*
X-465231Y952349D01*
X-465215Y952431D01*
X-465202Y952515D01*
X-465193Y952599D01*
X-465188Y952683D01*
X-465186Y952767D01*
X-465800Y951334D02*
X-469278Y947242D01*
X-465186Y947242D01*
D11*
X-265750Y860300D02*
X-265750Y857300D01*
X-268750Y857300D01*
X-302750Y857300D02*
X-305750Y857300D01*
X-305750Y860300D01*
X-305750Y892300D02*
X-305750Y895300D01*
X-302750Y895300D01*
X-268750Y895300D02*
X-265750Y895300D01*
X-265750Y892300D01*
D12*
X-295996Y902617D02*
X-295996Y909983D01*
X-296814Y902617D02*
X-295177Y902617D01*
X-295177Y909983D02*
X-296814Y909983D01*
X-290576Y902617D02*
X-288939Y902617D01*
X-290576Y902617D02*
X-290654Y902619D01*
X-290732Y902624D01*
X-290809Y902634D01*
X-290886Y902647D01*
X-290962Y902663D01*
X-291037Y902683D01*
X-291111Y902707D01*
X-291184Y902734D01*
X-291256Y902765D01*
X-291326Y902799D01*
X-291395Y902836D01*
X-291461Y902877D01*
X-291526Y902921D01*
X-291588Y902967D01*
X-291648Y903017D01*
X-291706Y903069D01*
X-291761Y903124D01*
X-291813Y903182D01*
X-291863Y903242D01*
X-291909Y903304D01*
X-291953Y903369D01*
X-291994Y903436D01*
X-292031Y903504D01*
X-292065Y903574D01*
X-292096Y903646D01*
X-292123Y903719D01*
X-292147Y903793D01*
X-292167Y903868D01*
X-292183Y903944D01*
X-292196Y904021D01*
X-292206Y904098D01*
X-292211Y904176D01*
X-292213Y904254D01*
X-292213Y908346D01*
X-292211Y908424D01*
X-292206Y908502D01*
X-292196Y908579D01*
X-292183Y908656D01*
X-292167Y908732D01*
X-292147Y908807D01*
X-292123Y908881D01*
X-292096Y908954D01*
X-292065Y909026D01*
X-292031Y909096D01*
X-291994Y909165D01*
X-291953Y909231D01*
X-291909Y909296D01*
X-291863Y909358D01*
X-291813Y909418D01*
X-291761Y909476D01*
X-291706Y909531D01*
X-291648Y909583D01*
X-291588Y909633D01*
X-291526Y909679D01*
X-291461Y909723D01*
X-291395Y909764D01*
X-291326Y909801D01*
X-291256Y909835D01*
X-291184Y909866D01*
X-291111Y909893D01*
X-291037Y909917D01*
X-290962Y909937D01*
X-290886Y909953D01*
X-290809Y909966D01*
X-290732Y909976D01*
X-290654Y909981D01*
X-290576Y909983D01*
X-288939Y909983D01*
X-286094Y908346D02*
X-284047Y909983D01*
X-284047Y902617D01*
X-282001Y902617D02*
X-286094Y902617D01*
X-278778Y902617D02*
X-276732Y902617D01*
X-276643Y902619D01*
X-276554Y902625D01*
X-276465Y902635D01*
X-276377Y902648D01*
X-276289Y902665D01*
X-276202Y902687D01*
X-276117Y902712D01*
X-276032Y902740D01*
X-275949Y902773D01*
X-275867Y902809D01*
X-275787Y902848D01*
X-275709Y902891D01*
X-275633Y902937D01*
X-275558Y902987D01*
X-275486Y903040D01*
X-275417Y903096D01*
X-275350Y903155D01*
X-275285Y903216D01*
X-275224Y903281D01*
X-275165Y903348D01*
X-275109Y903417D01*
X-275056Y903489D01*
X-275006Y903564D01*
X-274960Y903640D01*
X-274917Y903718D01*
X-274878Y903798D01*
X-274842Y903880D01*
X-274809Y903963D01*
X-274781Y904048D01*
X-274756Y904133D01*
X-274734Y904220D01*
X-274717Y904308D01*
X-274704Y904396D01*
X-274694Y904485D01*
X-274688Y904574D01*
X-274686Y904663D01*
X-274688Y904752D01*
X-274694Y904841D01*
X-274704Y904930D01*
X-274717Y905018D01*
X-274734Y905106D01*
X-274756Y905193D01*
X-274781Y905278D01*
X-274809Y905363D01*
X-274842Y905446D01*
X-274878Y905528D01*
X-274917Y905608D01*
X-274960Y905686D01*
X-275006Y905762D01*
X-275056Y905837D01*
X-275109Y905909D01*
X-275165Y905978D01*
X-275224Y906045D01*
X-275285Y906110D01*
X-275350Y906171D01*
X-275417Y906230D01*
X-275486Y906286D01*
X-275558Y906339D01*
X-275633Y906389D01*
X-275709Y906435D01*
X-275787Y906478D01*
X-275867Y906517D01*
X-275949Y906553D01*
X-276032Y906586D01*
X-276117Y906614D01*
X-276202Y906639D01*
X-276289Y906661D01*
X-276377Y906678D01*
X-276465Y906691D01*
X-276554Y906701D01*
X-276643Y906707D01*
X-276732Y906709D01*
X-276323Y909983D02*
X-278778Y909983D01*
X-276323Y909983D02*
X-276244Y909981D01*
X-276165Y909975D01*
X-276086Y909966D01*
X-276008Y909953D01*
X-275931Y909935D01*
X-275855Y909915D01*
X-275780Y909890D01*
X-275706Y909862D01*
X-275633Y909831D01*
X-275562Y909795D01*
X-275493Y909757D01*
X-275426Y909715D01*
X-275361Y909670D01*
X-275298Y909622D01*
X-275237Y909571D01*
X-275180Y909517D01*
X-275124Y909461D01*
X-275072Y909402D01*
X-275022Y909340D01*
X-274976Y909276D01*
X-274932Y909210D01*
X-274892Y909142D01*
X-274856Y909072D01*
X-274822Y909000D01*
X-274792Y908926D01*
X-274766Y908852D01*
X-274743Y908776D01*
X-274725Y908699D01*
X-274709Y908622D01*
X-274698Y908543D01*
X-274690Y908465D01*
X-274686Y908386D01*
X-274686Y908306D01*
X-274690Y908227D01*
X-274698Y908149D01*
X-274709Y908070D01*
X-274725Y907993D01*
X-274743Y907916D01*
X-274766Y907840D01*
X-274792Y907766D01*
X-274822Y907692D01*
X-274856Y907620D01*
X-274892Y907550D01*
X-274932Y907482D01*
X-274976Y907416D01*
X-275022Y907352D01*
X-275072Y907290D01*
X-275124Y907231D01*
X-275180Y907175D01*
X-275237Y907121D01*
X-275298Y907070D01*
X-275361Y907022D01*
X-275426Y906977D01*
X-275493Y906935D01*
X-275562Y906897D01*
X-275633Y906861D01*
X-275706Y906830D01*
X-275780Y906802D01*
X-275855Y906777D01*
X-275931Y906757D01*
X-276008Y906739D01*
X-276086Y906726D01*
X-276165Y906717D01*
X-276244Y906711D01*
X-276323Y906709D01*
X-277960Y906709D01*
D11*
X-51438Y860300D02*
X-51438Y857300D01*
X-54438Y857300D01*
X-88438Y857300D02*
X-91438Y857300D01*
X-91438Y860300D01*
X-91438Y892300D02*
X-91438Y895300D01*
X-88438Y895300D01*
X-54438Y895300D02*
X-51438Y895300D01*
X-51438Y892300D01*
D12*
X-81683Y902617D02*
X-81683Y909983D01*
X-82501Y902617D02*
X-80865Y902617D01*
X-80865Y909983D02*
X-82501Y909983D01*
X-76263Y902617D02*
X-74626Y902617D01*
X-76263Y902617D02*
X-76341Y902619D01*
X-76419Y902624D01*
X-76496Y902634D01*
X-76573Y902647D01*
X-76649Y902663D01*
X-76724Y902683D01*
X-76798Y902707D01*
X-76871Y902734D01*
X-76943Y902765D01*
X-77013Y902799D01*
X-77082Y902836D01*
X-77148Y902877D01*
X-77213Y902921D01*
X-77275Y902967D01*
X-77335Y903017D01*
X-77393Y903069D01*
X-77448Y903124D01*
X-77500Y903182D01*
X-77550Y903242D01*
X-77596Y903304D01*
X-77640Y903369D01*
X-77681Y903436D01*
X-77718Y903504D01*
X-77752Y903574D01*
X-77783Y903646D01*
X-77810Y903719D01*
X-77834Y903793D01*
X-77854Y903868D01*
X-77870Y903944D01*
X-77883Y904021D01*
X-77893Y904098D01*
X-77898Y904176D01*
X-77900Y904254D01*
X-77900Y908346D01*
X-77898Y908424D01*
X-77893Y908502D01*
X-77883Y908579D01*
X-77870Y908656D01*
X-77854Y908732D01*
X-77834Y908807D01*
X-77810Y908881D01*
X-77783Y908954D01*
X-77752Y909026D01*
X-77718Y909096D01*
X-77681Y909165D01*
X-77640Y909231D01*
X-77596Y909296D01*
X-77550Y909358D01*
X-77500Y909418D01*
X-77448Y909476D01*
X-77393Y909531D01*
X-77335Y909583D01*
X-77275Y909633D01*
X-77213Y909679D01*
X-77148Y909723D01*
X-77082Y909764D01*
X-77013Y909801D01*
X-76943Y909835D01*
X-76871Y909866D01*
X-76798Y909893D01*
X-76724Y909917D01*
X-76649Y909937D01*
X-76573Y909953D01*
X-76496Y909966D01*
X-76419Y909976D01*
X-76341Y909981D01*
X-76263Y909983D01*
X-74626Y909983D01*
X-71781Y908346D02*
X-69735Y909983D01*
X-69735Y902617D01*
X-71781Y902617D02*
X-67689Y902617D01*
X-64466Y904254D02*
X-62829Y909983D01*
X-64466Y904254D02*
X-60374Y904254D01*
X-61601Y905891D02*
X-61601Y902617D01*
D11*
X-91438Y704800D02*
X-91438Y701800D01*
X-91438Y704800D02*
X-88438Y704800D01*
X-54438Y704800D02*
X-51438Y704800D01*
X-51438Y701800D01*
X-51438Y669800D02*
X-51438Y666800D01*
X-54438Y666800D01*
X-88438Y666800D02*
X-91438Y666800D01*
X-91438Y669800D01*
D12*
X-81683Y712117D02*
X-81683Y719483D01*
X-82501Y712117D02*
X-80865Y712117D01*
X-80865Y719483D02*
X-82501Y719483D01*
X-76263Y712117D02*
X-74626Y712117D01*
X-76263Y712117D02*
X-76341Y712119D01*
X-76419Y712124D01*
X-76496Y712134D01*
X-76573Y712147D01*
X-76649Y712163D01*
X-76724Y712183D01*
X-76798Y712207D01*
X-76871Y712234D01*
X-76943Y712265D01*
X-77013Y712299D01*
X-77082Y712336D01*
X-77148Y712377D01*
X-77213Y712421D01*
X-77275Y712467D01*
X-77335Y712517D01*
X-77393Y712569D01*
X-77448Y712624D01*
X-77500Y712682D01*
X-77550Y712742D01*
X-77596Y712804D01*
X-77640Y712869D01*
X-77681Y712936D01*
X-77718Y713004D01*
X-77752Y713074D01*
X-77783Y713146D01*
X-77810Y713219D01*
X-77834Y713293D01*
X-77854Y713368D01*
X-77870Y713444D01*
X-77883Y713521D01*
X-77893Y713598D01*
X-77898Y713676D01*
X-77900Y713754D01*
X-77900Y717846D01*
X-77898Y717924D01*
X-77893Y718002D01*
X-77883Y718079D01*
X-77870Y718156D01*
X-77854Y718232D01*
X-77834Y718307D01*
X-77810Y718381D01*
X-77783Y718454D01*
X-77752Y718526D01*
X-77718Y718596D01*
X-77681Y718665D01*
X-77640Y718731D01*
X-77596Y718796D01*
X-77550Y718858D01*
X-77500Y718918D01*
X-77448Y718976D01*
X-77393Y719031D01*
X-77335Y719083D01*
X-77275Y719133D01*
X-77213Y719179D01*
X-77148Y719223D01*
X-77082Y719264D01*
X-77013Y719301D01*
X-76943Y719335D01*
X-76871Y719366D01*
X-76798Y719393D01*
X-76724Y719417D01*
X-76649Y719437D01*
X-76573Y719453D01*
X-76496Y719466D01*
X-76419Y719476D01*
X-76341Y719481D01*
X-76263Y719483D01*
X-74626Y719483D01*
X-71781Y717846D02*
X-69735Y719483D01*
X-69735Y712117D01*
X-71781Y712117D02*
X-67689Y712117D01*
X-64466Y712117D02*
X-62010Y712117D01*
X-61930Y712119D01*
X-61850Y712125D01*
X-61770Y712135D01*
X-61691Y712148D01*
X-61612Y712166D01*
X-61535Y712187D01*
X-61459Y712213D01*
X-61384Y712242D01*
X-61310Y712274D01*
X-61238Y712310D01*
X-61168Y712350D01*
X-61101Y712393D01*
X-61035Y712439D01*
X-60972Y712489D01*
X-60911Y712541D01*
X-60852Y712596D01*
X-60797Y712655D01*
X-60745Y712715D01*
X-60695Y712779D01*
X-60649Y712844D01*
X-60606Y712912D01*
X-60566Y712982D01*
X-60530Y713054D01*
X-60498Y713128D01*
X-60469Y713202D01*
X-60444Y713279D01*
X-60422Y713356D01*
X-60404Y713435D01*
X-60391Y713514D01*
X-60381Y713593D01*
X-60375Y713674D01*
X-60373Y713754D01*
X-60374Y713754D02*
X-60374Y714572D01*
X-60373Y714572D02*
X-60375Y714650D01*
X-60380Y714728D01*
X-60390Y714805D01*
X-60403Y714882D01*
X-60419Y714958D01*
X-60439Y715033D01*
X-60463Y715107D01*
X-60490Y715180D01*
X-60521Y715252D01*
X-60555Y715322D01*
X-60592Y715391D01*
X-60633Y715457D01*
X-60677Y715522D01*
X-60723Y715584D01*
X-60773Y715644D01*
X-60825Y715702D01*
X-60880Y715757D01*
X-60938Y715809D01*
X-60998Y715859D01*
X-61060Y715905D01*
X-61125Y715949D01*
X-61192Y715990D01*
X-61260Y716027D01*
X-61330Y716061D01*
X-61402Y716092D01*
X-61475Y716119D01*
X-61549Y716143D01*
X-61624Y716163D01*
X-61700Y716179D01*
X-61777Y716192D01*
X-61854Y716202D01*
X-61932Y716207D01*
X-62010Y716209D01*
X-64466Y716209D01*
X-64466Y719483D01*
X-60374Y719483D01*
D11*
X-305750Y704800D02*
X-305750Y701800D01*
X-305750Y704800D02*
X-302750Y704800D01*
X-268750Y704800D02*
X-265750Y704800D01*
X-265750Y701800D01*
X-265750Y669800D02*
X-265750Y666800D01*
X-268750Y666800D01*
X-302750Y666800D02*
X-305750Y666800D01*
X-305750Y669800D01*
D12*
X-295996Y712117D02*
X-295996Y719483D01*
X-296814Y712117D02*
X-295177Y712117D01*
X-295177Y719483D02*
X-296814Y719483D01*
X-290576Y712117D02*
X-288939Y712117D01*
X-290576Y712117D02*
X-290654Y712119D01*
X-290732Y712124D01*
X-290809Y712134D01*
X-290886Y712147D01*
X-290962Y712163D01*
X-291037Y712183D01*
X-291111Y712207D01*
X-291184Y712234D01*
X-291256Y712265D01*
X-291326Y712299D01*
X-291395Y712336D01*
X-291461Y712377D01*
X-291526Y712421D01*
X-291588Y712467D01*
X-291648Y712517D01*
X-291706Y712569D01*
X-291761Y712624D01*
X-291813Y712682D01*
X-291863Y712742D01*
X-291909Y712804D01*
X-291953Y712869D01*
X-291994Y712936D01*
X-292031Y713004D01*
X-292065Y713074D01*
X-292096Y713146D01*
X-292123Y713219D01*
X-292147Y713293D01*
X-292167Y713368D01*
X-292183Y713444D01*
X-292196Y713521D01*
X-292206Y713598D01*
X-292211Y713676D01*
X-292213Y713754D01*
X-292213Y717846D01*
X-292211Y717924D01*
X-292206Y718002D01*
X-292196Y718079D01*
X-292183Y718156D01*
X-292167Y718232D01*
X-292147Y718307D01*
X-292123Y718381D01*
X-292096Y718454D01*
X-292065Y718526D01*
X-292031Y718596D01*
X-291994Y718665D01*
X-291953Y718731D01*
X-291909Y718796D01*
X-291863Y718858D01*
X-291813Y718918D01*
X-291761Y718976D01*
X-291706Y719031D01*
X-291648Y719083D01*
X-291588Y719133D01*
X-291526Y719179D01*
X-291461Y719223D01*
X-291395Y719264D01*
X-291326Y719301D01*
X-291256Y719335D01*
X-291184Y719366D01*
X-291111Y719393D01*
X-291037Y719417D01*
X-290962Y719437D01*
X-290886Y719453D01*
X-290809Y719466D01*
X-290732Y719476D01*
X-290654Y719481D01*
X-290576Y719483D01*
X-288939Y719483D01*
X-286093Y717846D02*
X-284047Y719483D01*
X-284047Y712117D01*
X-286093Y712117D02*
X-282001Y712117D01*
X-278778Y716209D02*
X-276323Y716209D01*
X-276243Y716207D01*
X-276163Y716201D01*
X-276083Y716191D01*
X-276004Y716178D01*
X-275925Y716160D01*
X-275848Y716139D01*
X-275772Y716113D01*
X-275697Y716084D01*
X-275623Y716052D01*
X-275551Y716016D01*
X-275481Y715976D01*
X-275414Y715933D01*
X-275348Y715887D01*
X-275285Y715837D01*
X-275224Y715785D01*
X-275165Y715730D01*
X-275110Y715671D01*
X-275058Y715611D01*
X-275008Y715547D01*
X-274962Y715481D01*
X-274919Y715414D01*
X-274879Y715344D01*
X-274843Y715272D01*
X-274811Y715198D01*
X-274782Y715124D01*
X-274756Y715047D01*
X-274735Y714970D01*
X-274717Y714891D01*
X-274704Y714812D01*
X-274694Y714732D01*
X-274688Y714652D01*
X-274686Y714572D01*
X-274686Y714163D01*
X-274688Y714074D01*
X-274694Y713985D01*
X-274704Y713896D01*
X-274717Y713808D01*
X-274734Y713720D01*
X-274756Y713633D01*
X-274781Y713548D01*
X-274809Y713463D01*
X-274842Y713380D01*
X-274878Y713298D01*
X-274917Y713218D01*
X-274960Y713140D01*
X-275006Y713064D01*
X-275056Y712989D01*
X-275109Y712917D01*
X-275165Y712848D01*
X-275224Y712781D01*
X-275285Y712716D01*
X-275350Y712655D01*
X-275417Y712596D01*
X-275486Y712540D01*
X-275558Y712487D01*
X-275633Y712437D01*
X-275709Y712391D01*
X-275787Y712348D01*
X-275867Y712309D01*
X-275949Y712273D01*
X-276032Y712240D01*
X-276117Y712212D01*
X-276202Y712187D01*
X-276289Y712165D01*
X-276377Y712148D01*
X-276465Y712135D01*
X-276554Y712125D01*
X-276643Y712119D01*
X-276732Y712117D01*
X-276821Y712119D01*
X-276910Y712125D01*
X-276999Y712135D01*
X-277087Y712148D01*
X-277175Y712165D01*
X-277262Y712187D01*
X-277347Y712212D01*
X-277432Y712240D01*
X-277515Y712273D01*
X-277597Y712309D01*
X-277677Y712348D01*
X-277755Y712391D01*
X-277831Y712437D01*
X-277906Y712487D01*
X-277978Y712540D01*
X-278047Y712596D01*
X-278114Y712655D01*
X-278179Y712716D01*
X-278240Y712781D01*
X-278299Y712848D01*
X-278355Y712917D01*
X-278408Y712989D01*
X-278458Y713064D01*
X-278504Y713140D01*
X-278547Y713218D01*
X-278586Y713298D01*
X-278622Y713380D01*
X-278655Y713463D01*
X-278683Y713548D01*
X-278708Y713633D01*
X-278730Y713720D01*
X-278747Y713808D01*
X-278760Y713896D01*
X-278770Y713985D01*
X-278776Y714074D01*
X-278778Y714163D01*
X-278778Y716209D01*
X-278779Y716209D02*
X-278777Y716321D01*
X-278771Y716432D01*
X-278762Y716544D01*
X-278749Y716655D01*
X-278731Y716765D01*
X-278711Y716875D01*
X-278686Y716984D01*
X-278658Y717092D01*
X-278626Y717199D01*
X-278590Y717305D01*
X-278551Y717410D01*
X-278508Y717513D01*
X-278462Y717615D01*
X-278412Y717715D01*
X-278359Y717814D01*
X-278302Y717910D01*
X-278243Y718005D01*
X-278180Y718097D01*
X-278114Y718187D01*
X-278045Y718275D01*
X-277973Y718361D01*
X-277898Y718444D01*
X-277820Y718524D01*
X-277740Y718602D01*
X-277657Y718677D01*
X-277571Y718749D01*
X-277483Y718818D01*
X-277393Y718884D01*
X-277301Y718947D01*
X-277206Y719006D01*
X-277110Y719063D01*
X-277011Y719116D01*
X-276911Y719166D01*
X-276809Y719212D01*
X-276706Y719255D01*
X-276601Y719294D01*
X-276495Y719330D01*
X-276388Y719362D01*
X-276280Y719390D01*
X-276171Y719415D01*
X-276061Y719435D01*
X-275951Y719453D01*
X-275840Y719466D01*
X-275728Y719475D01*
X-275617Y719481D01*
X-275505Y719483D01*
D11*
X-496250Y746425D02*
X-496250Y749425D01*
X-493250Y749425D01*
X-459250Y749425D02*
X-456250Y749425D01*
X-456250Y746425D01*
X-456250Y714425D02*
X-456250Y711425D01*
X-459250Y711425D01*
X-493250Y711425D02*
X-496250Y711425D01*
X-496250Y714425D01*
D12*
X-486496Y756742D02*
X-486496Y764108D01*
X-487314Y756742D02*
X-485677Y756742D01*
X-485677Y764108D02*
X-487314Y764108D01*
X-481076Y756742D02*
X-479439Y756742D01*
X-481076Y756742D02*
X-481154Y756744D01*
X-481232Y756749D01*
X-481309Y756759D01*
X-481386Y756772D01*
X-481462Y756788D01*
X-481537Y756808D01*
X-481611Y756832D01*
X-481684Y756859D01*
X-481756Y756890D01*
X-481826Y756924D01*
X-481895Y756961D01*
X-481961Y757002D01*
X-482026Y757046D01*
X-482088Y757092D01*
X-482148Y757142D01*
X-482206Y757194D01*
X-482261Y757249D01*
X-482313Y757307D01*
X-482363Y757367D01*
X-482409Y757429D01*
X-482453Y757494D01*
X-482494Y757561D01*
X-482531Y757629D01*
X-482565Y757699D01*
X-482596Y757771D01*
X-482623Y757844D01*
X-482647Y757918D01*
X-482667Y757993D01*
X-482683Y758069D01*
X-482696Y758146D01*
X-482706Y758223D01*
X-482711Y758301D01*
X-482713Y758379D01*
X-482713Y762471D01*
X-482711Y762549D01*
X-482706Y762627D01*
X-482696Y762704D01*
X-482683Y762781D01*
X-482667Y762857D01*
X-482647Y762932D01*
X-482623Y763006D01*
X-482596Y763079D01*
X-482565Y763151D01*
X-482531Y763221D01*
X-482494Y763290D01*
X-482453Y763356D01*
X-482409Y763421D01*
X-482363Y763483D01*
X-482313Y763543D01*
X-482261Y763601D01*
X-482206Y763656D01*
X-482148Y763708D01*
X-482088Y763758D01*
X-482026Y763804D01*
X-481961Y763848D01*
X-481895Y763889D01*
X-481826Y763926D01*
X-481756Y763960D01*
X-481684Y763991D01*
X-481611Y764018D01*
X-481537Y764042D01*
X-481462Y764062D01*
X-481386Y764078D01*
X-481309Y764091D01*
X-481232Y764101D01*
X-481154Y764106D01*
X-481076Y764108D01*
X-479439Y764108D01*
X-476593Y762471D02*
X-474547Y764108D01*
X-474547Y756742D01*
X-476593Y756742D02*
X-472501Y756742D01*
X-469278Y763290D02*
X-469278Y764108D01*
X-465186Y764108D01*
X-467232Y756742D01*
D11*
X-686750Y771238D02*
X-686750Y774238D01*
X-683750Y774238D01*
X-649750Y774238D02*
X-646750Y774238D01*
X-646750Y771238D01*
X-646750Y739238D02*
X-646750Y736238D01*
X-649750Y736238D01*
X-683750Y736238D02*
X-686750Y736238D01*
X-686750Y739238D01*
D12*
X-676996Y781555D02*
X-676996Y788921D01*
X-677814Y781555D02*
X-676177Y781555D01*
X-676177Y788921D02*
X-677814Y788921D01*
X-671576Y781555D02*
X-669939Y781555D01*
X-671576Y781554D02*
X-671654Y781556D01*
X-671732Y781561D01*
X-671809Y781571D01*
X-671886Y781584D01*
X-671962Y781600D01*
X-672037Y781620D01*
X-672111Y781644D01*
X-672184Y781671D01*
X-672256Y781702D01*
X-672326Y781736D01*
X-672395Y781773D01*
X-672461Y781814D01*
X-672526Y781858D01*
X-672588Y781904D01*
X-672648Y781954D01*
X-672706Y782006D01*
X-672761Y782061D01*
X-672813Y782119D01*
X-672863Y782179D01*
X-672909Y782241D01*
X-672953Y782306D01*
X-672994Y782373D01*
X-673031Y782441D01*
X-673065Y782511D01*
X-673096Y782583D01*
X-673123Y782656D01*
X-673147Y782730D01*
X-673167Y782805D01*
X-673183Y782881D01*
X-673196Y782958D01*
X-673206Y783035D01*
X-673211Y783113D01*
X-673213Y783191D01*
X-673213Y787284D01*
X-673211Y787362D01*
X-673206Y787440D01*
X-673196Y787517D01*
X-673183Y787594D01*
X-673167Y787670D01*
X-673147Y787745D01*
X-673123Y787819D01*
X-673096Y787892D01*
X-673065Y787964D01*
X-673031Y788034D01*
X-672994Y788103D01*
X-672953Y788169D01*
X-672909Y788234D01*
X-672863Y788296D01*
X-672813Y788356D01*
X-672761Y788414D01*
X-672706Y788469D01*
X-672648Y788521D01*
X-672588Y788571D01*
X-672526Y788617D01*
X-672461Y788661D01*
X-672395Y788702D01*
X-672326Y788739D01*
X-672256Y788773D01*
X-672184Y788804D01*
X-672111Y788831D01*
X-672037Y788855D01*
X-671962Y788875D01*
X-671886Y788891D01*
X-671809Y788904D01*
X-671732Y788914D01*
X-671654Y788919D01*
X-671576Y788921D01*
X-669939Y788921D01*
X-667093Y787284D02*
X-665047Y788921D01*
X-665047Y781555D01*
X-667093Y781555D02*
X-663001Y781555D01*
X-659778Y783601D02*
X-659776Y783690D01*
X-659770Y783779D01*
X-659760Y783868D01*
X-659747Y783956D01*
X-659730Y784044D01*
X-659708Y784131D01*
X-659683Y784216D01*
X-659655Y784301D01*
X-659622Y784384D01*
X-659586Y784466D01*
X-659547Y784546D01*
X-659504Y784624D01*
X-659458Y784700D01*
X-659408Y784775D01*
X-659355Y784847D01*
X-659299Y784916D01*
X-659240Y784983D01*
X-659179Y785048D01*
X-659114Y785109D01*
X-659047Y785168D01*
X-658978Y785224D01*
X-658906Y785277D01*
X-658831Y785327D01*
X-658755Y785373D01*
X-658677Y785416D01*
X-658597Y785455D01*
X-658515Y785491D01*
X-658432Y785524D01*
X-658347Y785552D01*
X-658262Y785577D01*
X-658175Y785599D01*
X-658087Y785616D01*
X-657999Y785629D01*
X-657910Y785639D01*
X-657821Y785645D01*
X-657732Y785647D01*
X-657643Y785645D01*
X-657554Y785639D01*
X-657465Y785629D01*
X-657377Y785616D01*
X-657289Y785599D01*
X-657202Y785577D01*
X-657117Y785552D01*
X-657032Y785524D01*
X-656949Y785491D01*
X-656867Y785455D01*
X-656787Y785416D01*
X-656709Y785373D01*
X-656633Y785327D01*
X-656558Y785277D01*
X-656486Y785224D01*
X-656417Y785168D01*
X-656350Y785109D01*
X-656285Y785048D01*
X-656224Y784983D01*
X-656165Y784916D01*
X-656109Y784847D01*
X-656056Y784775D01*
X-656006Y784700D01*
X-655960Y784624D01*
X-655917Y784546D01*
X-655878Y784466D01*
X-655842Y784384D01*
X-655809Y784301D01*
X-655781Y784216D01*
X-655756Y784131D01*
X-655734Y784044D01*
X-655717Y783956D01*
X-655704Y783868D01*
X-655694Y783779D01*
X-655688Y783690D01*
X-655686Y783601D01*
X-655688Y783512D01*
X-655694Y783423D01*
X-655704Y783334D01*
X-655717Y783246D01*
X-655734Y783158D01*
X-655756Y783071D01*
X-655781Y782986D01*
X-655809Y782901D01*
X-655842Y782818D01*
X-655878Y782736D01*
X-655917Y782656D01*
X-655960Y782578D01*
X-656006Y782502D01*
X-656056Y782427D01*
X-656109Y782355D01*
X-656165Y782286D01*
X-656224Y782219D01*
X-656285Y782154D01*
X-656350Y782093D01*
X-656417Y782034D01*
X-656486Y781978D01*
X-656558Y781925D01*
X-656633Y781875D01*
X-656709Y781829D01*
X-656787Y781786D01*
X-656867Y781747D01*
X-656949Y781711D01*
X-657032Y781678D01*
X-657117Y781650D01*
X-657202Y781625D01*
X-657289Y781603D01*
X-657377Y781586D01*
X-657465Y781573D01*
X-657554Y781563D01*
X-657643Y781557D01*
X-657732Y781555D01*
X-657821Y781557D01*
X-657910Y781563D01*
X-657999Y781573D01*
X-658087Y781586D01*
X-658175Y781603D01*
X-658262Y781625D01*
X-658347Y781650D01*
X-658432Y781678D01*
X-658515Y781711D01*
X-658597Y781747D01*
X-658677Y781786D01*
X-658755Y781829D01*
X-658831Y781875D01*
X-658906Y781925D01*
X-658978Y781978D01*
X-659047Y782034D01*
X-659114Y782093D01*
X-659179Y782154D01*
X-659240Y782219D01*
X-659299Y782286D01*
X-659355Y782355D01*
X-659408Y782427D01*
X-659458Y782502D01*
X-659504Y782578D01*
X-659547Y782656D01*
X-659586Y782736D01*
X-659622Y782818D01*
X-659655Y782901D01*
X-659683Y782986D01*
X-659708Y783071D01*
X-659730Y783158D01*
X-659747Y783246D01*
X-659760Y783334D01*
X-659770Y783423D01*
X-659776Y783512D01*
X-659778Y783601D01*
X-659369Y787284D02*
X-659367Y787363D01*
X-659361Y787442D01*
X-659352Y787521D01*
X-659339Y787599D01*
X-659321Y787676D01*
X-659301Y787752D01*
X-659276Y787827D01*
X-659248Y787901D01*
X-659217Y787974D01*
X-659181Y788045D01*
X-659143Y788114D01*
X-659101Y788181D01*
X-659056Y788246D01*
X-659008Y788309D01*
X-658957Y788370D01*
X-658903Y788427D01*
X-658847Y788483D01*
X-658788Y788535D01*
X-658726Y788585D01*
X-658662Y788631D01*
X-658596Y788675D01*
X-658528Y788715D01*
X-658458Y788751D01*
X-658386Y788785D01*
X-658312Y788815D01*
X-658238Y788841D01*
X-658162Y788864D01*
X-658085Y788882D01*
X-658008Y788898D01*
X-657929Y788909D01*
X-657851Y788917D01*
X-657772Y788921D01*
X-657692Y788921D01*
X-657613Y788917D01*
X-657535Y788909D01*
X-657456Y788898D01*
X-657379Y788882D01*
X-657302Y788864D01*
X-657226Y788841D01*
X-657152Y788815D01*
X-657078Y788785D01*
X-657006Y788751D01*
X-656936Y788715D01*
X-656868Y788675D01*
X-656802Y788631D01*
X-656738Y788585D01*
X-656676Y788535D01*
X-656617Y788483D01*
X-656561Y788427D01*
X-656507Y788370D01*
X-656456Y788309D01*
X-656408Y788246D01*
X-656363Y788181D01*
X-656321Y788114D01*
X-656283Y788045D01*
X-656247Y787974D01*
X-656216Y787901D01*
X-656188Y787827D01*
X-656163Y787752D01*
X-656143Y787676D01*
X-656125Y787599D01*
X-656112Y787521D01*
X-656103Y787442D01*
X-656097Y787363D01*
X-656095Y787284D01*
X-656097Y787205D01*
X-656103Y787126D01*
X-656112Y787047D01*
X-656125Y786969D01*
X-656143Y786892D01*
X-656163Y786816D01*
X-656188Y786741D01*
X-656216Y786667D01*
X-656247Y786594D01*
X-656283Y786523D01*
X-656321Y786454D01*
X-656363Y786387D01*
X-656408Y786322D01*
X-656456Y786259D01*
X-656507Y786198D01*
X-656561Y786141D01*
X-656617Y786085D01*
X-656676Y786033D01*
X-656738Y785983D01*
X-656802Y785937D01*
X-656868Y785893D01*
X-656936Y785853D01*
X-657006Y785817D01*
X-657078Y785783D01*
X-657152Y785753D01*
X-657226Y785727D01*
X-657302Y785704D01*
X-657379Y785686D01*
X-657456Y785670D01*
X-657535Y785659D01*
X-657613Y785651D01*
X-657692Y785647D01*
X-657772Y785647D01*
X-657851Y785651D01*
X-657929Y785659D01*
X-658008Y785670D01*
X-658085Y785686D01*
X-658162Y785704D01*
X-658238Y785727D01*
X-658312Y785753D01*
X-658386Y785783D01*
X-658458Y785817D01*
X-658528Y785853D01*
X-658596Y785893D01*
X-658662Y785937D01*
X-658726Y785983D01*
X-658788Y786033D01*
X-658847Y786085D01*
X-658903Y786141D01*
X-658957Y786198D01*
X-659008Y786259D01*
X-659056Y786322D01*
X-659101Y786387D01*
X-659143Y786454D01*
X-659181Y786523D01*
X-659217Y786594D01*
X-659248Y786667D01*
X-659276Y786741D01*
X-659301Y786816D01*
X-659321Y786892D01*
X-659339Y786969D01*
X-659352Y787047D01*
X-659361Y787126D01*
X-659367Y787205D01*
X-659369Y787284D01*
D11*
X-877250Y749425D02*
X-877250Y746425D01*
X-877250Y749425D02*
X-874250Y749425D01*
X-840250Y749425D02*
X-837250Y749425D01*
X-837250Y746425D01*
X-837250Y714425D02*
X-837250Y711425D01*
X-840250Y711425D01*
X-874250Y711425D02*
X-877250Y711425D01*
X-877250Y714425D01*
D12*
X-867496Y756742D02*
X-867496Y764108D01*
X-868314Y756742D02*
X-866677Y756742D01*
X-866677Y764108D02*
X-868314Y764108D01*
X-862076Y756742D02*
X-860439Y756742D01*
X-862076Y756742D02*
X-862154Y756744D01*
X-862232Y756749D01*
X-862309Y756759D01*
X-862386Y756772D01*
X-862462Y756788D01*
X-862537Y756808D01*
X-862611Y756832D01*
X-862684Y756859D01*
X-862756Y756890D01*
X-862826Y756924D01*
X-862895Y756961D01*
X-862961Y757002D01*
X-863026Y757046D01*
X-863088Y757092D01*
X-863148Y757142D01*
X-863206Y757194D01*
X-863261Y757249D01*
X-863313Y757307D01*
X-863363Y757367D01*
X-863409Y757429D01*
X-863453Y757494D01*
X-863494Y757561D01*
X-863531Y757629D01*
X-863565Y757699D01*
X-863596Y757771D01*
X-863623Y757844D01*
X-863647Y757918D01*
X-863667Y757993D01*
X-863683Y758069D01*
X-863696Y758146D01*
X-863706Y758223D01*
X-863711Y758301D01*
X-863713Y758379D01*
X-863713Y762471D01*
X-863711Y762549D01*
X-863706Y762627D01*
X-863696Y762704D01*
X-863683Y762781D01*
X-863667Y762857D01*
X-863647Y762932D01*
X-863623Y763006D01*
X-863596Y763079D01*
X-863565Y763151D01*
X-863531Y763221D01*
X-863494Y763290D01*
X-863453Y763356D01*
X-863409Y763421D01*
X-863363Y763483D01*
X-863313Y763543D01*
X-863261Y763601D01*
X-863206Y763656D01*
X-863148Y763708D01*
X-863088Y763758D01*
X-863026Y763804D01*
X-862961Y763848D01*
X-862895Y763889D01*
X-862826Y763926D01*
X-862756Y763960D01*
X-862684Y763991D01*
X-862611Y764018D01*
X-862537Y764042D01*
X-862462Y764062D01*
X-862386Y764078D01*
X-862309Y764091D01*
X-862232Y764101D01*
X-862154Y764106D01*
X-862076Y764108D01*
X-860439Y764108D01*
X-857593Y762471D02*
X-855547Y764108D01*
X-855547Y756742D01*
X-857593Y756742D02*
X-853501Y756742D01*
X-848641Y760016D02*
X-846186Y760016D01*
X-848641Y760016D02*
X-848719Y760018D01*
X-848797Y760023D01*
X-848874Y760033D01*
X-848951Y760046D01*
X-849027Y760062D01*
X-849102Y760082D01*
X-849176Y760106D01*
X-849249Y760133D01*
X-849321Y760164D01*
X-849391Y760198D01*
X-849460Y760235D01*
X-849526Y760276D01*
X-849591Y760320D01*
X-849653Y760366D01*
X-849713Y760416D01*
X-849771Y760468D01*
X-849826Y760523D01*
X-849878Y760581D01*
X-849928Y760641D01*
X-849974Y760703D01*
X-850018Y760768D01*
X-850059Y760835D01*
X-850096Y760903D01*
X-850130Y760973D01*
X-850161Y761045D01*
X-850188Y761118D01*
X-850212Y761192D01*
X-850232Y761267D01*
X-850248Y761343D01*
X-850261Y761420D01*
X-850271Y761497D01*
X-850276Y761575D01*
X-850278Y761653D01*
X-850278Y762062D01*
X-850276Y762151D01*
X-850270Y762240D01*
X-850260Y762329D01*
X-850247Y762417D01*
X-850230Y762505D01*
X-850208Y762592D01*
X-850183Y762677D01*
X-850155Y762762D01*
X-850122Y762845D01*
X-850086Y762927D01*
X-850047Y763007D01*
X-850004Y763085D01*
X-849958Y763161D01*
X-849908Y763236D01*
X-849855Y763308D01*
X-849799Y763377D01*
X-849740Y763444D01*
X-849679Y763509D01*
X-849614Y763570D01*
X-849547Y763629D01*
X-849478Y763685D01*
X-849406Y763738D01*
X-849331Y763788D01*
X-849255Y763834D01*
X-849177Y763877D01*
X-849097Y763916D01*
X-849015Y763952D01*
X-848932Y763985D01*
X-848847Y764013D01*
X-848762Y764038D01*
X-848675Y764060D01*
X-848587Y764077D01*
X-848499Y764090D01*
X-848410Y764100D01*
X-848321Y764106D01*
X-848232Y764108D01*
X-848143Y764106D01*
X-848054Y764100D01*
X-847965Y764090D01*
X-847877Y764077D01*
X-847789Y764060D01*
X-847702Y764038D01*
X-847617Y764013D01*
X-847532Y763985D01*
X-847449Y763952D01*
X-847367Y763916D01*
X-847287Y763877D01*
X-847209Y763834D01*
X-847133Y763788D01*
X-847058Y763738D01*
X-846986Y763685D01*
X-846917Y763629D01*
X-846850Y763570D01*
X-846785Y763509D01*
X-846724Y763444D01*
X-846665Y763377D01*
X-846609Y763308D01*
X-846556Y763236D01*
X-846506Y763161D01*
X-846460Y763085D01*
X-846417Y763007D01*
X-846378Y762927D01*
X-846342Y762845D01*
X-846309Y762762D01*
X-846281Y762677D01*
X-846256Y762592D01*
X-846234Y762505D01*
X-846217Y762417D01*
X-846204Y762329D01*
X-846194Y762240D01*
X-846188Y762151D01*
X-846186Y762062D01*
X-846186Y760016D01*
X-846188Y759904D01*
X-846194Y759793D01*
X-846203Y759681D01*
X-846216Y759570D01*
X-846234Y759460D01*
X-846254Y759350D01*
X-846279Y759241D01*
X-846307Y759133D01*
X-846339Y759026D01*
X-846375Y758920D01*
X-846414Y758815D01*
X-846457Y758712D01*
X-846503Y758610D01*
X-846553Y758510D01*
X-846606Y758411D01*
X-846663Y758315D01*
X-846722Y758220D01*
X-846785Y758128D01*
X-846851Y758038D01*
X-846920Y757950D01*
X-846992Y757864D01*
X-847067Y757781D01*
X-847145Y757701D01*
X-847225Y757623D01*
X-847308Y757548D01*
X-847394Y757476D01*
X-847482Y757407D01*
X-847572Y757341D01*
X-847664Y757278D01*
X-847759Y757219D01*
X-847855Y757162D01*
X-847954Y757109D01*
X-848054Y757059D01*
X-848156Y757013D01*
X-848259Y756970D01*
X-848364Y756931D01*
X-848470Y756895D01*
X-848577Y756863D01*
X-848685Y756835D01*
X-848794Y756810D01*
X-848904Y756790D01*
X-849014Y756772D01*
X-849125Y756759D01*
X-849237Y756750D01*
X-849348Y756744D01*
X-849460Y756742D01*
D11*
X-1067750Y729613D02*
X-1067750Y726613D01*
X-1067750Y729613D02*
X-1064750Y729613D01*
X-1030750Y729613D02*
X-1027750Y729613D01*
X-1027750Y726613D01*
X-1027750Y694613D02*
X-1027750Y691613D01*
X-1030750Y691613D01*
X-1064750Y691613D02*
X-1067750Y691613D01*
X-1067750Y694613D01*
D12*
X-1057996Y736930D02*
X-1057996Y744296D01*
X-1058814Y736930D02*
X-1057177Y736930D01*
X-1057177Y744296D02*
X-1058814Y744296D01*
X-1052576Y736930D02*
X-1050939Y736930D01*
X-1052576Y736929D02*
X-1052654Y736931D01*
X-1052732Y736936D01*
X-1052809Y736946D01*
X-1052886Y736959D01*
X-1052962Y736975D01*
X-1053037Y736995D01*
X-1053111Y737019D01*
X-1053184Y737046D01*
X-1053256Y737077D01*
X-1053326Y737111D01*
X-1053395Y737148D01*
X-1053461Y737189D01*
X-1053526Y737233D01*
X-1053588Y737279D01*
X-1053648Y737329D01*
X-1053706Y737381D01*
X-1053761Y737436D01*
X-1053813Y737494D01*
X-1053863Y737554D01*
X-1053909Y737616D01*
X-1053953Y737681D01*
X-1053994Y737748D01*
X-1054031Y737816D01*
X-1054065Y737886D01*
X-1054096Y737958D01*
X-1054123Y738031D01*
X-1054147Y738105D01*
X-1054167Y738180D01*
X-1054183Y738256D01*
X-1054196Y738333D01*
X-1054206Y738410D01*
X-1054211Y738488D01*
X-1054213Y738566D01*
X-1054213Y742659D01*
X-1054211Y742737D01*
X-1054206Y742815D01*
X-1054196Y742892D01*
X-1054183Y742969D01*
X-1054167Y743045D01*
X-1054147Y743120D01*
X-1054123Y743194D01*
X-1054096Y743267D01*
X-1054065Y743339D01*
X-1054031Y743409D01*
X-1053994Y743478D01*
X-1053953Y743544D01*
X-1053909Y743609D01*
X-1053863Y743671D01*
X-1053813Y743731D01*
X-1053761Y743789D01*
X-1053706Y743844D01*
X-1053648Y743896D01*
X-1053588Y743946D01*
X-1053526Y743992D01*
X-1053461Y744036D01*
X-1053395Y744077D01*
X-1053326Y744114D01*
X-1053256Y744148D01*
X-1053184Y744179D01*
X-1053111Y744206D01*
X-1053037Y744230D01*
X-1052962Y744250D01*
X-1052886Y744266D01*
X-1052809Y744279D01*
X-1052732Y744289D01*
X-1052654Y744294D01*
X-1052576Y744296D01*
X-1050939Y744296D01*
X-1045843Y744296D02*
X-1045758Y744294D01*
X-1045673Y744288D01*
X-1045589Y744278D01*
X-1045505Y744265D01*
X-1045421Y744247D01*
X-1045339Y744226D01*
X-1045258Y744201D01*
X-1045178Y744172D01*
X-1045099Y744139D01*
X-1045022Y744103D01*
X-1044947Y744063D01*
X-1044873Y744020D01*
X-1044802Y743974D01*
X-1044733Y743924D01*
X-1044666Y743871D01*
X-1044602Y743815D01*
X-1044541Y743756D01*
X-1044482Y743695D01*
X-1044426Y743631D01*
X-1044373Y743564D01*
X-1044323Y743495D01*
X-1044277Y743424D01*
X-1044234Y743350D01*
X-1044194Y743275D01*
X-1044158Y743198D01*
X-1044125Y743119D01*
X-1044096Y743039D01*
X-1044071Y742958D01*
X-1044050Y742876D01*
X-1044032Y742792D01*
X-1044019Y742708D01*
X-1044009Y742624D01*
X-1044003Y742539D01*
X-1044001Y742454D01*
X-1045843Y744296D02*
X-1045939Y744294D01*
X-1046035Y744288D01*
X-1046130Y744278D01*
X-1046225Y744265D01*
X-1046320Y744247D01*
X-1046413Y744226D01*
X-1046506Y744201D01*
X-1046597Y744172D01*
X-1046688Y744140D01*
X-1046777Y744104D01*
X-1046864Y744064D01*
X-1046950Y744021D01*
X-1047034Y743975D01*
X-1047116Y743925D01*
X-1047196Y743871D01*
X-1047273Y743815D01*
X-1047348Y743755D01*
X-1047421Y743693D01*
X-1047491Y743627D01*
X-1047559Y743559D01*
X-1047624Y743488D01*
X-1047685Y743415D01*
X-1047744Y743339D01*
X-1047800Y743260D01*
X-1047852Y743180D01*
X-1047901Y743097D01*
X-1047947Y743013D01*
X-1047989Y742927D01*
X-1048027Y742839D01*
X-1048062Y742750D01*
X-1048094Y742659D01*
X-1044615Y741022D02*
X-1044555Y741081D01*
X-1044498Y741143D01*
X-1044443Y741207D01*
X-1044392Y741274D01*
X-1044343Y741343D01*
X-1044297Y741413D01*
X-1044254Y741486D01*
X-1044214Y741560D01*
X-1044178Y741636D01*
X-1044145Y741714D01*
X-1044115Y741793D01*
X-1044088Y741873D01*
X-1044065Y741954D01*
X-1044046Y742036D01*
X-1044030Y742118D01*
X-1044017Y742202D01*
X-1044008Y742286D01*
X-1044003Y742370D01*
X-1044001Y742454D01*
X-1044615Y741022D02*
X-1048093Y736930D01*
X-1044001Y736930D01*
X-1040778Y740613D02*
X-1040776Y740766D01*
X-1040770Y740919D01*
X-1040761Y741071D01*
X-1040747Y741224D01*
X-1040730Y741376D01*
X-1040709Y741527D01*
X-1040684Y741678D01*
X-1040655Y741828D01*
X-1040623Y741978D01*
X-1040586Y742126D01*
X-1040546Y742274D01*
X-1040503Y742421D01*
X-1040455Y742566D01*
X-1040404Y742710D01*
X-1040350Y742853D01*
X-1040291Y742995D01*
X-1040230Y743134D01*
X-1040164Y743273D01*
X-1040164Y743272D02*
X-1040138Y743342D01*
X-1040108Y743411D01*
X-1040076Y743479D01*
X-1040039Y743545D01*
X-1040000Y743609D01*
X-1039957Y743671D01*
X-1039912Y743730D01*
X-1039863Y743788D01*
X-1039812Y743842D01*
X-1039758Y743895D01*
X-1039701Y743944D01*
X-1039642Y743991D01*
X-1039581Y744034D01*
X-1039518Y744075D01*
X-1039453Y744112D01*
X-1039386Y744147D01*
X-1039317Y744177D01*
X-1039247Y744205D01*
X-1039176Y744228D01*
X-1039104Y744249D01*
X-1039031Y744265D01*
X-1038957Y744278D01*
X-1038882Y744288D01*
X-1038807Y744293D01*
X-1038732Y744295D01*
X-1038657Y744293D01*
X-1038582Y744288D01*
X-1038507Y744278D01*
X-1038433Y744265D01*
X-1038360Y744249D01*
X-1038288Y744228D01*
X-1038217Y744205D01*
X-1038147Y744177D01*
X-1038078Y744147D01*
X-1038011Y744112D01*
X-1037946Y744075D01*
X-1037883Y744034D01*
X-1037822Y743991D01*
X-1037763Y743944D01*
X-1037706Y743895D01*
X-1037652Y743842D01*
X-1037601Y743788D01*
X-1037553Y743730D01*
X-1037507Y743671D01*
X-1037464Y743609D01*
X-1037425Y743545D01*
X-1037389Y743479D01*
X-1037356Y743412D01*
X-1037326Y743342D01*
X-1037300Y743272D01*
X-1037300Y743273D02*
X-1037235Y743135D01*
X-1037173Y742995D01*
X-1037115Y742853D01*
X-1037060Y742710D01*
X-1037009Y742566D01*
X-1036961Y742421D01*
X-1036918Y742274D01*
X-1036878Y742127D01*
X-1036841Y741978D01*
X-1036809Y741828D01*
X-1036780Y741678D01*
X-1036755Y741527D01*
X-1036734Y741376D01*
X-1036717Y741224D01*
X-1036703Y741071D01*
X-1036694Y740919D01*
X-1036688Y740766D01*
X-1036686Y740613D01*
X-1040779Y740613D02*
X-1040777Y740460D01*
X-1040771Y740307D01*
X-1040762Y740154D01*
X-1040748Y740002D01*
X-1040731Y739850D01*
X-1040710Y739699D01*
X-1040685Y739548D01*
X-1040656Y739397D01*
X-1040624Y739248D01*
X-1040587Y739099D01*
X-1040547Y738952D01*
X-1040504Y738805D01*
X-1040456Y738660D01*
X-1040405Y738515D01*
X-1040350Y738373D01*
X-1040292Y738231D01*
X-1040230Y738091D01*
X-1040165Y737953D01*
X-1040164Y737953D02*
X-1040138Y737883D01*
X-1040108Y737813D01*
X-1040076Y737746D01*
X-1040039Y737680D01*
X-1040000Y737616D01*
X-1039957Y737554D01*
X-1039911Y737495D01*
X-1039863Y737437D01*
X-1039812Y737383D01*
X-1039758Y737330D01*
X-1039701Y737281D01*
X-1039642Y737234D01*
X-1039581Y737191D01*
X-1039518Y737150D01*
X-1039453Y737113D01*
X-1039386Y737078D01*
X-1039317Y737048D01*
X-1039247Y737020D01*
X-1039176Y736997D01*
X-1039104Y736976D01*
X-1039031Y736960D01*
X-1038957Y736947D01*
X-1038882Y736937D01*
X-1038807Y736932D01*
X-1038732Y736930D01*
X-1037300Y737953D02*
X-1037235Y738091D01*
X-1037173Y738231D01*
X-1037115Y738373D01*
X-1037060Y738516D01*
X-1037009Y738660D01*
X-1036961Y738805D01*
X-1036918Y738952D01*
X-1036878Y739100D01*
X-1036841Y739248D01*
X-1036809Y739398D01*
X-1036780Y739548D01*
X-1036755Y739699D01*
X-1036734Y739850D01*
X-1036717Y740002D01*
X-1036703Y740155D01*
X-1036694Y740307D01*
X-1036688Y740460D01*
X-1036686Y740613D01*
X-1037300Y737953D02*
X-1037326Y737882D01*
X-1037356Y737813D01*
X-1037389Y737746D01*
X-1037425Y737680D01*
X-1037464Y737616D01*
X-1037507Y737554D01*
X-1037553Y737495D01*
X-1037601Y737437D01*
X-1037652Y737383D01*
X-1037706Y737330D01*
X-1037763Y737281D01*
X-1037822Y737234D01*
X-1037883Y737191D01*
X-1037946Y737150D01*
X-1038011Y737113D01*
X-1038078Y737078D01*
X-1038147Y737048D01*
X-1038217Y737020D01*
X-1038288Y736997D01*
X-1038360Y736976D01*
X-1038433Y736960D01*
X-1038507Y736947D01*
X-1038582Y736937D01*
X-1038657Y736932D01*
X-1038732Y736930D01*
X-1040369Y738566D02*
X-1037095Y742659D01*
X-1328734Y474136D02*
X-1325051Y467756D01*
X-1325760Y467347D02*
X-1324343Y468166D01*
X-1328026Y474545D02*
X-1329443Y473726D01*
X-1320358Y470466D02*
X-1318940Y471285D01*
X-1320357Y470466D02*
X-1320426Y470429D01*
X-1320496Y470395D01*
X-1320568Y470364D01*
X-1320641Y470337D01*
X-1320715Y470313D01*
X-1320790Y470293D01*
X-1320866Y470277D01*
X-1320943Y470264D01*
X-1321020Y470254D01*
X-1321098Y470249D01*
X-1321176Y470247D01*
X-1321254Y470249D01*
X-1321332Y470254D01*
X-1321409Y470264D01*
X-1321486Y470277D01*
X-1321562Y470293D01*
X-1321637Y470313D01*
X-1321711Y470337D01*
X-1321784Y470364D01*
X-1321856Y470395D01*
X-1321926Y470429D01*
X-1321995Y470466D01*
X-1322061Y470507D01*
X-1322126Y470551D01*
X-1322188Y470597D01*
X-1322248Y470647D01*
X-1322306Y470699D01*
X-1322361Y470754D01*
X-1322413Y470812D01*
X-1322463Y470872D01*
X-1322509Y470934D01*
X-1322553Y470999D01*
X-1322594Y471066D01*
X-1322594Y471065D02*
X-1324640Y474609D01*
X-1324640Y474610D02*
X-1324678Y474680D01*
X-1324713Y474752D01*
X-1324744Y474826D01*
X-1324772Y474902D01*
X-1324796Y474979D01*
X-1324816Y475056D01*
X-1324833Y475135D01*
X-1324845Y475214D01*
X-1324854Y475294D01*
X-1324858Y475374D01*
X-1324859Y475455D01*
X-1324855Y475535D01*
X-1324848Y475615D01*
X-1324837Y475695D01*
X-1324822Y475774D01*
X-1324803Y475852D01*
X-1324781Y475929D01*
X-1324754Y476005D01*
X-1324724Y476079D01*
X-1324690Y476152D01*
X-1324653Y476223D01*
X-1324612Y476292D01*
X-1324568Y476360D01*
X-1324521Y476425D01*
X-1324470Y476487D01*
X-1324417Y476547D01*
X-1324360Y476604D01*
X-1324301Y476659D01*
X-1324240Y476710D01*
X-1324176Y476759D01*
X-1324109Y476804D01*
X-1324041Y476846D01*
X-1324041Y476845D02*
X-1322623Y477664D01*
X-1318210Y480212D02*
X-1318135Y480253D01*
X-1318059Y480290D01*
X-1317981Y480324D01*
X-1317901Y480354D01*
X-1317820Y480381D01*
X-1317738Y480403D01*
X-1317655Y480422D01*
X-1317572Y480437D01*
X-1317487Y480448D01*
X-1317402Y480456D01*
X-1317317Y480459D01*
X-1317232Y480458D01*
X-1317147Y480454D01*
X-1317063Y480445D01*
X-1316978Y480433D01*
X-1316895Y480416D01*
X-1316812Y480396D01*
X-1316731Y480372D01*
X-1316650Y480345D01*
X-1316571Y480313D01*
X-1316493Y480278D01*
X-1316418Y480240D01*
X-1316344Y480198D01*
X-1316272Y480152D01*
X-1316202Y480104D01*
X-1316134Y480052D01*
X-1316069Y479997D01*
X-1316007Y479939D01*
X-1315947Y479879D01*
X-1315890Y479815D01*
X-1315836Y479750D01*
X-1315786Y479681D01*
X-1315738Y479611D01*
X-1315694Y479538D01*
X-1318210Y480212D02*
X-1318292Y480162D01*
X-1318372Y480109D01*
X-1318450Y480053D01*
X-1318525Y479994D01*
X-1318598Y479932D01*
X-1318669Y479867D01*
X-1318737Y479799D01*
X-1318802Y479728D01*
X-1318864Y479655D01*
X-1318923Y479579D01*
X-1318978Y479501D01*
X-1319031Y479421D01*
X-1319080Y479338D01*
X-1319126Y479254D01*
X-1319169Y479168D01*
X-1319208Y479080D01*
X-1319243Y478991D01*
X-1319275Y478900D01*
X-1319303Y478809D01*
X-1319328Y478716D01*
X-1319348Y478622D01*
X-1319365Y478528D01*
X-1319378Y478432D01*
X-1319387Y478337D01*
X-1319392Y478241D01*
X-1319393Y478145D01*
X-1319390Y478049D01*
X-1319384Y477953D01*
X-1319373Y477858D01*
X-1319359Y477763D01*
X-1319341Y477669D01*
X-1315509Y477991D02*
X-1315487Y478072D01*
X-1315469Y478154D01*
X-1315454Y478237D01*
X-1315442Y478321D01*
X-1315434Y478405D01*
X-1315430Y478489D01*
X-1315429Y478573D01*
X-1315432Y478657D01*
X-1315438Y478741D01*
X-1315448Y478825D01*
X-1315462Y478908D01*
X-1315479Y478991D01*
X-1315500Y479073D01*
X-1315524Y479153D01*
X-1315551Y479233D01*
X-1315582Y479311D01*
X-1315616Y479388D01*
X-1315653Y479464D01*
X-1315694Y479538D01*
X-1315510Y477991D02*
X-1316476Y472707D01*
X-1312932Y474754D01*
X-1313005Y481327D02*
X-1312052Y483767D01*
X-1308369Y477388D01*
X-1310141Y476365D02*
X-1306597Y478411D01*
D11*
X-1329841Y456542D02*
X-1328341Y453944D01*
X-1329841Y456542D02*
X-1327242Y458042D01*
X-1297798Y475042D02*
X-1295199Y476542D01*
X-1293699Y473944D01*
X-1277699Y446232D02*
X-1276199Y443634D01*
X-1278798Y442134D01*
X-1308242Y425134D02*
X-1310841Y423634D01*
X-1312341Y426232D01*
D12*
X-1489389Y371986D02*
X-1493072Y378365D01*
X-1490098Y371577D02*
X-1488681Y372395D01*
X-1492364Y378774D02*
X-1493781Y377956D01*
X-1484696Y374696D02*
X-1483278Y375514D01*
X-1484695Y374695D02*
X-1484764Y374658D01*
X-1484834Y374624D01*
X-1484906Y374593D01*
X-1484979Y374566D01*
X-1485053Y374542D01*
X-1485128Y374522D01*
X-1485204Y374506D01*
X-1485281Y374493D01*
X-1485358Y374483D01*
X-1485436Y374478D01*
X-1485514Y374476D01*
X-1485592Y374478D01*
X-1485670Y374483D01*
X-1485747Y374493D01*
X-1485824Y374506D01*
X-1485900Y374522D01*
X-1485975Y374542D01*
X-1486049Y374566D01*
X-1486122Y374593D01*
X-1486194Y374624D01*
X-1486264Y374658D01*
X-1486333Y374695D01*
X-1486399Y374736D01*
X-1486464Y374780D01*
X-1486526Y374826D01*
X-1486586Y374876D01*
X-1486644Y374928D01*
X-1486699Y374983D01*
X-1486751Y375041D01*
X-1486801Y375101D01*
X-1486847Y375163D01*
X-1486891Y375228D01*
X-1486932Y375295D01*
X-1488978Y378839D01*
X-1489016Y378909D01*
X-1489051Y378981D01*
X-1489082Y379055D01*
X-1489110Y379131D01*
X-1489134Y379208D01*
X-1489154Y379285D01*
X-1489171Y379364D01*
X-1489183Y379443D01*
X-1489192Y379523D01*
X-1489196Y379603D01*
X-1489197Y379684D01*
X-1489193Y379764D01*
X-1489186Y379844D01*
X-1489175Y379924D01*
X-1489160Y380003D01*
X-1489141Y380081D01*
X-1489119Y380158D01*
X-1489092Y380234D01*
X-1489062Y380308D01*
X-1489028Y380381D01*
X-1488991Y380452D01*
X-1488950Y380521D01*
X-1488906Y380589D01*
X-1488859Y380654D01*
X-1488808Y380716D01*
X-1488755Y380776D01*
X-1488698Y380833D01*
X-1488639Y380888D01*
X-1488578Y380939D01*
X-1488514Y380988D01*
X-1488447Y381033D01*
X-1488379Y381075D01*
X-1486961Y381893D01*
X-1482548Y384441D02*
X-1482473Y384482D01*
X-1482397Y384519D01*
X-1482319Y384553D01*
X-1482239Y384583D01*
X-1482158Y384610D01*
X-1482076Y384632D01*
X-1481993Y384651D01*
X-1481910Y384666D01*
X-1481825Y384677D01*
X-1481740Y384685D01*
X-1481655Y384688D01*
X-1481570Y384687D01*
X-1481485Y384683D01*
X-1481401Y384674D01*
X-1481316Y384662D01*
X-1481233Y384645D01*
X-1481150Y384625D01*
X-1481069Y384601D01*
X-1480988Y384574D01*
X-1480909Y384542D01*
X-1480831Y384507D01*
X-1480756Y384469D01*
X-1480682Y384427D01*
X-1480610Y384381D01*
X-1480540Y384333D01*
X-1480472Y384281D01*
X-1480407Y384226D01*
X-1480345Y384168D01*
X-1480285Y384108D01*
X-1480228Y384044D01*
X-1480174Y383979D01*
X-1480124Y383910D01*
X-1480076Y383840D01*
X-1480032Y383767D01*
X-1482548Y384441D02*
X-1482630Y384391D01*
X-1482710Y384338D01*
X-1482788Y384282D01*
X-1482863Y384223D01*
X-1482936Y384161D01*
X-1483007Y384096D01*
X-1483075Y384028D01*
X-1483140Y383957D01*
X-1483202Y383884D01*
X-1483261Y383808D01*
X-1483316Y383730D01*
X-1483369Y383650D01*
X-1483418Y383567D01*
X-1483464Y383483D01*
X-1483507Y383397D01*
X-1483546Y383309D01*
X-1483581Y383220D01*
X-1483613Y383129D01*
X-1483641Y383038D01*
X-1483666Y382945D01*
X-1483686Y382851D01*
X-1483703Y382757D01*
X-1483716Y382661D01*
X-1483725Y382566D01*
X-1483730Y382470D01*
X-1483731Y382374D01*
X-1483728Y382278D01*
X-1483722Y382182D01*
X-1483711Y382087D01*
X-1483697Y381992D01*
X-1483679Y381898D01*
X-1479847Y382220D02*
X-1479825Y382301D01*
X-1479807Y382383D01*
X-1479792Y382466D01*
X-1479780Y382550D01*
X-1479772Y382634D01*
X-1479768Y382718D01*
X-1479767Y382802D01*
X-1479770Y382886D01*
X-1479776Y382970D01*
X-1479786Y383054D01*
X-1479800Y383137D01*
X-1479817Y383220D01*
X-1479838Y383302D01*
X-1479862Y383382D01*
X-1479889Y383462D01*
X-1479920Y383540D01*
X-1479954Y383617D01*
X-1479991Y383693D01*
X-1480032Y383767D01*
X-1479848Y382220D02*
X-1480814Y376937D01*
X-1477270Y378983D01*
X-1473697Y387425D02*
X-1473741Y387498D01*
X-1473789Y387568D01*
X-1473839Y387637D01*
X-1473893Y387702D01*
X-1473950Y387766D01*
X-1474010Y387826D01*
X-1474072Y387884D01*
X-1474137Y387939D01*
X-1474205Y387991D01*
X-1474275Y388039D01*
X-1474347Y388085D01*
X-1474421Y388127D01*
X-1474496Y388165D01*
X-1474574Y388200D01*
X-1474653Y388232D01*
X-1474734Y388259D01*
X-1474815Y388283D01*
X-1474898Y388303D01*
X-1474981Y388320D01*
X-1475066Y388332D01*
X-1475150Y388341D01*
X-1475235Y388345D01*
X-1475320Y388346D01*
X-1475405Y388343D01*
X-1475490Y388335D01*
X-1475575Y388324D01*
X-1475658Y388309D01*
X-1475741Y388290D01*
X-1475823Y388268D01*
X-1475904Y388241D01*
X-1475984Y388211D01*
X-1476062Y388177D01*
X-1476138Y388140D01*
X-1476213Y388099D01*
X-1476295Y388049D01*
X-1476375Y387996D01*
X-1476453Y387940D01*
X-1476528Y387881D01*
X-1476601Y387819D01*
X-1476672Y387754D01*
X-1476740Y387686D01*
X-1476805Y387615D01*
X-1476867Y387542D01*
X-1476926Y387466D01*
X-1476981Y387388D01*
X-1477034Y387308D01*
X-1477083Y387225D01*
X-1477129Y387141D01*
X-1477172Y387055D01*
X-1477211Y386967D01*
X-1477246Y386878D01*
X-1477278Y386787D01*
X-1477306Y386696D01*
X-1477331Y386603D01*
X-1477351Y386509D01*
X-1477368Y386415D01*
X-1477381Y386319D01*
X-1477390Y386224D01*
X-1477395Y386128D01*
X-1477396Y386032D01*
X-1477393Y385936D01*
X-1477387Y385840D01*
X-1477376Y385745D01*
X-1477362Y385650D01*
X-1477344Y385556D01*
X-1473512Y385878D02*
X-1473490Y385959D01*
X-1473472Y386041D01*
X-1473457Y386124D01*
X-1473445Y386208D01*
X-1473437Y386292D01*
X-1473433Y386376D01*
X-1473432Y386460D01*
X-1473435Y386544D01*
X-1473441Y386628D01*
X-1473451Y386712D01*
X-1473465Y386795D01*
X-1473482Y386878D01*
X-1473503Y386960D01*
X-1473527Y387040D01*
X-1473554Y387120D01*
X-1473585Y387198D01*
X-1473619Y387275D01*
X-1473656Y387351D01*
X-1473697Y387425D01*
X-1473512Y385877D02*
X-1474479Y380594D01*
X-1470935Y382640D01*
D11*
X-1494179Y360772D02*
X-1492679Y358174D01*
X-1494179Y360772D02*
X-1491580Y362272D01*
X-1462136Y379272D02*
X-1459537Y380772D01*
X-1458037Y378174D01*
X-1442037Y350461D02*
X-1440537Y347863D01*
X-1443136Y346363D01*
X-1472580Y329363D02*
X-1475179Y327863D01*
X-1476679Y330461D01*
X-1027750Y501113D02*
X-1027750Y504113D01*
X-1027750Y501113D02*
X-1030750Y501113D01*
X-1064750Y501113D02*
X-1067750Y501113D01*
X-1067750Y504113D01*
X-1067750Y536113D02*
X-1067750Y539113D01*
X-1064750Y539113D01*
X-1030750Y539113D02*
X-1027750Y539113D01*
X-1027750Y536113D01*
D12*
X-1057996Y546430D02*
X-1057996Y553796D01*
X-1058814Y546430D02*
X-1057177Y546430D01*
X-1057177Y553796D02*
X-1058814Y553796D01*
X-1052576Y546430D02*
X-1050939Y546430D01*
X-1052576Y546429D02*
X-1052654Y546431D01*
X-1052732Y546436D01*
X-1052809Y546446D01*
X-1052886Y546459D01*
X-1052962Y546475D01*
X-1053037Y546495D01*
X-1053111Y546519D01*
X-1053184Y546546D01*
X-1053256Y546577D01*
X-1053326Y546611D01*
X-1053395Y546648D01*
X-1053461Y546689D01*
X-1053526Y546733D01*
X-1053588Y546779D01*
X-1053648Y546829D01*
X-1053706Y546881D01*
X-1053761Y546936D01*
X-1053813Y546994D01*
X-1053863Y547054D01*
X-1053909Y547116D01*
X-1053953Y547181D01*
X-1053994Y547248D01*
X-1054031Y547316D01*
X-1054065Y547386D01*
X-1054096Y547458D01*
X-1054123Y547531D01*
X-1054147Y547605D01*
X-1054167Y547680D01*
X-1054183Y547756D01*
X-1054196Y547833D01*
X-1054206Y547910D01*
X-1054211Y547988D01*
X-1054213Y548066D01*
X-1054213Y552159D01*
X-1054211Y552237D01*
X-1054206Y552315D01*
X-1054196Y552392D01*
X-1054183Y552469D01*
X-1054167Y552545D01*
X-1054147Y552620D01*
X-1054123Y552694D01*
X-1054096Y552767D01*
X-1054065Y552839D01*
X-1054031Y552909D01*
X-1053994Y552978D01*
X-1053953Y553044D01*
X-1053909Y553109D01*
X-1053863Y553171D01*
X-1053813Y553231D01*
X-1053761Y553289D01*
X-1053706Y553344D01*
X-1053648Y553396D01*
X-1053588Y553446D01*
X-1053526Y553492D01*
X-1053461Y553536D01*
X-1053395Y553577D01*
X-1053326Y553614D01*
X-1053256Y553648D01*
X-1053184Y553679D01*
X-1053111Y553706D01*
X-1053037Y553730D01*
X-1052962Y553750D01*
X-1052886Y553766D01*
X-1052809Y553779D01*
X-1052732Y553789D01*
X-1052654Y553794D01*
X-1052576Y553796D01*
X-1050939Y553796D01*
X-1045843Y553796D02*
X-1045758Y553794D01*
X-1045673Y553788D01*
X-1045589Y553778D01*
X-1045505Y553765D01*
X-1045421Y553747D01*
X-1045339Y553726D01*
X-1045258Y553701D01*
X-1045178Y553672D01*
X-1045099Y553639D01*
X-1045022Y553603D01*
X-1044947Y553563D01*
X-1044873Y553520D01*
X-1044802Y553474D01*
X-1044733Y553424D01*
X-1044666Y553371D01*
X-1044602Y553315D01*
X-1044541Y553256D01*
X-1044482Y553195D01*
X-1044426Y553131D01*
X-1044373Y553064D01*
X-1044323Y552995D01*
X-1044277Y552924D01*
X-1044234Y552850D01*
X-1044194Y552775D01*
X-1044158Y552698D01*
X-1044125Y552619D01*
X-1044096Y552539D01*
X-1044071Y552458D01*
X-1044050Y552376D01*
X-1044032Y552292D01*
X-1044019Y552208D01*
X-1044009Y552124D01*
X-1044003Y552039D01*
X-1044001Y551954D01*
X-1045843Y553796D02*
X-1045939Y553794D01*
X-1046035Y553788D01*
X-1046130Y553778D01*
X-1046225Y553765D01*
X-1046320Y553747D01*
X-1046413Y553726D01*
X-1046506Y553701D01*
X-1046597Y553672D01*
X-1046688Y553640D01*
X-1046777Y553604D01*
X-1046864Y553564D01*
X-1046950Y553521D01*
X-1047034Y553475D01*
X-1047116Y553425D01*
X-1047196Y553371D01*
X-1047273Y553315D01*
X-1047348Y553255D01*
X-1047421Y553193D01*
X-1047491Y553127D01*
X-1047559Y553059D01*
X-1047624Y552988D01*
X-1047685Y552915D01*
X-1047744Y552839D01*
X-1047800Y552760D01*
X-1047852Y552680D01*
X-1047901Y552597D01*
X-1047947Y552513D01*
X-1047989Y552427D01*
X-1048027Y552339D01*
X-1048062Y552250D01*
X-1048094Y552159D01*
X-1044615Y550522D02*
X-1044555Y550581D01*
X-1044498Y550643D01*
X-1044443Y550707D01*
X-1044392Y550774D01*
X-1044343Y550843D01*
X-1044297Y550913D01*
X-1044254Y550986D01*
X-1044214Y551060D01*
X-1044178Y551136D01*
X-1044145Y551214D01*
X-1044115Y551293D01*
X-1044088Y551373D01*
X-1044065Y551454D01*
X-1044046Y551536D01*
X-1044030Y551618D01*
X-1044017Y551702D01*
X-1044008Y551786D01*
X-1044003Y551870D01*
X-1044001Y551954D01*
X-1044615Y550522D02*
X-1048094Y546430D01*
X-1044001Y546430D01*
X-1040778Y546430D02*
X-1038732Y546430D01*
X-1038643Y546432D01*
X-1038554Y546438D01*
X-1038465Y546448D01*
X-1038377Y546461D01*
X-1038289Y546478D01*
X-1038202Y546500D01*
X-1038117Y546525D01*
X-1038032Y546553D01*
X-1037949Y546586D01*
X-1037867Y546622D01*
X-1037787Y546661D01*
X-1037709Y546704D01*
X-1037633Y546750D01*
X-1037558Y546800D01*
X-1037486Y546853D01*
X-1037417Y546909D01*
X-1037350Y546968D01*
X-1037285Y547029D01*
X-1037224Y547094D01*
X-1037165Y547161D01*
X-1037109Y547230D01*
X-1037056Y547302D01*
X-1037006Y547377D01*
X-1036960Y547453D01*
X-1036917Y547531D01*
X-1036878Y547611D01*
X-1036842Y547693D01*
X-1036809Y547776D01*
X-1036781Y547861D01*
X-1036756Y547946D01*
X-1036734Y548033D01*
X-1036717Y548121D01*
X-1036704Y548209D01*
X-1036694Y548298D01*
X-1036688Y548387D01*
X-1036686Y548476D01*
X-1036688Y548565D01*
X-1036694Y548654D01*
X-1036704Y548743D01*
X-1036717Y548831D01*
X-1036734Y548919D01*
X-1036756Y549006D01*
X-1036781Y549091D01*
X-1036809Y549176D01*
X-1036842Y549259D01*
X-1036878Y549341D01*
X-1036917Y549421D01*
X-1036960Y549499D01*
X-1037006Y549575D01*
X-1037056Y549650D01*
X-1037109Y549722D01*
X-1037165Y549791D01*
X-1037224Y549858D01*
X-1037285Y549923D01*
X-1037350Y549984D01*
X-1037417Y550043D01*
X-1037486Y550099D01*
X-1037558Y550152D01*
X-1037633Y550202D01*
X-1037709Y550248D01*
X-1037787Y550291D01*
X-1037867Y550330D01*
X-1037949Y550366D01*
X-1038032Y550399D01*
X-1038117Y550427D01*
X-1038202Y550452D01*
X-1038289Y550474D01*
X-1038377Y550491D01*
X-1038465Y550504D01*
X-1038554Y550514D01*
X-1038643Y550520D01*
X-1038732Y550522D01*
X-1038323Y553796D02*
X-1040778Y553796D01*
X-1038323Y553796D02*
X-1038244Y553794D01*
X-1038165Y553788D01*
X-1038086Y553779D01*
X-1038008Y553766D01*
X-1037931Y553748D01*
X-1037855Y553728D01*
X-1037780Y553703D01*
X-1037706Y553675D01*
X-1037633Y553644D01*
X-1037562Y553608D01*
X-1037493Y553570D01*
X-1037426Y553528D01*
X-1037361Y553483D01*
X-1037298Y553435D01*
X-1037237Y553384D01*
X-1037180Y553330D01*
X-1037124Y553274D01*
X-1037072Y553215D01*
X-1037022Y553153D01*
X-1036976Y553089D01*
X-1036932Y553023D01*
X-1036892Y552955D01*
X-1036856Y552885D01*
X-1036822Y552813D01*
X-1036792Y552739D01*
X-1036766Y552665D01*
X-1036743Y552589D01*
X-1036725Y552512D01*
X-1036709Y552435D01*
X-1036698Y552356D01*
X-1036690Y552278D01*
X-1036686Y552199D01*
X-1036686Y552119D01*
X-1036690Y552040D01*
X-1036698Y551962D01*
X-1036709Y551883D01*
X-1036725Y551806D01*
X-1036743Y551729D01*
X-1036766Y551653D01*
X-1036792Y551579D01*
X-1036822Y551505D01*
X-1036856Y551433D01*
X-1036892Y551363D01*
X-1036932Y551295D01*
X-1036976Y551229D01*
X-1037022Y551165D01*
X-1037072Y551103D01*
X-1037124Y551044D01*
X-1037180Y550988D01*
X-1037237Y550934D01*
X-1037298Y550883D01*
X-1037361Y550835D01*
X-1037426Y550790D01*
X-1037493Y550748D01*
X-1037562Y550710D01*
X-1037633Y550674D01*
X-1037706Y550643D01*
X-1037780Y550615D01*
X-1037855Y550590D01*
X-1037931Y550570D01*
X-1038008Y550552D01*
X-1038086Y550539D01*
X-1038165Y550530D01*
X-1038244Y550524D01*
X-1038323Y550522D01*
X-1039960Y550522D01*
D11*
X-837250Y523925D02*
X-837250Y520925D01*
X-840250Y520925D01*
X-874250Y520925D02*
X-877250Y520925D01*
X-877250Y523925D01*
X-877250Y555925D02*
X-877250Y558925D01*
X-874250Y558925D01*
X-840250Y558925D02*
X-837250Y558925D01*
X-837250Y555925D01*
D12*
X-867496Y566242D02*
X-867496Y573608D01*
X-868314Y566242D02*
X-866677Y566242D01*
X-866677Y573608D02*
X-868314Y573608D01*
X-862076Y566242D02*
X-860439Y566242D01*
X-862076Y566242D02*
X-862154Y566244D01*
X-862232Y566249D01*
X-862309Y566259D01*
X-862386Y566272D01*
X-862462Y566288D01*
X-862537Y566308D01*
X-862611Y566332D01*
X-862684Y566359D01*
X-862756Y566390D01*
X-862826Y566424D01*
X-862895Y566461D01*
X-862961Y566502D01*
X-863026Y566546D01*
X-863088Y566592D01*
X-863148Y566642D01*
X-863206Y566694D01*
X-863261Y566749D01*
X-863313Y566807D01*
X-863363Y566867D01*
X-863409Y566929D01*
X-863453Y566994D01*
X-863494Y567061D01*
X-863531Y567129D01*
X-863565Y567199D01*
X-863596Y567271D01*
X-863623Y567344D01*
X-863647Y567418D01*
X-863667Y567493D01*
X-863683Y567569D01*
X-863696Y567646D01*
X-863706Y567723D01*
X-863711Y567801D01*
X-863713Y567879D01*
X-863713Y571971D01*
X-863711Y572049D01*
X-863706Y572127D01*
X-863696Y572204D01*
X-863683Y572281D01*
X-863667Y572357D01*
X-863647Y572432D01*
X-863623Y572506D01*
X-863596Y572579D01*
X-863565Y572651D01*
X-863531Y572721D01*
X-863494Y572790D01*
X-863453Y572856D01*
X-863409Y572921D01*
X-863363Y572983D01*
X-863313Y573043D01*
X-863261Y573101D01*
X-863206Y573156D01*
X-863148Y573208D01*
X-863088Y573258D01*
X-863026Y573304D01*
X-862961Y573348D01*
X-862895Y573389D01*
X-862826Y573426D01*
X-862756Y573460D01*
X-862684Y573491D01*
X-862611Y573518D01*
X-862537Y573542D01*
X-862462Y573562D01*
X-862386Y573578D01*
X-862309Y573591D01*
X-862232Y573601D01*
X-862154Y573606D01*
X-862076Y573608D01*
X-860439Y573608D01*
X-855343Y573609D02*
X-855258Y573607D01*
X-855173Y573601D01*
X-855089Y573591D01*
X-855005Y573578D01*
X-854921Y573560D01*
X-854839Y573539D01*
X-854758Y573514D01*
X-854678Y573485D01*
X-854599Y573452D01*
X-854522Y573416D01*
X-854447Y573376D01*
X-854373Y573333D01*
X-854302Y573287D01*
X-854233Y573237D01*
X-854166Y573184D01*
X-854102Y573128D01*
X-854041Y573069D01*
X-853982Y573008D01*
X-853926Y572944D01*
X-853873Y572877D01*
X-853823Y572808D01*
X-853777Y572737D01*
X-853734Y572663D01*
X-853694Y572588D01*
X-853658Y572511D01*
X-853625Y572432D01*
X-853596Y572352D01*
X-853571Y572271D01*
X-853550Y572189D01*
X-853532Y572105D01*
X-853519Y572021D01*
X-853509Y571937D01*
X-853503Y571852D01*
X-853501Y571767D01*
X-855343Y573608D02*
X-855439Y573606D01*
X-855535Y573600D01*
X-855630Y573590D01*
X-855725Y573577D01*
X-855820Y573559D01*
X-855913Y573538D01*
X-856006Y573513D01*
X-856097Y573484D01*
X-856188Y573452D01*
X-856277Y573416D01*
X-856364Y573376D01*
X-856450Y573333D01*
X-856534Y573287D01*
X-856616Y573237D01*
X-856696Y573183D01*
X-856773Y573127D01*
X-856848Y573067D01*
X-856921Y573005D01*
X-856991Y572939D01*
X-857059Y572871D01*
X-857124Y572800D01*
X-857185Y572727D01*
X-857244Y572651D01*
X-857300Y572572D01*
X-857352Y572492D01*
X-857401Y572409D01*
X-857447Y572325D01*
X-857489Y572239D01*
X-857527Y572151D01*
X-857562Y572062D01*
X-857594Y571971D01*
X-854115Y570335D02*
X-854055Y570394D01*
X-853998Y570456D01*
X-853943Y570520D01*
X-853892Y570587D01*
X-853843Y570656D01*
X-853797Y570726D01*
X-853754Y570799D01*
X-853714Y570873D01*
X-853678Y570949D01*
X-853645Y571027D01*
X-853615Y571106D01*
X-853588Y571186D01*
X-853565Y571267D01*
X-853546Y571349D01*
X-853530Y571431D01*
X-853517Y571515D01*
X-853508Y571599D01*
X-853503Y571683D01*
X-853501Y571767D01*
X-854115Y570334D02*
X-857594Y566242D01*
X-853501Y566242D01*
X-850278Y567879D02*
X-848641Y573608D01*
X-850278Y567879D02*
X-846186Y567879D01*
X-847414Y569516D02*
X-847414Y566242D01*
D11*
X-646750Y548738D02*
X-646750Y545738D01*
X-649750Y545738D01*
X-683750Y545738D02*
X-686750Y545738D01*
X-686750Y548738D01*
X-686750Y580738D02*
X-686750Y583738D01*
X-683750Y583738D01*
X-649750Y583738D02*
X-646750Y583738D01*
X-646750Y580738D01*
D12*
X-676996Y591055D02*
X-676996Y598421D01*
X-677814Y591055D02*
X-676177Y591055D01*
X-676177Y598421D02*
X-677814Y598421D01*
X-671576Y591055D02*
X-669939Y591055D01*
X-671576Y591054D02*
X-671654Y591056D01*
X-671732Y591061D01*
X-671809Y591071D01*
X-671886Y591084D01*
X-671962Y591100D01*
X-672037Y591120D01*
X-672111Y591144D01*
X-672184Y591171D01*
X-672256Y591202D01*
X-672326Y591236D01*
X-672395Y591273D01*
X-672461Y591314D01*
X-672526Y591358D01*
X-672588Y591404D01*
X-672648Y591454D01*
X-672706Y591506D01*
X-672761Y591561D01*
X-672813Y591619D01*
X-672863Y591679D01*
X-672909Y591741D01*
X-672953Y591806D01*
X-672994Y591873D01*
X-673031Y591941D01*
X-673065Y592011D01*
X-673096Y592083D01*
X-673123Y592156D01*
X-673147Y592230D01*
X-673167Y592305D01*
X-673183Y592381D01*
X-673196Y592458D01*
X-673206Y592535D01*
X-673211Y592613D01*
X-673213Y592691D01*
X-673213Y596784D01*
X-673211Y596862D01*
X-673206Y596940D01*
X-673196Y597017D01*
X-673183Y597094D01*
X-673167Y597170D01*
X-673147Y597245D01*
X-673123Y597319D01*
X-673096Y597392D01*
X-673065Y597464D01*
X-673031Y597534D01*
X-672994Y597603D01*
X-672953Y597669D01*
X-672909Y597734D01*
X-672863Y597796D01*
X-672813Y597856D01*
X-672761Y597914D01*
X-672706Y597969D01*
X-672648Y598021D01*
X-672588Y598071D01*
X-672526Y598117D01*
X-672461Y598161D01*
X-672395Y598202D01*
X-672326Y598239D01*
X-672256Y598273D01*
X-672184Y598304D01*
X-672111Y598331D01*
X-672037Y598355D01*
X-671962Y598375D01*
X-671886Y598391D01*
X-671809Y598404D01*
X-671732Y598414D01*
X-671654Y598419D01*
X-671576Y598421D01*
X-669939Y598421D01*
X-664843Y598421D02*
X-664758Y598419D01*
X-664673Y598413D01*
X-664589Y598403D01*
X-664505Y598390D01*
X-664421Y598372D01*
X-664339Y598351D01*
X-664258Y598326D01*
X-664178Y598297D01*
X-664099Y598264D01*
X-664022Y598228D01*
X-663947Y598188D01*
X-663873Y598145D01*
X-663802Y598099D01*
X-663733Y598049D01*
X-663666Y597996D01*
X-663602Y597940D01*
X-663541Y597881D01*
X-663482Y597820D01*
X-663426Y597756D01*
X-663373Y597689D01*
X-663323Y597620D01*
X-663277Y597549D01*
X-663234Y597475D01*
X-663194Y597400D01*
X-663158Y597323D01*
X-663125Y597244D01*
X-663096Y597164D01*
X-663071Y597083D01*
X-663050Y597001D01*
X-663032Y596917D01*
X-663019Y596833D01*
X-663009Y596749D01*
X-663003Y596664D01*
X-663001Y596579D01*
X-664843Y598421D02*
X-664939Y598419D01*
X-665035Y598413D01*
X-665130Y598403D01*
X-665225Y598390D01*
X-665320Y598372D01*
X-665413Y598351D01*
X-665506Y598326D01*
X-665597Y598297D01*
X-665688Y598265D01*
X-665777Y598229D01*
X-665864Y598189D01*
X-665950Y598146D01*
X-666034Y598100D01*
X-666116Y598050D01*
X-666196Y597996D01*
X-666273Y597940D01*
X-666348Y597880D01*
X-666421Y597818D01*
X-666491Y597752D01*
X-666559Y597684D01*
X-666624Y597613D01*
X-666685Y597540D01*
X-666744Y597464D01*
X-666800Y597385D01*
X-666852Y597305D01*
X-666901Y597222D01*
X-666947Y597138D01*
X-666989Y597052D01*
X-667027Y596964D01*
X-667062Y596875D01*
X-667094Y596784D01*
X-663615Y595147D02*
X-663555Y595206D01*
X-663498Y595268D01*
X-663443Y595332D01*
X-663392Y595399D01*
X-663343Y595468D01*
X-663297Y595538D01*
X-663254Y595611D01*
X-663214Y595685D01*
X-663178Y595761D01*
X-663145Y595839D01*
X-663115Y595918D01*
X-663088Y595998D01*
X-663065Y596079D01*
X-663046Y596161D01*
X-663030Y596243D01*
X-663017Y596327D01*
X-663008Y596411D01*
X-663003Y596495D01*
X-663001Y596579D01*
X-663615Y595147D02*
X-667094Y591055D01*
X-663001Y591055D01*
X-659778Y591055D02*
X-657323Y591055D01*
X-657323Y591054D02*
X-657243Y591056D01*
X-657163Y591062D01*
X-657083Y591072D01*
X-657004Y591085D01*
X-656925Y591103D01*
X-656848Y591124D01*
X-656772Y591150D01*
X-656697Y591179D01*
X-656623Y591211D01*
X-656551Y591247D01*
X-656481Y591287D01*
X-656414Y591330D01*
X-656348Y591376D01*
X-656285Y591426D01*
X-656224Y591478D01*
X-656165Y591533D01*
X-656110Y591592D01*
X-656058Y591652D01*
X-656008Y591716D01*
X-655962Y591781D01*
X-655919Y591849D01*
X-655879Y591919D01*
X-655843Y591991D01*
X-655811Y592065D01*
X-655782Y592139D01*
X-655757Y592216D01*
X-655735Y592293D01*
X-655717Y592372D01*
X-655704Y592451D01*
X-655694Y592530D01*
X-655688Y592611D01*
X-655686Y592691D01*
X-655686Y593510D01*
X-655688Y593588D01*
X-655693Y593666D01*
X-655703Y593743D01*
X-655716Y593820D01*
X-655732Y593896D01*
X-655752Y593971D01*
X-655776Y594045D01*
X-655803Y594118D01*
X-655834Y594190D01*
X-655868Y594260D01*
X-655905Y594329D01*
X-655946Y594395D01*
X-655990Y594460D01*
X-656036Y594522D01*
X-656086Y594582D01*
X-656138Y594640D01*
X-656193Y594695D01*
X-656251Y594747D01*
X-656311Y594797D01*
X-656373Y594843D01*
X-656438Y594887D01*
X-656505Y594928D01*
X-656573Y594965D01*
X-656643Y594999D01*
X-656715Y595030D01*
X-656788Y595057D01*
X-656862Y595081D01*
X-656937Y595101D01*
X-657013Y595117D01*
X-657090Y595130D01*
X-657167Y595140D01*
X-657245Y595145D01*
X-657323Y595147D01*
X-659778Y595147D01*
X-659778Y598421D01*
X-655686Y598421D01*
D11*
X-456250Y523925D02*
X-456250Y520925D01*
X-459250Y520925D01*
X-493250Y520925D02*
X-496250Y520925D01*
X-496250Y523925D01*
X-496250Y555925D02*
X-496250Y558925D01*
X-493250Y558925D01*
X-459250Y558925D02*
X-456250Y558925D01*
X-456250Y555925D01*
D12*
X-486496Y566242D02*
X-486496Y573608D01*
X-487314Y566242D02*
X-485677Y566242D01*
X-485677Y573608D02*
X-487314Y573608D01*
X-481076Y566242D02*
X-479439Y566242D01*
X-481076Y566242D02*
X-481154Y566244D01*
X-481232Y566249D01*
X-481309Y566259D01*
X-481386Y566272D01*
X-481462Y566288D01*
X-481537Y566308D01*
X-481611Y566332D01*
X-481684Y566359D01*
X-481756Y566390D01*
X-481826Y566424D01*
X-481895Y566461D01*
X-481961Y566502D01*
X-482026Y566546D01*
X-482088Y566592D01*
X-482148Y566642D01*
X-482206Y566694D01*
X-482261Y566749D01*
X-482313Y566807D01*
X-482363Y566867D01*
X-482409Y566929D01*
X-482453Y566994D01*
X-482494Y567061D01*
X-482531Y567129D01*
X-482565Y567199D01*
X-482596Y567271D01*
X-482623Y567344D01*
X-482647Y567418D01*
X-482667Y567493D01*
X-482683Y567569D01*
X-482696Y567646D01*
X-482706Y567723D01*
X-482711Y567801D01*
X-482713Y567879D01*
X-482713Y571971D01*
X-482711Y572049D01*
X-482706Y572127D01*
X-482696Y572204D01*
X-482683Y572281D01*
X-482667Y572357D01*
X-482647Y572432D01*
X-482623Y572506D01*
X-482596Y572579D01*
X-482565Y572651D01*
X-482531Y572721D01*
X-482494Y572790D01*
X-482453Y572856D01*
X-482409Y572921D01*
X-482363Y572983D01*
X-482313Y573043D01*
X-482261Y573101D01*
X-482206Y573156D01*
X-482148Y573208D01*
X-482088Y573258D01*
X-482026Y573304D01*
X-481961Y573348D01*
X-481895Y573389D01*
X-481826Y573426D01*
X-481756Y573460D01*
X-481684Y573491D01*
X-481611Y573518D01*
X-481537Y573542D01*
X-481462Y573562D01*
X-481386Y573578D01*
X-481309Y573591D01*
X-481232Y573601D01*
X-481154Y573606D01*
X-481076Y573608D01*
X-479439Y573608D01*
X-474343Y573609D02*
X-474258Y573607D01*
X-474173Y573601D01*
X-474089Y573591D01*
X-474005Y573578D01*
X-473921Y573560D01*
X-473839Y573539D01*
X-473758Y573514D01*
X-473678Y573485D01*
X-473599Y573452D01*
X-473522Y573416D01*
X-473447Y573376D01*
X-473373Y573333D01*
X-473302Y573287D01*
X-473233Y573237D01*
X-473166Y573184D01*
X-473102Y573128D01*
X-473041Y573069D01*
X-472982Y573008D01*
X-472926Y572944D01*
X-472873Y572877D01*
X-472823Y572808D01*
X-472777Y572737D01*
X-472734Y572663D01*
X-472694Y572588D01*
X-472658Y572511D01*
X-472625Y572432D01*
X-472596Y572352D01*
X-472571Y572271D01*
X-472550Y572189D01*
X-472532Y572105D01*
X-472519Y572021D01*
X-472509Y571937D01*
X-472503Y571852D01*
X-472501Y571767D01*
X-474343Y573608D02*
X-474439Y573606D01*
X-474535Y573600D01*
X-474630Y573590D01*
X-474725Y573577D01*
X-474820Y573559D01*
X-474913Y573538D01*
X-475006Y573513D01*
X-475097Y573484D01*
X-475188Y573452D01*
X-475277Y573416D01*
X-475364Y573376D01*
X-475450Y573333D01*
X-475534Y573287D01*
X-475616Y573237D01*
X-475696Y573183D01*
X-475773Y573127D01*
X-475848Y573067D01*
X-475921Y573005D01*
X-475991Y572939D01*
X-476059Y572871D01*
X-476124Y572800D01*
X-476185Y572727D01*
X-476244Y572651D01*
X-476300Y572572D01*
X-476352Y572492D01*
X-476401Y572409D01*
X-476447Y572325D01*
X-476489Y572239D01*
X-476527Y572151D01*
X-476562Y572062D01*
X-476594Y571971D01*
X-473115Y570335D02*
X-473055Y570394D01*
X-472998Y570456D01*
X-472943Y570520D01*
X-472892Y570587D01*
X-472843Y570656D01*
X-472797Y570726D01*
X-472754Y570799D01*
X-472714Y570873D01*
X-472678Y570949D01*
X-472645Y571027D01*
X-472615Y571106D01*
X-472588Y571186D01*
X-472565Y571267D01*
X-472546Y571349D01*
X-472530Y571431D01*
X-472517Y571515D01*
X-472508Y571599D01*
X-472503Y571683D01*
X-472501Y571767D01*
X-473115Y570334D02*
X-476594Y566242D01*
X-472501Y566242D01*
X-469278Y570334D02*
X-466823Y570334D01*
X-466743Y570332D01*
X-466663Y570326D01*
X-466583Y570316D01*
X-466504Y570303D01*
X-466425Y570285D01*
X-466348Y570264D01*
X-466272Y570238D01*
X-466197Y570209D01*
X-466123Y570177D01*
X-466051Y570141D01*
X-465981Y570101D01*
X-465914Y570058D01*
X-465848Y570012D01*
X-465785Y569962D01*
X-465724Y569910D01*
X-465665Y569855D01*
X-465610Y569796D01*
X-465558Y569736D01*
X-465508Y569672D01*
X-465462Y569606D01*
X-465419Y569539D01*
X-465379Y569469D01*
X-465343Y569397D01*
X-465311Y569323D01*
X-465282Y569249D01*
X-465256Y569172D01*
X-465235Y569095D01*
X-465217Y569016D01*
X-465204Y568937D01*
X-465194Y568857D01*
X-465188Y568777D01*
X-465186Y568697D01*
X-465186Y568288D01*
X-465188Y568199D01*
X-465194Y568110D01*
X-465204Y568021D01*
X-465217Y567933D01*
X-465234Y567845D01*
X-465256Y567758D01*
X-465281Y567673D01*
X-465309Y567588D01*
X-465342Y567505D01*
X-465378Y567423D01*
X-465417Y567343D01*
X-465460Y567265D01*
X-465506Y567189D01*
X-465556Y567114D01*
X-465609Y567042D01*
X-465665Y566973D01*
X-465724Y566906D01*
X-465785Y566841D01*
X-465850Y566780D01*
X-465917Y566721D01*
X-465986Y566665D01*
X-466058Y566612D01*
X-466133Y566562D01*
X-466209Y566516D01*
X-466287Y566473D01*
X-466367Y566434D01*
X-466449Y566398D01*
X-466532Y566365D01*
X-466617Y566337D01*
X-466702Y566312D01*
X-466789Y566290D01*
X-466877Y566273D01*
X-466965Y566260D01*
X-467054Y566250D01*
X-467143Y566244D01*
X-467232Y566242D01*
X-467321Y566244D01*
X-467410Y566250D01*
X-467499Y566260D01*
X-467587Y566273D01*
X-467675Y566290D01*
X-467762Y566312D01*
X-467847Y566337D01*
X-467932Y566365D01*
X-468015Y566398D01*
X-468097Y566434D01*
X-468177Y566473D01*
X-468255Y566516D01*
X-468331Y566562D01*
X-468406Y566612D01*
X-468478Y566665D01*
X-468547Y566721D01*
X-468614Y566780D01*
X-468679Y566841D01*
X-468740Y566906D01*
X-468799Y566973D01*
X-468855Y567042D01*
X-468908Y567114D01*
X-468958Y567189D01*
X-469004Y567265D01*
X-469047Y567343D01*
X-469086Y567423D01*
X-469122Y567505D01*
X-469155Y567588D01*
X-469183Y567673D01*
X-469208Y567758D01*
X-469230Y567845D01*
X-469247Y567933D01*
X-469260Y568021D01*
X-469270Y568110D01*
X-469276Y568199D01*
X-469278Y568288D01*
X-469278Y570334D01*
X-469279Y570334D02*
X-469277Y570446D01*
X-469271Y570557D01*
X-469262Y570669D01*
X-469249Y570780D01*
X-469231Y570890D01*
X-469211Y571000D01*
X-469186Y571109D01*
X-469158Y571217D01*
X-469126Y571324D01*
X-469090Y571430D01*
X-469051Y571535D01*
X-469008Y571638D01*
X-468962Y571740D01*
X-468912Y571840D01*
X-468859Y571939D01*
X-468802Y572035D01*
X-468743Y572130D01*
X-468680Y572222D01*
X-468614Y572312D01*
X-468545Y572400D01*
X-468473Y572486D01*
X-468398Y572569D01*
X-468320Y572649D01*
X-468240Y572727D01*
X-468157Y572802D01*
X-468071Y572874D01*
X-467983Y572943D01*
X-467893Y573009D01*
X-467801Y573072D01*
X-467706Y573131D01*
X-467610Y573188D01*
X-467511Y573241D01*
X-467411Y573291D01*
X-467309Y573337D01*
X-467206Y573380D01*
X-467101Y573419D01*
X-466995Y573455D01*
X-466888Y573487D01*
X-466780Y573515D01*
X-466671Y573540D01*
X-466561Y573560D01*
X-466451Y573578D01*
X-466340Y573591D01*
X-466228Y573600D01*
X-466117Y573606D01*
X-466005Y573608D01*
D11*
X-265750Y479300D02*
X-265750Y476300D01*
X-268750Y476300D01*
X-302750Y476300D02*
X-305750Y476300D01*
X-305750Y479300D01*
X-305750Y511300D02*
X-305750Y514300D01*
X-302750Y514300D01*
X-268750Y514300D02*
X-265750Y514300D01*
X-265750Y511300D01*
D12*
X-295996Y521617D02*
X-295996Y528983D01*
X-296814Y521617D02*
X-295177Y521617D01*
X-295177Y528983D02*
X-296814Y528983D01*
X-290576Y521617D02*
X-288939Y521617D01*
X-290576Y521617D02*
X-290654Y521619D01*
X-290732Y521624D01*
X-290809Y521634D01*
X-290886Y521647D01*
X-290962Y521663D01*
X-291037Y521683D01*
X-291111Y521707D01*
X-291184Y521734D01*
X-291256Y521765D01*
X-291326Y521799D01*
X-291395Y521836D01*
X-291461Y521877D01*
X-291526Y521921D01*
X-291588Y521967D01*
X-291648Y522017D01*
X-291706Y522069D01*
X-291761Y522124D01*
X-291813Y522182D01*
X-291863Y522242D01*
X-291909Y522304D01*
X-291953Y522369D01*
X-291994Y522436D01*
X-292031Y522504D01*
X-292065Y522574D01*
X-292096Y522646D01*
X-292123Y522719D01*
X-292147Y522793D01*
X-292167Y522868D01*
X-292183Y522944D01*
X-292196Y523021D01*
X-292206Y523098D01*
X-292211Y523176D01*
X-292213Y523254D01*
X-292213Y527346D01*
X-292211Y527424D01*
X-292206Y527502D01*
X-292196Y527579D01*
X-292183Y527656D01*
X-292167Y527732D01*
X-292147Y527807D01*
X-292123Y527881D01*
X-292096Y527954D01*
X-292065Y528026D01*
X-292031Y528096D01*
X-291994Y528165D01*
X-291953Y528231D01*
X-291909Y528296D01*
X-291863Y528358D01*
X-291813Y528418D01*
X-291761Y528476D01*
X-291706Y528531D01*
X-291648Y528583D01*
X-291588Y528633D01*
X-291526Y528679D01*
X-291461Y528723D01*
X-291395Y528764D01*
X-291326Y528801D01*
X-291256Y528835D01*
X-291184Y528866D01*
X-291111Y528893D01*
X-291037Y528917D01*
X-290962Y528937D01*
X-290886Y528953D01*
X-290809Y528966D01*
X-290732Y528976D01*
X-290654Y528981D01*
X-290576Y528983D01*
X-288939Y528983D01*
X-283843Y528984D02*
X-283758Y528982D01*
X-283673Y528976D01*
X-283589Y528966D01*
X-283505Y528953D01*
X-283421Y528935D01*
X-283339Y528914D01*
X-283258Y528889D01*
X-283178Y528860D01*
X-283099Y528827D01*
X-283022Y528791D01*
X-282947Y528751D01*
X-282873Y528708D01*
X-282802Y528662D01*
X-282733Y528612D01*
X-282666Y528559D01*
X-282602Y528503D01*
X-282541Y528444D01*
X-282482Y528383D01*
X-282426Y528319D01*
X-282373Y528252D01*
X-282323Y528183D01*
X-282277Y528112D01*
X-282234Y528038D01*
X-282194Y527963D01*
X-282158Y527886D01*
X-282125Y527807D01*
X-282096Y527727D01*
X-282071Y527646D01*
X-282050Y527564D01*
X-282032Y527480D01*
X-282019Y527396D01*
X-282009Y527312D01*
X-282003Y527227D01*
X-282001Y527142D01*
X-283843Y528983D02*
X-283939Y528981D01*
X-284035Y528975D01*
X-284130Y528965D01*
X-284225Y528952D01*
X-284320Y528934D01*
X-284413Y528913D01*
X-284506Y528888D01*
X-284597Y528859D01*
X-284688Y528827D01*
X-284777Y528791D01*
X-284864Y528751D01*
X-284950Y528708D01*
X-285034Y528662D01*
X-285116Y528612D01*
X-285196Y528558D01*
X-285273Y528502D01*
X-285348Y528442D01*
X-285421Y528380D01*
X-285491Y528314D01*
X-285559Y528246D01*
X-285624Y528175D01*
X-285685Y528102D01*
X-285744Y528026D01*
X-285800Y527947D01*
X-285852Y527867D01*
X-285901Y527784D01*
X-285947Y527700D01*
X-285989Y527614D01*
X-286027Y527526D01*
X-286062Y527437D01*
X-286094Y527346D01*
X-282615Y525710D02*
X-282555Y525769D01*
X-282498Y525831D01*
X-282443Y525895D01*
X-282392Y525962D01*
X-282343Y526031D01*
X-282297Y526101D01*
X-282254Y526174D01*
X-282214Y526248D01*
X-282178Y526324D01*
X-282145Y526402D01*
X-282115Y526481D01*
X-282088Y526561D01*
X-282065Y526642D01*
X-282046Y526724D01*
X-282030Y526806D01*
X-282017Y526890D01*
X-282008Y526974D01*
X-282003Y527058D01*
X-282001Y527142D01*
X-282615Y525709D02*
X-286094Y521617D01*
X-282001Y521617D01*
X-278778Y528165D02*
X-278778Y528983D01*
X-274686Y528983D01*
X-276732Y521617D01*
D11*
X-51438Y479300D02*
X-51438Y476300D01*
X-54438Y476300D01*
X-88438Y476300D02*
X-91438Y476300D01*
X-91438Y479300D01*
X-91438Y511300D02*
X-91438Y514300D01*
X-88438Y514300D01*
X-54438Y514300D02*
X-51438Y514300D01*
X-51438Y511300D01*
D12*
X-81683Y521617D02*
X-81683Y528983D01*
X-82501Y521617D02*
X-80865Y521617D01*
X-80865Y528983D02*
X-82501Y528983D01*
X-76263Y521617D02*
X-74626Y521617D01*
X-76263Y521617D02*
X-76341Y521619D01*
X-76419Y521624D01*
X-76496Y521634D01*
X-76573Y521647D01*
X-76649Y521663D01*
X-76724Y521683D01*
X-76798Y521707D01*
X-76871Y521734D01*
X-76943Y521765D01*
X-77013Y521799D01*
X-77082Y521836D01*
X-77148Y521877D01*
X-77213Y521921D01*
X-77275Y521967D01*
X-77335Y522017D01*
X-77393Y522069D01*
X-77448Y522124D01*
X-77500Y522182D01*
X-77550Y522242D01*
X-77596Y522304D01*
X-77640Y522369D01*
X-77681Y522436D01*
X-77718Y522504D01*
X-77752Y522574D01*
X-77783Y522646D01*
X-77810Y522719D01*
X-77834Y522793D01*
X-77854Y522868D01*
X-77870Y522944D01*
X-77883Y523021D01*
X-77893Y523098D01*
X-77898Y523176D01*
X-77900Y523254D01*
X-77900Y527346D01*
X-77898Y527424D01*
X-77893Y527502D01*
X-77883Y527579D01*
X-77870Y527656D01*
X-77854Y527732D01*
X-77834Y527807D01*
X-77810Y527881D01*
X-77783Y527954D01*
X-77752Y528026D01*
X-77718Y528096D01*
X-77681Y528165D01*
X-77640Y528231D01*
X-77596Y528296D01*
X-77550Y528358D01*
X-77500Y528418D01*
X-77448Y528476D01*
X-77393Y528531D01*
X-77335Y528583D01*
X-77275Y528633D01*
X-77213Y528679D01*
X-77148Y528723D01*
X-77082Y528764D01*
X-77013Y528801D01*
X-76943Y528835D01*
X-76871Y528866D01*
X-76798Y528893D01*
X-76724Y528917D01*
X-76649Y528937D01*
X-76573Y528953D01*
X-76496Y528966D01*
X-76419Y528976D01*
X-76341Y528981D01*
X-76263Y528983D01*
X-74626Y528983D01*
X-69530Y528984D02*
X-69445Y528982D01*
X-69360Y528976D01*
X-69276Y528966D01*
X-69192Y528953D01*
X-69108Y528935D01*
X-69026Y528914D01*
X-68945Y528889D01*
X-68865Y528860D01*
X-68786Y528827D01*
X-68709Y528791D01*
X-68634Y528751D01*
X-68560Y528708D01*
X-68489Y528662D01*
X-68420Y528612D01*
X-68353Y528559D01*
X-68289Y528503D01*
X-68228Y528444D01*
X-68169Y528383D01*
X-68113Y528319D01*
X-68060Y528252D01*
X-68010Y528183D01*
X-67964Y528112D01*
X-67921Y528038D01*
X-67881Y527963D01*
X-67845Y527886D01*
X-67812Y527807D01*
X-67783Y527727D01*
X-67758Y527646D01*
X-67737Y527564D01*
X-67719Y527480D01*
X-67706Y527396D01*
X-67696Y527312D01*
X-67690Y527227D01*
X-67688Y527142D01*
X-69530Y528983D02*
X-69626Y528981D01*
X-69722Y528975D01*
X-69817Y528965D01*
X-69912Y528952D01*
X-70007Y528934D01*
X-70100Y528913D01*
X-70193Y528888D01*
X-70284Y528859D01*
X-70375Y528827D01*
X-70464Y528791D01*
X-70551Y528751D01*
X-70637Y528708D01*
X-70721Y528662D01*
X-70803Y528612D01*
X-70883Y528558D01*
X-70960Y528502D01*
X-71035Y528442D01*
X-71108Y528380D01*
X-71178Y528314D01*
X-71246Y528246D01*
X-71311Y528175D01*
X-71372Y528102D01*
X-71431Y528026D01*
X-71487Y527947D01*
X-71539Y527867D01*
X-71588Y527784D01*
X-71634Y527700D01*
X-71676Y527614D01*
X-71714Y527526D01*
X-71749Y527437D01*
X-71781Y527346D01*
X-68303Y525710D02*
X-68243Y525769D01*
X-68186Y525831D01*
X-68131Y525895D01*
X-68080Y525962D01*
X-68031Y526031D01*
X-67985Y526101D01*
X-67942Y526174D01*
X-67902Y526248D01*
X-67866Y526324D01*
X-67833Y526402D01*
X-67803Y526481D01*
X-67776Y526561D01*
X-67753Y526642D01*
X-67734Y526724D01*
X-67718Y526806D01*
X-67705Y526890D01*
X-67696Y526974D01*
X-67691Y527058D01*
X-67689Y527142D01*
X-68303Y525709D02*
X-71781Y521617D01*
X-67689Y521617D01*
X-64466Y523663D02*
X-64464Y523752D01*
X-64458Y523841D01*
X-64448Y523930D01*
X-64435Y524018D01*
X-64418Y524106D01*
X-64396Y524193D01*
X-64371Y524278D01*
X-64343Y524363D01*
X-64310Y524446D01*
X-64274Y524528D01*
X-64235Y524608D01*
X-64192Y524686D01*
X-64146Y524762D01*
X-64096Y524837D01*
X-64043Y524909D01*
X-63987Y524978D01*
X-63928Y525045D01*
X-63867Y525110D01*
X-63802Y525171D01*
X-63735Y525230D01*
X-63666Y525286D01*
X-63594Y525339D01*
X-63519Y525389D01*
X-63443Y525435D01*
X-63365Y525478D01*
X-63285Y525517D01*
X-63203Y525553D01*
X-63120Y525586D01*
X-63035Y525614D01*
X-62950Y525639D01*
X-62863Y525661D01*
X-62775Y525678D01*
X-62687Y525691D01*
X-62598Y525701D01*
X-62509Y525707D01*
X-62420Y525709D01*
X-62331Y525707D01*
X-62242Y525701D01*
X-62153Y525691D01*
X-62065Y525678D01*
X-61977Y525661D01*
X-61890Y525639D01*
X-61805Y525614D01*
X-61720Y525586D01*
X-61637Y525553D01*
X-61555Y525517D01*
X-61475Y525478D01*
X-61397Y525435D01*
X-61321Y525389D01*
X-61246Y525339D01*
X-61174Y525286D01*
X-61105Y525230D01*
X-61038Y525171D01*
X-60973Y525110D01*
X-60912Y525045D01*
X-60853Y524978D01*
X-60797Y524909D01*
X-60744Y524837D01*
X-60694Y524762D01*
X-60648Y524686D01*
X-60605Y524608D01*
X-60566Y524528D01*
X-60530Y524446D01*
X-60497Y524363D01*
X-60469Y524278D01*
X-60444Y524193D01*
X-60422Y524106D01*
X-60405Y524018D01*
X-60392Y523930D01*
X-60382Y523841D01*
X-60376Y523752D01*
X-60374Y523663D01*
X-60376Y523574D01*
X-60382Y523485D01*
X-60392Y523396D01*
X-60405Y523308D01*
X-60422Y523220D01*
X-60444Y523133D01*
X-60469Y523048D01*
X-60497Y522963D01*
X-60530Y522880D01*
X-60566Y522798D01*
X-60605Y522718D01*
X-60648Y522640D01*
X-60694Y522564D01*
X-60744Y522489D01*
X-60797Y522417D01*
X-60853Y522348D01*
X-60912Y522281D01*
X-60973Y522216D01*
X-61038Y522155D01*
X-61105Y522096D01*
X-61174Y522040D01*
X-61246Y521987D01*
X-61321Y521937D01*
X-61397Y521891D01*
X-61475Y521848D01*
X-61555Y521809D01*
X-61637Y521773D01*
X-61720Y521740D01*
X-61805Y521712D01*
X-61890Y521687D01*
X-61977Y521665D01*
X-62065Y521648D01*
X-62153Y521635D01*
X-62242Y521625D01*
X-62331Y521619D01*
X-62420Y521617D01*
X-62509Y521619D01*
X-62598Y521625D01*
X-62687Y521635D01*
X-62775Y521648D01*
X-62863Y521665D01*
X-62950Y521687D01*
X-63035Y521712D01*
X-63120Y521740D01*
X-63203Y521773D01*
X-63285Y521809D01*
X-63365Y521848D01*
X-63443Y521891D01*
X-63519Y521937D01*
X-63594Y521987D01*
X-63666Y522040D01*
X-63735Y522096D01*
X-63802Y522155D01*
X-63867Y522216D01*
X-63928Y522281D01*
X-63987Y522348D01*
X-64043Y522417D01*
X-64096Y522489D01*
X-64146Y522564D01*
X-64192Y522640D01*
X-64235Y522718D01*
X-64274Y522798D01*
X-64310Y522880D01*
X-64343Y522963D01*
X-64371Y523048D01*
X-64396Y523133D01*
X-64418Y523220D01*
X-64435Y523308D01*
X-64448Y523396D01*
X-64458Y523485D01*
X-64464Y523574D01*
X-64466Y523663D01*
X-64057Y527346D02*
X-64055Y527425D01*
X-64049Y527504D01*
X-64040Y527583D01*
X-64027Y527661D01*
X-64009Y527738D01*
X-63989Y527814D01*
X-63964Y527889D01*
X-63936Y527963D01*
X-63905Y528036D01*
X-63869Y528107D01*
X-63831Y528176D01*
X-63789Y528243D01*
X-63744Y528308D01*
X-63696Y528371D01*
X-63645Y528432D01*
X-63591Y528489D01*
X-63535Y528545D01*
X-63476Y528597D01*
X-63414Y528647D01*
X-63350Y528693D01*
X-63284Y528737D01*
X-63216Y528777D01*
X-63146Y528813D01*
X-63074Y528847D01*
X-63000Y528877D01*
X-62926Y528903D01*
X-62850Y528926D01*
X-62773Y528944D01*
X-62696Y528960D01*
X-62617Y528971D01*
X-62539Y528979D01*
X-62460Y528983D01*
X-62380Y528983D01*
X-62301Y528979D01*
X-62223Y528971D01*
X-62144Y528960D01*
X-62067Y528944D01*
X-61990Y528926D01*
X-61914Y528903D01*
X-61840Y528877D01*
X-61766Y528847D01*
X-61694Y528813D01*
X-61624Y528777D01*
X-61556Y528737D01*
X-61490Y528693D01*
X-61426Y528647D01*
X-61364Y528597D01*
X-61305Y528545D01*
X-61249Y528489D01*
X-61195Y528432D01*
X-61144Y528371D01*
X-61096Y528308D01*
X-61051Y528243D01*
X-61009Y528176D01*
X-60971Y528107D01*
X-60935Y528036D01*
X-60904Y527963D01*
X-60876Y527889D01*
X-60851Y527814D01*
X-60831Y527738D01*
X-60813Y527661D01*
X-60800Y527583D01*
X-60791Y527504D01*
X-60785Y527425D01*
X-60783Y527346D01*
X-60785Y527267D01*
X-60791Y527188D01*
X-60800Y527109D01*
X-60813Y527031D01*
X-60831Y526954D01*
X-60851Y526878D01*
X-60876Y526803D01*
X-60904Y526729D01*
X-60935Y526656D01*
X-60971Y526585D01*
X-61009Y526516D01*
X-61051Y526449D01*
X-61096Y526384D01*
X-61144Y526321D01*
X-61195Y526260D01*
X-61249Y526203D01*
X-61305Y526147D01*
X-61364Y526095D01*
X-61426Y526045D01*
X-61490Y525999D01*
X-61556Y525955D01*
X-61624Y525915D01*
X-61694Y525879D01*
X-61766Y525845D01*
X-61840Y525815D01*
X-61914Y525789D01*
X-61990Y525766D01*
X-62067Y525748D01*
X-62144Y525732D01*
X-62223Y525721D01*
X-62301Y525713D01*
X-62380Y525709D01*
X-62460Y525709D01*
X-62539Y525713D01*
X-62617Y525721D01*
X-62696Y525732D01*
X-62773Y525748D01*
X-62850Y525766D01*
X-62926Y525789D01*
X-63000Y525815D01*
X-63074Y525845D01*
X-63146Y525879D01*
X-63216Y525915D01*
X-63284Y525955D01*
X-63350Y525999D01*
X-63414Y526045D01*
X-63476Y526095D01*
X-63535Y526147D01*
X-63591Y526203D01*
X-63645Y526260D01*
X-63696Y526321D01*
X-63744Y526384D01*
X-63789Y526449D01*
X-63831Y526516D01*
X-63869Y526585D01*
X-63905Y526656D01*
X-63936Y526729D01*
X-63964Y526803D01*
X-63989Y526878D01*
X-64009Y526954D01*
X-64027Y527031D01*
X-64040Y527109D01*
X-64049Y527188D01*
X-64055Y527267D01*
X-64057Y527346D01*
D11*
X-115250Y323800D02*
X-115250Y320800D01*
X-115250Y323800D02*
X-112250Y323800D01*
X-78250Y323800D02*
X-75250Y323800D01*
X-75250Y320800D01*
X-75250Y288800D02*
X-75250Y285800D01*
X-78250Y285800D01*
X-112250Y285800D02*
X-115250Y285800D01*
X-115250Y288800D01*
D12*
X-105496Y331117D02*
X-105496Y338483D01*
X-106314Y331117D02*
X-104677Y331117D01*
X-104677Y338483D02*
X-106314Y338483D01*
X-100076Y331117D02*
X-98439Y331117D01*
X-100076Y331117D02*
X-100154Y331119D01*
X-100232Y331124D01*
X-100309Y331134D01*
X-100386Y331147D01*
X-100462Y331163D01*
X-100537Y331183D01*
X-100611Y331207D01*
X-100684Y331234D01*
X-100756Y331265D01*
X-100826Y331299D01*
X-100895Y331336D01*
X-100961Y331377D01*
X-101026Y331421D01*
X-101088Y331467D01*
X-101148Y331517D01*
X-101206Y331569D01*
X-101261Y331624D01*
X-101313Y331682D01*
X-101363Y331742D01*
X-101409Y331804D01*
X-101453Y331869D01*
X-101494Y331936D01*
X-101531Y332004D01*
X-101565Y332074D01*
X-101596Y332146D01*
X-101623Y332219D01*
X-101647Y332293D01*
X-101667Y332368D01*
X-101683Y332444D01*
X-101696Y332521D01*
X-101706Y332598D01*
X-101711Y332676D01*
X-101713Y332754D01*
X-101713Y336846D01*
X-101711Y336924D01*
X-101706Y337002D01*
X-101696Y337079D01*
X-101683Y337156D01*
X-101667Y337232D01*
X-101647Y337307D01*
X-101623Y337381D01*
X-101596Y337454D01*
X-101565Y337526D01*
X-101531Y337596D01*
X-101494Y337665D01*
X-101453Y337731D01*
X-101409Y337796D01*
X-101363Y337858D01*
X-101313Y337918D01*
X-101261Y337976D01*
X-101206Y338031D01*
X-101148Y338083D01*
X-101088Y338133D01*
X-101026Y338179D01*
X-100961Y338223D01*
X-100895Y338264D01*
X-100826Y338301D01*
X-100756Y338335D01*
X-100684Y338366D01*
X-100611Y338393D01*
X-100537Y338417D01*
X-100462Y338437D01*
X-100386Y338453D01*
X-100309Y338466D01*
X-100232Y338476D01*
X-100154Y338481D01*
X-100076Y338483D01*
X-98439Y338483D01*
X-93343Y338484D02*
X-93258Y338482D01*
X-93173Y338476D01*
X-93089Y338466D01*
X-93005Y338453D01*
X-92921Y338435D01*
X-92839Y338414D01*
X-92758Y338389D01*
X-92678Y338360D01*
X-92599Y338327D01*
X-92522Y338291D01*
X-92447Y338251D01*
X-92373Y338208D01*
X-92302Y338162D01*
X-92233Y338112D01*
X-92166Y338059D01*
X-92102Y338003D01*
X-92041Y337944D01*
X-91982Y337883D01*
X-91926Y337819D01*
X-91873Y337752D01*
X-91823Y337683D01*
X-91777Y337612D01*
X-91734Y337538D01*
X-91694Y337463D01*
X-91658Y337386D01*
X-91625Y337307D01*
X-91596Y337227D01*
X-91571Y337146D01*
X-91550Y337064D01*
X-91532Y336980D01*
X-91519Y336896D01*
X-91509Y336812D01*
X-91503Y336727D01*
X-91501Y336642D01*
X-93343Y338483D02*
X-93439Y338481D01*
X-93535Y338475D01*
X-93630Y338465D01*
X-93725Y338452D01*
X-93820Y338434D01*
X-93913Y338413D01*
X-94006Y338388D01*
X-94097Y338359D01*
X-94188Y338327D01*
X-94277Y338291D01*
X-94364Y338251D01*
X-94450Y338208D01*
X-94534Y338162D01*
X-94616Y338112D01*
X-94696Y338058D01*
X-94773Y338002D01*
X-94848Y337942D01*
X-94921Y337880D01*
X-94991Y337814D01*
X-95059Y337746D01*
X-95124Y337675D01*
X-95185Y337602D01*
X-95244Y337526D01*
X-95300Y337447D01*
X-95352Y337367D01*
X-95401Y337284D01*
X-95447Y337200D01*
X-95489Y337114D01*
X-95527Y337026D01*
X-95562Y336937D01*
X-95594Y336846D01*
X-92115Y335210D02*
X-92055Y335269D01*
X-91998Y335331D01*
X-91943Y335395D01*
X-91892Y335462D01*
X-91843Y335531D01*
X-91797Y335601D01*
X-91754Y335674D01*
X-91714Y335748D01*
X-91678Y335824D01*
X-91645Y335902D01*
X-91615Y335981D01*
X-91588Y336061D01*
X-91565Y336142D01*
X-91546Y336224D01*
X-91530Y336306D01*
X-91517Y336390D01*
X-91508Y336474D01*
X-91503Y336558D01*
X-91501Y336642D01*
X-92115Y335209D02*
X-95593Y331117D01*
X-91501Y331117D01*
X-86641Y334391D02*
X-84186Y334391D01*
X-86641Y334391D02*
X-86719Y334393D01*
X-86797Y334398D01*
X-86874Y334408D01*
X-86951Y334421D01*
X-87027Y334437D01*
X-87102Y334457D01*
X-87176Y334481D01*
X-87249Y334508D01*
X-87321Y334539D01*
X-87391Y334573D01*
X-87460Y334610D01*
X-87526Y334651D01*
X-87591Y334695D01*
X-87653Y334741D01*
X-87713Y334791D01*
X-87771Y334843D01*
X-87826Y334898D01*
X-87878Y334956D01*
X-87928Y335016D01*
X-87974Y335078D01*
X-88018Y335143D01*
X-88059Y335210D01*
X-88096Y335278D01*
X-88130Y335348D01*
X-88161Y335420D01*
X-88188Y335493D01*
X-88212Y335567D01*
X-88232Y335642D01*
X-88248Y335718D01*
X-88261Y335795D01*
X-88271Y335872D01*
X-88276Y335950D01*
X-88278Y336028D01*
X-88278Y336437D01*
X-88276Y336526D01*
X-88270Y336615D01*
X-88260Y336704D01*
X-88247Y336792D01*
X-88230Y336880D01*
X-88208Y336967D01*
X-88183Y337052D01*
X-88155Y337137D01*
X-88122Y337220D01*
X-88086Y337302D01*
X-88047Y337382D01*
X-88004Y337460D01*
X-87958Y337536D01*
X-87908Y337611D01*
X-87855Y337683D01*
X-87799Y337752D01*
X-87740Y337819D01*
X-87679Y337884D01*
X-87614Y337945D01*
X-87547Y338004D01*
X-87478Y338060D01*
X-87406Y338113D01*
X-87331Y338163D01*
X-87255Y338209D01*
X-87177Y338252D01*
X-87097Y338291D01*
X-87015Y338327D01*
X-86932Y338360D01*
X-86847Y338388D01*
X-86762Y338413D01*
X-86675Y338435D01*
X-86587Y338452D01*
X-86499Y338465D01*
X-86410Y338475D01*
X-86321Y338481D01*
X-86232Y338483D01*
X-86143Y338481D01*
X-86054Y338475D01*
X-85965Y338465D01*
X-85877Y338452D01*
X-85789Y338435D01*
X-85702Y338413D01*
X-85617Y338388D01*
X-85532Y338360D01*
X-85449Y338327D01*
X-85367Y338291D01*
X-85287Y338252D01*
X-85209Y338209D01*
X-85133Y338163D01*
X-85058Y338113D01*
X-84986Y338060D01*
X-84917Y338004D01*
X-84850Y337945D01*
X-84785Y337884D01*
X-84724Y337819D01*
X-84665Y337752D01*
X-84609Y337683D01*
X-84556Y337611D01*
X-84506Y337536D01*
X-84460Y337460D01*
X-84417Y337382D01*
X-84378Y337302D01*
X-84342Y337220D01*
X-84309Y337137D01*
X-84281Y337052D01*
X-84256Y336967D01*
X-84234Y336880D01*
X-84217Y336792D01*
X-84204Y336704D01*
X-84194Y336615D01*
X-84188Y336526D01*
X-84186Y336437D01*
X-84186Y334391D01*
X-84188Y334279D01*
X-84194Y334168D01*
X-84203Y334056D01*
X-84216Y333945D01*
X-84234Y333835D01*
X-84254Y333725D01*
X-84279Y333616D01*
X-84307Y333508D01*
X-84339Y333401D01*
X-84375Y333295D01*
X-84414Y333190D01*
X-84457Y333087D01*
X-84503Y332985D01*
X-84553Y332885D01*
X-84606Y332786D01*
X-84663Y332690D01*
X-84722Y332595D01*
X-84785Y332503D01*
X-84851Y332413D01*
X-84920Y332325D01*
X-84992Y332239D01*
X-85067Y332156D01*
X-85145Y332076D01*
X-85225Y331998D01*
X-85308Y331923D01*
X-85394Y331851D01*
X-85482Y331782D01*
X-85572Y331716D01*
X-85664Y331653D01*
X-85759Y331594D01*
X-85855Y331537D01*
X-85954Y331484D01*
X-86054Y331434D01*
X-86156Y331388D01*
X-86259Y331345D01*
X-86364Y331306D01*
X-86470Y331270D01*
X-86577Y331238D01*
X-86685Y331210D01*
X-86794Y331185D01*
X-86904Y331165D01*
X-87014Y331147D01*
X-87125Y331134D01*
X-87237Y331125D01*
X-87348Y331119D01*
X-87460Y331117D01*
D11*
X-305750Y323800D02*
X-305750Y320800D01*
X-305750Y323800D02*
X-302750Y323800D01*
X-268750Y323800D02*
X-265750Y323800D01*
X-265750Y320800D01*
X-265750Y288800D02*
X-265750Y285800D01*
X-268750Y285800D01*
X-302750Y285800D02*
X-305750Y285800D01*
X-305750Y288800D01*
D12*
X-295996Y331117D02*
X-295996Y338483D01*
X-296814Y331117D02*
X-295177Y331117D01*
X-295177Y338483D02*
X-296814Y338483D01*
X-290576Y331117D02*
X-288939Y331117D01*
X-290576Y331117D02*
X-290654Y331119D01*
X-290732Y331124D01*
X-290809Y331134D01*
X-290886Y331147D01*
X-290962Y331163D01*
X-291037Y331183D01*
X-291111Y331207D01*
X-291184Y331234D01*
X-291256Y331265D01*
X-291326Y331299D01*
X-291395Y331336D01*
X-291461Y331377D01*
X-291526Y331421D01*
X-291588Y331467D01*
X-291648Y331517D01*
X-291706Y331569D01*
X-291761Y331624D01*
X-291813Y331682D01*
X-291863Y331742D01*
X-291909Y331804D01*
X-291953Y331869D01*
X-291994Y331936D01*
X-292031Y332004D01*
X-292065Y332074D01*
X-292096Y332146D01*
X-292123Y332219D01*
X-292147Y332293D01*
X-292167Y332368D01*
X-292183Y332444D01*
X-292196Y332521D01*
X-292206Y332598D01*
X-292211Y332676D01*
X-292213Y332754D01*
X-292213Y336846D01*
X-292211Y336924D01*
X-292206Y337002D01*
X-292196Y337079D01*
X-292183Y337156D01*
X-292167Y337232D01*
X-292147Y337307D01*
X-292123Y337381D01*
X-292096Y337454D01*
X-292065Y337526D01*
X-292031Y337596D01*
X-291994Y337665D01*
X-291953Y337731D01*
X-291909Y337796D01*
X-291863Y337858D01*
X-291813Y337918D01*
X-291761Y337976D01*
X-291706Y338031D01*
X-291648Y338083D01*
X-291588Y338133D01*
X-291526Y338179D01*
X-291461Y338223D01*
X-291395Y338264D01*
X-291326Y338301D01*
X-291256Y338335D01*
X-291184Y338366D01*
X-291111Y338393D01*
X-291037Y338417D01*
X-290962Y338437D01*
X-290886Y338453D01*
X-290809Y338466D01*
X-290732Y338476D01*
X-290654Y338481D01*
X-290576Y338483D01*
X-288939Y338483D01*
X-286093Y331117D02*
X-284047Y331117D01*
X-283958Y331119D01*
X-283869Y331125D01*
X-283780Y331135D01*
X-283692Y331148D01*
X-283604Y331165D01*
X-283517Y331187D01*
X-283432Y331212D01*
X-283347Y331240D01*
X-283264Y331273D01*
X-283182Y331309D01*
X-283102Y331348D01*
X-283024Y331391D01*
X-282948Y331437D01*
X-282873Y331487D01*
X-282801Y331540D01*
X-282732Y331596D01*
X-282665Y331655D01*
X-282600Y331716D01*
X-282539Y331781D01*
X-282480Y331848D01*
X-282424Y331917D01*
X-282371Y331989D01*
X-282321Y332064D01*
X-282275Y332140D01*
X-282232Y332218D01*
X-282193Y332298D01*
X-282157Y332380D01*
X-282124Y332463D01*
X-282096Y332548D01*
X-282071Y332633D01*
X-282049Y332720D01*
X-282032Y332808D01*
X-282019Y332896D01*
X-282009Y332985D01*
X-282003Y333074D01*
X-282001Y333163D01*
X-282003Y333252D01*
X-282009Y333341D01*
X-282019Y333430D01*
X-282032Y333518D01*
X-282049Y333606D01*
X-282071Y333693D01*
X-282096Y333778D01*
X-282124Y333863D01*
X-282157Y333946D01*
X-282193Y334028D01*
X-282232Y334108D01*
X-282275Y334186D01*
X-282321Y334262D01*
X-282371Y334337D01*
X-282424Y334409D01*
X-282480Y334478D01*
X-282539Y334545D01*
X-282600Y334610D01*
X-282665Y334671D01*
X-282732Y334730D01*
X-282801Y334786D01*
X-282873Y334839D01*
X-282948Y334889D01*
X-283024Y334935D01*
X-283102Y334978D01*
X-283182Y335017D01*
X-283264Y335053D01*
X-283347Y335086D01*
X-283432Y335114D01*
X-283517Y335139D01*
X-283604Y335161D01*
X-283692Y335178D01*
X-283780Y335191D01*
X-283869Y335201D01*
X-283958Y335207D01*
X-284047Y335209D01*
X-283638Y338483D02*
X-286093Y338483D01*
X-283638Y338483D02*
X-283559Y338481D01*
X-283480Y338475D01*
X-283401Y338466D01*
X-283323Y338453D01*
X-283246Y338435D01*
X-283170Y338415D01*
X-283095Y338390D01*
X-283021Y338362D01*
X-282948Y338331D01*
X-282877Y338295D01*
X-282808Y338257D01*
X-282741Y338215D01*
X-282676Y338170D01*
X-282613Y338122D01*
X-282552Y338071D01*
X-282495Y338017D01*
X-282439Y337961D01*
X-282387Y337902D01*
X-282337Y337840D01*
X-282291Y337776D01*
X-282247Y337710D01*
X-282207Y337642D01*
X-282171Y337572D01*
X-282137Y337500D01*
X-282107Y337426D01*
X-282081Y337352D01*
X-282058Y337276D01*
X-282040Y337199D01*
X-282024Y337122D01*
X-282013Y337043D01*
X-282005Y336965D01*
X-282001Y336886D01*
X-282001Y336806D01*
X-282005Y336727D01*
X-282013Y336649D01*
X-282024Y336570D01*
X-282040Y336493D01*
X-282058Y336416D01*
X-282081Y336340D01*
X-282107Y336266D01*
X-282137Y336192D01*
X-282171Y336120D01*
X-282207Y336050D01*
X-282247Y335982D01*
X-282291Y335916D01*
X-282337Y335852D01*
X-282387Y335790D01*
X-282439Y335731D01*
X-282495Y335675D01*
X-282552Y335621D01*
X-282613Y335570D01*
X-282676Y335522D01*
X-282741Y335477D01*
X-282808Y335435D01*
X-282877Y335397D01*
X-282948Y335361D01*
X-283021Y335330D01*
X-283095Y335302D01*
X-283170Y335277D01*
X-283246Y335257D01*
X-283323Y335239D01*
X-283401Y335226D01*
X-283480Y335217D01*
X-283559Y335211D01*
X-283638Y335209D01*
X-285275Y335209D01*
X-278778Y334800D02*
X-278776Y334953D01*
X-278770Y335106D01*
X-278761Y335258D01*
X-278747Y335411D01*
X-278730Y335563D01*
X-278709Y335714D01*
X-278684Y335865D01*
X-278655Y336015D01*
X-278623Y336165D01*
X-278586Y336313D01*
X-278546Y336461D01*
X-278503Y336608D01*
X-278455Y336753D01*
X-278404Y336897D01*
X-278350Y337040D01*
X-278291Y337182D01*
X-278230Y337321D01*
X-278164Y337460D01*
X-278138Y337530D01*
X-278108Y337599D01*
X-278076Y337667D01*
X-278039Y337733D01*
X-278000Y337797D01*
X-277957Y337859D01*
X-277912Y337918D01*
X-277863Y337976D01*
X-277812Y338030D01*
X-277758Y338083D01*
X-277701Y338132D01*
X-277642Y338179D01*
X-277581Y338222D01*
X-277518Y338263D01*
X-277453Y338300D01*
X-277386Y338335D01*
X-277317Y338365D01*
X-277247Y338393D01*
X-277176Y338416D01*
X-277104Y338437D01*
X-277031Y338453D01*
X-276957Y338466D01*
X-276882Y338476D01*
X-276807Y338481D01*
X-276732Y338483D01*
X-276657Y338481D01*
X-276582Y338476D01*
X-276507Y338466D01*
X-276433Y338453D01*
X-276360Y338437D01*
X-276288Y338416D01*
X-276217Y338393D01*
X-276147Y338365D01*
X-276078Y338335D01*
X-276011Y338300D01*
X-275946Y338263D01*
X-275883Y338222D01*
X-275822Y338179D01*
X-275763Y338132D01*
X-275706Y338083D01*
X-275652Y338030D01*
X-275601Y337976D01*
X-275553Y337918D01*
X-275507Y337859D01*
X-275464Y337797D01*
X-275425Y337733D01*
X-275389Y337667D01*
X-275356Y337600D01*
X-275326Y337530D01*
X-275300Y337460D01*
X-275235Y337322D01*
X-275173Y337182D01*
X-275115Y337040D01*
X-275060Y336897D01*
X-275009Y336753D01*
X-274961Y336608D01*
X-274918Y336461D01*
X-274878Y336314D01*
X-274841Y336165D01*
X-274809Y336015D01*
X-274780Y335865D01*
X-274755Y335714D01*
X-274734Y335563D01*
X-274717Y335411D01*
X-274703Y335258D01*
X-274694Y335106D01*
X-274688Y334953D01*
X-274686Y334800D01*
X-278779Y334800D02*
X-278777Y334647D01*
X-278771Y334494D01*
X-278762Y334341D01*
X-278748Y334189D01*
X-278731Y334037D01*
X-278710Y333886D01*
X-278685Y333735D01*
X-278656Y333584D01*
X-278624Y333435D01*
X-278587Y333286D01*
X-278547Y333139D01*
X-278504Y332992D01*
X-278456Y332847D01*
X-278405Y332702D01*
X-278350Y332560D01*
X-278292Y332418D01*
X-278230Y332278D01*
X-278165Y332140D01*
X-278164Y332140D02*
X-278138Y332070D01*
X-278108Y332000D01*
X-278076Y331933D01*
X-278039Y331867D01*
X-278000Y331803D01*
X-277957Y331741D01*
X-277911Y331682D01*
X-277863Y331624D01*
X-277812Y331570D01*
X-277758Y331517D01*
X-277701Y331468D01*
X-277642Y331421D01*
X-277581Y331378D01*
X-277518Y331337D01*
X-277453Y331300D01*
X-277386Y331265D01*
X-277317Y331235D01*
X-277247Y331207D01*
X-277176Y331184D01*
X-277104Y331163D01*
X-277031Y331147D01*
X-276957Y331134D01*
X-276882Y331124D01*
X-276807Y331119D01*
X-276732Y331117D01*
X-275300Y332140D02*
X-275235Y332278D01*
X-275173Y332418D01*
X-275115Y332560D01*
X-275060Y332703D01*
X-275009Y332847D01*
X-274961Y332992D01*
X-274918Y333139D01*
X-274878Y333287D01*
X-274841Y333435D01*
X-274809Y333585D01*
X-274780Y333735D01*
X-274755Y333886D01*
X-274734Y334037D01*
X-274717Y334189D01*
X-274703Y334342D01*
X-274694Y334494D01*
X-274688Y334647D01*
X-274686Y334800D01*
X-275300Y332140D02*
X-275326Y332069D01*
X-275356Y332000D01*
X-275389Y331933D01*
X-275425Y331867D01*
X-275464Y331803D01*
X-275507Y331741D01*
X-275553Y331682D01*
X-275601Y331624D01*
X-275652Y331570D01*
X-275706Y331517D01*
X-275763Y331468D01*
X-275822Y331421D01*
X-275883Y331378D01*
X-275946Y331337D01*
X-276011Y331300D01*
X-276078Y331265D01*
X-276147Y331235D01*
X-276217Y331207D01*
X-276288Y331184D01*
X-276360Y331163D01*
X-276433Y331147D01*
X-276507Y331134D01*
X-276582Y331124D01*
X-276657Y331119D01*
X-276732Y331117D01*
X-278369Y332754D02*
X-275095Y336846D01*
D11*
X-496250Y365425D02*
X-496250Y368425D01*
X-493250Y368425D01*
X-459250Y368425D02*
X-456250Y368425D01*
X-456250Y365425D01*
X-456250Y333425D02*
X-456250Y330425D01*
X-459250Y330425D01*
X-493250Y330425D02*
X-496250Y330425D01*
X-496250Y333425D01*
D12*
X-486496Y375742D02*
X-486496Y383108D01*
X-487314Y375742D02*
X-485677Y375742D01*
X-485677Y383108D02*
X-487314Y383108D01*
X-481076Y375742D02*
X-479439Y375742D01*
X-481076Y375742D02*
X-481154Y375744D01*
X-481232Y375749D01*
X-481309Y375759D01*
X-481386Y375772D01*
X-481462Y375788D01*
X-481537Y375808D01*
X-481611Y375832D01*
X-481684Y375859D01*
X-481756Y375890D01*
X-481826Y375924D01*
X-481895Y375961D01*
X-481961Y376002D01*
X-482026Y376046D01*
X-482088Y376092D01*
X-482148Y376142D01*
X-482206Y376194D01*
X-482261Y376249D01*
X-482313Y376307D01*
X-482363Y376367D01*
X-482409Y376429D01*
X-482453Y376494D01*
X-482494Y376561D01*
X-482531Y376629D01*
X-482565Y376699D01*
X-482596Y376771D01*
X-482623Y376844D01*
X-482647Y376918D01*
X-482667Y376993D01*
X-482683Y377069D01*
X-482696Y377146D01*
X-482706Y377223D01*
X-482711Y377301D01*
X-482713Y377379D01*
X-482713Y381471D01*
X-482711Y381549D01*
X-482706Y381627D01*
X-482696Y381704D01*
X-482683Y381781D01*
X-482667Y381857D01*
X-482647Y381932D01*
X-482623Y382006D01*
X-482596Y382079D01*
X-482565Y382151D01*
X-482531Y382221D01*
X-482494Y382290D01*
X-482453Y382356D01*
X-482409Y382421D01*
X-482363Y382483D01*
X-482313Y382543D01*
X-482261Y382601D01*
X-482206Y382656D01*
X-482148Y382708D01*
X-482088Y382758D01*
X-482026Y382804D01*
X-481961Y382848D01*
X-481895Y382889D01*
X-481826Y382926D01*
X-481756Y382960D01*
X-481684Y382991D01*
X-481611Y383018D01*
X-481537Y383042D01*
X-481462Y383062D01*
X-481386Y383078D01*
X-481309Y383091D01*
X-481232Y383101D01*
X-481154Y383106D01*
X-481076Y383108D01*
X-479439Y383108D01*
X-476593Y375742D02*
X-474547Y375742D01*
X-474458Y375744D01*
X-474369Y375750D01*
X-474280Y375760D01*
X-474192Y375773D01*
X-474104Y375790D01*
X-474017Y375812D01*
X-473932Y375837D01*
X-473847Y375865D01*
X-473764Y375898D01*
X-473682Y375934D01*
X-473602Y375973D01*
X-473524Y376016D01*
X-473448Y376062D01*
X-473373Y376112D01*
X-473301Y376165D01*
X-473232Y376221D01*
X-473165Y376280D01*
X-473100Y376341D01*
X-473039Y376406D01*
X-472980Y376473D01*
X-472924Y376542D01*
X-472871Y376614D01*
X-472821Y376689D01*
X-472775Y376765D01*
X-472732Y376843D01*
X-472693Y376923D01*
X-472657Y377005D01*
X-472624Y377088D01*
X-472596Y377173D01*
X-472571Y377258D01*
X-472549Y377345D01*
X-472532Y377433D01*
X-472519Y377521D01*
X-472509Y377610D01*
X-472503Y377699D01*
X-472501Y377788D01*
X-472503Y377877D01*
X-472509Y377966D01*
X-472519Y378055D01*
X-472532Y378143D01*
X-472549Y378231D01*
X-472571Y378318D01*
X-472596Y378403D01*
X-472624Y378488D01*
X-472657Y378571D01*
X-472693Y378653D01*
X-472732Y378733D01*
X-472775Y378811D01*
X-472821Y378887D01*
X-472871Y378962D01*
X-472924Y379034D01*
X-472980Y379103D01*
X-473039Y379170D01*
X-473100Y379235D01*
X-473165Y379296D01*
X-473232Y379355D01*
X-473301Y379411D01*
X-473373Y379464D01*
X-473448Y379514D01*
X-473524Y379560D01*
X-473602Y379603D01*
X-473682Y379642D01*
X-473764Y379678D01*
X-473847Y379711D01*
X-473932Y379739D01*
X-474017Y379764D01*
X-474104Y379786D01*
X-474192Y379803D01*
X-474280Y379816D01*
X-474369Y379826D01*
X-474458Y379832D01*
X-474547Y379834D01*
X-474138Y383108D02*
X-476593Y383108D01*
X-474138Y383108D02*
X-474059Y383106D01*
X-473980Y383100D01*
X-473901Y383091D01*
X-473823Y383078D01*
X-473746Y383060D01*
X-473670Y383040D01*
X-473595Y383015D01*
X-473521Y382987D01*
X-473448Y382956D01*
X-473377Y382920D01*
X-473308Y382882D01*
X-473241Y382840D01*
X-473176Y382795D01*
X-473113Y382747D01*
X-473052Y382696D01*
X-472995Y382642D01*
X-472939Y382586D01*
X-472887Y382527D01*
X-472837Y382465D01*
X-472791Y382401D01*
X-472747Y382335D01*
X-472707Y382267D01*
X-472671Y382197D01*
X-472637Y382125D01*
X-472607Y382051D01*
X-472581Y381977D01*
X-472558Y381901D01*
X-472540Y381824D01*
X-472524Y381747D01*
X-472513Y381668D01*
X-472505Y381590D01*
X-472501Y381511D01*
X-472501Y381431D01*
X-472505Y381352D01*
X-472513Y381274D01*
X-472524Y381195D01*
X-472540Y381118D01*
X-472558Y381041D01*
X-472581Y380965D01*
X-472607Y380891D01*
X-472637Y380817D01*
X-472671Y380745D01*
X-472707Y380675D01*
X-472747Y380607D01*
X-472791Y380541D01*
X-472837Y380477D01*
X-472887Y380415D01*
X-472939Y380356D01*
X-472995Y380300D01*
X-473052Y380246D01*
X-473113Y380195D01*
X-473176Y380147D01*
X-473241Y380102D01*
X-473308Y380060D01*
X-473377Y380022D01*
X-473448Y379986D01*
X-473521Y379955D01*
X-473595Y379927D01*
X-473670Y379902D01*
X-473746Y379882D01*
X-473823Y379864D01*
X-473901Y379851D01*
X-473980Y379842D01*
X-474059Y379836D01*
X-474138Y379834D01*
X-475775Y379834D01*
X-469278Y381471D02*
X-467232Y383108D01*
X-467232Y375742D01*
X-469278Y375742D02*
X-465186Y375742D01*
D11*
X-686750Y390238D02*
X-686750Y393238D01*
X-683750Y393238D01*
X-649750Y393238D02*
X-646750Y393238D01*
X-646750Y390238D01*
X-646750Y358238D02*
X-646750Y355238D01*
X-649750Y355238D01*
X-683750Y355238D02*
X-686750Y355238D01*
X-686750Y358238D01*
D12*
X-676996Y400555D02*
X-676996Y407921D01*
X-677814Y400555D02*
X-676177Y400555D01*
X-676177Y407921D02*
X-677814Y407921D01*
X-671576Y400555D02*
X-669939Y400555D01*
X-671576Y400554D02*
X-671654Y400556D01*
X-671732Y400561D01*
X-671809Y400571D01*
X-671886Y400584D01*
X-671962Y400600D01*
X-672037Y400620D01*
X-672111Y400644D01*
X-672184Y400671D01*
X-672256Y400702D01*
X-672326Y400736D01*
X-672395Y400773D01*
X-672461Y400814D01*
X-672526Y400858D01*
X-672588Y400904D01*
X-672648Y400954D01*
X-672706Y401006D01*
X-672761Y401061D01*
X-672813Y401119D01*
X-672863Y401179D01*
X-672909Y401241D01*
X-672953Y401306D01*
X-672994Y401373D01*
X-673031Y401441D01*
X-673065Y401511D01*
X-673096Y401583D01*
X-673123Y401656D01*
X-673147Y401730D01*
X-673167Y401805D01*
X-673183Y401881D01*
X-673196Y401958D01*
X-673206Y402035D01*
X-673211Y402113D01*
X-673213Y402191D01*
X-673213Y406284D01*
X-673211Y406362D01*
X-673206Y406440D01*
X-673196Y406517D01*
X-673183Y406594D01*
X-673167Y406670D01*
X-673147Y406745D01*
X-673123Y406819D01*
X-673096Y406892D01*
X-673065Y406964D01*
X-673031Y407034D01*
X-672994Y407103D01*
X-672953Y407169D01*
X-672909Y407234D01*
X-672863Y407296D01*
X-672813Y407356D01*
X-672761Y407414D01*
X-672706Y407469D01*
X-672648Y407521D01*
X-672588Y407571D01*
X-672526Y407617D01*
X-672461Y407661D01*
X-672395Y407702D01*
X-672326Y407739D01*
X-672256Y407773D01*
X-672184Y407804D01*
X-672111Y407831D01*
X-672037Y407855D01*
X-671962Y407875D01*
X-671886Y407891D01*
X-671809Y407904D01*
X-671732Y407914D01*
X-671654Y407919D01*
X-671576Y407921D01*
X-669939Y407921D01*
X-667093Y400555D02*
X-665047Y400555D01*
X-664958Y400557D01*
X-664869Y400563D01*
X-664780Y400573D01*
X-664692Y400586D01*
X-664604Y400603D01*
X-664517Y400625D01*
X-664432Y400650D01*
X-664347Y400678D01*
X-664264Y400711D01*
X-664182Y400747D01*
X-664102Y400786D01*
X-664024Y400829D01*
X-663948Y400875D01*
X-663873Y400925D01*
X-663801Y400978D01*
X-663732Y401034D01*
X-663665Y401093D01*
X-663600Y401154D01*
X-663539Y401219D01*
X-663480Y401286D01*
X-663424Y401355D01*
X-663371Y401427D01*
X-663321Y401502D01*
X-663275Y401578D01*
X-663232Y401656D01*
X-663193Y401736D01*
X-663157Y401818D01*
X-663124Y401901D01*
X-663096Y401986D01*
X-663071Y402071D01*
X-663049Y402158D01*
X-663032Y402246D01*
X-663019Y402334D01*
X-663009Y402423D01*
X-663003Y402512D01*
X-663001Y402601D01*
X-663003Y402690D01*
X-663009Y402779D01*
X-663019Y402868D01*
X-663032Y402956D01*
X-663049Y403044D01*
X-663071Y403131D01*
X-663096Y403216D01*
X-663124Y403301D01*
X-663157Y403384D01*
X-663193Y403466D01*
X-663232Y403546D01*
X-663275Y403624D01*
X-663321Y403700D01*
X-663371Y403775D01*
X-663424Y403847D01*
X-663480Y403916D01*
X-663539Y403983D01*
X-663600Y404048D01*
X-663665Y404109D01*
X-663732Y404168D01*
X-663801Y404224D01*
X-663873Y404277D01*
X-663948Y404327D01*
X-664024Y404373D01*
X-664102Y404416D01*
X-664182Y404455D01*
X-664264Y404491D01*
X-664347Y404524D01*
X-664432Y404552D01*
X-664517Y404577D01*
X-664604Y404599D01*
X-664692Y404616D01*
X-664780Y404629D01*
X-664869Y404639D01*
X-664958Y404645D01*
X-665047Y404647D01*
X-664638Y407921D02*
X-667093Y407921D01*
X-664638Y407921D02*
X-664559Y407919D01*
X-664480Y407913D01*
X-664401Y407904D01*
X-664323Y407891D01*
X-664246Y407873D01*
X-664170Y407853D01*
X-664095Y407828D01*
X-664021Y407800D01*
X-663948Y407769D01*
X-663877Y407733D01*
X-663808Y407695D01*
X-663741Y407653D01*
X-663676Y407608D01*
X-663613Y407560D01*
X-663552Y407509D01*
X-663495Y407455D01*
X-663439Y407399D01*
X-663387Y407340D01*
X-663337Y407278D01*
X-663291Y407214D01*
X-663247Y407148D01*
X-663207Y407080D01*
X-663171Y407010D01*
X-663137Y406938D01*
X-663107Y406864D01*
X-663081Y406790D01*
X-663058Y406714D01*
X-663040Y406637D01*
X-663024Y406560D01*
X-663013Y406481D01*
X-663005Y406403D01*
X-663001Y406324D01*
X-663001Y406244D01*
X-663005Y406165D01*
X-663013Y406087D01*
X-663024Y406008D01*
X-663040Y405931D01*
X-663058Y405854D01*
X-663081Y405778D01*
X-663107Y405704D01*
X-663137Y405630D01*
X-663171Y405558D01*
X-663207Y405488D01*
X-663247Y405420D01*
X-663291Y405354D01*
X-663337Y405290D01*
X-663387Y405228D01*
X-663439Y405169D01*
X-663495Y405113D01*
X-663552Y405059D01*
X-663613Y405008D01*
X-663676Y404960D01*
X-663741Y404915D01*
X-663808Y404873D01*
X-663877Y404835D01*
X-663948Y404799D01*
X-664021Y404768D01*
X-664095Y404740D01*
X-664170Y404715D01*
X-664246Y404695D01*
X-664323Y404677D01*
X-664401Y404664D01*
X-664480Y404655D01*
X-664559Y404649D01*
X-664638Y404647D01*
X-666275Y404647D01*
X-657528Y407921D02*
X-657443Y407919D01*
X-657358Y407913D01*
X-657274Y407903D01*
X-657190Y407890D01*
X-657106Y407872D01*
X-657024Y407851D01*
X-656943Y407826D01*
X-656863Y407797D01*
X-656784Y407764D01*
X-656707Y407728D01*
X-656632Y407688D01*
X-656558Y407645D01*
X-656487Y407599D01*
X-656418Y407549D01*
X-656351Y407496D01*
X-656287Y407440D01*
X-656226Y407381D01*
X-656167Y407320D01*
X-656111Y407256D01*
X-656058Y407189D01*
X-656008Y407120D01*
X-655962Y407049D01*
X-655919Y406975D01*
X-655879Y406900D01*
X-655843Y406823D01*
X-655810Y406744D01*
X-655781Y406664D01*
X-655756Y406583D01*
X-655735Y406501D01*
X-655717Y406417D01*
X-655704Y406333D01*
X-655694Y406249D01*
X-655688Y406164D01*
X-655686Y406079D01*
X-657528Y407921D02*
X-657624Y407919D01*
X-657720Y407913D01*
X-657815Y407903D01*
X-657910Y407890D01*
X-658005Y407872D01*
X-658098Y407851D01*
X-658191Y407826D01*
X-658282Y407797D01*
X-658373Y407765D01*
X-658462Y407729D01*
X-658549Y407689D01*
X-658635Y407646D01*
X-658719Y407600D01*
X-658801Y407550D01*
X-658881Y407496D01*
X-658958Y407440D01*
X-659033Y407380D01*
X-659106Y407318D01*
X-659176Y407252D01*
X-659244Y407184D01*
X-659309Y407113D01*
X-659370Y407040D01*
X-659429Y406964D01*
X-659485Y406885D01*
X-659537Y406805D01*
X-659586Y406722D01*
X-659632Y406638D01*
X-659674Y406552D01*
X-659712Y406464D01*
X-659747Y406375D01*
X-659779Y406284D01*
X-656300Y404647D02*
X-656240Y404706D01*
X-656183Y404768D01*
X-656128Y404832D01*
X-656077Y404899D01*
X-656028Y404968D01*
X-655982Y405038D01*
X-655939Y405111D01*
X-655899Y405185D01*
X-655863Y405261D01*
X-655830Y405339D01*
X-655800Y405418D01*
X-655773Y405498D01*
X-655750Y405579D01*
X-655731Y405661D01*
X-655715Y405743D01*
X-655702Y405827D01*
X-655693Y405911D01*
X-655688Y405995D01*
X-655686Y406079D01*
X-656300Y404647D02*
X-659778Y400555D01*
X-655686Y400555D01*
X-950513Y338694D02*
X-952420Y345809D01*
X-951304Y338482D02*
X-949723Y338905D01*
X-951629Y346020D02*
X-953210Y345597D01*
X-945278Y340096D02*
X-943697Y340520D01*
X-945278Y340096D02*
X-945354Y340077D01*
X-945431Y340063D01*
X-945508Y340052D01*
X-945585Y340044D01*
X-945663Y340040D01*
X-945741Y340040D01*
X-945819Y340044D01*
X-945896Y340052D01*
X-945973Y340063D01*
X-946050Y340077D01*
X-946126Y340096D01*
X-946200Y340118D01*
X-946274Y340143D01*
X-946346Y340172D01*
X-946417Y340205D01*
X-946487Y340240D01*
X-946554Y340279D01*
X-946620Y340321D01*
X-946683Y340367D01*
X-946744Y340415D01*
X-946803Y340466D01*
X-946860Y340519D01*
X-946913Y340576D01*
X-946964Y340635D01*
X-947013Y340696D01*
X-947058Y340759D01*
X-947100Y340825D01*
X-947139Y340893D01*
X-947174Y340962D01*
X-947207Y341033D01*
X-947236Y341105D01*
X-947261Y341179D01*
X-947283Y341253D01*
X-947283Y341254D02*
X-948342Y345207D01*
X-948342Y345206D02*
X-948361Y345282D01*
X-948375Y345359D01*
X-948386Y345436D01*
X-948394Y345513D01*
X-948398Y345591D01*
X-948398Y345669D01*
X-948394Y345747D01*
X-948386Y345824D01*
X-948375Y345901D01*
X-948361Y345978D01*
X-948342Y346054D01*
X-948320Y346128D01*
X-948295Y346202D01*
X-948266Y346274D01*
X-948233Y346345D01*
X-948198Y346415D01*
X-948159Y346482D01*
X-948117Y346548D01*
X-948071Y346611D01*
X-948023Y346672D01*
X-947972Y346731D01*
X-947919Y346788D01*
X-947862Y346841D01*
X-947803Y346892D01*
X-947742Y346940D01*
X-947679Y346986D01*
X-947613Y347028D01*
X-947546Y347067D01*
X-947476Y347102D01*
X-947405Y347135D01*
X-947333Y347164D01*
X-947259Y347189D01*
X-947185Y347211D01*
X-945603Y347635D01*
X-940949Y341256D02*
X-938972Y341786D01*
X-938887Y341811D01*
X-938802Y341839D01*
X-938719Y341872D01*
X-938637Y341908D01*
X-938557Y341947D01*
X-938479Y341990D01*
X-938403Y342036D01*
X-938328Y342086D01*
X-938256Y342139D01*
X-938187Y342195D01*
X-938120Y342254D01*
X-938055Y342315D01*
X-937994Y342380D01*
X-937935Y342447D01*
X-937879Y342516D01*
X-937826Y342588D01*
X-937776Y342663D01*
X-937730Y342739D01*
X-937687Y342817D01*
X-937648Y342897D01*
X-937612Y342979D01*
X-937579Y343062D01*
X-937551Y343147D01*
X-937526Y343232D01*
X-937505Y343319D01*
X-937487Y343407D01*
X-937474Y343495D01*
X-937464Y343584D01*
X-937458Y343673D01*
X-937456Y343762D01*
X-937458Y343851D01*
X-937464Y343940D01*
X-937474Y344029D01*
X-937487Y344117D01*
X-937504Y344205D01*
X-937526Y344292D01*
X-937551Y344377D01*
X-937579Y344462D01*
X-937612Y344545D01*
X-937648Y344627D01*
X-937687Y344707D01*
X-937730Y344785D01*
X-937776Y344861D01*
X-937826Y344936D01*
X-937879Y345008D01*
X-937935Y345077D01*
X-937994Y345144D01*
X-938055Y345209D01*
X-938120Y345270D01*
X-938187Y345329D01*
X-938256Y345385D01*
X-938328Y345438D01*
X-938403Y345488D01*
X-938479Y345534D01*
X-938557Y345577D01*
X-938637Y345616D01*
X-938719Y345652D01*
X-938802Y345685D01*
X-938887Y345713D01*
X-938972Y345738D01*
X-939059Y345759D01*
X-939147Y345777D01*
X-939235Y345790D01*
X-939324Y345800D01*
X-939413Y345806D01*
X-939502Y345808D01*
X-939591Y345806D01*
X-939680Y345800D01*
X-939769Y345790D01*
X-939857Y345777D01*
X-939945Y345760D01*
X-940032Y345738D01*
X-940483Y349007D02*
X-942855Y348371D01*
X-940484Y349007D02*
X-940406Y349026D01*
X-940327Y349041D01*
X-940247Y349052D01*
X-940167Y349059D01*
X-940087Y349063D01*
X-940006Y349062D01*
X-939926Y349058D01*
X-939846Y349049D01*
X-939767Y349037D01*
X-939688Y349020D01*
X-939610Y349000D01*
X-939534Y348976D01*
X-939458Y348948D01*
X-939384Y348917D01*
X-939312Y348882D01*
X-939241Y348844D01*
X-939173Y348802D01*
X-939106Y348757D01*
X-939042Y348708D01*
X-938981Y348657D01*
X-938922Y348602D01*
X-938865Y348545D01*
X-938812Y348485D01*
X-938761Y348423D01*
X-938714Y348358D01*
X-938670Y348290D01*
X-938629Y348221D01*
X-938592Y348150D01*
X-938558Y348077D01*
X-938528Y348003D01*
X-938501Y347927D01*
X-938479Y347850D01*
X-938460Y347772D01*
X-938445Y347693D01*
X-938434Y347613D01*
X-938427Y347533D01*
X-938423Y347453D01*
X-938424Y347372D01*
X-938428Y347292D01*
X-938437Y347212D01*
X-938449Y347133D01*
X-938466Y347054D01*
X-938486Y346976D01*
X-938510Y346900D01*
X-938538Y346824D01*
X-938569Y346750D01*
X-938604Y346678D01*
X-938642Y346608D01*
X-938684Y346539D01*
X-938729Y346472D01*
X-938778Y346408D01*
X-938829Y346347D01*
X-938884Y346288D01*
X-938941Y346231D01*
X-939001Y346178D01*
X-939063Y346127D01*
X-939128Y346080D01*
X-939196Y346036D01*
X-939265Y345995D01*
X-939336Y345958D01*
X-939409Y345924D01*
X-939483Y345894D01*
X-939559Y345867D01*
X-939636Y345845D01*
X-941217Y345421D01*
X-933883Y343150D02*
X-931906Y343679D01*
X-931906Y343680D02*
X-931821Y343705D01*
X-931736Y343733D01*
X-931653Y343766D01*
X-931571Y343802D01*
X-931491Y343841D01*
X-931413Y343884D01*
X-931337Y343930D01*
X-931262Y343980D01*
X-931190Y344033D01*
X-931121Y344089D01*
X-931054Y344148D01*
X-930989Y344209D01*
X-930928Y344274D01*
X-930869Y344341D01*
X-930813Y344410D01*
X-930760Y344482D01*
X-930710Y344557D01*
X-930664Y344633D01*
X-930621Y344711D01*
X-930582Y344791D01*
X-930546Y344873D01*
X-930513Y344956D01*
X-930485Y345041D01*
X-930460Y345126D01*
X-930439Y345213D01*
X-930421Y345301D01*
X-930408Y345389D01*
X-930398Y345478D01*
X-930392Y345567D01*
X-930390Y345656D01*
X-930392Y345745D01*
X-930398Y345834D01*
X-930408Y345923D01*
X-930421Y346011D01*
X-930438Y346099D01*
X-930460Y346186D01*
X-930485Y346271D01*
X-930513Y346356D01*
X-930546Y346439D01*
X-930582Y346521D01*
X-930621Y346601D01*
X-930664Y346679D01*
X-930710Y346755D01*
X-930760Y346830D01*
X-930813Y346902D01*
X-930869Y346971D01*
X-930928Y347038D01*
X-930989Y347103D01*
X-931054Y347164D01*
X-931121Y347223D01*
X-931190Y347279D01*
X-931262Y347332D01*
X-931337Y347382D01*
X-931413Y347428D01*
X-931491Y347471D01*
X-931571Y347510D01*
X-931653Y347546D01*
X-931736Y347579D01*
X-931821Y347607D01*
X-931906Y347632D01*
X-931993Y347653D01*
X-932081Y347671D01*
X-932169Y347684D01*
X-932258Y347694D01*
X-932347Y347700D01*
X-932436Y347702D01*
X-932525Y347700D01*
X-932614Y347694D01*
X-932703Y347684D01*
X-932791Y347671D01*
X-932879Y347654D01*
X-932966Y347632D01*
X-933417Y350900D02*
X-935789Y350265D01*
X-933418Y350900D02*
X-933340Y350919D01*
X-933261Y350934D01*
X-933181Y350945D01*
X-933101Y350952D01*
X-933021Y350956D01*
X-932940Y350955D01*
X-932860Y350951D01*
X-932780Y350942D01*
X-932701Y350930D01*
X-932622Y350913D01*
X-932544Y350893D01*
X-932468Y350869D01*
X-932392Y350841D01*
X-932318Y350810D01*
X-932246Y350775D01*
X-932175Y350737D01*
X-932107Y350695D01*
X-932040Y350650D01*
X-931976Y350601D01*
X-931915Y350550D01*
X-931856Y350495D01*
X-931799Y350438D01*
X-931746Y350378D01*
X-931695Y350316D01*
X-931648Y350251D01*
X-931604Y350183D01*
X-931563Y350114D01*
X-931526Y350043D01*
X-931492Y349970D01*
X-931462Y349896D01*
X-931435Y349820D01*
X-931413Y349743D01*
X-931394Y349665D01*
X-931379Y349586D01*
X-931368Y349506D01*
X-931361Y349426D01*
X-931357Y349346D01*
X-931358Y349265D01*
X-931362Y349185D01*
X-931371Y349105D01*
X-931383Y349026D01*
X-931400Y348947D01*
X-931420Y348869D01*
X-931444Y348793D01*
X-931472Y348717D01*
X-931503Y348643D01*
X-931538Y348571D01*
X-931576Y348501D01*
X-931618Y348432D01*
X-931663Y348365D01*
X-931712Y348301D01*
X-931763Y348240D01*
X-931818Y348181D01*
X-931875Y348124D01*
X-931935Y348071D01*
X-931997Y348020D01*
X-932062Y347973D01*
X-932130Y347929D01*
X-932199Y347888D01*
X-932270Y347851D01*
X-932343Y347817D01*
X-932417Y347787D01*
X-932493Y347760D01*
X-932570Y347738D01*
X-934151Y347314D01*
D11*
X-958042Y329101D02*
X-957265Y326204D01*
X-958042Y329101D02*
X-955144Y329878D01*
X-922302Y338678D02*
X-919405Y339454D01*
X-918628Y336556D01*
X-910346Y305647D02*
X-909570Y302749D01*
X-912467Y301973D01*
X-945309Y293173D02*
X-948207Y292396D01*
X-948983Y295294D01*
D12*
X-1203131Y258829D02*
X-1206814Y265208D01*
X-1202423Y259238D02*
X-1203840Y258419D01*
X-1207523Y264799D02*
X-1206106Y265617D01*
X-1198438Y261539D02*
X-1197020Y262357D01*
X-1198437Y261538D02*
X-1198506Y261501D01*
X-1198576Y261467D01*
X-1198648Y261436D01*
X-1198721Y261409D01*
X-1198795Y261385D01*
X-1198870Y261365D01*
X-1198946Y261349D01*
X-1199023Y261336D01*
X-1199100Y261326D01*
X-1199178Y261321D01*
X-1199256Y261319D01*
X-1199334Y261321D01*
X-1199412Y261326D01*
X-1199489Y261336D01*
X-1199566Y261349D01*
X-1199642Y261365D01*
X-1199717Y261385D01*
X-1199791Y261409D01*
X-1199864Y261436D01*
X-1199936Y261467D01*
X-1200006Y261501D01*
X-1200075Y261538D01*
X-1200141Y261579D01*
X-1200206Y261623D01*
X-1200268Y261669D01*
X-1200328Y261719D01*
X-1200386Y261771D01*
X-1200441Y261826D01*
X-1200493Y261884D01*
X-1200543Y261944D01*
X-1200589Y262006D01*
X-1200633Y262071D01*
X-1200674Y262138D01*
X-1202720Y265682D01*
X-1202758Y265752D01*
X-1202793Y265824D01*
X-1202824Y265898D01*
X-1202852Y265974D01*
X-1202876Y266051D01*
X-1202896Y266128D01*
X-1202913Y266207D01*
X-1202925Y266286D01*
X-1202934Y266366D01*
X-1202938Y266446D01*
X-1202939Y266527D01*
X-1202935Y266607D01*
X-1202928Y266687D01*
X-1202917Y266767D01*
X-1202902Y266846D01*
X-1202883Y266924D01*
X-1202861Y267001D01*
X-1202834Y267077D01*
X-1202804Y267151D01*
X-1202770Y267224D01*
X-1202733Y267295D01*
X-1202692Y267364D01*
X-1202648Y267432D01*
X-1202601Y267497D01*
X-1202550Y267559D01*
X-1202497Y267619D01*
X-1202440Y267676D01*
X-1202381Y267731D01*
X-1202320Y267782D01*
X-1202256Y267831D01*
X-1202189Y267876D01*
X-1202121Y267918D01*
X-1200703Y268736D01*
X-1194556Y263780D02*
X-1192784Y264803D01*
X-1192708Y264849D01*
X-1192633Y264899D01*
X-1192561Y264952D01*
X-1192492Y265008D01*
X-1192425Y265067D01*
X-1192360Y265128D01*
X-1192299Y265193D01*
X-1192240Y265260D01*
X-1192184Y265329D01*
X-1192131Y265401D01*
X-1192081Y265476D01*
X-1192035Y265552D01*
X-1191992Y265630D01*
X-1191953Y265710D01*
X-1191917Y265792D01*
X-1191884Y265875D01*
X-1191856Y265960D01*
X-1191831Y266045D01*
X-1191810Y266132D01*
X-1191792Y266220D01*
X-1191779Y266308D01*
X-1191769Y266397D01*
X-1191763Y266486D01*
X-1191761Y266575D01*
X-1191763Y266664D01*
X-1191769Y266753D01*
X-1191779Y266842D01*
X-1191792Y266930D01*
X-1191809Y267018D01*
X-1191831Y267105D01*
X-1191856Y267190D01*
X-1191884Y267275D01*
X-1191917Y267358D01*
X-1191953Y267440D01*
X-1191992Y267520D01*
X-1192035Y267598D01*
X-1192081Y267674D01*
X-1192131Y267749D01*
X-1192184Y267821D01*
X-1192240Y267890D01*
X-1192299Y267957D01*
X-1192360Y268022D01*
X-1192425Y268083D01*
X-1192492Y268142D01*
X-1192561Y268198D01*
X-1192633Y268251D01*
X-1192708Y268301D01*
X-1192784Y268347D01*
X-1192862Y268390D01*
X-1192942Y268429D01*
X-1193024Y268465D01*
X-1193107Y268498D01*
X-1193192Y268526D01*
X-1193277Y268551D01*
X-1193364Y268573D01*
X-1193452Y268590D01*
X-1193540Y268603D01*
X-1193629Y268613D01*
X-1193718Y268619D01*
X-1193807Y268621D01*
X-1193896Y268619D01*
X-1193985Y268613D01*
X-1194074Y268603D01*
X-1194162Y268590D01*
X-1194250Y268572D01*
X-1194337Y268551D01*
X-1194422Y268526D01*
X-1194507Y268498D01*
X-1194590Y268465D01*
X-1194672Y268429D01*
X-1194752Y268390D01*
X-1194830Y268347D01*
X-1196112Y271386D02*
X-1198239Y270159D01*
X-1196112Y271387D02*
X-1196042Y271425D01*
X-1195970Y271460D01*
X-1195896Y271491D01*
X-1195820Y271519D01*
X-1195743Y271543D01*
X-1195666Y271563D01*
X-1195587Y271580D01*
X-1195508Y271592D01*
X-1195428Y271601D01*
X-1195348Y271605D01*
X-1195267Y271606D01*
X-1195187Y271602D01*
X-1195107Y271595D01*
X-1195027Y271584D01*
X-1194948Y271569D01*
X-1194870Y271550D01*
X-1194793Y271528D01*
X-1194717Y271501D01*
X-1194643Y271471D01*
X-1194570Y271437D01*
X-1194499Y271400D01*
X-1194430Y271359D01*
X-1194362Y271315D01*
X-1194297Y271268D01*
X-1194235Y271217D01*
X-1194175Y271164D01*
X-1194118Y271107D01*
X-1194063Y271048D01*
X-1194012Y270987D01*
X-1193963Y270923D01*
X-1193918Y270856D01*
X-1193876Y270788D01*
X-1193838Y270717D01*
X-1193803Y270645D01*
X-1193772Y270571D01*
X-1193744Y270495D01*
X-1193720Y270419D01*
X-1193700Y270341D01*
X-1193683Y270262D01*
X-1193671Y270183D01*
X-1193662Y270103D01*
X-1193658Y270023D01*
X-1193657Y269942D01*
X-1193661Y269862D01*
X-1193668Y269782D01*
X-1193679Y269702D01*
X-1193694Y269623D01*
X-1193713Y269545D01*
X-1193735Y269468D01*
X-1193762Y269392D01*
X-1193792Y269318D01*
X-1193826Y269245D01*
X-1193863Y269174D01*
X-1193904Y269105D01*
X-1193948Y269037D01*
X-1193995Y268972D01*
X-1194046Y268910D01*
X-1194099Y268850D01*
X-1194156Y268793D01*
X-1194215Y268738D01*
X-1194276Y268687D01*
X-1194340Y268638D01*
X-1194407Y268593D01*
X-1194475Y268551D01*
X-1194476Y268551D02*
X-1195893Y267733D01*
X-1189039Y268855D02*
X-1190486Y274635D01*
X-1189039Y268855D02*
X-1185495Y270901D01*
X-1185740Y268870D02*
X-1187377Y271705D01*
D11*
X-1207921Y247615D02*
X-1206421Y245017D01*
X-1207921Y247615D02*
X-1205322Y249115D01*
X-1175878Y266115D02*
X-1173279Y267615D01*
X-1171779Y265017D01*
X-1155779Y237304D02*
X-1154279Y234706D01*
X-1156878Y233206D01*
X-1186322Y216206D02*
X-1188921Y214706D01*
X-1190421Y217304D01*
D12*
X-1369501Y163579D02*
X-1373184Y169958D01*
X-1370210Y163170D02*
X-1368793Y163988D01*
X-1372476Y170367D02*
X-1373893Y169549D01*
X-1364808Y166289D02*
X-1363390Y167107D01*
X-1364807Y166288D02*
X-1364876Y166251D01*
X-1364946Y166217D01*
X-1365018Y166186D01*
X-1365091Y166159D01*
X-1365165Y166135D01*
X-1365240Y166115D01*
X-1365316Y166099D01*
X-1365393Y166086D01*
X-1365470Y166076D01*
X-1365548Y166071D01*
X-1365626Y166069D01*
X-1365704Y166071D01*
X-1365782Y166076D01*
X-1365859Y166086D01*
X-1365936Y166099D01*
X-1366012Y166115D01*
X-1366087Y166135D01*
X-1366161Y166159D01*
X-1366234Y166186D01*
X-1366306Y166217D01*
X-1366376Y166251D01*
X-1366445Y166288D01*
X-1366511Y166329D01*
X-1366576Y166373D01*
X-1366638Y166419D01*
X-1366698Y166469D01*
X-1366756Y166521D01*
X-1366811Y166576D01*
X-1366863Y166634D01*
X-1366913Y166694D01*
X-1366959Y166756D01*
X-1367003Y166821D01*
X-1367044Y166888D01*
X-1369090Y170432D01*
X-1369128Y170502D01*
X-1369163Y170574D01*
X-1369194Y170648D01*
X-1369222Y170724D01*
X-1369246Y170801D01*
X-1369266Y170878D01*
X-1369283Y170957D01*
X-1369295Y171036D01*
X-1369304Y171116D01*
X-1369308Y171196D01*
X-1369309Y171277D01*
X-1369305Y171357D01*
X-1369298Y171437D01*
X-1369287Y171517D01*
X-1369272Y171596D01*
X-1369253Y171674D01*
X-1369231Y171751D01*
X-1369204Y171827D01*
X-1369174Y171901D01*
X-1369140Y171974D01*
X-1369103Y172045D01*
X-1369062Y172114D01*
X-1369018Y172182D01*
X-1368971Y172247D01*
X-1368920Y172309D01*
X-1368867Y172369D01*
X-1368810Y172426D01*
X-1368751Y172481D01*
X-1368690Y172532D01*
X-1368626Y172581D01*
X-1368559Y172626D01*
X-1368491Y172668D01*
X-1367073Y173486D01*
X-1360926Y168530D02*
X-1359154Y169553D01*
X-1359078Y169599D01*
X-1359003Y169649D01*
X-1358931Y169702D01*
X-1358862Y169758D01*
X-1358795Y169817D01*
X-1358730Y169878D01*
X-1358669Y169943D01*
X-1358610Y170010D01*
X-1358554Y170079D01*
X-1358501Y170151D01*
X-1358451Y170226D01*
X-1358405Y170302D01*
X-1358362Y170380D01*
X-1358323Y170460D01*
X-1358287Y170542D01*
X-1358254Y170625D01*
X-1358226Y170710D01*
X-1358201Y170795D01*
X-1358180Y170882D01*
X-1358162Y170970D01*
X-1358149Y171058D01*
X-1358139Y171147D01*
X-1358133Y171236D01*
X-1358131Y171325D01*
X-1358133Y171414D01*
X-1358139Y171503D01*
X-1358149Y171592D01*
X-1358162Y171680D01*
X-1358179Y171768D01*
X-1358201Y171855D01*
X-1358226Y171940D01*
X-1358254Y172025D01*
X-1358287Y172108D01*
X-1358323Y172190D01*
X-1358362Y172270D01*
X-1358405Y172348D01*
X-1358451Y172424D01*
X-1358501Y172499D01*
X-1358554Y172571D01*
X-1358610Y172640D01*
X-1358669Y172707D01*
X-1358730Y172772D01*
X-1358795Y172833D01*
X-1358862Y172892D01*
X-1358931Y172948D01*
X-1359003Y173001D01*
X-1359078Y173051D01*
X-1359154Y173097D01*
X-1359232Y173140D01*
X-1359312Y173179D01*
X-1359394Y173215D01*
X-1359477Y173248D01*
X-1359562Y173276D01*
X-1359647Y173301D01*
X-1359734Y173323D01*
X-1359822Y173340D01*
X-1359910Y173353D01*
X-1359999Y173363D01*
X-1360088Y173369D01*
X-1360177Y173371D01*
X-1360266Y173369D01*
X-1360355Y173363D01*
X-1360444Y173353D01*
X-1360532Y173340D01*
X-1360620Y173322D01*
X-1360707Y173301D01*
X-1360792Y173276D01*
X-1360877Y173248D01*
X-1360960Y173215D01*
X-1361042Y173179D01*
X-1361122Y173140D01*
X-1361200Y173097D01*
X-1362482Y176137D02*
X-1364609Y174909D01*
X-1362482Y176137D02*
X-1362412Y176175D01*
X-1362340Y176210D01*
X-1362266Y176241D01*
X-1362190Y176269D01*
X-1362113Y176293D01*
X-1362036Y176313D01*
X-1361957Y176330D01*
X-1361878Y176342D01*
X-1361798Y176351D01*
X-1361718Y176355D01*
X-1361637Y176356D01*
X-1361557Y176352D01*
X-1361477Y176345D01*
X-1361397Y176334D01*
X-1361318Y176319D01*
X-1361240Y176300D01*
X-1361163Y176278D01*
X-1361087Y176251D01*
X-1361013Y176221D01*
X-1360940Y176187D01*
X-1360869Y176150D01*
X-1360800Y176109D01*
X-1360732Y176065D01*
X-1360667Y176018D01*
X-1360605Y175967D01*
X-1360545Y175914D01*
X-1360488Y175857D01*
X-1360433Y175798D01*
X-1360382Y175737D01*
X-1360333Y175673D01*
X-1360288Y175606D01*
X-1360246Y175538D01*
X-1360208Y175467D01*
X-1360173Y175395D01*
X-1360142Y175321D01*
X-1360114Y175245D01*
X-1360090Y175169D01*
X-1360070Y175091D01*
X-1360053Y175012D01*
X-1360041Y174933D01*
X-1360032Y174853D01*
X-1360028Y174773D01*
X-1360027Y174692D01*
X-1360031Y174612D01*
X-1360038Y174532D01*
X-1360049Y174452D01*
X-1360064Y174373D01*
X-1360083Y174295D01*
X-1360105Y174218D01*
X-1360132Y174142D01*
X-1360162Y174068D01*
X-1360196Y173995D01*
X-1360233Y173924D01*
X-1360274Y173855D01*
X-1360318Y173787D01*
X-1360365Y173722D01*
X-1360416Y173660D01*
X-1360469Y173600D01*
X-1360526Y173543D01*
X-1360585Y173488D01*
X-1360646Y173437D01*
X-1360710Y173388D01*
X-1360777Y173343D01*
X-1360845Y173301D01*
X-1360846Y173301D02*
X-1362263Y172483D01*
X-1354591Y172187D02*
X-1352464Y173415D01*
X-1352465Y173415D02*
X-1352396Y173457D01*
X-1352329Y173502D01*
X-1352265Y173551D01*
X-1352204Y173602D01*
X-1352145Y173657D01*
X-1352088Y173714D01*
X-1352035Y173774D01*
X-1351984Y173836D01*
X-1351937Y173901D01*
X-1351893Y173969D01*
X-1351852Y174038D01*
X-1351815Y174109D01*
X-1351781Y174182D01*
X-1351751Y174256D01*
X-1351724Y174332D01*
X-1351702Y174409D01*
X-1351683Y174487D01*
X-1351668Y174566D01*
X-1351657Y174646D01*
X-1351650Y174726D01*
X-1351646Y174806D01*
X-1351647Y174887D01*
X-1351651Y174967D01*
X-1351660Y175047D01*
X-1351672Y175126D01*
X-1351689Y175205D01*
X-1351709Y175282D01*
X-1351733Y175359D01*
X-1351761Y175435D01*
X-1351792Y175509D01*
X-1351827Y175581D01*
X-1351865Y175651D01*
X-1352274Y176360D01*
X-1352274Y176359D02*
X-1352315Y176426D01*
X-1352359Y176491D01*
X-1352405Y176553D01*
X-1352455Y176613D01*
X-1352507Y176671D01*
X-1352562Y176726D01*
X-1352620Y176778D01*
X-1352680Y176828D01*
X-1352742Y176874D01*
X-1352807Y176918D01*
X-1352874Y176959D01*
X-1352942Y176996D01*
X-1353012Y177030D01*
X-1353084Y177061D01*
X-1353157Y177088D01*
X-1353231Y177112D01*
X-1353306Y177132D01*
X-1353382Y177148D01*
X-1353459Y177161D01*
X-1353536Y177171D01*
X-1353614Y177176D01*
X-1353692Y177178D01*
X-1353770Y177176D01*
X-1353848Y177171D01*
X-1353925Y177161D01*
X-1354002Y177148D01*
X-1354078Y177132D01*
X-1354153Y177112D01*
X-1354227Y177088D01*
X-1354300Y177061D01*
X-1354372Y177030D01*
X-1354442Y176996D01*
X-1354511Y176959D01*
X-1354510Y176959D02*
X-1356637Y175731D01*
X-1358274Y178566D01*
X-1354730Y180613D01*
D11*
X-1374291Y152365D02*
X-1372791Y149767D01*
X-1374291Y152365D02*
X-1371692Y153865D01*
X-1342248Y170865D02*
X-1339649Y172365D01*
X-1338149Y169767D01*
X-1322149Y142054D02*
X-1320649Y139456D01*
X-1323248Y137956D01*
X-1352692Y120956D02*
X-1355291Y119456D01*
X-1356791Y122054D01*
M02*
