G04 EAGLE Gerber RS-274X export*
G75*
%MOMM*%
%FSLAX34Y34*%
%LPD*%
%AMOC8*
5,1,8,0,0,1.08239X$1,22.5*%
G01*
%ADD10C,4.102000*%
%ADD11C,1.801600*%
%ADD12C,3.101600*%
%ADD13R,2.801600X2.101600*%
%ADD14R,1.117600X1.117600*%
%ADD15R,0.851600X0.401600*%
%ADD16R,0.401600X0.851600*%
%ADD17R,4.101600X4.101600*%
%ADD18R,0.551600X1.801600*%
%ADD19R,1.576600X2.201600*%
%ADD20R,2.476600X2.001600*%
%ADD21R,0.681600X1.301600*%
%ADD22R,2.101600X2.101600*%
%ADD23R,0.660400X0.863600*%
%ADD24R,1.501600X1.701600*%
%ADD25R,1.117600X0.863600*%
%ADD26R,0.863600X0.660400*%
%ADD27R,2.101600X3.101600*%
%ADD28R,2.601600X1.601600*%
%ADD29C,1.301600*%
%ADD30R,1.701600X1.501600*%
%ADD31C,1.101600*%


D10*
X-71438Y1016000D03*
D11*
X-122238Y1016000D03*
X-20638Y1016000D03*
D12*
X-33338Y990600D03*
X-96838Y965200D03*
D13*
X4813Y990600D03*
X-134988Y965200D03*
D10*
X-666750Y1085438D03*
D11*
X-717550Y1085438D03*
X-615950Y1085438D03*
D12*
X-628650Y1060038D03*
X-692150Y1034638D03*
D13*
X-590500Y1060038D03*
X-730300Y1034638D03*
D10*
X-476250Y1060625D03*
D11*
X-527050Y1060625D03*
X-425450Y1060625D03*
D12*
X-438150Y1035225D03*
X-501650Y1009825D03*
D13*
X-400000Y1035225D03*
X-539800Y1009825D03*
D10*
X-857250Y1060625D03*
D11*
X-908050Y1060625D03*
X-806450Y1060625D03*
D12*
X-819150Y1035225D03*
X-882650Y1009825D03*
D13*
X-781000Y1035225D03*
X-920800Y1009825D03*
D10*
X-1047750Y1040813D03*
D11*
X-1098550Y1040813D03*
X-996950Y1040813D03*
D12*
X-1009650Y1015413D03*
X-1073150Y990013D03*
D13*
X-971500Y1015413D03*
X-1111300Y990013D03*
D10*
X-285750Y1016000D03*
D11*
X-336550Y1016000D03*
X-234950Y1016000D03*
D12*
X-247650Y990600D03*
X-311150Y965200D03*
D13*
X-209500Y990600D03*
X-349300Y965200D03*
D10*
X-1238250Y946563D03*
D11*
X-1289050Y946563D03*
X-1187450Y946563D03*
D12*
X-1200150Y921163D03*
X-1263650Y895763D03*
D13*
X-1162000Y921163D03*
X-1301800Y895763D03*
D10*
X-71438Y825500D03*
D11*
X-122238Y825500D03*
X-20638Y825500D03*
D12*
X-33338Y800100D03*
X-96838Y774700D03*
D13*
X4813Y800100D03*
X-134988Y774700D03*
D10*
X-285750Y825500D03*
D11*
X-336550Y825500D03*
X-234950Y825500D03*
D12*
X-247650Y800100D03*
X-311150Y774700D03*
D13*
X-209500Y800100D03*
X-349300Y774700D03*
D10*
X-476250Y870125D03*
D11*
X-527050Y870125D03*
X-425450Y870125D03*
D12*
X-438150Y844725D03*
X-501650Y819325D03*
D13*
X-400000Y844725D03*
X-539800Y819325D03*
D10*
X-666750Y894938D03*
D11*
X-717550Y894938D03*
X-615950Y894938D03*
D12*
X-628650Y869538D03*
X-692150Y844138D03*
D13*
X-590500Y869538D03*
X-730300Y844138D03*
D10*
X-857250Y870125D03*
D11*
X-908050Y870125D03*
X-806450Y870125D03*
D12*
X-819150Y844725D03*
X-882650Y819325D03*
D13*
X-781000Y844725D03*
X-920800Y819325D03*
D10*
X-1047750Y850313D03*
D11*
X-1098550Y850313D03*
X-996950Y850313D03*
D12*
X-1009650Y824913D03*
X-1073150Y799513D03*
D13*
X-971500Y824913D03*
X-1111300Y799513D03*
D10*
X-1238250Y704533D03*
D11*
X-1289050Y704533D03*
X-1187450Y704533D03*
D12*
X-1200150Y679133D03*
X-1263650Y653733D03*
D13*
X-1162000Y679133D03*
X-1301800Y653733D03*
D10*
X-71438Y635000D03*
D11*
X-122238Y635000D03*
X-20638Y635000D03*
D12*
X-33338Y609600D03*
X-96838Y584200D03*
D13*
X4813Y609600D03*
X-134988Y584200D03*
D10*
X-285750Y635000D03*
D11*
X-336550Y635000D03*
X-234950Y635000D03*
D12*
X-247650Y609600D03*
X-311150Y584200D03*
D13*
X-209500Y609600D03*
X-349300Y584200D03*
D10*
X-476250Y679625D03*
D11*
X-527050Y679625D03*
X-425450Y679625D03*
D12*
X-438150Y654225D03*
X-501650Y628825D03*
D13*
X-400000Y654225D03*
X-539800Y628825D03*
D10*
X-666750Y704438D03*
D11*
X-717550Y704438D03*
X-615950Y704438D03*
D12*
X-628650Y679038D03*
X-692150Y653638D03*
D13*
X-590500Y679038D03*
X-730300Y653638D03*
D10*
X-857250Y679625D03*
D11*
X-908050Y679625D03*
X-806450Y679625D03*
D12*
X-819150Y654225D03*
X-882650Y628825D03*
D13*
X-781000Y654225D03*
X-920800Y628825D03*
D10*
X-1047750Y659813D03*
D11*
X-1098550Y659813D03*
X-996950Y659813D03*
D12*
X-1009650Y634413D03*
X-1073150Y609013D03*
D13*
X-971500Y634413D03*
X-1111300Y609013D03*
D10*
X-71438Y444500D03*
D11*
X-122238Y444500D03*
X-20638Y444500D03*
D12*
X-33338Y419100D03*
X-96838Y393700D03*
D13*
X4813Y419100D03*
X-134988Y393700D03*
D10*
X-285750Y444500D03*
D11*
X-336550Y444500D03*
X-234950Y444500D03*
D12*
X-247650Y419100D03*
X-311150Y393700D03*
D13*
X-209500Y419100D03*
X-349300Y393700D03*
D10*
X-476250Y489125D03*
D11*
X-527050Y489125D03*
X-425450Y489125D03*
D12*
X-438150Y463725D03*
X-501650Y438325D03*
D13*
X-400000Y463725D03*
X-539800Y438325D03*
D10*
X-666750Y513938D03*
D11*
X-717550Y513938D03*
X-615950Y513938D03*
D12*
X-628650Y488538D03*
X-692150Y463138D03*
D13*
X-590500Y488538D03*
X-730300Y463138D03*
D10*
X-857250Y489125D03*
D11*
X-908050Y489125D03*
X-806450Y489125D03*
D12*
X-819150Y463725D03*
X-882650Y438325D03*
D13*
X-781000Y463725D03*
X-920800Y438325D03*
D10*
X-1047750Y469313D03*
D11*
X-1098550Y469313D03*
X-996950Y469313D03*
D12*
X-1009650Y443913D03*
X-1073150Y418513D03*
D13*
X-971500Y443913D03*
X-1111300Y418513D03*
D10*
X-1277620Y406083D03*
D11*
X-1321614Y380683D03*
X-1233626Y431483D03*
D12*
X-1231924Y403135D03*
X-1274217Y349388D03*
D13*
G36*
X-1216271Y424306D02*
X-1192009Y438314D01*
X-1181501Y420114D01*
X-1205763Y406106D01*
X-1216271Y424306D01*
G37*
G36*
X-1324641Y332409D02*
X-1300379Y346417D01*
X-1289871Y328217D01*
X-1314133Y314209D01*
X-1324641Y332409D01*
G37*
D10*
X-1441958Y310325D03*
D11*
X-1485952Y284925D03*
X-1397964Y335725D03*
D12*
X-1396262Y307377D03*
X-1438555Y253630D03*
D13*
G36*
X-1380609Y328548D02*
X-1356347Y342556D01*
X-1345839Y324356D01*
X-1370101Y310348D01*
X-1380609Y328548D01*
G37*
G36*
X-1488979Y236651D02*
X-1464717Y250659D01*
X-1454209Y232459D01*
X-1478471Y218451D01*
X-1488979Y236651D01*
G37*
D10*
X-95250Y254000D03*
D11*
X-146050Y254000D03*
X-44450Y254000D03*
D12*
X-57150Y228600D03*
X-120650Y203200D03*
D13*
X-19000Y228600D03*
X-158800Y203200D03*
D10*
X-285750Y254000D03*
D11*
X-336550Y254000D03*
X-234950Y254000D03*
D12*
X-247650Y228600D03*
X-311150Y203200D03*
D13*
X-209500Y228600D03*
X-349300Y203200D03*
D10*
X-476250Y298625D03*
D11*
X-527050Y298625D03*
X-425450Y298625D03*
D12*
X-438150Y273225D03*
X-501650Y247825D03*
D13*
X-400000Y273225D03*
X-539800Y247825D03*
D10*
X-666750Y323438D03*
D11*
X-717550Y323438D03*
X-615950Y323438D03*
D12*
X-628650Y298038D03*
X-692150Y272638D03*
D13*
X-590500Y298038D03*
X-730300Y272638D03*
D10*
X-920655Y266859D03*
D11*
X-969724Y253711D03*
X-871586Y280007D03*
D12*
X-877279Y252185D03*
X-932041Y211216D03*
D13*
G36*
X-856679Y268583D02*
X-829618Y275834D01*
X-824179Y255535D01*
X-851240Y248284D01*
X-856679Y268583D01*
G37*
G36*
X-985141Y207866D02*
X-958080Y215117D01*
X-952641Y194818D01*
X-979702Y187567D01*
X-985141Y207866D01*
G37*
D10*
X-1155700Y197168D03*
D11*
X-1199694Y171768D03*
X-1111706Y222568D03*
D12*
X-1110004Y194220D03*
X-1152297Y140473D03*
D13*
G36*
X-1094351Y215391D02*
X-1070089Y229399D01*
X-1059581Y211199D01*
X-1083843Y197191D01*
X-1094351Y215391D01*
G37*
G36*
X-1202721Y123494D02*
X-1178459Y137502D01*
X-1167951Y119302D01*
X-1192213Y105294D01*
X-1202721Y123494D01*
G37*
D10*
X-1322070Y101918D03*
D11*
X-1366064Y76518D03*
X-1278076Y127318D03*
D12*
X-1276374Y98970D03*
X-1318667Y45223D03*
D13*
G36*
X-1260721Y120141D02*
X-1236459Y134149D01*
X-1225951Y115949D01*
X-1250213Y101941D01*
X-1260721Y120141D01*
G37*
G36*
X-1369091Y28244D02*
X-1344829Y42252D01*
X-1334321Y24052D01*
X-1358583Y10044D01*
X-1369091Y28244D01*
G37*
D14*
X-135334Y921174D03*
X-168254Y921174D03*
X-730284Y995207D03*
X-697364Y995207D03*
X-539771Y971778D03*
X-506851Y971778D03*
X-920872Y968029D03*
X-887952Y968029D03*
X-1112055Y951569D03*
X-1079135Y951569D03*
X-349461Y927569D03*
X-316541Y927569D03*
X-135054Y734909D03*
X-167974Y734909D03*
X-349093Y738285D03*
X-316173Y738285D03*
X-539555Y783033D03*
X-506635Y783033D03*
X-730106Y803036D03*
X-697186Y803036D03*
X-920720Y777513D03*
X-887800Y777513D03*
X-1111157Y759228D03*
X-1078237Y759228D03*
X-1302460Y853250D03*
X-1269540Y853250D03*
X-134996Y541699D03*
X-102076Y541699D03*
X-349131Y547073D03*
X-316211Y547073D03*
X-539568Y593087D03*
X-506648Y593087D03*
X-730195Y614965D03*
X-697275Y614965D03*
X-920593Y590909D03*
X-887673Y590909D03*
X-1111118Y571433D03*
X-1078198Y571433D03*
X-1301598Y615874D03*
X-1268678Y615874D03*
X-134852Y350289D03*
X-101932Y350289D03*
X-349372Y351016D03*
X-316452Y351016D03*
X-539530Y398694D03*
X-506610Y398694D03*
X-730284Y421545D03*
X-697364Y421545D03*
X-920542Y397149D03*
X-887622Y397149D03*
X-1111228Y378138D03*
X-1078308Y378138D03*
X-1288410Y301158D03*
X-1255490Y301158D03*
X-1455485Y206582D03*
X-1422565Y206582D03*
X-158242Y176719D03*
X-191162Y176719D03*
X-384421Y202844D03*
X-384421Y235764D03*
X-572428Y269809D03*
X-572428Y236889D03*
X-767381Y272271D03*
X-767381Y239351D03*
X-1006471Y190548D03*
X-1006471Y157628D03*
X-1165913Y89702D03*
X-1132993Y89702D03*
X-1332248Y-2399D03*
X-1299328Y-2399D03*
D15*
X-298000Y1086000D03*
X-298000Y1091000D03*
X-298000Y1096000D03*
X-298000Y1101000D03*
X-298000Y1106000D03*
X-298000Y1111000D03*
X-298000Y1116000D03*
X-298000Y1121000D03*
X-298000Y1126000D03*
D16*
X-288000Y1136000D03*
X-283000Y1136000D03*
X-278000Y1136000D03*
X-273000Y1136000D03*
X-268000Y1136000D03*
X-263000Y1136000D03*
X-258000Y1136000D03*
X-253000Y1136000D03*
X-248000Y1136000D03*
D15*
X-238000Y1126000D03*
X-238000Y1121000D03*
X-238000Y1116000D03*
X-238000Y1111000D03*
X-238000Y1106000D03*
X-238000Y1101000D03*
X-238000Y1096000D03*
X-238000Y1091000D03*
X-238000Y1086000D03*
D16*
X-248000Y1076000D03*
X-253000Y1076000D03*
X-258000Y1076000D03*
X-263000Y1076000D03*
X-268000Y1076000D03*
X-273000Y1076000D03*
X-278000Y1076000D03*
X-283000Y1076000D03*
X-288000Y1076000D03*
D17*
X-268000Y1106000D03*
D18*
X-190000Y1154000D03*
X-196500Y1154000D03*
X-183500Y1154000D03*
X-177000Y1154000D03*
X-203000Y1154000D03*
D19*
X-215000Y1159000D03*
X-165000Y1159000D03*
D20*
X-219500Y1182000D03*
X-160500Y1182000D03*
D21*
X-125500Y1114500D03*
X-110500Y1114500D03*
X-95500Y1114500D03*
D22*
X-110500Y1083500D03*
D23*
X-190000Y1129000D03*
X-177000Y1129000D03*
D24*
X-154850Y1110800D03*
X-154850Y1080800D03*
D23*
X-838500Y1120000D03*
X-851500Y1120000D03*
X-1219500Y1006000D03*
X-1232500Y1006000D03*
X-304500Y868000D03*
X-291500Y868000D03*
X-685500Y937000D03*
X-672500Y937000D03*
X-1065500Y892000D03*
X-1052500Y892000D03*
X-53000Y695000D03*
X-66000Y695000D03*
X-457500Y740000D03*
X-470500Y740000D03*
X-838500Y740000D03*
X-851500Y740000D03*
X-89500Y486000D03*
X-76500Y486000D03*
X-494500Y531000D03*
X-481500Y531000D03*
D25*
X-361800Y1105475D03*
X-337788Y1105475D03*
X-337788Y1086525D03*
X-361800Y1086525D03*
D23*
X-337500Y1074000D03*
X-350500Y1074000D03*
D26*
X-378000Y1105500D03*
X-378000Y1092500D03*
D22*
X-1136700Y1153400D03*
D27*
X-1136700Y1114400D03*
X-1136700Y1064400D03*
D22*
X-1208700Y1153400D03*
X-1208700Y1081400D03*
D28*
X-1208700Y1059400D03*
D29*
X-1174000Y1081000D03*
X-1174000Y1151000D03*
D30*
X-95500Y1143250D03*
X-125500Y1143250D03*
D23*
X-350500Y1042000D03*
X-337500Y1042000D03*
X-350500Y1054000D03*
X-337500Y1054000D03*
X-875500Y531000D03*
X-862500Y531000D03*
X-1293500Y471500D03*
X-1306500Y471500D03*
X-76500Y314000D03*
X-89500Y314000D03*
X-457500Y358000D03*
X-470500Y358000D03*
X-920500Y331500D03*
X-933500Y331500D03*
X-1337500Y175000D03*
X-1350500Y175000D03*
X-338500Y1129000D03*
X-351500Y1129000D03*
D31*
X-231000Y1059500D03*
X-205000Y1090500D03*
D23*
X-338500Y1117500D03*
X-351500Y1117500D03*
M02*
