G04 EAGLE Gerber RS-274X export*
G75*
%MOMM*%
%FSLAX34Y34*%
%LPD*%
%AMOC8*
5,1,8,0,0,1.08239X$1,22.5*%
G01*
%ADD10C,4.102000*%
%ADD11C,1.801600*%
%ADD12C,3.101600*%
%ADD13R,2.101600X0.951600*%
%ADD14R,1.401600X0.951600*%
%ADD15R,1.201600X0.951600*%
%ADD16R,2.301600X0.951600*%
%ADD17C,1.301600*%


D10*
X-71438Y1016000D03*
D11*
X-122238Y1016000D03*
X-20638Y1016000D03*
D12*
X-33338Y990600D03*
X-96838Y965200D03*
D10*
X-666750Y1085438D03*
D11*
X-717550Y1085438D03*
X-615950Y1085438D03*
D12*
X-628650Y1060038D03*
X-692150Y1034638D03*
D10*
X-476250Y1060625D03*
D11*
X-527050Y1060625D03*
X-425450Y1060625D03*
D12*
X-438150Y1035225D03*
X-501650Y1009825D03*
D10*
X-857250Y1060625D03*
D11*
X-908050Y1060625D03*
X-806450Y1060625D03*
D12*
X-819150Y1035225D03*
X-882650Y1009825D03*
D10*
X-1047750Y1040813D03*
D11*
X-1098550Y1040813D03*
X-996950Y1040813D03*
D12*
X-1009650Y1015413D03*
X-1073150Y990013D03*
D10*
X-285750Y1016000D03*
D11*
X-336550Y1016000D03*
X-234950Y1016000D03*
D12*
X-247650Y990600D03*
X-311150Y965200D03*
D10*
X-1238250Y946563D03*
D11*
X-1289050Y946563D03*
X-1187450Y946563D03*
D12*
X-1200150Y921163D03*
X-1263650Y895763D03*
D10*
X-71438Y825500D03*
D11*
X-122238Y825500D03*
X-20638Y825500D03*
D12*
X-33338Y800100D03*
X-96838Y774700D03*
D10*
X-285750Y825500D03*
D11*
X-336550Y825500D03*
X-234950Y825500D03*
D12*
X-247650Y800100D03*
X-311150Y774700D03*
D10*
X-476250Y870125D03*
D11*
X-527050Y870125D03*
X-425450Y870125D03*
D12*
X-438150Y844725D03*
X-501650Y819325D03*
D10*
X-666750Y894938D03*
D11*
X-717550Y894938D03*
X-615950Y894938D03*
D12*
X-628650Y869538D03*
X-692150Y844138D03*
D10*
X-857250Y870125D03*
D11*
X-908050Y870125D03*
X-806450Y870125D03*
D12*
X-819150Y844725D03*
X-882650Y819325D03*
D10*
X-1047750Y850313D03*
D11*
X-1098550Y850313D03*
X-996950Y850313D03*
D12*
X-1009650Y824913D03*
X-1073150Y799513D03*
D10*
X-1238250Y704533D03*
D11*
X-1289050Y704533D03*
X-1187450Y704533D03*
D12*
X-1200150Y679133D03*
X-1263650Y653733D03*
D10*
X-71438Y635000D03*
D11*
X-122238Y635000D03*
X-20638Y635000D03*
D12*
X-33338Y609600D03*
X-96838Y584200D03*
D10*
X-285750Y635000D03*
D11*
X-336550Y635000D03*
X-234950Y635000D03*
D12*
X-247650Y609600D03*
X-311150Y584200D03*
D10*
X-476250Y679625D03*
D11*
X-527050Y679625D03*
X-425450Y679625D03*
D12*
X-438150Y654225D03*
X-501650Y628825D03*
D10*
X-666750Y704438D03*
D11*
X-717550Y704438D03*
X-615950Y704438D03*
D12*
X-628650Y679038D03*
X-692150Y653638D03*
D10*
X-857250Y679625D03*
D11*
X-908050Y679625D03*
X-806450Y679625D03*
D12*
X-819150Y654225D03*
X-882650Y628825D03*
D10*
X-1047750Y659813D03*
D11*
X-1098550Y659813D03*
X-996950Y659813D03*
D12*
X-1009650Y634413D03*
X-1073150Y609013D03*
D10*
X-71438Y444500D03*
D11*
X-122238Y444500D03*
X-20638Y444500D03*
D12*
X-33338Y419100D03*
X-96838Y393700D03*
D10*
X-285750Y444500D03*
D11*
X-336550Y444500D03*
X-234950Y444500D03*
D12*
X-247650Y419100D03*
X-311150Y393700D03*
D10*
X-476250Y489125D03*
D11*
X-527050Y489125D03*
X-425450Y489125D03*
D12*
X-438150Y463725D03*
X-501650Y438325D03*
D10*
X-666750Y513938D03*
D11*
X-717550Y513938D03*
X-615950Y513938D03*
D12*
X-628650Y488538D03*
X-692150Y463138D03*
D10*
X-857250Y489125D03*
D11*
X-908050Y489125D03*
X-806450Y489125D03*
D12*
X-819150Y463725D03*
X-882650Y438325D03*
D10*
X-1047750Y469313D03*
D11*
X-1098550Y469313D03*
X-996950Y469313D03*
D12*
X-1009650Y443913D03*
X-1073150Y418513D03*
D10*
X-1277620Y406083D03*
D11*
X-1321614Y380683D03*
X-1233626Y431483D03*
D12*
X-1231924Y403135D03*
X-1274217Y349388D03*
D10*
X-1441958Y310325D03*
D11*
X-1485952Y284925D03*
X-1397964Y335725D03*
D12*
X-1396262Y307377D03*
X-1438555Y253630D03*
D10*
X-95250Y254000D03*
D11*
X-146050Y254000D03*
X-44450Y254000D03*
D12*
X-57150Y228600D03*
X-120650Y203200D03*
D10*
X-285750Y254000D03*
D11*
X-336550Y254000D03*
X-234950Y254000D03*
D12*
X-247650Y228600D03*
X-311150Y203200D03*
D10*
X-476250Y298625D03*
D11*
X-527050Y298625D03*
X-425450Y298625D03*
D12*
X-438150Y273225D03*
X-501650Y247825D03*
D10*
X-666750Y323438D03*
D11*
X-717550Y323438D03*
X-615950Y323438D03*
D12*
X-628650Y298038D03*
X-692150Y272638D03*
D10*
X-920655Y266859D03*
D11*
X-969724Y253711D03*
X-871586Y280007D03*
D12*
X-877279Y252185D03*
X-932041Y211216D03*
D10*
X-1155700Y197168D03*
D11*
X-1199694Y171768D03*
X-1111706Y222568D03*
D12*
X-1110004Y194220D03*
X-1152297Y140473D03*
D10*
X-1322070Y101918D03*
D11*
X-1366064Y76518D03*
X-1278076Y127318D03*
D12*
X-1276374Y98970D03*
X-1318667Y45223D03*
D13*
X-59934Y1075795D03*
D14*
X-86434Y1075795D03*
D15*
X-55434Y1058295D03*
D16*
X-81934Y1058295D03*
D13*
X-274250Y1075800D03*
D14*
X-300750Y1075800D03*
D15*
X-269750Y1058300D03*
D16*
X-296250Y1058300D03*
D13*
X-464750Y1120425D03*
D14*
X-491250Y1120425D03*
D15*
X-460250Y1102925D03*
D16*
X-486750Y1102925D03*
D13*
X-655250Y1145238D03*
D14*
X-681750Y1145238D03*
D15*
X-650750Y1127738D03*
D16*
X-677250Y1127738D03*
D13*
X-845750Y1120425D03*
D14*
X-872250Y1120425D03*
D15*
X-841250Y1102925D03*
D16*
X-867750Y1102925D03*
D13*
X-1036250Y1100613D03*
D14*
X-1062750Y1100613D03*
D15*
X-1031750Y1083113D03*
D16*
X-1058250Y1083113D03*
D13*
X-1226750Y1006363D03*
D14*
X-1253250Y1006363D03*
D15*
X-1222250Y988863D03*
D16*
X-1248750Y988863D03*
D13*
X-1249750Y746333D03*
D14*
X-1223250Y746333D03*
D15*
X-1254250Y763833D03*
D16*
X-1227750Y763833D03*
D13*
X-1059250Y892113D03*
D14*
X-1032750Y892113D03*
D15*
X-1063750Y909613D03*
D16*
X-1037250Y909613D03*
D13*
X-868750Y911925D03*
D14*
X-842250Y911925D03*
D15*
X-873250Y929425D03*
D16*
X-846750Y929425D03*
D13*
X-678250Y936738D03*
D14*
X-651750Y936738D03*
D15*
X-682750Y954238D03*
D16*
X-656250Y954238D03*
D13*
X-487750Y911925D03*
D14*
X-461250Y911925D03*
D15*
X-492250Y929425D03*
D16*
X-465750Y929425D03*
D13*
X-297250Y867300D03*
D14*
X-270750Y867300D03*
D15*
X-301750Y884800D03*
D16*
X-275250Y884800D03*
D13*
X-82938Y867300D03*
D14*
X-56438Y867300D03*
D15*
X-87438Y884800D03*
D16*
X-60938Y884800D03*
D13*
X-59938Y694800D03*
D14*
X-86438Y694800D03*
D15*
X-55438Y677300D03*
D16*
X-81938Y677300D03*
D13*
X-274250Y694800D03*
D14*
X-300750Y694800D03*
D15*
X-269750Y677300D03*
D16*
X-296250Y677300D03*
D13*
X-464750Y739425D03*
D14*
X-491250Y739425D03*
D15*
X-460250Y721925D03*
D16*
X-486750Y721925D03*
D13*
X-655250Y764238D03*
D14*
X-681750Y764238D03*
D15*
X-650750Y746738D03*
D16*
X-677250Y746738D03*
D13*
X-845750Y739425D03*
D14*
X-872250Y739425D03*
D15*
X-841250Y721925D03*
D16*
X-867750Y721925D03*
D13*
X-1036250Y719613D03*
D14*
X-1062750Y719613D03*
D15*
X-1031750Y702113D03*
D16*
X-1058250Y702113D03*
D13*
G36*
X-1286082Y464765D02*
X-1304282Y454258D01*
X-1309040Y462499D01*
X-1290840Y473006D01*
X-1286082Y464765D01*
G37*
D14*
G36*
X-1312062Y449766D02*
X-1324200Y442758D01*
X-1328958Y450998D01*
X-1316820Y458006D01*
X-1312062Y449766D01*
G37*
D15*
G36*
X-1277332Y449611D02*
X-1287738Y443603D01*
X-1292496Y451843D01*
X-1282090Y457851D01*
X-1277332Y449611D01*
G37*
D16*
G36*
X-1295518Y439110D02*
X-1315450Y427603D01*
X-1320208Y435844D01*
X-1300276Y447351D01*
X-1295518Y439110D01*
G37*
D13*
G36*
X-1450420Y368995D02*
X-1468620Y358488D01*
X-1473378Y366729D01*
X-1455178Y377236D01*
X-1450420Y368995D01*
G37*
D14*
G36*
X-1476400Y353996D02*
X-1488538Y346988D01*
X-1493296Y355228D01*
X-1481158Y362236D01*
X-1476400Y353996D01*
G37*
D15*
G36*
X-1441670Y353840D02*
X-1452076Y347832D01*
X-1456834Y356072D01*
X-1446428Y362080D01*
X-1441670Y353840D01*
G37*
D16*
G36*
X-1459856Y343339D02*
X-1479788Y331832D01*
X-1484546Y340073D01*
X-1464614Y351580D01*
X-1459856Y343339D01*
G37*
D13*
X-1059250Y511113D03*
D14*
X-1032750Y511113D03*
D15*
X-1063750Y528613D03*
D16*
X-1037250Y528613D03*
D13*
X-868750Y530925D03*
D14*
X-842250Y530925D03*
D15*
X-873250Y548425D03*
D16*
X-846750Y548425D03*
D13*
X-678250Y555738D03*
D14*
X-651750Y555738D03*
D15*
X-682750Y573238D03*
D16*
X-656250Y573238D03*
D13*
X-487750Y530925D03*
D14*
X-461250Y530925D03*
D15*
X-492250Y548425D03*
D16*
X-465750Y548425D03*
D13*
X-297250Y486300D03*
D14*
X-270750Y486300D03*
D15*
X-301750Y503800D03*
D16*
X-275250Y503800D03*
D13*
X-82938Y486300D03*
D14*
X-56438Y486300D03*
D15*
X-87438Y503800D03*
D16*
X-60938Y503800D03*
D13*
X-83750Y313800D03*
D14*
X-110250Y313800D03*
D15*
X-79250Y296300D03*
D16*
X-105750Y296300D03*
D13*
X-274250Y313800D03*
D14*
X-300750Y313800D03*
D15*
X-269750Y296300D03*
D16*
X-296250Y296300D03*
D13*
X-464750Y358425D03*
D14*
X-491250Y358425D03*
D15*
X-460250Y340925D03*
D16*
X-486750Y340925D03*
D13*
X-655250Y383238D03*
D14*
X-681750Y383238D03*
D15*
X-650750Y365738D03*
D16*
X-677250Y365738D03*
D13*
G36*
X-913646Y325719D02*
X-933945Y320280D01*
X-936408Y329471D01*
X-916109Y334910D01*
X-913646Y325719D01*
G37*
D14*
G36*
X-942624Y317954D02*
X-956161Y314327D01*
X-958624Y323518D01*
X-945087Y327145D01*
X-942624Y317954D01*
G37*
D15*
G36*
X-909117Y308816D02*
X-920722Y305706D01*
X-923185Y314896D01*
X-911580Y318006D01*
X-909117Y308816D01*
G37*
D16*
G36*
X-929401Y303380D02*
X-951632Y297423D01*
X-954095Y306614D01*
X-931864Y312571D01*
X-929401Y303380D01*
G37*
D13*
G36*
X-1164162Y255838D02*
X-1182362Y245331D01*
X-1187120Y253572D01*
X-1168920Y264079D01*
X-1164162Y255838D01*
G37*
D14*
G36*
X-1190142Y240839D02*
X-1202280Y233831D01*
X-1207038Y242071D01*
X-1194900Y249079D01*
X-1190142Y240839D01*
G37*
D15*
G36*
X-1155412Y240683D02*
X-1165818Y234675D01*
X-1170576Y242915D01*
X-1160170Y248923D01*
X-1155412Y240683D01*
G37*
D16*
G36*
X-1173598Y230182D02*
X-1193530Y218675D01*
X-1198288Y226916D01*
X-1178356Y238423D01*
X-1173598Y230182D01*
G37*
D13*
G36*
X-1330532Y160588D02*
X-1348732Y150081D01*
X-1353490Y158322D01*
X-1335290Y168829D01*
X-1330532Y160588D01*
G37*
D14*
G36*
X-1356512Y145589D02*
X-1368650Y138581D01*
X-1373408Y146821D01*
X-1361270Y153829D01*
X-1356512Y145589D01*
G37*
D15*
G36*
X-1321782Y145433D02*
X-1332188Y139425D01*
X-1336946Y147665D01*
X-1326540Y153673D01*
X-1321782Y145433D01*
G37*
D16*
G36*
X-1339968Y134932D02*
X-1359900Y123425D01*
X-1364658Y131666D01*
X-1344726Y143173D01*
X-1339968Y134932D01*
G37*
D17*
X-1174000Y1081000D03*
X-1174000Y1151000D03*
M02*
